M48
;DRILL file {KiCad (5.0.1)-4} date 2/17/2019 8:46:46 PM
;FORMAT={-:-/ absolute / inch / decimal}
FMAT,2
INCH,TZ
T1C0.0157
T2C0.0350
T3C0.0394
T4C0.0450
T5C0.0810
%
G90
G05
M72
T1
X0.842Y-1.386
X0.912Y-1.42
X1.034Y-1.004
X1.048Y-1.648
X1.088Y-1.736
X1.132Y-1.766
X1.134Y-1.494
X1.194Y-1.89
X1.214Y-1.624
X1.214Y-1.774
X1.2161Y-1.7347
X1.224Y-1.526
X1.334Y-1.418
X1.338Y-1.304
X1.374Y-1.64
X1.532Y-1.8255
X1.976Y-1.77
X1.998Y-1.124
X2.078Y-1.134
X2.252Y-1.68
X2.31Y-1.29
X2.348Y-1.616
X2.4Y-1.81
X2.4054Y-0.9094
X2.41Y-1.87
X2.412Y-1.006
X2.5176Y-1.8476
X2.5615Y-1.59
X2.602Y-1.652
X2.63Y-1.864
X2.668Y-1.086
X2.746Y-1.65
X2.762Y-1.82
X2.789Y-1.677
X2.8285Y-1.7981
X2.84Y-1.4735
X2.844Y-1.6928
X2.8713Y-1.8533
X2.874Y-1.63
X2.888Y-1.432
X2.922Y-1.056
X2.934Y-1.654
X2.978Y-1.884
X2.9868Y-1.7088
T2
X1.341Y-1.489
X1.541Y-1.3221
X1.641Y-1.3221
X1.741Y-1.3221
X1.741Y-1.489
X0.941Y-1.3221
X1.041Y-1.3221
X1.141Y-1.3221
X0.941Y-1.489
T3
X1.341Y-0.932
X1.341Y-1.032
X1.341Y-1.132
X1.038Y-1.422
X1.138Y-1.422
X1.238Y-1.422
X2.178Y-1.422
X2.278Y-1.422
X2.378Y-1.422
X2.614Y-0.932
X2.614Y-1.032
X2.614Y-1.132
X2.478Y-0.932
X2.478Y-1.032
X2.478Y-1.132
X2.582Y-1.422
X2.682Y-1.422
X2.782Y-1.422
X1.442Y-1.422
X1.542Y-1.422
X1.642Y-1.422
T4
X1.341Y-1.584
X1.341Y-1.921
X0.941Y-1.584
X0.941Y-1.921
X1.741Y-1.584
X1.741Y-1.921
T5
X0.868Y-1.0461
X1.214Y-1.0461
X1.468Y-1.0461
X1.814Y-1.0461
T0
M30
