G04 #@! TF.GenerationSoftware,KiCad,Pcbnew,(5.0.1)-4*
G04 #@! TF.CreationDate,2019-02-17T11:16:12+01:00*
G04 #@! TF.ProjectId,1U Rim,31552052696D2E6B696361645F706362,rev?*
G04 #@! TF.SameCoordinates,Original*
G04 #@! TF.FileFunction,Soldermask,Top*
G04 #@! TF.FilePolarity,Negative*
%FSLAX46Y46*%
G04 Gerber Fmt 4.6, Leading zero omitted, Abs format (unit mm)*
G04 Created by KiCad (PCBNEW (5.0.1)-4) date 2/17/2019 11:16:12 AM*
%MOMM*%
%LPD*%
G01*
G04 APERTURE LIST*
%ADD10C,0.100000*%
G04 APERTURE END LIST*
D10*
G36*
X30364930Y-48606877D02*
X30416410Y-48622493D01*
X30463842Y-48647846D01*
X30505427Y-48681973D01*
X30539554Y-48723558D01*
X30564907Y-48770990D01*
X30580523Y-48822470D01*
X30586400Y-48882140D01*
X30586400Y-49669860D01*
X30580523Y-49729530D01*
X30564907Y-49781010D01*
X30539554Y-49828442D01*
X30505427Y-49870027D01*
X30463842Y-49904154D01*
X30416410Y-49929507D01*
X30364930Y-49945123D01*
X30305260Y-49951000D01*
X29417540Y-49951000D01*
X29357870Y-49945123D01*
X29306390Y-49929507D01*
X29258958Y-49904154D01*
X29217373Y-49870027D01*
X29183246Y-49828442D01*
X29157893Y-49781010D01*
X29142277Y-49729530D01*
X29136400Y-49669860D01*
X29136400Y-48882140D01*
X29142277Y-48822470D01*
X29157893Y-48770990D01*
X29183246Y-48723558D01*
X29217373Y-48681973D01*
X29258958Y-48647846D01*
X29306390Y-48622493D01*
X29357870Y-48606877D01*
X29417540Y-48601000D01*
X30305260Y-48601000D01*
X30364930Y-48606877D01*
X30364930Y-48606877D01*
G37*
G36*
X28614930Y-48606877D02*
X28666410Y-48622493D01*
X28713842Y-48647846D01*
X28755427Y-48681973D01*
X28789554Y-48723558D01*
X28814907Y-48770990D01*
X28830523Y-48822470D01*
X28836400Y-48882140D01*
X28836400Y-49669860D01*
X28830523Y-49729530D01*
X28814907Y-49781010D01*
X28789554Y-49828442D01*
X28755427Y-49870027D01*
X28713842Y-49904154D01*
X28666410Y-49929507D01*
X28614930Y-49945123D01*
X28555260Y-49951000D01*
X27667540Y-49951000D01*
X27607870Y-49945123D01*
X27556390Y-49929507D01*
X27508958Y-49904154D01*
X27467373Y-49870027D01*
X27433246Y-49828442D01*
X27407893Y-49781010D01*
X27392277Y-49729530D01*
X27386400Y-49669860D01*
X27386400Y-48882140D01*
X27392277Y-48822470D01*
X27407893Y-48770990D01*
X27433246Y-48723558D01*
X27467373Y-48681973D01*
X27508958Y-48647846D01*
X27556390Y-48622493D01*
X27607870Y-48606877D01*
X27667540Y-48601000D01*
X28555260Y-48601000D01*
X28614930Y-48606877D01*
X28614930Y-48606877D01*
G37*
G36*
X44539983Y-47743172D02*
X44738750Y-47825504D01*
X44917639Y-47945034D01*
X45069766Y-48097161D01*
X45189296Y-48276050D01*
X45271628Y-48474817D01*
X45313600Y-48685826D01*
X45313600Y-48900974D01*
X45271628Y-49111983D01*
X45189296Y-49310750D01*
X45069766Y-49489639D01*
X44917639Y-49641766D01*
X44738750Y-49761296D01*
X44539983Y-49843628D01*
X44328974Y-49885600D01*
X44113826Y-49885600D01*
X43902817Y-49843628D01*
X43704050Y-49761296D01*
X43525161Y-49641766D01*
X43373034Y-49489639D01*
X43253504Y-49310750D01*
X43171172Y-49111983D01*
X43129200Y-48900974D01*
X43129200Y-48685826D01*
X43171172Y-48474817D01*
X43253504Y-48276050D01*
X43373034Y-48097161D01*
X43525161Y-47945034D01*
X43704050Y-47825504D01*
X43902817Y-47743172D01*
X44113826Y-47701200D01*
X44328974Y-47701200D01*
X44539983Y-47743172D01*
X44539983Y-47743172D01*
G37*
G36*
X24219983Y-47743172D02*
X24418750Y-47825504D01*
X24597639Y-47945034D01*
X24749766Y-48097161D01*
X24869296Y-48276050D01*
X24951628Y-48474817D01*
X24993600Y-48685826D01*
X24993600Y-48900974D01*
X24951628Y-49111983D01*
X24869296Y-49310750D01*
X24749766Y-49489639D01*
X24597639Y-49641766D01*
X24418750Y-49761296D01*
X24219983Y-49843628D01*
X24008974Y-49885600D01*
X23793826Y-49885600D01*
X23582817Y-49843628D01*
X23384050Y-49761296D01*
X23205161Y-49641766D01*
X23053034Y-49489639D01*
X22933504Y-49310750D01*
X22851172Y-49111983D01*
X22809200Y-48900974D01*
X22809200Y-48685826D01*
X22851172Y-48474817D01*
X22933504Y-48276050D01*
X23053034Y-48097161D01*
X23205161Y-47945034D01*
X23384050Y-47825504D01*
X23582817Y-47743172D01*
X23793826Y-47701200D01*
X24008974Y-47701200D01*
X24219983Y-47743172D01*
X24219983Y-47743172D01*
G37*
G36*
X34379983Y-47743172D02*
X34578750Y-47825504D01*
X34757639Y-47945034D01*
X34909766Y-48097161D01*
X35029296Y-48276050D01*
X35111628Y-48474817D01*
X35153600Y-48685826D01*
X35153600Y-48900974D01*
X35111628Y-49111983D01*
X35029296Y-49310750D01*
X34909766Y-49489639D01*
X34757639Y-49641766D01*
X34578750Y-49761296D01*
X34379983Y-49843628D01*
X34168974Y-49885600D01*
X33953826Y-49885600D01*
X33742817Y-49843628D01*
X33544050Y-49761296D01*
X33365161Y-49641766D01*
X33213034Y-49489639D01*
X33093504Y-49310750D01*
X33011172Y-49111983D01*
X32969200Y-48900974D01*
X32969200Y-48685826D01*
X33011172Y-48474817D01*
X33093504Y-48276050D01*
X33213034Y-48097161D01*
X33365161Y-47945034D01*
X33544050Y-47825504D01*
X33742817Y-47743172D01*
X33953826Y-47701200D01*
X34168974Y-47701200D01*
X34379983Y-47743172D01*
X34379983Y-47743172D01*
G37*
G36*
X58851530Y-48261710D02*
X58901379Y-48276831D01*
X58947311Y-48301382D01*
X58987574Y-48334426D01*
X59020618Y-48374689D01*
X59045169Y-48420621D01*
X59060290Y-48470470D01*
X59066000Y-48528444D01*
X59066000Y-49533556D01*
X59060290Y-49591530D01*
X59045169Y-49641379D01*
X59020618Y-49687311D01*
X58987574Y-49727574D01*
X58947311Y-49760618D01*
X58901379Y-49785169D01*
X58851530Y-49800290D01*
X58793556Y-49806000D01*
X57538444Y-49806000D01*
X57480470Y-49800290D01*
X57430621Y-49785169D01*
X57384689Y-49760618D01*
X57344426Y-49727574D01*
X57311382Y-49687311D01*
X57286831Y-49641379D01*
X57271710Y-49591530D01*
X57266000Y-49533556D01*
X57266000Y-48528444D01*
X57271710Y-48470470D01*
X57286831Y-48420621D01*
X57311382Y-48374689D01*
X57344426Y-48334426D01*
X57384689Y-48301382D01*
X57430621Y-48276831D01*
X57480470Y-48261710D01*
X57538444Y-48256000D01*
X58793556Y-48256000D01*
X58851530Y-48261710D01*
X58851530Y-48261710D01*
G37*
G36*
X62606530Y-48403677D02*
X62658010Y-48419293D01*
X62705442Y-48444646D01*
X62747027Y-48478773D01*
X62781154Y-48520358D01*
X62806507Y-48567790D01*
X62822123Y-48619270D01*
X62828000Y-48678940D01*
X62828000Y-49466660D01*
X62822123Y-49526330D01*
X62806507Y-49577810D01*
X62781154Y-49625242D01*
X62747027Y-49666827D01*
X62705442Y-49700954D01*
X62658010Y-49726307D01*
X62606530Y-49741923D01*
X62546860Y-49747800D01*
X61659140Y-49747800D01*
X61599470Y-49741923D01*
X61547990Y-49726307D01*
X61500558Y-49700954D01*
X61458973Y-49666827D01*
X61424846Y-49625242D01*
X61399493Y-49577810D01*
X61383877Y-49526330D01*
X61378000Y-49466660D01*
X61378000Y-48678940D01*
X61383877Y-48619270D01*
X61399493Y-48567790D01*
X61424846Y-48520358D01*
X61458973Y-48478773D01*
X61500558Y-48444646D01*
X61547990Y-48419293D01*
X61599470Y-48403677D01*
X61659140Y-48397800D01*
X62546860Y-48397800D01*
X62606530Y-48403677D01*
X62606530Y-48403677D01*
G37*
G36*
X64356530Y-48403677D02*
X64408010Y-48419293D01*
X64455442Y-48444646D01*
X64497027Y-48478773D01*
X64531154Y-48520358D01*
X64556507Y-48567790D01*
X64572123Y-48619270D01*
X64578000Y-48678940D01*
X64578000Y-49466660D01*
X64572123Y-49526330D01*
X64556507Y-49577810D01*
X64531154Y-49625242D01*
X64497027Y-49666827D01*
X64455442Y-49700954D01*
X64408010Y-49726307D01*
X64356530Y-49741923D01*
X64296860Y-49747800D01*
X63409140Y-49747800D01*
X63349470Y-49741923D01*
X63297990Y-49726307D01*
X63250558Y-49700954D01*
X63208973Y-49666827D01*
X63174846Y-49625242D01*
X63149493Y-49577810D01*
X63133877Y-49526330D01*
X63128000Y-49466660D01*
X63128000Y-48678940D01*
X63133877Y-48619270D01*
X63149493Y-48567790D01*
X63174846Y-48520358D01*
X63208973Y-48478773D01*
X63250558Y-48444646D01*
X63297990Y-48419293D01*
X63349470Y-48403677D01*
X63409140Y-48397800D01*
X64296860Y-48397800D01*
X64356530Y-48403677D01*
X64356530Y-48403677D01*
G37*
G36*
X60651530Y-48302877D02*
X60703010Y-48318493D01*
X60750442Y-48343846D01*
X60792027Y-48377973D01*
X60826154Y-48419558D01*
X60851507Y-48466990D01*
X60867123Y-48518470D01*
X60873000Y-48578140D01*
X60873000Y-49465860D01*
X60867123Y-49525530D01*
X60851507Y-49577010D01*
X60826154Y-49624442D01*
X60792027Y-49666027D01*
X60750442Y-49700154D01*
X60703010Y-49725507D01*
X60651530Y-49741123D01*
X60591860Y-49747000D01*
X59804140Y-49747000D01*
X59744470Y-49741123D01*
X59692990Y-49725507D01*
X59645558Y-49700154D01*
X59603973Y-49666027D01*
X59569846Y-49624442D01*
X59544493Y-49577010D01*
X59528877Y-49525530D01*
X59523000Y-49465860D01*
X59523000Y-48578140D01*
X59528877Y-48518470D01*
X59544493Y-48466990D01*
X59569846Y-48419558D01*
X59603973Y-48377973D01*
X59645558Y-48343846D01*
X59692990Y-48318493D01*
X59744470Y-48302877D01*
X59804140Y-48297000D01*
X60591860Y-48297000D01*
X60651530Y-48302877D01*
X60651530Y-48302877D01*
G37*
G36*
X66702130Y-47924510D02*
X66751979Y-47939631D01*
X66797911Y-47964182D01*
X66838174Y-47997226D01*
X66871218Y-48037489D01*
X66895769Y-48083421D01*
X66910890Y-48133270D01*
X66916600Y-48191244D01*
X66916600Y-49446356D01*
X66910890Y-49504330D01*
X66895769Y-49554179D01*
X66871218Y-49600111D01*
X66838174Y-49640374D01*
X66797911Y-49673418D01*
X66751979Y-49697969D01*
X66702130Y-49713090D01*
X66644156Y-49718800D01*
X65639044Y-49718800D01*
X65581070Y-49713090D01*
X65531221Y-49697969D01*
X65485289Y-49673418D01*
X65445026Y-49640374D01*
X65411982Y-49600111D01*
X65387431Y-49554179D01*
X65372310Y-49504330D01*
X65366600Y-49446356D01*
X65366600Y-48191244D01*
X65372310Y-48133270D01*
X65387431Y-48083421D01*
X65411982Y-48037489D01*
X65445026Y-47997226D01*
X65485289Y-47964182D01*
X65531221Y-47939631D01*
X65581070Y-47924510D01*
X65639044Y-47918800D01*
X66644156Y-47918800D01*
X66702130Y-47924510D01*
X66702130Y-47924510D01*
G37*
G36*
X68752130Y-47924510D02*
X68801979Y-47939631D01*
X68847911Y-47964182D01*
X68888174Y-47997226D01*
X68921218Y-48037489D01*
X68945769Y-48083421D01*
X68960890Y-48133270D01*
X68966600Y-48191244D01*
X68966600Y-49446356D01*
X68960890Y-49504330D01*
X68945769Y-49554179D01*
X68921218Y-49600111D01*
X68888174Y-49640374D01*
X68847911Y-49673418D01*
X68801979Y-49697969D01*
X68752130Y-49713090D01*
X68694156Y-49718800D01*
X67689044Y-49718800D01*
X67631070Y-49713090D01*
X67581221Y-49697969D01*
X67535289Y-49673418D01*
X67495026Y-49640374D01*
X67461982Y-49600111D01*
X67437431Y-49554179D01*
X67422310Y-49504330D01*
X67416600Y-49446356D01*
X67416600Y-48191244D01*
X67422310Y-48133270D01*
X67437431Y-48083421D01*
X67461982Y-48037489D01*
X67495026Y-47997226D01*
X67535289Y-47964182D01*
X67581221Y-47939631D01*
X67631070Y-47924510D01*
X67689044Y-47918800D01*
X68694156Y-47918800D01*
X68752130Y-47924510D01*
X68752130Y-47924510D01*
G37*
G36*
X72765330Y-47924510D02*
X72815179Y-47939631D01*
X72861111Y-47964182D01*
X72901374Y-47997226D01*
X72934418Y-48037489D01*
X72958969Y-48083421D01*
X72974090Y-48133270D01*
X72979800Y-48191244D01*
X72979800Y-49446356D01*
X72974090Y-49504330D01*
X72958969Y-49554179D01*
X72934418Y-49600111D01*
X72901374Y-49640374D01*
X72861111Y-49673418D01*
X72815179Y-49697969D01*
X72765330Y-49713090D01*
X72707356Y-49718800D01*
X71702244Y-49718800D01*
X71644270Y-49713090D01*
X71594421Y-49697969D01*
X71548489Y-49673418D01*
X71508226Y-49640374D01*
X71475182Y-49600111D01*
X71450631Y-49554179D01*
X71435510Y-49504330D01*
X71429800Y-49446356D01*
X71429800Y-48191244D01*
X71435510Y-48133270D01*
X71450631Y-48083421D01*
X71475182Y-48037489D01*
X71508226Y-47997226D01*
X71548489Y-47964182D01*
X71594421Y-47939631D01*
X71644270Y-47924510D01*
X71702244Y-47918800D01*
X72707356Y-47918800D01*
X72765330Y-47924510D01*
X72765330Y-47924510D01*
G37*
G36*
X70715330Y-47924510D02*
X70765179Y-47939631D01*
X70811111Y-47964182D01*
X70851374Y-47997226D01*
X70884418Y-48037489D01*
X70908969Y-48083421D01*
X70924090Y-48133270D01*
X70929800Y-48191244D01*
X70929800Y-49446356D01*
X70924090Y-49504330D01*
X70908969Y-49554179D01*
X70884418Y-49600111D01*
X70851374Y-49640374D01*
X70811111Y-49673418D01*
X70765179Y-49697969D01*
X70715330Y-49713090D01*
X70657356Y-49718800D01*
X69652244Y-49718800D01*
X69594270Y-49713090D01*
X69544421Y-49697969D01*
X69498489Y-49673418D01*
X69458226Y-49640374D01*
X69425182Y-49600111D01*
X69400631Y-49554179D01*
X69385510Y-49504330D01*
X69379800Y-49446356D01*
X69379800Y-48191244D01*
X69385510Y-48133270D01*
X69400631Y-48083421D01*
X69425182Y-48037489D01*
X69458226Y-47997226D01*
X69498489Y-47964182D01*
X69544421Y-47939631D01*
X69594270Y-47924510D01*
X69652244Y-47918800D01*
X70657356Y-47918800D01*
X70715330Y-47924510D01*
X70715330Y-47924510D01*
G37*
G36*
X55210000Y-49647100D02*
X54010000Y-49647100D01*
X54010000Y-48347100D01*
X55210000Y-48347100D01*
X55210000Y-49647100D01*
X55210000Y-49647100D01*
G37*
G36*
X74496330Y-48149677D02*
X74547810Y-48165293D01*
X74595242Y-48190646D01*
X74636827Y-48224773D01*
X74670954Y-48266358D01*
X74696307Y-48313790D01*
X74711923Y-48365270D01*
X74717800Y-48424940D01*
X74717800Y-49212660D01*
X74711923Y-49272330D01*
X74696307Y-49323810D01*
X74670954Y-49371242D01*
X74636827Y-49412827D01*
X74595242Y-49446954D01*
X74547810Y-49472307D01*
X74496330Y-49487923D01*
X74436660Y-49493800D01*
X73548940Y-49493800D01*
X73489270Y-49487923D01*
X73437790Y-49472307D01*
X73390358Y-49446954D01*
X73348773Y-49412827D01*
X73314646Y-49371242D01*
X73289293Y-49323810D01*
X73273677Y-49272330D01*
X73267800Y-49212660D01*
X73267800Y-48424940D01*
X73273677Y-48365270D01*
X73289293Y-48313790D01*
X73314646Y-48266358D01*
X73348773Y-48224773D01*
X73390358Y-48190646D01*
X73437790Y-48165293D01*
X73489270Y-48149677D01*
X73548940Y-48143800D01*
X74436660Y-48143800D01*
X74496330Y-48149677D01*
X74496330Y-48149677D01*
G37*
G36*
X76246330Y-48149677D02*
X76297810Y-48165293D01*
X76345242Y-48190646D01*
X76386827Y-48224773D01*
X76420954Y-48266358D01*
X76446307Y-48313790D01*
X76461923Y-48365270D01*
X76467800Y-48424940D01*
X76467800Y-49212660D01*
X76461923Y-49272330D01*
X76446307Y-49323810D01*
X76420954Y-49371242D01*
X76386827Y-49412827D01*
X76345242Y-49446954D01*
X76297810Y-49472307D01*
X76246330Y-49487923D01*
X76186660Y-49493800D01*
X75298940Y-49493800D01*
X75239270Y-49487923D01*
X75187790Y-49472307D01*
X75140358Y-49446954D01*
X75098773Y-49412827D01*
X75064646Y-49371242D01*
X75039293Y-49323810D01*
X75023677Y-49272330D01*
X75017800Y-49212660D01*
X75017800Y-48424940D01*
X75023677Y-48365270D01*
X75039293Y-48313790D01*
X75064646Y-48266358D01*
X75098773Y-48224773D01*
X75140358Y-48190646D01*
X75187790Y-48165293D01*
X75239270Y-48149677D01*
X75298940Y-48143800D01*
X76186660Y-48143800D01*
X76246330Y-48149677D01*
X76246330Y-48149677D01*
G37*
G36*
X51507530Y-47653877D02*
X51559010Y-47669493D01*
X51606442Y-47694846D01*
X51648027Y-47728973D01*
X51682154Y-47770558D01*
X51707507Y-47817990D01*
X51723123Y-47869470D01*
X51729000Y-47929140D01*
X51729000Y-48816860D01*
X51723123Y-48876530D01*
X51707507Y-48928010D01*
X51682154Y-48975442D01*
X51648027Y-49017027D01*
X51606442Y-49051154D01*
X51559010Y-49076507D01*
X51507530Y-49092123D01*
X51447860Y-49098000D01*
X50660140Y-49098000D01*
X50600470Y-49092123D01*
X50548990Y-49076507D01*
X50501558Y-49051154D01*
X50459973Y-49017027D01*
X50425846Y-48975442D01*
X50400493Y-48928010D01*
X50384877Y-48876530D01*
X50379000Y-48816860D01*
X50379000Y-47929140D01*
X50384877Y-47869470D01*
X50400493Y-47817990D01*
X50425846Y-47770558D01*
X50459973Y-47728973D01*
X50501558Y-47694846D01*
X50548990Y-47669493D01*
X50600470Y-47653877D01*
X50660140Y-47648000D01*
X51447860Y-47648000D01*
X51507530Y-47653877D01*
X51507530Y-47653877D01*
G37*
G36*
X42134930Y-47493877D02*
X42186410Y-47509493D01*
X42233842Y-47534846D01*
X42275427Y-47568973D01*
X42309554Y-47610558D01*
X42334907Y-47657990D01*
X42350523Y-47709470D01*
X42356400Y-47769140D01*
X42356400Y-48656860D01*
X42350523Y-48716530D01*
X42334907Y-48768010D01*
X42309554Y-48815442D01*
X42275427Y-48857027D01*
X42233842Y-48891154D01*
X42186410Y-48916507D01*
X42134930Y-48932123D01*
X42075260Y-48938000D01*
X41287540Y-48938000D01*
X41227870Y-48932123D01*
X41176390Y-48916507D01*
X41128958Y-48891154D01*
X41087373Y-48857027D01*
X41053246Y-48815442D01*
X41027893Y-48768010D01*
X41012277Y-48716530D01*
X41006400Y-48656860D01*
X41006400Y-47769140D01*
X41012277Y-47709470D01*
X41027893Y-47657990D01*
X41053246Y-47610558D01*
X41087373Y-47568973D01*
X41128958Y-47534846D01*
X41176390Y-47509493D01*
X41227870Y-47493877D01*
X41287540Y-47488000D01*
X42075260Y-47488000D01*
X42134930Y-47493877D01*
X42134930Y-47493877D01*
G37*
G36*
X39594930Y-47483877D02*
X39646410Y-47499493D01*
X39693842Y-47524846D01*
X39735427Y-47558973D01*
X39769554Y-47600558D01*
X39794907Y-47647990D01*
X39810523Y-47699470D01*
X39816400Y-47759140D01*
X39816400Y-48646860D01*
X39810523Y-48706530D01*
X39794907Y-48758010D01*
X39769554Y-48805442D01*
X39735427Y-48847027D01*
X39693842Y-48881154D01*
X39646410Y-48906507D01*
X39594930Y-48922123D01*
X39535260Y-48928000D01*
X38747540Y-48928000D01*
X38687870Y-48922123D01*
X38636390Y-48906507D01*
X38588958Y-48881154D01*
X38547373Y-48847027D01*
X38513246Y-48805442D01*
X38487893Y-48758010D01*
X38472277Y-48706530D01*
X38466400Y-48646860D01*
X38466400Y-47759140D01*
X38472277Y-47699470D01*
X38487893Y-47647990D01*
X38513246Y-47600558D01*
X38547373Y-47558973D01*
X38588958Y-47524846D01*
X38636390Y-47499493D01*
X38687870Y-47483877D01*
X38747540Y-47478000D01*
X39535260Y-47478000D01*
X39594930Y-47483877D01*
X39594930Y-47483877D01*
G37*
G36*
X37054930Y-47483877D02*
X37106410Y-47499493D01*
X37153842Y-47524846D01*
X37195427Y-47558973D01*
X37229554Y-47600558D01*
X37254907Y-47647990D01*
X37270523Y-47699470D01*
X37276400Y-47759140D01*
X37276400Y-48646860D01*
X37270523Y-48706530D01*
X37254907Y-48758010D01*
X37229554Y-48805442D01*
X37195427Y-48847027D01*
X37153842Y-48881154D01*
X37106410Y-48906507D01*
X37054930Y-48922123D01*
X36995260Y-48928000D01*
X36207540Y-48928000D01*
X36147870Y-48922123D01*
X36096390Y-48906507D01*
X36048958Y-48881154D01*
X36007373Y-48847027D01*
X35973246Y-48805442D01*
X35947893Y-48758010D01*
X35932277Y-48706530D01*
X35926400Y-48646860D01*
X35926400Y-47759140D01*
X35932277Y-47699470D01*
X35947893Y-47647990D01*
X35973246Y-47600558D01*
X36007373Y-47558973D01*
X36048958Y-47524846D01*
X36096390Y-47499493D01*
X36147870Y-47483877D01*
X36207540Y-47478000D01*
X36995260Y-47478000D01*
X37054930Y-47483877D01*
X37054930Y-47483877D01*
G37*
G36*
X60651530Y-46552877D02*
X60703010Y-46568493D01*
X60750442Y-46593846D01*
X60792027Y-46627973D01*
X60826154Y-46669558D01*
X60851507Y-46716990D01*
X60867123Y-46768470D01*
X60873000Y-46828140D01*
X60873000Y-47715860D01*
X60867123Y-47775530D01*
X60851507Y-47827010D01*
X60826154Y-47874442D01*
X60792027Y-47916027D01*
X60750442Y-47950154D01*
X60703010Y-47975507D01*
X60651530Y-47991123D01*
X60591860Y-47997000D01*
X59804140Y-47997000D01*
X59744470Y-47991123D01*
X59692990Y-47975507D01*
X59645558Y-47950154D01*
X59603973Y-47916027D01*
X59569846Y-47874442D01*
X59544493Y-47827010D01*
X59528877Y-47775530D01*
X59523000Y-47715860D01*
X59523000Y-46828140D01*
X59528877Y-46768470D01*
X59544493Y-46716990D01*
X59569846Y-46669558D01*
X59603973Y-46627973D01*
X59645558Y-46593846D01*
X59692990Y-46568493D01*
X59744470Y-46552877D01*
X59804140Y-46547000D01*
X60591860Y-46547000D01*
X60651530Y-46552877D01*
X60651530Y-46552877D01*
G37*
G36*
X58851530Y-46211710D02*
X58901379Y-46226831D01*
X58947311Y-46251382D01*
X58987574Y-46284426D01*
X59020618Y-46324689D01*
X59045169Y-46370621D01*
X59060290Y-46420470D01*
X59066000Y-46478444D01*
X59066000Y-47483556D01*
X59060290Y-47541530D01*
X59045169Y-47591379D01*
X59020618Y-47637311D01*
X58987574Y-47677574D01*
X58947311Y-47710618D01*
X58901379Y-47735169D01*
X58851530Y-47750290D01*
X58793556Y-47756000D01*
X57538444Y-47756000D01*
X57480470Y-47750290D01*
X57430621Y-47735169D01*
X57384689Y-47710618D01*
X57344426Y-47677574D01*
X57311382Y-47637311D01*
X57286831Y-47591379D01*
X57271710Y-47541530D01*
X57266000Y-47483556D01*
X57266000Y-46478444D01*
X57271710Y-46420470D01*
X57286831Y-46370621D01*
X57311382Y-46324689D01*
X57344426Y-46284426D01*
X57384689Y-46251382D01*
X57430621Y-46226831D01*
X57480470Y-46211710D01*
X57538444Y-46206000D01*
X58793556Y-46206000D01*
X58851530Y-46211710D01*
X58851530Y-46211710D01*
G37*
G36*
X56160000Y-47647100D02*
X54960000Y-47647100D01*
X54960000Y-46347100D01*
X56160000Y-46347100D01*
X56160000Y-47647100D01*
X56160000Y-47647100D01*
G37*
G36*
X54260000Y-47647100D02*
X53060000Y-47647100D01*
X53060000Y-46347100D01*
X54260000Y-46347100D01*
X54260000Y-47647100D01*
X54260000Y-47647100D01*
G37*
G36*
X30381400Y-47388800D02*
X27581400Y-47388800D01*
X27581400Y-45538800D01*
X30381400Y-45538800D01*
X30381400Y-47388800D01*
X30381400Y-47388800D01*
G37*
G36*
X25486930Y-45587710D02*
X25536779Y-45602831D01*
X25582711Y-45627382D01*
X25622974Y-45660426D01*
X25656018Y-45700689D01*
X25680569Y-45746621D01*
X25695690Y-45796470D01*
X25701400Y-45854444D01*
X25701400Y-47109556D01*
X25695690Y-47167530D01*
X25680569Y-47217379D01*
X25656018Y-47263311D01*
X25622974Y-47303574D01*
X25582711Y-47336618D01*
X25536779Y-47361169D01*
X25486930Y-47376290D01*
X25428956Y-47382000D01*
X24423844Y-47382000D01*
X24365870Y-47376290D01*
X24316021Y-47361169D01*
X24270089Y-47336618D01*
X24229826Y-47303574D01*
X24196782Y-47263311D01*
X24172231Y-47217379D01*
X24157110Y-47167530D01*
X24151400Y-47109556D01*
X24151400Y-45854444D01*
X24157110Y-45796470D01*
X24172231Y-45746621D01*
X24196782Y-45700689D01*
X24229826Y-45660426D01*
X24270089Y-45627382D01*
X24316021Y-45602831D01*
X24365870Y-45587710D01*
X24423844Y-45582000D01*
X25428956Y-45582000D01*
X25486930Y-45587710D01*
X25486930Y-45587710D01*
G37*
G36*
X23436930Y-45587710D02*
X23486779Y-45602831D01*
X23532711Y-45627382D01*
X23572974Y-45660426D01*
X23606018Y-45700689D01*
X23630569Y-45746621D01*
X23645690Y-45796470D01*
X23651400Y-45854444D01*
X23651400Y-47109556D01*
X23645690Y-47167530D01*
X23630569Y-47217379D01*
X23606018Y-47263311D01*
X23572974Y-47303574D01*
X23532711Y-47336618D01*
X23486779Y-47361169D01*
X23436930Y-47376290D01*
X23378956Y-47382000D01*
X22373844Y-47382000D01*
X22315870Y-47376290D01*
X22266021Y-47361169D01*
X22220089Y-47336618D01*
X22179826Y-47303574D01*
X22146782Y-47263311D01*
X22122231Y-47217379D01*
X22107110Y-47167530D01*
X22101400Y-47109556D01*
X22101400Y-45854444D01*
X22107110Y-45796470D01*
X22122231Y-45746621D01*
X22146782Y-45700689D01*
X22179826Y-45660426D01*
X22220089Y-45627382D01*
X22266021Y-45602831D01*
X22315870Y-45587710D01*
X22373844Y-45582000D01*
X23378956Y-45582000D01*
X23436930Y-45587710D01*
X23436930Y-45587710D01*
G37*
G36*
X51507530Y-45903877D02*
X51559010Y-45919493D01*
X51606442Y-45944846D01*
X51648027Y-45978973D01*
X51682154Y-46020558D01*
X51707507Y-46067990D01*
X51723123Y-46119470D01*
X51729000Y-46179140D01*
X51729000Y-47066860D01*
X51723123Y-47126530D01*
X51707507Y-47178010D01*
X51682154Y-47225442D01*
X51648027Y-47267027D01*
X51606442Y-47301154D01*
X51559010Y-47326507D01*
X51507530Y-47342123D01*
X51447860Y-47348000D01*
X50660140Y-47348000D01*
X50600470Y-47342123D01*
X50548990Y-47326507D01*
X50501558Y-47301154D01*
X50459973Y-47267027D01*
X50425846Y-47225442D01*
X50400493Y-47178010D01*
X50384877Y-47126530D01*
X50379000Y-47066860D01*
X50379000Y-46179140D01*
X50384877Y-46119470D01*
X50400493Y-46067990D01*
X50425846Y-46020558D01*
X50459973Y-45978973D01*
X50501558Y-45944846D01*
X50548990Y-45919493D01*
X50600470Y-45903877D01*
X50660140Y-45898000D01*
X51447860Y-45898000D01*
X51507530Y-45903877D01*
X51507530Y-45903877D01*
G37*
G36*
X42134930Y-45743877D02*
X42186410Y-45759493D01*
X42233842Y-45784846D01*
X42275427Y-45818973D01*
X42309554Y-45860558D01*
X42334907Y-45907990D01*
X42350523Y-45959470D01*
X42356400Y-46019140D01*
X42356400Y-46906860D01*
X42350523Y-46966530D01*
X42334907Y-47018010D01*
X42309554Y-47065442D01*
X42275427Y-47107027D01*
X42233842Y-47141154D01*
X42186410Y-47166507D01*
X42134930Y-47182123D01*
X42075260Y-47188000D01*
X41287540Y-47188000D01*
X41227870Y-47182123D01*
X41176390Y-47166507D01*
X41128958Y-47141154D01*
X41087373Y-47107027D01*
X41053246Y-47065442D01*
X41027893Y-47018010D01*
X41012277Y-46966530D01*
X41006400Y-46906860D01*
X41006400Y-46019140D01*
X41012277Y-45959470D01*
X41027893Y-45907990D01*
X41053246Y-45860558D01*
X41087373Y-45818973D01*
X41128958Y-45784846D01*
X41176390Y-45759493D01*
X41227870Y-45743877D01*
X41287540Y-45738000D01*
X42075260Y-45738000D01*
X42134930Y-45743877D01*
X42134930Y-45743877D01*
G37*
G36*
X37054930Y-45733877D02*
X37106410Y-45749493D01*
X37153842Y-45774846D01*
X37195427Y-45808973D01*
X37229554Y-45850558D01*
X37254907Y-45897990D01*
X37270523Y-45949470D01*
X37276400Y-46009140D01*
X37276400Y-46896860D01*
X37270523Y-46956530D01*
X37254907Y-47008010D01*
X37229554Y-47055442D01*
X37195427Y-47097027D01*
X37153842Y-47131154D01*
X37106410Y-47156507D01*
X37054930Y-47172123D01*
X36995260Y-47178000D01*
X36207540Y-47178000D01*
X36147870Y-47172123D01*
X36096390Y-47156507D01*
X36048958Y-47131154D01*
X36007373Y-47097027D01*
X35973246Y-47055442D01*
X35947893Y-47008010D01*
X35932277Y-46956530D01*
X35926400Y-46896860D01*
X35926400Y-46009140D01*
X35932277Y-45949470D01*
X35947893Y-45897990D01*
X35973246Y-45850558D01*
X36007373Y-45808973D01*
X36048958Y-45774846D01*
X36096390Y-45749493D01*
X36147870Y-45733877D01*
X36207540Y-45728000D01*
X36995260Y-45728000D01*
X37054930Y-45733877D01*
X37054930Y-45733877D01*
G37*
G36*
X39594930Y-45733877D02*
X39646410Y-45749493D01*
X39693842Y-45774846D01*
X39735427Y-45808973D01*
X39769554Y-45850558D01*
X39794907Y-45897990D01*
X39810523Y-45949470D01*
X39816400Y-46009140D01*
X39816400Y-46896860D01*
X39810523Y-46956530D01*
X39794907Y-47008010D01*
X39769554Y-47055442D01*
X39735427Y-47097027D01*
X39693842Y-47131154D01*
X39646410Y-47156507D01*
X39594930Y-47172123D01*
X39535260Y-47178000D01*
X38747540Y-47178000D01*
X38687870Y-47172123D01*
X38636390Y-47156507D01*
X38588958Y-47131154D01*
X38547373Y-47097027D01*
X38513246Y-47055442D01*
X38487893Y-47008010D01*
X38472277Y-46956530D01*
X38466400Y-46896860D01*
X38466400Y-46009140D01*
X38472277Y-45949470D01*
X38487893Y-45897990D01*
X38513246Y-45850558D01*
X38547373Y-45808973D01*
X38588958Y-45774846D01*
X38636390Y-45749493D01*
X38687870Y-45733877D01*
X38747540Y-45728000D01*
X39535260Y-45728000D01*
X39594930Y-45733877D01*
X39594930Y-45733877D01*
G37*
G36*
X76297930Y-45559677D02*
X76349410Y-45575293D01*
X76396842Y-45600646D01*
X76438427Y-45634773D01*
X76472554Y-45676358D01*
X76497907Y-45723790D01*
X76513523Y-45775270D01*
X76519400Y-45834940D01*
X76519400Y-46722660D01*
X76513523Y-46782330D01*
X76497907Y-46833810D01*
X76472554Y-46881242D01*
X76438427Y-46922827D01*
X76396842Y-46956954D01*
X76349410Y-46982307D01*
X76297930Y-46997923D01*
X76238260Y-47003800D01*
X75450540Y-47003800D01*
X75390870Y-46997923D01*
X75339390Y-46982307D01*
X75291958Y-46956954D01*
X75250373Y-46922827D01*
X75216246Y-46881242D01*
X75190893Y-46833810D01*
X75175277Y-46782330D01*
X75169400Y-46722660D01*
X75169400Y-45834940D01*
X75175277Y-45775270D01*
X75190893Y-45723790D01*
X75216246Y-45676358D01*
X75250373Y-45634773D01*
X75291958Y-45600646D01*
X75339390Y-45575293D01*
X75390870Y-45559677D01*
X75450540Y-45553800D01*
X76238260Y-45553800D01*
X76297930Y-45559677D01*
X76297930Y-45559677D01*
G37*
G36*
X65709530Y-45213710D02*
X65759379Y-45228831D01*
X65805311Y-45253382D01*
X65845574Y-45286426D01*
X65878618Y-45326689D01*
X65903169Y-45372621D01*
X65918290Y-45422470D01*
X65924000Y-45480444D01*
X65924000Y-46485556D01*
X65918290Y-46543530D01*
X65903169Y-46593379D01*
X65878618Y-46639311D01*
X65845574Y-46679574D01*
X65805311Y-46712618D01*
X65759379Y-46737169D01*
X65709530Y-46752290D01*
X65651556Y-46758000D01*
X64396444Y-46758000D01*
X64338470Y-46752290D01*
X64288621Y-46737169D01*
X64242689Y-46712618D01*
X64202426Y-46679574D01*
X64169382Y-46639311D01*
X64144831Y-46593379D01*
X64129710Y-46543530D01*
X64124000Y-46485556D01*
X64124000Y-45480444D01*
X64129710Y-45422470D01*
X64144831Y-45372621D01*
X64169382Y-45326689D01*
X64202426Y-45286426D01*
X64242689Y-45253382D01*
X64288621Y-45228831D01*
X64338470Y-45213710D01*
X64396444Y-45208000D01*
X65651556Y-45208000D01*
X65709530Y-45213710D01*
X65709530Y-45213710D01*
G37*
G36*
X63169530Y-45213710D02*
X63219379Y-45228831D01*
X63265311Y-45253382D01*
X63305574Y-45286426D01*
X63338618Y-45326689D01*
X63363169Y-45372621D01*
X63378290Y-45422470D01*
X63384000Y-45480444D01*
X63384000Y-46485556D01*
X63378290Y-46543530D01*
X63363169Y-46593379D01*
X63338618Y-46639311D01*
X63305574Y-46679574D01*
X63265311Y-46712618D01*
X63219379Y-46737169D01*
X63169530Y-46752290D01*
X63111556Y-46758000D01*
X61856444Y-46758000D01*
X61798470Y-46752290D01*
X61748621Y-46737169D01*
X61702689Y-46712618D01*
X61662426Y-46679574D01*
X61629382Y-46639311D01*
X61604831Y-46593379D01*
X61589710Y-46543530D01*
X61584000Y-46485556D01*
X61584000Y-45480444D01*
X61589710Y-45422470D01*
X61604831Y-45372621D01*
X61629382Y-45326689D01*
X61662426Y-45286426D01*
X61702689Y-45253382D01*
X61748621Y-45228831D01*
X61798470Y-45213710D01*
X61856444Y-45208000D01*
X63111556Y-45208000D01*
X63169530Y-45213710D01*
X63169530Y-45213710D01*
G37*
G36*
X74283800Y-46672600D02*
X72433800Y-46672600D01*
X72433800Y-41922600D01*
X74283800Y-41922600D01*
X74283800Y-46672600D01*
X74283800Y-46672600D01*
G37*
G36*
X68383800Y-46672600D02*
X66533800Y-46672600D01*
X66533800Y-41922600D01*
X68383800Y-41922600D01*
X68383800Y-46672600D01*
X68383800Y-46672600D01*
G37*
G36*
X56079530Y-44263877D02*
X56131010Y-44279493D01*
X56178442Y-44304846D01*
X56220027Y-44338973D01*
X56254154Y-44380558D01*
X56279507Y-44427990D01*
X56295123Y-44479470D01*
X56301000Y-44539140D01*
X56301000Y-45426860D01*
X56295123Y-45486530D01*
X56279507Y-45538010D01*
X56254154Y-45585442D01*
X56220027Y-45627027D01*
X56178442Y-45661154D01*
X56131010Y-45686507D01*
X56079530Y-45702123D01*
X56019860Y-45708000D01*
X55232140Y-45708000D01*
X55172470Y-45702123D01*
X55120990Y-45686507D01*
X55073558Y-45661154D01*
X55031973Y-45627027D01*
X54997846Y-45585442D01*
X54972493Y-45538010D01*
X54956877Y-45486530D01*
X54951000Y-45426860D01*
X54951000Y-44539140D01*
X54956877Y-44479470D01*
X54972493Y-44427990D01*
X54997846Y-44380558D01*
X55031973Y-44338973D01*
X55073558Y-44304846D01*
X55120990Y-44279493D01*
X55172470Y-44263877D01*
X55232140Y-44258000D01*
X56019860Y-44258000D01*
X56079530Y-44263877D01*
X56079530Y-44263877D01*
G37*
G36*
X58619530Y-44210877D02*
X58671010Y-44226493D01*
X58718442Y-44251846D01*
X58760027Y-44285973D01*
X58794154Y-44327558D01*
X58819507Y-44374990D01*
X58835123Y-44426470D01*
X58841000Y-44486140D01*
X58841000Y-45373860D01*
X58835123Y-45433530D01*
X58819507Y-45485010D01*
X58794154Y-45532442D01*
X58760027Y-45574027D01*
X58718442Y-45608154D01*
X58671010Y-45633507D01*
X58619530Y-45649123D01*
X58559860Y-45655000D01*
X57772140Y-45655000D01*
X57712470Y-45649123D01*
X57660990Y-45633507D01*
X57613558Y-45608154D01*
X57571973Y-45574027D01*
X57537846Y-45532442D01*
X57512493Y-45485010D01*
X57496877Y-45433530D01*
X57491000Y-45373860D01*
X57491000Y-44486140D01*
X57496877Y-44426470D01*
X57512493Y-44374990D01*
X57537846Y-44327558D01*
X57571973Y-44285973D01*
X57613558Y-44251846D01*
X57660990Y-44226493D01*
X57712470Y-44210877D01*
X57772140Y-44205000D01*
X58559860Y-44205000D01*
X58619530Y-44210877D01*
X58619530Y-44210877D01*
G37*
G36*
X60397530Y-44210877D02*
X60449010Y-44226493D01*
X60496442Y-44251846D01*
X60538027Y-44285973D01*
X60572154Y-44327558D01*
X60597507Y-44374990D01*
X60613123Y-44426470D01*
X60619000Y-44486140D01*
X60619000Y-45373860D01*
X60613123Y-45433530D01*
X60597507Y-45485010D01*
X60572154Y-45532442D01*
X60538027Y-45574027D01*
X60496442Y-45608154D01*
X60449010Y-45633507D01*
X60397530Y-45649123D01*
X60337860Y-45655000D01*
X59550140Y-45655000D01*
X59490470Y-45649123D01*
X59438990Y-45633507D01*
X59391558Y-45608154D01*
X59349973Y-45574027D01*
X59315846Y-45532442D01*
X59290493Y-45485010D01*
X59274877Y-45433530D01*
X59269000Y-45373860D01*
X59269000Y-44486140D01*
X59274877Y-44426470D01*
X59290493Y-44374990D01*
X59315846Y-44327558D01*
X59349973Y-44285973D01*
X59391558Y-44251846D01*
X59438990Y-44226493D01*
X59490470Y-44210877D01*
X59550140Y-44205000D01*
X60337860Y-44205000D01*
X60397530Y-44210877D01*
X60397530Y-44210877D01*
G37*
G36*
X76297930Y-43809677D02*
X76349410Y-43825293D01*
X76396842Y-43850646D01*
X76438427Y-43884773D01*
X76472554Y-43926358D01*
X76497907Y-43973790D01*
X76513523Y-44025270D01*
X76519400Y-44084940D01*
X76519400Y-44972660D01*
X76513523Y-45032330D01*
X76497907Y-45083810D01*
X76472554Y-45131242D01*
X76438427Y-45172827D01*
X76396842Y-45206954D01*
X76349410Y-45232307D01*
X76297930Y-45247923D01*
X76238260Y-45253800D01*
X75450540Y-45253800D01*
X75390870Y-45247923D01*
X75339390Y-45232307D01*
X75291958Y-45206954D01*
X75250373Y-45172827D01*
X75216246Y-45131242D01*
X75190893Y-45083810D01*
X75175277Y-45032330D01*
X75169400Y-44972660D01*
X75169400Y-44084940D01*
X75175277Y-44025270D01*
X75190893Y-43973790D01*
X75216246Y-43926358D01*
X75250373Y-43884773D01*
X75291958Y-43850646D01*
X75339390Y-43825293D01*
X75390870Y-43809677D01*
X75450540Y-43803800D01*
X76238260Y-43803800D01*
X76297930Y-43809677D01*
X76297930Y-43809677D01*
G37*
G36*
X24368103Y-42047886D02*
X24659283Y-42168497D01*
X24921344Y-42343601D01*
X25144199Y-42566456D01*
X25319303Y-42828517D01*
X25439914Y-43119697D01*
X25501400Y-43428812D01*
X25501400Y-43743988D01*
X25439914Y-44053103D01*
X25319303Y-44344283D01*
X25144199Y-44606344D01*
X24921344Y-44829199D01*
X24659283Y-45004303D01*
X24368103Y-45124914D01*
X24058988Y-45186400D01*
X23743812Y-45186400D01*
X23434697Y-45124914D01*
X23143517Y-45004303D01*
X22881456Y-44829199D01*
X22658601Y-44606344D01*
X22483497Y-44344283D01*
X22362886Y-44053103D01*
X22301400Y-43743988D01*
X22301400Y-43428812D01*
X22362886Y-43119697D01*
X22483497Y-42828517D01*
X22658601Y-42566456D01*
X22881456Y-42343601D01*
X23143517Y-42168497D01*
X23434697Y-42047886D01*
X23743812Y-41986400D01*
X24058988Y-41986400D01*
X24368103Y-42047886D01*
X24368103Y-42047886D01*
G37*
G36*
X44688103Y-42047886D02*
X44979283Y-42168497D01*
X45241344Y-42343601D01*
X45464199Y-42566456D01*
X45639303Y-42828517D01*
X45759914Y-43119697D01*
X45821400Y-43428812D01*
X45821400Y-43743988D01*
X45759914Y-44053103D01*
X45639303Y-44344283D01*
X45464199Y-44606344D01*
X45241344Y-44829199D01*
X44979283Y-45004303D01*
X44688103Y-45124914D01*
X44378988Y-45186400D01*
X44063812Y-45186400D01*
X43754697Y-45124914D01*
X43463517Y-45004303D01*
X43201456Y-44829199D01*
X42978601Y-44606344D01*
X42803497Y-44344283D01*
X42682886Y-44053103D01*
X42621400Y-43743988D01*
X42621400Y-43428812D01*
X42682886Y-43119697D01*
X42803497Y-42828517D01*
X42978601Y-42566456D01*
X43201456Y-42343601D01*
X43463517Y-42168497D01*
X43754697Y-42047886D01*
X44063812Y-41986400D01*
X44378988Y-41986400D01*
X44688103Y-42047886D01*
X44688103Y-42047886D01*
G37*
G36*
X34528103Y-42047886D02*
X34819283Y-42168497D01*
X35081344Y-42343601D01*
X35304199Y-42566456D01*
X35479303Y-42828517D01*
X35599914Y-43119697D01*
X35661400Y-43428812D01*
X35661400Y-43743988D01*
X35599914Y-44053103D01*
X35479303Y-44344283D01*
X35304199Y-44606344D01*
X35081344Y-44829199D01*
X34819283Y-45004303D01*
X34528103Y-45124914D01*
X34218988Y-45186400D01*
X33903812Y-45186400D01*
X33594697Y-45124914D01*
X33303517Y-45004303D01*
X33041456Y-44829199D01*
X32818601Y-44606344D01*
X32643497Y-44344283D01*
X32522886Y-44053103D01*
X32461400Y-43743988D01*
X32461400Y-43428812D01*
X32522886Y-43119697D01*
X32643497Y-42828517D01*
X32818601Y-42566456D01*
X33041456Y-42343601D01*
X33303517Y-42168497D01*
X33594697Y-42047886D01*
X33903812Y-41986400D01*
X34218988Y-41986400D01*
X34528103Y-42047886D01*
X34528103Y-42047886D01*
G37*
G36*
X63169530Y-43163710D02*
X63219379Y-43178831D01*
X63265311Y-43203382D01*
X63305574Y-43236426D01*
X63338618Y-43276689D01*
X63363169Y-43322621D01*
X63378290Y-43372470D01*
X63384000Y-43430444D01*
X63384000Y-44435556D01*
X63378290Y-44493530D01*
X63363169Y-44543379D01*
X63338618Y-44589311D01*
X63305574Y-44629574D01*
X63265311Y-44662618D01*
X63219379Y-44687169D01*
X63169530Y-44702290D01*
X63111556Y-44708000D01*
X61856444Y-44708000D01*
X61798470Y-44702290D01*
X61748621Y-44687169D01*
X61702689Y-44662618D01*
X61662426Y-44629574D01*
X61629382Y-44589311D01*
X61604831Y-44543379D01*
X61589710Y-44493530D01*
X61584000Y-44435556D01*
X61584000Y-43430444D01*
X61589710Y-43372470D01*
X61604831Y-43322621D01*
X61629382Y-43276689D01*
X61662426Y-43236426D01*
X61702689Y-43203382D01*
X61748621Y-43178831D01*
X61798470Y-43163710D01*
X61856444Y-43158000D01*
X63111556Y-43158000D01*
X63169530Y-43163710D01*
X63169530Y-43163710D01*
G37*
G36*
X65709530Y-43163710D02*
X65759379Y-43178831D01*
X65805311Y-43203382D01*
X65845574Y-43236426D01*
X65878618Y-43276689D01*
X65903169Y-43322621D01*
X65918290Y-43372470D01*
X65924000Y-43430444D01*
X65924000Y-44435556D01*
X65918290Y-44493530D01*
X65903169Y-44543379D01*
X65878618Y-44589311D01*
X65845574Y-44629574D01*
X65805311Y-44662618D01*
X65759379Y-44687169D01*
X65709530Y-44702290D01*
X65651556Y-44708000D01*
X64396444Y-44708000D01*
X64338470Y-44702290D01*
X64288621Y-44687169D01*
X64242689Y-44662618D01*
X64202426Y-44629574D01*
X64169382Y-44589311D01*
X64144831Y-44543379D01*
X64129710Y-44493530D01*
X64124000Y-44435556D01*
X64124000Y-43430444D01*
X64129710Y-43372470D01*
X64144831Y-43322621D01*
X64169382Y-43276689D01*
X64202426Y-43236426D01*
X64242689Y-43203382D01*
X64288621Y-43178831D01*
X64338470Y-43163710D01*
X64396444Y-43158000D01*
X65651556Y-43158000D01*
X65709530Y-43163710D01*
X65709530Y-43163710D01*
G37*
G36*
X38764930Y-42764877D02*
X38816410Y-42780493D01*
X38863842Y-42805846D01*
X38905427Y-42839973D01*
X38939554Y-42881558D01*
X38964907Y-42928990D01*
X38980523Y-42980470D01*
X38986400Y-43040140D01*
X38986400Y-43827860D01*
X38980523Y-43887530D01*
X38964907Y-43939010D01*
X38939554Y-43986442D01*
X38905427Y-44028027D01*
X38863842Y-44062154D01*
X38816410Y-44087507D01*
X38764930Y-44103123D01*
X38705260Y-44109000D01*
X37817540Y-44109000D01*
X37757870Y-44103123D01*
X37706390Y-44087507D01*
X37658958Y-44062154D01*
X37617373Y-44028027D01*
X37583246Y-43986442D01*
X37557893Y-43939010D01*
X37542277Y-43887530D01*
X37536400Y-43827860D01*
X37536400Y-43040140D01*
X37542277Y-42980470D01*
X37557893Y-42928990D01*
X37583246Y-42881558D01*
X37617373Y-42839973D01*
X37658958Y-42805846D01*
X37706390Y-42780493D01*
X37757870Y-42764877D01*
X37817540Y-42759000D01*
X38705260Y-42759000D01*
X38764930Y-42764877D01*
X38764930Y-42764877D01*
G37*
G36*
X40514930Y-42764877D02*
X40566410Y-42780493D01*
X40613842Y-42805846D01*
X40655427Y-42839973D01*
X40689554Y-42881558D01*
X40714907Y-42928990D01*
X40730523Y-42980470D01*
X40736400Y-43040140D01*
X40736400Y-43827860D01*
X40730523Y-43887530D01*
X40714907Y-43939010D01*
X40689554Y-43986442D01*
X40655427Y-44028027D01*
X40613842Y-44062154D01*
X40566410Y-44087507D01*
X40514930Y-44103123D01*
X40455260Y-44109000D01*
X39567540Y-44109000D01*
X39507870Y-44103123D01*
X39456390Y-44087507D01*
X39408958Y-44062154D01*
X39367373Y-44028027D01*
X39333246Y-43986442D01*
X39307893Y-43939010D01*
X39292277Y-43887530D01*
X39286400Y-43827860D01*
X39286400Y-43040140D01*
X39292277Y-42980470D01*
X39307893Y-42928990D01*
X39333246Y-42881558D01*
X39367373Y-42839973D01*
X39408958Y-42805846D01*
X39456390Y-42780493D01*
X39507870Y-42764877D01*
X39567540Y-42759000D01*
X40455260Y-42759000D01*
X40514930Y-42764877D01*
X40514930Y-42764877D01*
G37*
G36*
X53584530Y-42564209D02*
X53636010Y-42579825D01*
X53683442Y-42605178D01*
X53725027Y-42639305D01*
X53759154Y-42680890D01*
X53784507Y-42728322D01*
X53800123Y-42779802D01*
X53806000Y-42839472D01*
X53806000Y-43727192D01*
X53800123Y-43786862D01*
X53784507Y-43838342D01*
X53759154Y-43885774D01*
X53725027Y-43927359D01*
X53683442Y-43961486D01*
X53636010Y-43986839D01*
X53584530Y-44002455D01*
X53524860Y-44008332D01*
X52737140Y-44008332D01*
X52677470Y-44002455D01*
X52625990Y-43986839D01*
X52578558Y-43961486D01*
X52536973Y-43927359D01*
X52502846Y-43885774D01*
X52477493Y-43838342D01*
X52461877Y-43786862D01*
X52456000Y-43727192D01*
X52456000Y-42839472D01*
X52461877Y-42779802D01*
X52477493Y-42728322D01*
X52502846Y-42680890D01*
X52536973Y-42639305D01*
X52578558Y-42605178D01*
X52625990Y-42579825D01*
X52677470Y-42564209D01*
X52737140Y-42558332D01*
X53524860Y-42558332D01*
X53584530Y-42564209D01*
X53584530Y-42564209D01*
G37*
G36*
X51507530Y-42554209D02*
X51559010Y-42569825D01*
X51606442Y-42595178D01*
X51648027Y-42629305D01*
X51682154Y-42670890D01*
X51707507Y-42718322D01*
X51723123Y-42769802D01*
X51729000Y-42829472D01*
X51729000Y-43717192D01*
X51723123Y-43776862D01*
X51707507Y-43828342D01*
X51682154Y-43875774D01*
X51648027Y-43917359D01*
X51606442Y-43951486D01*
X51559010Y-43976839D01*
X51507530Y-43992455D01*
X51447860Y-43998332D01*
X50660140Y-43998332D01*
X50600470Y-43992455D01*
X50548990Y-43976839D01*
X50501558Y-43951486D01*
X50459973Y-43917359D01*
X50425846Y-43875774D01*
X50400493Y-43828342D01*
X50384877Y-43776862D01*
X50379000Y-43717192D01*
X50379000Y-42829472D01*
X50384877Y-42769802D01*
X50400493Y-42718322D01*
X50425846Y-42670890D01*
X50459973Y-42629305D01*
X50501558Y-42595178D01*
X50548990Y-42569825D01*
X50600470Y-42554209D01*
X50660140Y-42548332D01*
X51447860Y-42548332D01*
X51507530Y-42554209D01*
X51507530Y-42554209D01*
G37*
G36*
X56079530Y-42513877D02*
X56131010Y-42529493D01*
X56178442Y-42554846D01*
X56220027Y-42588973D01*
X56254154Y-42630558D01*
X56279507Y-42677990D01*
X56295123Y-42729470D01*
X56301000Y-42789140D01*
X56301000Y-43676860D01*
X56295123Y-43736530D01*
X56279507Y-43788010D01*
X56254154Y-43835442D01*
X56220027Y-43877027D01*
X56178442Y-43911154D01*
X56131010Y-43936507D01*
X56079530Y-43952123D01*
X56019860Y-43958000D01*
X55232140Y-43958000D01*
X55172470Y-43952123D01*
X55120990Y-43936507D01*
X55073558Y-43911154D01*
X55031973Y-43877027D01*
X54997846Y-43835442D01*
X54972493Y-43788010D01*
X54956877Y-43736530D01*
X54951000Y-43676860D01*
X54951000Y-42789140D01*
X54956877Y-42729470D01*
X54972493Y-42677990D01*
X54997846Y-42630558D01*
X55031973Y-42588973D01*
X55073558Y-42554846D01*
X55120990Y-42529493D01*
X55172470Y-42513877D01*
X55232140Y-42508000D01*
X56019860Y-42508000D01*
X56079530Y-42513877D01*
X56079530Y-42513877D01*
G37*
G36*
X60397530Y-42460877D02*
X60449010Y-42476493D01*
X60496442Y-42501846D01*
X60538027Y-42535973D01*
X60572154Y-42577558D01*
X60597507Y-42624990D01*
X60613123Y-42676470D01*
X60619000Y-42736140D01*
X60619000Y-43623860D01*
X60613123Y-43683530D01*
X60597507Y-43735010D01*
X60572154Y-43782442D01*
X60538027Y-43824027D01*
X60496442Y-43858154D01*
X60449010Y-43883507D01*
X60397530Y-43899123D01*
X60337860Y-43905000D01*
X59550140Y-43905000D01*
X59490470Y-43899123D01*
X59438990Y-43883507D01*
X59391558Y-43858154D01*
X59349973Y-43824027D01*
X59315846Y-43782442D01*
X59290493Y-43735010D01*
X59274877Y-43683530D01*
X59269000Y-43623860D01*
X59269000Y-42736140D01*
X59274877Y-42676470D01*
X59290493Y-42624990D01*
X59315846Y-42577558D01*
X59349973Y-42535973D01*
X59391558Y-42501846D01*
X59438990Y-42476493D01*
X59490470Y-42460877D01*
X59550140Y-42455000D01*
X60337860Y-42455000D01*
X60397530Y-42460877D01*
X60397530Y-42460877D01*
G37*
G36*
X58619530Y-42460877D02*
X58671010Y-42476493D01*
X58718442Y-42501846D01*
X58760027Y-42535973D01*
X58794154Y-42577558D01*
X58819507Y-42624990D01*
X58835123Y-42676470D01*
X58841000Y-42736140D01*
X58841000Y-43623860D01*
X58835123Y-43683530D01*
X58819507Y-43735010D01*
X58794154Y-43782442D01*
X58760027Y-43824027D01*
X58718442Y-43858154D01*
X58671010Y-43883507D01*
X58619530Y-43899123D01*
X58559860Y-43905000D01*
X57772140Y-43905000D01*
X57712470Y-43899123D01*
X57660990Y-43883507D01*
X57613558Y-43858154D01*
X57571973Y-43824027D01*
X57537846Y-43782442D01*
X57512493Y-43735010D01*
X57496877Y-43683530D01*
X57491000Y-43623860D01*
X57491000Y-42736140D01*
X57496877Y-42676470D01*
X57512493Y-42624990D01*
X57537846Y-42577558D01*
X57571973Y-42535973D01*
X57613558Y-42501846D01*
X57660990Y-42476493D01*
X57712470Y-42460877D01*
X57772140Y-42455000D01*
X58559860Y-42455000D01*
X58619530Y-42460877D01*
X58619530Y-42460877D01*
G37*
G36*
X32203530Y-41369877D02*
X32255010Y-41385493D01*
X32302442Y-41410846D01*
X32344027Y-41444973D01*
X32378154Y-41486558D01*
X32403507Y-41533990D01*
X32419123Y-41585470D01*
X32425000Y-41645140D01*
X32425000Y-42532860D01*
X32419123Y-42592530D01*
X32403507Y-42644010D01*
X32378154Y-42691442D01*
X32344027Y-42733027D01*
X32302442Y-42767154D01*
X32255010Y-42792507D01*
X32203530Y-42808123D01*
X32143860Y-42814000D01*
X31356140Y-42814000D01*
X31296470Y-42808123D01*
X31244990Y-42792507D01*
X31197558Y-42767154D01*
X31155973Y-42733027D01*
X31121846Y-42691442D01*
X31096493Y-42644010D01*
X31080877Y-42592530D01*
X31075000Y-42532860D01*
X31075000Y-41645140D01*
X31080877Y-41585470D01*
X31096493Y-41533990D01*
X31121846Y-41486558D01*
X31155973Y-41444973D01*
X31197558Y-41410846D01*
X31244990Y-41385493D01*
X31296470Y-41369877D01*
X31356140Y-41364000D01*
X32143860Y-41364000D01*
X32203530Y-41369877D01*
X32203530Y-41369877D01*
G37*
G36*
X64258330Y-41264477D02*
X64309810Y-41280093D01*
X64357242Y-41305446D01*
X64398827Y-41339573D01*
X64432954Y-41381158D01*
X64458307Y-41428590D01*
X64473923Y-41480070D01*
X64479800Y-41539740D01*
X64479800Y-42427460D01*
X64473923Y-42487130D01*
X64458307Y-42538610D01*
X64432954Y-42586042D01*
X64398827Y-42627627D01*
X64357242Y-42661754D01*
X64309810Y-42687107D01*
X64258330Y-42702723D01*
X64198660Y-42708600D01*
X63410940Y-42708600D01*
X63351270Y-42702723D01*
X63299790Y-42687107D01*
X63252358Y-42661754D01*
X63210773Y-42627627D01*
X63176646Y-42586042D01*
X63151293Y-42538610D01*
X63135677Y-42487130D01*
X63129800Y-42427460D01*
X63129800Y-41539740D01*
X63135677Y-41480070D01*
X63151293Y-41428590D01*
X63176646Y-41381158D01*
X63210773Y-41339573D01*
X63252358Y-41305446D01*
X63299790Y-41280093D01*
X63351270Y-41264477D01*
X63410940Y-41258600D01*
X64198660Y-41258600D01*
X64258330Y-41264477D01*
X64258330Y-41264477D01*
G37*
G36*
X38676930Y-40507710D02*
X38726779Y-40522831D01*
X38772711Y-40547382D01*
X38812974Y-40580426D01*
X38846018Y-40620689D01*
X38870569Y-40666621D01*
X38885690Y-40716470D01*
X38891400Y-40774444D01*
X38891400Y-42029556D01*
X38885690Y-42087530D01*
X38870569Y-42137379D01*
X38846018Y-42183311D01*
X38812974Y-42223574D01*
X38772711Y-42256618D01*
X38726779Y-42281169D01*
X38676930Y-42296290D01*
X38618956Y-42302000D01*
X37613844Y-42302000D01*
X37555870Y-42296290D01*
X37506021Y-42281169D01*
X37460089Y-42256618D01*
X37419826Y-42223574D01*
X37386782Y-42183311D01*
X37362231Y-42137379D01*
X37347110Y-42087530D01*
X37341400Y-42029556D01*
X37341400Y-40774444D01*
X37347110Y-40716470D01*
X37362231Y-40666621D01*
X37386782Y-40620689D01*
X37419826Y-40580426D01*
X37460089Y-40547382D01*
X37506021Y-40522831D01*
X37555870Y-40507710D01*
X37613844Y-40502000D01*
X38618956Y-40502000D01*
X38676930Y-40507710D01*
X38676930Y-40507710D01*
G37*
G36*
X40726930Y-40507710D02*
X40776779Y-40522831D01*
X40822711Y-40547382D01*
X40862974Y-40580426D01*
X40896018Y-40620689D01*
X40920569Y-40666621D01*
X40935690Y-40716470D01*
X40941400Y-40774444D01*
X40941400Y-42029556D01*
X40935690Y-42087530D01*
X40920569Y-42137379D01*
X40896018Y-42183311D01*
X40862974Y-42223574D01*
X40822711Y-42256618D01*
X40776779Y-42281169D01*
X40726930Y-42296290D01*
X40668956Y-42302000D01*
X39663844Y-42302000D01*
X39605870Y-42296290D01*
X39556021Y-42281169D01*
X39510089Y-42256618D01*
X39469826Y-42223574D01*
X39436782Y-42183311D01*
X39412231Y-42137379D01*
X39397110Y-42087530D01*
X39391400Y-42029556D01*
X39391400Y-40774444D01*
X39397110Y-40716470D01*
X39412231Y-40666621D01*
X39436782Y-40620689D01*
X39469826Y-40580426D01*
X39510089Y-40547382D01*
X39556021Y-40522831D01*
X39605870Y-40507710D01*
X39663844Y-40502000D01*
X40668956Y-40502000D01*
X40726930Y-40507710D01*
X40726930Y-40507710D01*
G37*
G36*
X53584530Y-40814209D02*
X53636010Y-40829825D01*
X53683442Y-40855178D01*
X53725027Y-40889305D01*
X53759154Y-40930890D01*
X53784507Y-40978322D01*
X53800123Y-41029802D01*
X53806000Y-41089472D01*
X53806000Y-41977192D01*
X53800123Y-42036862D01*
X53784507Y-42088342D01*
X53759154Y-42135774D01*
X53725027Y-42177359D01*
X53683442Y-42211486D01*
X53636010Y-42236839D01*
X53584530Y-42252455D01*
X53524860Y-42258332D01*
X52737140Y-42258332D01*
X52677470Y-42252455D01*
X52625990Y-42236839D01*
X52578558Y-42211486D01*
X52536973Y-42177359D01*
X52502846Y-42135774D01*
X52477493Y-42088342D01*
X52461877Y-42036862D01*
X52456000Y-41977192D01*
X52456000Y-41089472D01*
X52461877Y-41029802D01*
X52477493Y-40978322D01*
X52502846Y-40930890D01*
X52536973Y-40889305D01*
X52578558Y-40855178D01*
X52625990Y-40829825D01*
X52677470Y-40814209D01*
X52737140Y-40808332D01*
X53524860Y-40808332D01*
X53584530Y-40814209D01*
X53584530Y-40814209D01*
G37*
G36*
X51507530Y-40804209D02*
X51559010Y-40819825D01*
X51606442Y-40845178D01*
X51648027Y-40879305D01*
X51682154Y-40920890D01*
X51707507Y-40968322D01*
X51723123Y-41019802D01*
X51729000Y-41079472D01*
X51729000Y-41967192D01*
X51723123Y-42026862D01*
X51707507Y-42078342D01*
X51682154Y-42125774D01*
X51648027Y-42167359D01*
X51606442Y-42201486D01*
X51559010Y-42226839D01*
X51507530Y-42242455D01*
X51447860Y-42248332D01*
X50660140Y-42248332D01*
X50600470Y-42242455D01*
X50548990Y-42226839D01*
X50501558Y-42201486D01*
X50459973Y-42167359D01*
X50425846Y-42125774D01*
X50400493Y-42078342D01*
X50384877Y-42026862D01*
X50379000Y-41967192D01*
X50379000Y-41079472D01*
X50384877Y-41019802D01*
X50400493Y-40968322D01*
X50425846Y-40920890D01*
X50459973Y-40879305D01*
X50501558Y-40845178D01*
X50548990Y-40819825D01*
X50600470Y-40804209D01*
X50660140Y-40798332D01*
X51447860Y-40798332D01*
X51507530Y-40804209D01*
X51507530Y-40804209D01*
G37*
G36*
X61644000Y-41970000D02*
X60444000Y-41970000D01*
X60444000Y-40670000D01*
X61644000Y-40670000D01*
X61644000Y-41970000D01*
X61644000Y-41970000D01*
G37*
G36*
X56079530Y-40371877D02*
X56131010Y-40387493D01*
X56178442Y-40412846D01*
X56220027Y-40446973D01*
X56254154Y-40488558D01*
X56279507Y-40535990D01*
X56295123Y-40587470D01*
X56301000Y-40647140D01*
X56301000Y-41534860D01*
X56295123Y-41594530D01*
X56279507Y-41646010D01*
X56254154Y-41693442D01*
X56220027Y-41735027D01*
X56178442Y-41769154D01*
X56131010Y-41794507D01*
X56079530Y-41810123D01*
X56019860Y-41816000D01*
X55232140Y-41816000D01*
X55172470Y-41810123D01*
X55120990Y-41794507D01*
X55073558Y-41769154D01*
X55031973Y-41735027D01*
X54997846Y-41693442D01*
X54972493Y-41646010D01*
X54956877Y-41594530D01*
X54951000Y-41534860D01*
X54951000Y-40647140D01*
X54956877Y-40587470D01*
X54972493Y-40535990D01*
X54997846Y-40488558D01*
X55031973Y-40446973D01*
X55073558Y-40412846D01*
X55120990Y-40387493D01*
X55172470Y-40371877D01*
X55232140Y-40366000D01*
X56019860Y-40366000D01*
X56079530Y-40371877D01*
X56079530Y-40371877D01*
G37*
G36*
X58111530Y-40371877D02*
X58163010Y-40387493D01*
X58210442Y-40412846D01*
X58252027Y-40446973D01*
X58286154Y-40488558D01*
X58311507Y-40535990D01*
X58327123Y-40587470D01*
X58333000Y-40647140D01*
X58333000Y-41534860D01*
X58327123Y-41594530D01*
X58311507Y-41646010D01*
X58286154Y-41693442D01*
X58252027Y-41735027D01*
X58210442Y-41769154D01*
X58163010Y-41794507D01*
X58111530Y-41810123D01*
X58051860Y-41816000D01*
X57264140Y-41816000D01*
X57204470Y-41810123D01*
X57152990Y-41794507D01*
X57105558Y-41769154D01*
X57063973Y-41735027D01*
X57029846Y-41693442D01*
X57004493Y-41646010D01*
X56988877Y-41594530D01*
X56983000Y-41534860D01*
X56983000Y-40647140D01*
X56988877Y-40587470D01*
X57004493Y-40535990D01*
X57029846Y-40488558D01*
X57063973Y-40446973D01*
X57105558Y-40412846D01*
X57152990Y-40387493D01*
X57204470Y-40371877D01*
X57264140Y-40366000D01*
X58051860Y-40366000D01*
X58111530Y-40371877D01*
X58111530Y-40371877D01*
G37*
G36*
X21789530Y-40067077D02*
X21841010Y-40082693D01*
X21888442Y-40108046D01*
X21930027Y-40142173D01*
X21964154Y-40183758D01*
X21989507Y-40231190D01*
X22005123Y-40282670D01*
X22011000Y-40342340D01*
X22011000Y-41230060D01*
X22005123Y-41289730D01*
X21989507Y-41341210D01*
X21964154Y-41388642D01*
X21930027Y-41430227D01*
X21888442Y-41464354D01*
X21841010Y-41489707D01*
X21789530Y-41505323D01*
X21729860Y-41511200D01*
X20942140Y-41511200D01*
X20882470Y-41505323D01*
X20830990Y-41489707D01*
X20783558Y-41464354D01*
X20741973Y-41430227D01*
X20707846Y-41388642D01*
X20682493Y-41341210D01*
X20666877Y-41289730D01*
X20661000Y-41230060D01*
X20661000Y-40342340D01*
X20666877Y-40282670D01*
X20682493Y-40231190D01*
X20707846Y-40183758D01*
X20741973Y-40142173D01*
X20783558Y-40108046D01*
X20830990Y-40082693D01*
X20882470Y-40067077D01*
X20942140Y-40061200D01*
X21729860Y-40061200D01*
X21789530Y-40067077D01*
X21789530Y-40067077D01*
G37*
G36*
X30381400Y-41488800D02*
X27581400Y-41488800D01*
X27581400Y-39638800D01*
X30381400Y-39638800D01*
X30381400Y-41488800D01*
X30381400Y-41488800D01*
G37*
G36*
X24219983Y-36770372D02*
X24418750Y-36852704D01*
X24597639Y-36972234D01*
X24749766Y-37124361D01*
X24869296Y-37303250D01*
X24951628Y-37502017D01*
X24993600Y-37713026D01*
X24993600Y-37928174D01*
X24951628Y-38139183D01*
X24869296Y-38337950D01*
X24749766Y-38516839D01*
X24597639Y-38668966D01*
X24418750Y-38788496D01*
X24219983Y-38870828D01*
X24050691Y-38904502D01*
X24027242Y-38911615D01*
X24005631Y-38923166D01*
X23986689Y-38938712D01*
X23971143Y-38957654D01*
X23959592Y-38979264D01*
X23952479Y-39002714D01*
X23950077Y-39027100D01*
X23952479Y-39051486D01*
X23959592Y-39074935D01*
X23971143Y-39096546D01*
X23986689Y-39115488D01*
X24005631Y-39131034D01*
X24027241Y-39142585D01*
X24050691Y-39149698D01*
X24219983Y-39183372D01*
X24418750Y-39265704D01*
X24597639Y-39385234D01*
X24749766Y-39537361D01*
X24869296Y-39716250D01*
X24951628Y-39915017D01*
X24988997Y-40102886D01*
X24996110Y-40126335D01*
X25007661Y-40147946D01*
X25023207Y-40166888D01*
X25042149Y-40182434D01*
X25063759Y-40193985D01*
X25087209Y-40201098D01*
X25111595Y-40203500D01*
X25135981Y-40201098D01*
X25159430Y-40193985D01*
X25181041Y-40182434D01*
X25199983Y-40166888D01*
X25215529Y-40147946D01*
X25227080Y-40126336D01*
X25234193Y-40102886D01*
X25235993Y-40090752D01*
X25238877Y-40061470D01*
X25254493Y-40009990D01*
X25279846Y-39962558D01*
X25313973Y-39920973D01*
X25355558Y-39886846D01*
X25402990Y-39861493D01*
X25454470Y-39845877D01*
X25514140Y-39840000D01*
X26301860Y-39840000D01*
X26361530Y-39845877D01*
X26413010Y-39861493D01*
X26460442Y-39886846D01*
X26502027Y-39920973D01*
X26536154Y-39962558D01*
X26561507Y-40009990D01*
X26577123Y-40061470D01*
X26583000Y-40121140D01*
X26583000Y-41008860D01*
X26577123Y-41068530D01*
X26561507Y-41120010D01*
X26536154Y-41167442D01*
X26502027Y-41209027D01*
X26460442Y-41243154D01*
X26413010Y-41268507D01*
X26361530Y-41284123D01*
X26301860Y-41290000D01*
X25514140Y-41290000D01*
X25454470Y-41284123D01*
X25402990Y-41268507D01*
X25355558Y-41243154D01*
X25313973Y-41209027D01*
X25279846Y-41167442D01*
X25254493Y-41120010D01*
X25238877Y-41068530D01*
X25233000Y-41008860D01*
X25233000Y-40406774D01*
X25230598Y-40382388D01*
X25223485Y-40358939D01*
X25211934Y-40337328D01*
X25196388Y-40318386D01*
X25177446Y-40302840D01*
X25155835Y-40291289D01*
X25132386Y-40284176D01*
X25108000Y-40281774D01*
X25083614Y-40284176D01*
X25060165Y-40291289D01*
X25038554Y-40302840D01*
X25019612Y-40318386D01*
X25004066Y-40337328D01*
X24992515Y-40358939D01*
X24985402Y-40382388D01*
X24951628Y-40552183D01*
X24869296Y-40750950D01*
X24749766Y-40929839D01*
X24597639Y-41081966D01*
X24418750Y-41201496D01*
X24219983Y-41283828D01*
X24008974Y-41325800D01*
X23793826Y-41325800D01*
X23582817Y-41283828D01*
X23384050Y-41201496D01*
X23205161Y-41081966D01*
X23053034Y-40929839D01*
X22933504Y-40750950D01*
X22851172Y-40552183D01*
X22809200Y-40341174D01*
X22809200Y-40126026D01*
X22851172Y-39915017D01*
X22933504Y-39716250D01*
X23053034Y-39537361D01*
X23205161Y-39385234D01*
X23384050Y-39265704D01*
X23582817Y-39183372D01*
X23752109Y-39149698D01*
X23775558Y-39142585D01*
X23797169Y-39131034D01*
X23816111Y-39115488D01*
X23831657Y-39096546D01*
X23843208Y-39074936D01*
X23850321Y-39051486D01*
X23852723Y-39027100D01*
X23850321Y-39002714D01*
X23843208Y-38979265D01*
X23831657Y-38957654D01*
X23816111Y-38938712D01*
X23797169Y-38923166D01*
X23775559Y-38911615D01*
X23752109Y-38904502D01*
X23582817Y-38870828D01*
X23384050Y-38788496D01*
X23205161Y-38668966D01*
X23053034Y-38516839D01*
X22933504Y-38337950D01*
X22851172Y-38139183D01*
X22809200Y-37928174D01*
X22809200Y-37713026D01*
X22851172Y-37502017D01*
X22933504Y-37303250D01*
X23053034Y-37124361D01*
X23205161Y-36972234D01*
X23384050Y-36852704D01*
X23582817Y-36770372D01*
X23793826Y-36728400D01*
X24008974Y-36728400D01*
X24219983Y-36770372D01*
X24219983Y-36770372D01*
G37*
G36*
X34379983Y-36770372D02*
X34578750Y-36852704D01*
X34757639Y-36972234D01*
X34909766Y-37124361D01*
X35029296Y-37303250D01*
X35111628Y-37502017D01*
X35153600Y-37713026D01*
X35153600Y-37928174D01*
X35111628Y-38139183D01*
X35029296Y-38337950D01*
X34909766Y-38516839D01*
X34757639Y-38668966D01*
X34578750Y-38788496D01*
X34379983Y-38870828D01*
X34210691Y-38904502D01*
X34187242Y-38911615D01*
X34165631Y-38923166D01*
X34146689Y-38938712D01*
X34131143Y-38957654D01*
X34119592Y-38979264D01*
X34112479Y-39002714D01*
X34110077Y-39027100D01*
X34112479Y-39051486D01*
X34119592Y-39074935D01*
X34131143Y-39096546D01*
X34146689Y-39115488D01*
X34165631Y-39131034D01*
X34187241Y-39142585D01*
X34210691Y-39149698D01*
X34379983Y-39183372D01*
X34578750Y-39265704D01*
X34757639Y-39385234D01*
X34909766Y-39537361D01*
X35029296Y-39716250D01*
X35111628Y-39915017D01*
X35153600Y-40126026D01*
X35153600Y-40341174D01*
X35111628Y-40552183D01*
X35029296Y-40750950D01*
X34909766Y-40929839D01*
X34757639Y-41081966D01*
X34578750Y-41201496D01*
X34379983Y-41283828D01*
X34168974Y-41325800D01*
X33953826Y-41325800D01*
X33742817Y-41283828D01*
X33544050Y-41201496D01*
X33365161Y-41081966D01*
X33213034Y-40929839D01*
X33093504Y-40750950D01*
X33011172Y-40552183D01*
X32969200Y-40341174D01*
X32969200Y-40126026D01*
X33011172Y-39915017D01*
X33093504Y-39716250D01*
X33213034Y-39537361D01*
X33365161Y-39385234D01*
X33544050Y-39265704D01*
X33742817Y-39183372D01*
X33912109Y-39149698D01*
X33935558Y-39142585D01*
X33957169Y-39131034D01*
X33976111Y-39115488D01*
X33991657Y-39096546D01*
X34003208Y-39074936D01*
X34010321Y-39051486D01*
X34012723Y-39027100D01*
X34010321Y-39002714D01*
X34003208Y-38979265D01*
X33991657Y-38957654D01*
X33976111Y-38938712D01*
X33957169Y-38923166D01*
X33935559Y-38911615D01*
X33912109Y-38904502D01*
X33742817Y-38870828D01*
X33544050Y-38788496D01*
X33365161Y-38668966D01*
X33213034Y-38516839D01*
X33093504Y-38337950D01*
X33011172Y-38139183D01*
X32969200Y-37928174D01*
X32969200Y-37713026D01*
X33011172Y-37502017D01*
X33093504Y-37303250D01*
X33213034Y-37124361D01*
X33365161Y-36972234D01*
X33544050Y-36852704D01*
X33742817Y-36770372D01*
X33953826Y-36728400D01*
X34168974Y-36728400D01*
X34379983Y-36770372D01*
X34379983Y-36770372D01*
G37*
G36*
X44539983Y-36770372D02*
X44738750Y-36852704D01*
X44917639Y-36972234D01*
X45069766Y-37124361D01*
X45189296Y-37303250D01*
X45271628Y-37502017D01*
X45313600Y-37713026D01*
X45313600Y-37928174D01*
X45271628Y-38139183D01*
X45189296Y-38337950D01*
X45069766Y-38516839D01*
X44917639Y-38668966D01*
X44738750Y-38788496D01*
X44539983Y-38870828D01*
X44370691Y-38904502D01*
X44347242Y-38911615D01*
X44325631Y-38923166D01*
X44306689Y-38938712D01*
X44291143Y-38957654D01*
X44279592Y-38979264D01*
X44272479Y-39002714D01*
X44270077Y-39027100D01*
X44272479Y-39051486D01*
X44279592Y-39074935D01*
X44291143Y-39096546D01*
X44306689Y-39115488D01*
X44325631Y-39131034D01*
X44347241Y-39142585D01*
X44370691Y-39149698D01*
X44539983Y-39183372D01*
X44738750Y-39265704D01*
X44917639Y-39385234D01*
X45069766Y-39537361D01*
X45189296Y-39716250D01*
X45271628Y-39915017D01*
X45313600Y-40126026D01*
X45313600Y-40341174D01*
X45271628Y-40552183D01*
X45189296Y-40750950D01*
X45069766Y-40929839D01*
X44917639Y-41081966D01*
X44738750Y-41201496D01*
X44539983Y-41283828D01*
X44328974Y-41325800D01*
X44113826Y-41325800D01*
X43902817Y-41283828D01*
X43704050Y-41201496D01*
X43525161Y-41081966D01*
X43373034Y-40929839D01*
X43253504Y-40750950D01*
X43171172Y-40552183D01*
X43129200Y-40341174D01*
X43129200Y-40126026D01*
X43171172Y-39915017D01*
X43253504Y-39716250D01*
X43373034Y-39537361D01*
X43525161Y-39385234D01*
X43704050Y-39265704D01*
X43902817Y-39183372D01*
X44072109Y-39149698D01*
X44095558Y-39142585D01*
X44117169Y-39131034D01*
X44136111Y-39115488D01*
X44151657Y-39096546D01*
X44163208Y-39074936D01*
X44170321Y-39051486D01*
X44172723Y-39027100D01*
X44170321Y-39002714D01*
X44163208Y-38979265D01*
X44151657Y-38957654D01*
X44136111Y-38938712D01*
X44117169Y-38923166D01*
X44095559Y-38911615D01*
X44072109Y-38904502D01*
X43902817Y-38870828D01*
X43704050Y-38788496D01*
X43525161Y-38668966D01*
X43373034Y-38516839D01*
X43253504Y-38337950D01*
X43171172Y-38139183D01*
X43129200Y-37928174D01*
X43129200Y-37713026D01*
X43171172Y-37502017D01*
X43253504Y-37303250D01*
X43373034Y-37124361D01*
X43525161Y-36972234D01*
X43704050Y-36852704D01*
X43902817Y-36770372D01*
X44113826Y-36728400D01*
X44328974Y-36728400D01*
X44539983Y-36770372D01*
X44539983Y-36770372D01*
G37*
G36*
X74875530Y-39638877D02*
X74927010Y-39654493D01*
X74974442Y-39679846D01*
X75016027Y-39713973D01*
X75050154Y-39755558D01*
X75075507Y-39802990D01*
X75091123Y-39854470D01*
X75097000Y-39914140D01*
X75097000Y-40801860D01*
X75091123Y-40861530D01*
X75075507Y-40913010D01*
X75050154Y-40960442D01*
X75016027Y-41002027D01*
X74974442Y-41036154D01*
X74927010Y-41061507D01*
X74875530Y-41077123D01*
X74815860Y-41083000D01*
X74028140Y-41083000D01*
X73968470Y-41077123D01*
X73916990Y-41061507D01*
X73869558Y-41036154D01*
X73827973Y-41002027D01*
X73793846Y-40960442D01*
X73768493Y-40913010D01*
X73752877Y-40861530D01*
X73747000Y-40801860D01*
X73747000Y-39914140D01*
X73752877Y-39854470D01*
X73768493Y-39802990D01*
X73793846Y-39755558D01*
X73827973Y-39713973D01*
X73869558Y-39679846D01*
X73916990Y-39654493D01*
X73968470Y-39638877D01*
X74028140Y-39633000D01*
X74815860Y-39633000D01*
X74875530Y-39638877D01*
X74875530Y-39638877D01*
G37*
G36*
X32203530Y-39619877D02*
X32255010Y-39635493D01*
X32302442Y-39660846D01*
X32344027Y-39694973D01*
X32378154Y-39736558D01*
X32403507Y-39783990D01*
X32419123Y-39835470D01*
X32425000Y-39895140D01*
X32425000Y-40782860D01*
X32419123Y-40842530D01*
X32403507Y-40894010D01*
X32378154Y-40941442D01*
X32344027Y-40983027D01*
X32302442Y-41017154D01*
X32255010Y-41042507D01*
X32203530Y-41058123D01*
X32143860Y-41064000D01*
X31356140Y-41064000D01*
X31296470Y-41058123D01*
X31244990Y-41042507D01*
X31197558Y-41017154D01*
X31155973Y-40983027D01*
X31121846Y-40941442D01*
X31096493Y-40894010D01*
X31080877Y-40842530D01*
X31075000Y-40782860D01*
X31075000Y-39895140D01*
X31080877Y-39835470D01*
X31096493Y-39783990D01*
X31121846Y-39736558D01*
X31155973Y-39694973D01*
X31197558Y-39660846D01*
X31244990Y-39635493D01*
X31296470Y-39619877D01*
X31356140Y-39614000D01*
X32143860Y-39614000D01*
X32203530Y-39619877D01*
X32203530Y-39619877D01*
G37*
G36*
X69439130Y-39716877D02*
X69490610Y-39732493D01*
X69538042Y-39757846D01*
X69579627Y-39791973D01*
X69613754Y-39833558D01*
X69639107Y-39880990D01*
X69654723Y-39932470D01*
X69660600Y-39992140D01*
X69660600Y-40779860D01*
X69654723Y-40839530D01*
X69639107Y-40891010D01*
X69613754Y-40938442D01*
X69579627Y-40980027D01*
X69538042Y-41014154D01*
X69490610Y-41039507D01*
X69439130Y-41055123D01*
X69379460Y-41061000D01*
X68491740Y-41061000D01*
X68432070Y-41055123D01*
X68380590Y-41039507D01*
X68333158Y-41014154D01*
X68291573Y-40980027D01*
X68257446Y-40938442D01*
X68232093Y-40891010D01*
X68216477Y-40839530D01*
X68210600Y-40779860D01*
X68210600Y-39992140D01*
X68216477Y-39932470D01*
X68232093Y-39880990D01*
X68257446Y-39833558D01*
X68291573Y-39791973D01*
X68333158Y-39757846D01*
X68380590Y-39732493D01*
X68432070Y-39716877D01*
X68491740Y-39711000D01*
X69379460Y-39711000D01*
X69439130Y-39716877D01*
X69439130Y-39716877D01*
G37*
G36*
X67689130Y-39716877D02*
X67740610Y-39732493D01*
X67788042Y-39757846D01*
X67829627Y-39791973D01*
X67863754Y-39833558D01*
X67889107Y-39880990D01*
X67904723Y-39932470D01*
X67910600Y-39992140D01*
X67910600Y-40779860D01*
X67904723Y-40839530D01*
X67889107Y-40891010D01*
X67863754Y-40938442D01*
X67829627Y-40980027D01*
X67788042Y-41014154D01*
X67740610Y-41039507D01*
X67689130Y-41055123D01*
X67629460Y-41061000D01*
X66741740Y-41061000D01*
X66682070Y-41055123D01*
X66630590Y-41039507D01*
X66583158Y-41014154D01*
X66541573Y-40980027D01*
X66507446Y-40938442D01*
X66482093Y-40891010D01*
X66466477Y-40839530D01*
X66460600Y-40779860D01*
X66460600Y-39992140D01*
X66466477Y-39932470D01*
X66482093Y-39880990D01*
X66507446Y-39833558D01*
X66541573Y-39791973D01*
X66583158Y-39757846D01*
X66630590Y-39732493D01*
X66682070Y-39716877D01*
X66741740Y-39711000D01*
X67629460Y-39711000D01*
X67689130Y-39716877D01*
X67689130Y-39716877D01*
G37*
G36*
X71397530Y-39716877D02*
X71449010Y-39732493D01*
X71496442Y-39757846D01*
X71538027Y-39791973D01*
X71572154Y-39833558D01*
X71597507Y-39880990D01*
X71613123Y-39932470D01*
X71619000Y-39992140D01*
X71619000Y-40779860D01*
X71613123Y-40839530D01*
X71597507Y-40891010D01*
X71572154Y-40938442D01*
X71538027Y-40980027D01*
X71496442Y-41014154D01*
X71449010Y-41039507D01*
X71397530Y-41055123D01*
X71337860Y-41061000D01*
X70450140Y-41061000D01*
X70390470Y-41055123D01*
X70338990Y-41039507D01*
X70291558Y-41014154D01*
X70249973Y-40980027D01*
X70215846Y-40938442D01*
X70190493Y-40891010D01*
X70174877Y-40839530D01*
X70169000Y-40779860D01*
X70169000Y-39992140D01*
X70174877Y-39932470D01*
X70190493Y-39880990D01*
X70215846Y-39833558D01*
X70249973Y-39791973D01*
X70291558Y-39757846D01*
X70338990Y-39732493D01*
X70390470Y-39716877D01*
X70450140Y-39711000D01*
X71337860Y-39711000D01*
X71397530Y-39716877D01*
X71397530Y-39716877D01*
G37*
G36*
X73147530Y-39716877D02*
X73199010Y-39732493D01*
X73246442Y-39757846D01*
X73288027Y-39791973D01*
X73322154Y-39833558D01*
X73347507Y-39880990D01*
X73363123Y-39932470D01*
X73369000Y-39992140D01*
X73369000Y-40779860D01*
X73363123Y-40839530D01*
X73347507Y-40891010D01*
X73322154Y-40938442D01*
X73288027Y-40980027D01*
X73246442Y-41014154D01*
X73199010Y-41039507D01*
X73147530Y-41055123D01*
X73087860Y-41061000D01*
X72200140Y-41061000D01*
X72140470Y-41055123D01*
X72088990Y-41039507D01*
X72041558Y-41014154D01*
X71999973Y-40980027D01*
X71965846Y-40938442D01*
X71940493Y-40891010D01*
X71924877Y-40839530D01*
X71919000Y-40779860D01*
X71919000Y-39992140D01*
X71924877Y-39932470D01*
X71940493Y-39880990D01*
X71965846Y-39833558D01*
X71999973Y-39791973D01*
X72041558Y-39757846D01*
X72088990Y-39732493D01*
X72140470Y-39716877D01*
X72200140Y-39711000D01*
X73087860Y-39711000D01*
X73147530Y-39716877D01*
X73147530Y-39716877D01*
G37*
G36*
X64258330Y-39514477D02*
X64309810Y-39530093D01*
X64357242Y-39555446D01*
X64398827Y-39589573D01*
X64432954Y-39631158D01*
X64458307Y-39678590D01*
X64473923Y-39730070D01*
X64479800Y-39789740D01*
X64479800Y-40677460D01*
X64473923Y-40737130D01*
X64458307Y-40788610D01*
X64432954Y-40836042D01*
X64398827Y-40877627D01*
X64357242Y-40911754D01*
X64309810Y-40937107D01*
X64258330Y-40952723D01*
X64198660Y-40958600D01*
X63410940Y-40958600D01*
X63351270Y-40952723D01*
X63299790Y-40937107D01*
X63252358Y-40911754D01*
X63210773Y-40877627D01*
X63176646Y-40836042D01*
X63151293Y-40788610D01*
X63135677Y-40737130D01*
X63129800Y-40677460D01*
X63129800Y-39789740D01*
X63135677Y-39730070D01*
X63151293Y-39678590D01*
X63176646Y-39631158D01*
X63210773Y-39589573D01*
X63252358Y-39555446D01*
X63299790Y-39530093D01*
X63351270Y-39514477D01*
X63410940Y-39508600D01*
X64198660Y-39508600D01*
X64258330Y-39514477D01*
X64258330Y-39514477D01*
G37*
G36*
X58111530Y-38621877D02*
X58163010Y-38637493D01*
X58210442Y-38662846D01*
X58252027Y-38696973D01*
X58286154Y-38738558D01*
X58311507Y-38785990D01*
X58327123Y-38837470D01*
X58333000Y-38897140D01*
X58333000Y-39784860D01*
X58327123Y-39844530D01*
X58311507Y-39896010D01*
X58286154Y-39943442D01*
X58252027Y-39985027D01*
X58210442Y-40019154D01*
X58163010Y-40044507D01*
X58111530Y-40060123D01*
X58051860Y-40066000D01*
X57264140Y-40066000D01*
X57204470Y-40060123D01*
X57152990Y-40044507D01*
X57105558Y-40019154D01*
X57063973Y-39985027D01*
X57029846Y-39943442D01*
X57004493Y-39896010D01*
X56988877Y-39844530D01*
X56983000Y-39784860D01*
X56983000Y-38897140D01*
X56988877Y-38837470D01*
X57004493Y-38785990D01*
X57029846Y-38738558D01*
X57063973Y-38696973D01*
X57105558Y-38662846D01*
X57152990Y-38637493D01*
X57204470Y-38621877D01*
X57264140Y-38616000D01*
X58051860Y-38616000D01*
X58111530Y-38621877D01*
X58111530Y-38621877D01*
G37*
G36*
X56079530Y-38621877D02*
X56131010Y-38637493D01*
X56178442Y-38662846D01*
X56220027Y-38696973D01*
X56254154Y-38738558D01*
X56279507Y-38785990D01*
X56295123Y-38837470D01*
X56301000Y-38897140D01*
X56301000Y-39784860D01*
X56295123Y-39844530D01*
X56279507Y-39896010D01*
X56254154Y-39943442D01*
X56220027Y-39985027D01*
X56178442Y-40019154D01*
X56131010Y-40044507D01*
X56079530Y-40060123D01*
X56019860Y-40066000D01*
X55232140Y-40066000D01*
X55172470Y-40060123D01*
X55120990Y-40044507D01*
X55073558Y-40019154D01*
X55031973Y-39985027D01*
X54997846Y-39943442D01*
X54972493Y-39896010D01*
X54956877Y-39844530D01*
X54951000Y-39784860D01*
X54951000Y-38897140D01*
X54956877Y-38837470D01*
X54972493Y-38785990D01*
X54997846Y-38738558D01*
X55031973Y-38696973D01*
X55073558Y-38662846D01*
X55120990Y-38637493D01*
X55172470Y-38621877D01*
X55232140Y-38616000D01*
X56019860Y-38616000D01*
X56079530Y-38621877D01*
X56079530Y-38621877D01*
G37*
G36*
X38676930Y-38221710D02*
X38726779Y-38236831D01*
X38772711Y-38261382D01*
X38812974Y-38294426D01*
X38846018Y-38334689D01*
X38870569Y-38380621D01*
X38885690Y-38430470D01*
X38891400Y-38488444D01*
X38891400Y-39743556D01*
X38885690Y-39801530D01*
X38870569Y-39851379D01*
X38846018Y-39897311D01*
X38812974Y-39937574D01*
X38772711Y-39970618D01*
X38726779Y-39995169D01*
X38676930Y-40010290D01*
X38618956Y-40016000D01*
X37613844Y-40016000D01*
X37555870Y-40010290D01*
X37506021Y-39995169D01*
X37460089Y-39970618D01*
X37419826Y-39937574D01*
X37386782Y-39897311D01*
X37362231Y-39851379D01*
X37347110Y-39801530D01*
X37341400Y-39743556D01*
X37341400Y-38488444D01*
X37347110Y-38430470D01*
X37362231Y-38380621D01*
X37386782Y-38334689D01*
X37419826Y-38294426D01*
X37460089Y-38261382D01*
X37506021Y-38236831D01*
X37555870Y-38221710D01*
X37613844Y-38216000D01*
X38618956Y-38216000D01*
X38676930Y-38221710D01*
X38676930Y-38221710D01*
G37*
G36*
X40726930Y-38221710D02*
X40776779Y-38236831D01*
X40822711Y-38261382D01*
X40862974Y-38294426D01*
X40896018Y-38334689D01*
X40920569Y-38380621D01*
X40935690Y-38430470D01*
X40941400Y-38488444D01*
X40941400Y-39743556D01*
X40935690Y-39801530D01*
X40920569Y-39851379D01*
X40896018Y-39897311D01*
X40862974Y-39937574D01*
X40822711Y-39970618D01*
X40776779Y-39995169D01*
X40726930Y-40010290D01*
X40668956Y-40016000D01*
X39663844Y-40016000D01*
X39605870Y-40010290D01*
X39556021Y-39995169D01*
X39510089Y-39970618D01*
X39469826Y-39937574D01*
X39436782Y-39897311D01*
X39412231Y-39851379D01*
X39397110Y-39801530D01*
X39391400Y-39743556D01*
X39391400Y-38488444D01*
X39397110Y-38430470D01*
X39412231Y-38380621D01*
X39436782Y-38334689D01*
X39469826Y-38294426D01*
X39510089Y-38261382D01*
X39556021Y-38236831D01*
X39605870Y-38221710D01*
X39663844Y-38216000D01*
X40668956Y-38216000D01*
X40726930Y-38221710D01*
X40726930Y-38221710D01*
G37*
G36*
X62594000Y-39970000D02*
X61394000Y-39970000D01*
X61394000Y-38670000D01*
X62594000Y-38670000D01*
X62594000Y-39970000D01*
X62594000Y-39970000D01*
G37*
G36*
X60694000Y-39970000D02*
X59494000Y-39970000D01*
X59494000Y-38670000D01*
X60694000Y-38670000D01*
X60694000Y-39970000D01*
X60694000Y-39970000D01*
G37*
G36*
X21789530Y-38317077D02*
X21841010Y-38332693D01*
X21888442Y-38358046D01*
X21930027Y-38392173D01*
X21964154Y-38433758D01*
X21989507Y-38481190D01*
X22005123Y-38532670D01*
X22011000Y-38592340D01*
X22011000Y-39480060D01*
X22005123Y-39539730D01*
X21989507Y-39591210D01*
X21964154Y-39638642D01*
X21930027Y-39680227D01*
X21888442Y-39714354D01*
X21841010Y-39739707D01*
X21789530Y-39755323D01*
X21729860Y-39761200D01*
X20942140Y-39761200D01*
X20882470Y-39755323D01*
X20830990Y-39739707D01*
X20783558Y-39714354D01*
X20741973Y-39680227D01*
X20707846Y-39638642D01*
X20682493Y-39591210D01*
X20666877Y-39539730D01*
X20661000Y-39480060D01*
X20661000Y-38592340D01*
X20666877Y-38532670D01*
X20682493Y-38481190D01*
X20707846Y-38433758D01*
X20741973Y-38392173D01*
X20783558Y-38358046D01*
X20830990Y-38332693D01*
X20882470Y-38317077D01*
X20942140Y-38311200D01*
X21729860Y-38311200D01*
X21789530Y-38317077D01*
X21789530Y-38317077D01*
G37*
G36*
X26361530Y-38095877D02*
X26413010Y-38111493D01*
X26460442Y-38136846D01*
X26502027Y-38170973D01*
X26536154Y-38212558D01*
X26561507Y-38259990D01*
X26577123Y-38311470D01*
X26583000Y-38371140D01*
X26583000Y-39258860D01*
X26577123Y-39318530D01*
X26561507Y-39370010D01*
X26536154Y-39417442D01*
X26502027Y-39459027D01*
X26460442Y-39493154D01*
X26413010Y-39518507D01*
X26361530Y-39534123D01*
X26301860Y-39540000D01*
X25514140Y-39540000D01*
X25454470Y-39534123D01*
X25402990Y-39518507D01*
X25355558Y-39493154D01*
X25313973Y-39459027D01*
X25279846Y-39417442D01*
X25254493Y-39370010D01*
X25238877Y-39318530D01*
X25233000Y-39258860D01*
X25233000Y-38371140D01*
X25238877Y-38311470D01*
X25254493Y-38259990D01*
X25279846Y-38212558D01*
X25313973Y-38170973D01*
X25355558Y-38136846D01*
X25402990Y-38111493D01*
X25454470Y-38095877D01*
X25514140Y-38090000D01*
X26301860Y-38090000D01*
X26361530Y-38095877D01*
X26361530Y-38095877D01*
G37*
G36*
X28810630Y-38002377D02*
X28862110Y-38017993D01*
X28909542Y-38043346D01*
X28951127Y-38077473D01*
X28985254Y-38119058D01*
X29010607Y-38166490D01*
X29026223Y-38217970D01*
X29032100Y-38277640D01*
X29032100Y-39065360D01*
X29026223Y-39125030D01*
X29010607Y-39176510D01*
X28985254Y-39223942D01*
X28951127Y-39265527D01*
X28909542Y-39299654D01*
X28862110Y-39325007D01*
X28810630Y-39340623D01*
X28750960Y-39346500D01*
X27863240Y-39346500D01*
X27803570Y-39340623D01*
X27752090Y-39325007D01*
X27704658Y-39299654D01*
X27663073Y-39265527D01*
X27628946Y-39223942D01*
X27603593Y-39176510D01*
X27587977Y-39125030D01*
X27582100Y-39065360D01*
X27582100Y-38277640D01*
X27587977Y-38217970D01*
X27603593Y-38166490D01*
X27628946Y-38119058D01*
X27663073Y-38077473D01*
X27704658Y-38043346D01*
X27752090Y-38017993D01*
X27803570Y-38002377D01*
X27863240Y-37996500D01*
X28750960Y-37996500D01*
X28810630Y-38002377D01*
X28810630Y-38002377D01*
G37*
G36*
X30560630Y-38002377D02*
X30612110Y-38017993D01*
X30659542Y-38043346D01*
X30701127Y-38077473D01*
X30735254Y-38119058D01*
X30760607Y-38166490D01*
X30776223Y-38217970D01*
X30782100Y-38277640D01*
X30782100Y-39065360D01*
X30776223Y-39125030D01*
X30760607Y-39176510D01*
X30735254Y-39223942D01*
X30701127Y-39265527D01*
X30659542Y-39299654D01*
X30612110Y-39325007D01*
X30560630Y-39340623D01*
X30500960Y-39346500D01*
X29613240Y-39346500D01*
X29553570Y-39340623D01*
X29502090Y-39325007D01*
X29454658Y-39299654D01*
X29413073Y-39265527D01*
X29378946Y-39223942D01*
X29353593Y-39176510D01*
X29337977Y-39125030D01*
X29332100Y-39065360D01*
X29332100Y-38277640D01*
X29337977Y-38217970D01*
X29353593Y-38166490D01*
X29378946Y-38119058D01*
X29413073Y-38077473D01*
X29454658Y-38043346D01*
X29502090Y-38017993D01*
X29553570Y-38002377D01*
X29613240Y-37996500D01*
X30500960Y-37996500D01*
X30560630Y-38002377D01*
X30560630Y-38002377D01*
G37*
G36*
X74875530Y-37888877D02*
X74927010Y-37904493D01*
X74974442Y-37929846D01*
X75016027Y-37963973D01*
X75050154Y-38005558D01*
X75075507Y-38052990D01*
X75091123Y-38104470D01*
X75097000Y-38164140D01*
X75097000Y-39051860D01*
X75091123Y-39111530D01*
X75075507Y-39163010D01*
X75050154Y-39210442D01*
X75016027Y-39252027D01*
X74974442Y-39286154D01*
X74927010Y-39311507D01*
X74875530Y-39327123D01*
X74815860Y-39333000D01*
X74028140Y-39333000D01*
X73968470Y-39327123D01*
X73916990Y-39311507D01*
X73869558Y-39286154D01*
X73827973Y-39252027D01*
X73793846Y-39210442D01*
X73768493Y-39163010D01*
X73752877Y-39111530D01*
X73747000Y-39051860D01*
X73747000Y-38164140D01*
X73752877Y-38104470D01*
X73768493Y-38052990D01*
X73793846Y-38005558D01*
X73827973Y-37963973D01*
X73869558Y-37929846D01*
X73916990Y-37904493D01*
X73968470Y-37888877D01*
X74028140Y-37883000D01*
X74815860Y-37883000D01*
X74875530Y-37888877D01*
X74875530Y-37888877D01*
G37*
G36*
X51507530Y-37454543D02*
X51559010Y-37470159D01*
X51606442Y-37495512D01*
X51648027Y-37529639D01*
X51682154Y-37571224D01*
X51707507Y-37618656D01*
X51723123Y-37670136D01*
X51729000Y-37729806D01*
X51729000Y-38617526D01*
X51723123Y-38677196D01*
X51707507Y-38728676D01*
X51682154Y-38776108D01*
X51648027Y-38817693D01*
X51606442Y-38851820D01*
X51559010Y-38877173D01*
X51507530Y-38892789D01*
X51447860Y-38898666D01*
X50660140Y-38898666D01*
X50600470Y-38892789D01*
X50548990Y-38877173D01*
X50501558Y-38851820D01*
X50459973Y-38817693D01*
X50425846Y-38776108D01*
X50400493Y-38728676D01*
X50384877Y-38677196D01*
X50379000Y-38617526D01*
X50379000Y-37729806D01*
X50384877Y-37670136D01*
X50400493Y-37618656D01*
X50425846Y-37571224D01*
X50459973Y-37529639D01*
X50501558Y-37495512D01*
X50548990Y-37470159D01*
X50600470Y-37454543D01*
X50660140Y-37448666D01*
X51447860Y-37448666D01*
X51507530Y-37454543D01*
X51507530Y-37454543D01*
G37*
G36*
X53336330Y-37443077D02*
X53387810Y-37458693D01*
X53435242Y-37484046D01*
X53476827Y-37518173D01*
X53510954Y-37559758D01*
X53536307Y-37607190D01*
X53551923Y-37658670D01*
X53557800Y-37718340D01*
X53557800Y-38606060D01*
X53551923Y-38665730D01*
X53536307Y-38717210D01*
X53510954Y-38764642D01*
X53476827Y-38806227D01*
X53435242Y-38840354D01*
X53387810Y-38865707D01*
X53336330Y-38881323D01*
X53276660Y-38887200D01*
X52488940Y-38887200D01*
X52429270Y-38881323D01*
X52377790Y-38865707D01*
X52330358Y-38840354D01*
X52288773Y-38806227D01*
X52254646Y-38764642D01*
X52229293Y-38717210D01*
X52213677Y-38665730D01*
X52207800Y-38606060D01*
X52207800Y-37718340D01*
X52213677Y-37658670D01*
X52229293Y-37607190D01*
X52254646Y-37559758D01*
X52288773Y-37518173D01*
X52330358Y-37484046D01*
X52377790Y-37458693D01*
X52429270Y-37443077D01*
X52488940Y-37437200D01*
X53276660Y-37437200D01*
X53336330Y-37443077D01*
X53336330Y-37443077D01*
G37*
G36*
X48760983Y-37382450D02*
X48888374Y-37435218D01*
X49003024Y-37511824D01*
X49100526Y-37609326D01*
X49169817Y-37713028D01*
X49177132Y-37723976D01*
X49229900Y-37851367D01*
X49256800Y-37986605D01*
X49256800Y-38124495D01*
X49229900Y-38259733D01*
X49187681Y-38361657D01*
X49177132Y-38387124D01*
X49100526Y-38501774D01*
X49003024Y-38599276D01*
X48939545Y-38641691D01*
X48888374Y-38675882D01*
X48760983Y-38728650D01*
X48625745Y-38755550D01*
X48487855Y-38755550D01*
X48352617Y-38728650D01*
X48225226Y-38675882D01*
X48174055Y-38641691D01*
X48110576Y-38599276D01*
X48013074Y-38501774D01*
X47936468Y-38387124D01*
X47925919Y-38361657D01*
X47883700Y-38259733D01*
X47856800Y-38124495D01*
X47856800Y-37986605D01*
X47883700Y-37851367D01*
X47936468Y-37723976D01*
X47943783Y-37713028D01*
X48013074Y-37609326D01*
X48110576Y-37511824D01*
X48225226Y-37435218D01*
X48352617Y-37382450D01*
X48487855Y-37355550D01*
X48625745Y-37355550D01*
X48760983Y-37382450D01*
X48760983Y-37382450D01*
G37*
G36*
X41835507Y-35076396D02*
X41912636Y-35083993D01*
X42044587Y-35124020D01*
X42110563Y-35144033D01*
X42292972Y-35241533D01*
X42452854Y-35372746D01*
X42584067Y-35532628D01*
X42681567Y-35715037D01*
X42690811Y-35745512D01*
X42741607Y-35912964D01*
X42761880Y-36118800D01*
X42741607Y-36324636D01*
X42701580Y-36456587D01*
X42681567Y-36522563D01*
X42584067Y-36704972D01*
X42452854Y-36864854D01*
X42292972Y-36996067D01*
X42110563Y-37093567D01*
X42051415Y-37111509D01*
X41912636Y-37153607D01*
X41835507Y-37161203D01*
X41758380Y-37168800D01*
X41655220Y-37168800D01*
X41578093Y-37161203D01*
X41500964Y-37153607D01*
X41362185Y-37111509D01*
X41303037Y-37093567D01*
X41120628Y-36996067D01*
X40960746Y-36864854D01*
X40829533Y-36704972D01*
X40732033Y-36522563D01*
X40712020Y-36456587D01*
X40671993Y-36324636D01*
X40651720Y-36118800D01*
X40671993Y-35912964D01*
X40722789Y-35745512D01*
X40732033Y-35715037D01*
X40829533Y-35532628D01*
X40960746Y-35372746D01*
X41120628Y-35241533D01*
X41303037Y-35144033D01*
X41369013Y-35124020D01*
X41500964Y-35083993D01*
X41578093Y-35076396D01*
X41655220Y-35068800D01*
X41758380Y-35068800D01*
X41835507Y-35076396D01*
X41835507Y-35076396D01*
G37*
G36*
X31573907Y-35076396D02*
X31651036Y-35083993D01*
X31782987Y-35124020D01*
X31848963Y-35144033D01*
X32031372Y-35241533D01*
X32191254Y-35372746D01*
X32322467Y-35532628D01*
X32419967Y-35715037D01*
X32429211Y-35745512D01*
X32480007Y-35912964D01*
X32500280Y-36118800D01*
X32480007Y-36324636D01*
X32439980Y-36456587D01*
X32419967Y-36522563D01*
X32322467Y-36704972D01*
X32191254Y-36864854D01*
X32031372Y-36996067D01*
X31848963Y-37093567D01*
X31789815Y-37111509D01*
X31651036Y-37153607D01*
X31573907Y-37161203D01*
X31496780Y-37168800D01*
X31393620Y-37168800D01*
X31316493Y-37161203D01*
X31239364Y-37153607D01*
X31100585Y-37111509D01*
X31041437Y-37093567D01*
X30859028Y-36996067D01*
X30699146Y-36864854D01*
X30567933Y-36704972D01*
X30470433Y-36522563D01*
X30450420Y-36456587D01*
X30410393Y-36324636D01*
X30390120Y-36118800D01*
X30410393Y-35912964D01*
X30461189Y-35745512D01*
X30470433Y-35715037D01*
X30567933Y-35532628D01*
X30699146Y-35372746D01*
X30859028Y-35241533D01*
X31041437Y-35144033D01*
X31107413Y-35124020D01*
X31239364Y-35083993D01*
X31316493Y-35076396D01*
X31393620Y-35068800D01*
X31496780Y-35068800D01*
X31573907Y-35076396D01*
X31573907Y-35076396D01*
G37*
G36*
X56371200Y-37168800D02*
X54271200Y-37168800D01*
X54271200Y-35068800D01*
X56371200Y-35068800D01*
X56371200Y-37168800D01*
X56371200Y-37168800D01*
G37*
G36*
X29033907Y-35076396D02*
X29111036Y-35083993D01*
X29242987Y-35124020D01*
X29308963Y-35144033D01*
X29491372Y-35241533D01*
X29651254Y-35372746D01*
X29782467Y-35532628D01*
X29879967Y-35715037D01*
X29889211Y-35745512D01*
X29940007Y-35912964D01*
X29960280Y-36118800D01*
X29940007Y-36324636D01*
X29899980Y-36456587D01*
X29879967Y-36522563D01*
X29782467Y-36704972D01*
X29651254Y-36864854D01*
X29491372Y-36996067D01*
X29308963Y-37093567D01*
X29249815Y-37111509D01*
X29111036Y-37153607D01*
X29033907Y-37161203D01*
X28956780Y-37168800D01*
X28853620Y-37168800D01*
X28776493Y-37161203D01*
X28699364Y-37153607D01*
X28560585Y-37111509D01*
X28501437Y-37093567D01*
X28319028Y-36996067D01*
X28159146Y-36864854D01*
X28027933Y-36704972D01*
X27930433Y-36522563D01*
X27910420Y-36456587D01*
X27870393Y-36324636D01*
X27850120Y-36118800D01*
X27870393Y-35912964D01*
X27921189Y-35745512D01*
X27930433Y-35715037D01*
X28027933Y-35532628D01*
X28159146Y-35372746D01*
X28319028Y-35241533D01*
X28501437Y-35144033D01*
X28567413Y-35124020D01*
X28699364Y-35083993D01*
X28776493Y-35076396D01*
X28853620Y-35068800D01*
X28956780Y-35068800D01*
X29033907Y-35076396D01*
X29033907Y-35076396D01*
G37*
G36*
X27415200Y-37168800D02*
X25315200Y-37168800D01*
X25315200Y-35068800D01*
X27415200Y-35068800D01*
X27415200Y-37168800D01*
X27415200Y-37168800D01*
G37*
G36*
X57989907Y-35076396D02*
X58067036Y-35083993D01*
X58198987Y-35124020D01*
X58264963Y-35144033D01*
X58447372Y-35241533D01*
X58607254Y-35372746D01*
X58738467Y-35532628D01*
X58835967Y-35715037D01*
X58845211Y-35745512D01*
X58896007Y-35912964D01*
X58916280Y-36118800D01*
X58896007Y-36324636D01*
X58855980Y-36456587D01*
X58835967Y-36522563D01*
X58738467Y-36704972D01*
X58607254Y-36864854D01*
X58447372Y-36996067D01*
X58264963Y-37093567D01*
X58205815Y-37111509D01*
X58067036Y-37153607D01*
X57989907Y-37161203D01*
X57912780Y-37168800D01*
X57809620Y-37168800D01*
X57732493Y-37161203D01*
X57655364Y-37153607D01*
X57516585Y-37111509D01*
X57457437Y-37093567D01*
X57275028Y-36996067D01*
X57115146Y-36864854D01*
X56983933Y-36704972D01*
X56886433Y-36522563D01*
X56866420Y-36456587D01*
X56826393Y-36324636D01*
X56806120Y-36118800D01*
X56826393Y-35912964D01*
X56877189Y-35745512D01*
X56886433Y-35715037D01*
X56983933Y-35532628D01*
X57115146Y-35372746D01*
X57275028Y-35241533D01*
X57457437Y-35144033D01*
X57523413Y-35124020D01*
X57655364Y-35083993D01*
X57732493Y-35076396D01*
X57809620Y-35068800D01*
X57912780Y-35068800D01*
X57989907Y-35076396D01*
X57989907Y-35076396D01*
G37*
G36*
X39295507Y-35076396D02*
X39372636Y-35083993D01*
X39504587Y-35124020D01*
X39570563Y-35144033D01*
X39752972Y-35241533D01*
X39912854Y-35372746D01*
X40044067Y-35532628D01*
X40141567Y-35715037D01*
X40150811Y-35745512D01*
X40201607Y-35912964D01*
X40221880Y-36118800D01*
X40201607Y-36324636D01*
X40161580Y-36456587D01*
X40141567Y-36522563D01*
X40044067Y-36704972D01*
X39912854Y-36864854D01*
X39752972Y-36996067D01*
X39570563Y-37093567D01*
X39511415Y-37111509D01*
X39372636Y-37153607D01*
X39295507Y-37161203D01*
X39218380Y-37168800D01*
X39115220Y-37168800D01*
X39038093Y-37161203D01*
X38960964Y-37153607D01*
X38822185Y-37111509D01*
X38763037Y-37093567D01*
X38580628Y-36996067D01*
X38420746Y-36864854D01*
X38289533Y-36704972D01*
X38192033Y-36522563D01*
X38172020Y-36456587D01*
X38131993Y-36324636D01*
X38111720Y-36118800D01*
X38131993Y-35912964D01*
X38182789Y-35745512D01*
X38192033Y-35715037D01*
X38289533Y-35532628D01*
X38420746Y-35372746D01*
X38580628Y-35241533D01*
X38763037Y-35144033D01*
X38829013Y-35124020D01*
X38960964Y-35083993D01*
X39038093Y-35076396D01*
X39115220Y-35068800D01*
X39218380Y-35068800D01*
X39295507Y-35076396D01*
X39295507Y-35076396D01*
G37*
G36*
X37676800Y-37168800D02*
X35576800Y-37168800D01*
X35576800Y-35068800D01*
X37676800Y-35068800D01*
X37676800Y-37168800D01*
X37676800Y-37168800D01*
G37*
G36*
X66632800Y-37168800D02*
X64532800Y-37168800D01*
X64532800Y-35068800D01*
X66632800Y-35068800D01*
X66632800Y-37168800D01*
X66632800Y-37168800D01*
G37*
G36*
X68251507Y-35076396D02*
X68328636Y-35083993D01*
X68460587Y-35124020D01*
X68526563Y-35144033D01*
X68708972Y-35241533D01*
X68868854Y-35372746D01*
X69000067Y-35532628D01*
X69097567Y-35715037D01*
X69106811Y-35745512D01*
X69157607Y-35912964D01*
X69177880Y-36118800D01*
X69157607Y-36324636D01*
X69117580Y-36456587D01*
X69097567Y-36522563D01*
X69000067Y-36704972D01*
X68868854Y-36864854D01*
X68708972Y-36996067D01*
X68526563Y-37093567D01*
X68467415Y-37111509D01*
X68328636Y-37153607D01*
X68251507Y-37161203D01*
X68174380Y-37168800D01*
X68071220Y-37168800D01*
X67994093Y-37161203D01*
X67916964Y-37153607D01*
X67778185Y-37111509D01*
X67719037Y-37093567D01*
X67536628Y-36996067D01*
X67376746Y-36864854D01*
X67245533Y-36704972D01*
X67148033Y-36522563D01*
X67128020Y-36456587D01*
X67087993Y-36324636D01*
X67067720Y-36118800D01*
X67087993Y-35912964D01*
X67138789Y-35745512D01*
X67148033Y-35715037D01*
X67245533Y-35532628D01*
X67376746Y-35372746D01*
X67536628Y-35241533D01*
X67719037Y-35144033D01*
X67785013Y-35124020D01*
X67916964Y-35083993D01*
X67994093Y-35076396D01*
X68071220Y-35068800D01*
X68174380Y-35068800D01*
X68251507Y-35076396D01*
X68251507Y-35076396D01*
G37*
G36*
X70791507Y-35076396D02*
X70868636Y-35083993D01*
X71000587Y-35124020D01*
X71066563Y-35144033D01*
X71248972Y-35241533D01*
X71408854Y-35372746D01*
X71540067Y-35532628D01*
X71637567Y-35715037D01*
X71646811Y-35745512D01*
X71697607Y-35912964D01*
X71717880Y-36118800D01*
X71697607Y-36324636D01*
X71657580Y-36456587D01*
X71637567Y-36522563D01*
X71540067Y-36704972D01*
X71408854Y-36864854D01*
X71248972Y-36996067D01*
X71066563Y-37093567D01*
X71007415Y-37111509D01*
X70868636Y-37153607D01*
X70791507Y-37161203D01*
X70714380Y-37168800D01*
X70611220Y-37168800D01*
X70534093Y-37161203D01*
X70456964Y-37153607D01*
X70318185Y-37111509D01*
X70259037Y-37093567D01*
X70076628Y-36996067D01*
X69916746Y-36864854D01*
X69785533Y-36704972D01*
X69688033Y-36522563D01*
X69668020Y-36456587D01*
X69627993Y-36324636D01*
X69607720Y-36118800D01*
X69627993Y-35912964D01*
X69678789Y-35745512D01*
X69688033Y-35715037D01*
X69785533Y-35532628D01*
X69916746Y-35372746D01*
X70076628Y-35241533D01*
X70259037Y-35144033D01*
X70325013Y-35124020D01*
X70456964Y-35083993D01*
X70534093Y-35076396D01*
X70611220Y-35068800D01*
X70714380Y-35068800D01*
X70791507Y-35076396D01*
X70791507Y-35076396D01*
G37*
G36*
X60529907Y-35076396D02*
X60607036Y-35083993D01*
X60738987Y-35124020D01*
X60804963Y-35144033D01*
X60987372Y-35241533D01*
X61147254Y-35372746D01*
X61278467Y-35532628D01*
X61375967Y-35715037D01*
X61385211Y-35745512D01*
X61436007Y-35912964D01*
X61456280Y-36118800D01*
X61436007Y-36324636D01*
X61395980Y-36456587D01*
X61375967Y-36522563D01*
X61278467Y-36704972D01*
X61147254Y-36864854D01*
X60987372Y-36996067D01*
X60804963Y-37093567D01*
X60745815Y-37111509D01*
X60607036Y-37153607D01*
X60529907Y-37161203D01*
X60452780Y-37168800D01*
X60349620Y-37168800D01*
X60272493Y-37161203D01*
X60195364Y-37153607D01*
X60056585Y-37111509D01*
X59997437Y-37093567D01*
X59815028Y-36996067D01*
X59655146Y-36864854D01*
X59523933Y-36704972D01*
X59426433Y-36522563D01*
X59406420Y-36456587D01*
X59366393Y-36324636D01*
X59346120Y-36118800D01*
X59366393Y-35912964D01*
X59417189Y-35745512D01*
X59426433Y-35715037D01*
X59523933Y-35532628D01*
X59655146Y-35372746D01*
X59815028Y-35241533D01*
X59997437Y-35144033D01*
X60063413Y-35124020D01*
X60195364Y-35083993D01*
X60272493Y-35076396D01*
X60349620Y-35068800D01*
X60452780Y-35068800D01*
X60529907Y-35076396D01*
X60529907Y-35076396D01*
G37*
G36*
X51507530Y-35704543D02*
X51559010Y-35720159D01*
X51606442Y-35745512D01*
X51648027Y-35779639D01*
X51682154Y-35821224D01*
X51707507Y-35868656D01*
X51723123Y-35920136D01*
X51729000Y-35979806D01*
X51729000Y-36867526D01*
X51723123Y-36927196D01*
X51707507Y-36978676D01*
X51682154Y-37026108D01*
X51648027Y-37067693D01*
X51606442Y-37101820D01*
X51559010Y-37127173D01*
X51507530Y-37142789D01*
X51447860Y-37148666D01*
X50660140Y-37148666D01*
X50600470Y-37142789D01*
X50548990Y-37127173D01*
X50501558Y-37101820D01*
X50459973Y-37067693D01*
X50425846Y-37026108D01*
X50400493Y-36978676D01*
X50384877Y-36927196D01*
X50379000Y-36867526D01*
X50379000Y-35979806D01*
X50384877Y-35920136D01*
X50400493Y-35868656D01*
X50425846Y-35821224D01*
X50459973Y-35779639D01*
X50501558Y-35745512D01*
X50548990Y-35720159D01*
X50600470Y-35704543D01*
X50660140Y-35698666D01*
X51447860Y-35698666D01*
X51507530Y-35704543D01*
X51507530Y-35704543D01*
G37*
G36*
X53336330Y-35693077D02*
X53387810Y-35708693D01*
X53435242Y-35734046D01*
X53476827Y-35768173D01*
X53510954Y-35809758D01*
X53536307Y-35857190D01*
X53551923Y-35908670D01*
X53557800Y-35968340D01*
X53557800Y-36856060D01*
X53551923Y-36915730D01*
X53536307Y-36967210D01*
X53510954Y-37014642D01*
X53476827Y-37056227D01*
X53435242Y-37090354D01*
X53387810Y-37115707D01*
X53336330Y-37131323D01*
X53276660Y-37137200D01*
X52488940Y-37137200D01*
X52429270Y-37131323D01*
X52377790Y-37115707D01*
X52330358Y-37090354D01*
X52288773Y-37056227D01*
X52254646Y-37014642D01*
X52229293Y-36967210D01*
X52213677Y-36915730D01*
X52207800Y-36856060D01*
X52207800Y-35968340D01*
X52213677Y-35908670D01*
X52229293Y-35857190D01*
X52254646Y-35809758D01*
X52288773Y-35768173D01*
X52330358Y-35734046D01*
X52377790Y-35708693D01*
X52429270Y-35693077D01*
X52488940Y-35687200D01*
X53276660Y-35687200D01*
X53336330Y-35693077D01*
X53336330Y-35693077D01*
G37*
G36*
X48760983Y-35350450D02*
X48888374Y-35403218D01*
X49003025Y-35479825D01*
X49100525Y-35577325D01*
X49177132Y-35691976D01*
X49229900Y-35819367D01*
X49256800Y-35954605D01*
X49256800Y-36092495D01*
X49229900Y-36227733D01*
X49177132Y-36355124D01*
X49100525Y-36469775D01*
X49003025Y-36567275D01*
X48888374Y-36643882D01*
X48760983Y-36696650D01*
X48625745Y-36723550D01*
X48487855Y-36723550D01*
X48352617Y-36696650D01*
X48225226Y-36643882D01*
X48110575Y-36567275D01*
X48013075Y-36469775D01*
X47936468Y-36355124D01*
X47883700Y-36227733D01*
X47856800Y-36092495D01*
X47856800Y-35954605D01*
X47883700Y-35819367D01*
X47936468Y-35691976D01*
X48013075Y-35577325D01*
X48110575Y-35479825D01*
X48225226Y-35403218D01*
X48352617Y-35350450D01*
X48487855Y-35323550D01*
X48625745Y-35323550D01*
X48760983Y-35350450D01*
X48760983Y-35350450D01*
G37*
G36*
X73859530Y-34445877D02*
X73911010Y-34461493D01*
X73958442Y-34486846D01*
X74000027Y-34520973D01*
X74034154Y-34562558D01*
X74059507Y-34609990D01*
X74075123Y-34661470D01*
X74081000Y-34721140D01*
X74081000Y-35608860D01*
X74075123Y-35668530D01*
X74059507Y-35720010D01*
X74034154Y-35767442D01*
X74000027Y-35809027D01*
X73958442Y-35843154D01*
X73911010Y-35868507D01*
X73859530Y-35884123D01*
X73799860Y-35890000D01*
X73012140Y-35890000D01*
X72952470Y-35884123D01*
X72900990Y-35868507D01*
X72853558Y-35843154D01*
X72811973Y-35809027D01*
X72777846Y-35767442D01*
X72752493Y-35720010D01*
X72736877Y-35668530D01*
X72731000Y-35608860D01*
X72731000Y-34721140D01*
X72736877Y-34661470D01*
X72752493Y-34609990D01*
X72777846Y-34562558D01*
X72811973Y-34520973D01*
X72853558Y-34486846D01*
X72900990Y-34461493D01*
X72952470Y-34445877D01*
X73012140Y-34440000D01*
X73799860Y-34440000D01*
X73859530Y-34445877D01*
X73859530Y-34445877D01*
G37*
G36*
X48760983Y-33318450D02*
X48888374Y-33371218D01*
X49003025Y-33447825D01*
X49100525Y-33545325D01*
X49177132Y-33659976D01*
X49229900Y-33787367D01*
X49256800Y-33922605D01*
X49256800Y-34060495D01*
X49229900Y-34195733D01*
X49192364Y-34286351D01*
X49177132Y-34323124D01*
X49100526Y-34437774D01*
X49003024Y-34535276D01*
X48891206Y-34609990D01*
X48888374Y-34611882D01*
X48760983Y-34664650D01*
X48625745Y-34691550D01*
X48487855Y-34691550D01*
X48352617Y-34664650D01*
X48225226Y-34611882D01*
X48222394Y-34609990D01*
X48110576Y-34535276D01*
X48013074Y-34437774D01*
X47936468Y-34323124D01*
X47921236Y-34286351D01*
X47883700Y-34195733D01*
X47856800Y-34060495D01*
X47856800Y-33922605D01*
X47883700Y-33787367D01*
X47936468Y-33659976D01*
X48013075Y-33545325D01*
X48110575Y-33447825D01*
X48225226Y-33371218D01*
X48352617Y-33318450D01*
X48487855Y-33291550D01*
X48625745Y-33291550D01*
X48760983Y-33318450D01*
X48760983Y-33318450D01*
G37*
G36*
X26762591Y-32521280D02*
X26963088Y-32604329D01*
X27143530Y-32724896D01*
X27296984Y-32878350D01*
X27417551Y-33058792D01*
X27500600Y-33259289D01*
X27542937Y-33472135D01*
X27542937Y-33689151D01*
X27500600Y-33901997D01*
X27417551Y-34102494D01*
X27296984Y-34282936D01*
X27143530Y-34436390D01*
X26963088Y-34556957D01*
X26762591Y-34640006D01*
X26549745Y-34682343D01*
X26332729Y-34682343D01*
X26119883Y-34640006D01*
X25919386Y-34556957D01*
X25738944Y-34436390D01*
X25585490Y-34282936D01*
X25464923Y-34102494D01*
X25381874Y-33901997D01*
X25339537Y-33689151D01*
X25339537Y-33472135D01*
X25381874Y-33259289D01*
X25464923Y-33058792D01*
X25585490Y-32878350D01*
X25738944Y-32724896D01*
X25919386Y-32604329D01*
X26119883Y-32521280D01*
X26332729Y-32478943D01*
X26549745Y-32478943D01*
X26762591Y-32521280D01*
X26762591Y-32521280D01*
G37*
G36*
X29302591Y-32521280D02*
X29503088Y-32604329D01*
X29683530Y-32724896D01*
X29836984Y-32878350D01*
X29957551Y-33058792D01*
X30040600Y-33259289D01*
X30082937Y-33472135D01*
X30082937Y-33689151D01*
X30040600Y-33901997D01*
X29957551Y-34102494D01*
X29836984Y-34282936D01*
X29683530Y-34436390D01*
X29503088Y-34556957D01*
X29302591Y-34640006D01*
X29089745Y-34682343D01*
X28872729Y-34682343D01*
X28659883Y-34640006D01*
X28459386Y-34556957D01*
X28278944Y-34436390D01*
X28125490Y-34282936D01*
X28004923Y-34102494D01*
X27921874Y-33901997D01*
X27879537Y-33689151D01*
X27879537Y-33472135D01*
X27921874Y-33259289D01*
X28004923Y-33058792D01*
X28125490Y-32878350D01*
X28278944Y-32724896D01*
X28459386Y-32604329D01*
X28659883Y-32521280D01*
X28872729Y-32478943D01*
X29089745Y-32478943D01*
X29302591Y-32521280D01*
X29302591Y-32521280D01*
G37*
G36*
X24222591Y-32521280D02*
X24423088Y-32604329D01*
X24603530Y-32724896D01*
X24756984Y-32878350D01*
X24877551Y-33058792D01*
X24960600Y-33259289D01*
X25002937Y-33472135D01*
X25002937Y-33689151D01*
X24960600Y-33901997D01*
X24877551Y-34102494D01*
X24756984Y-34282936D01*
X24603530Y-34436390D01*
X24423088Y-34556957D01*
X24222591Y-34640006D01*
X24009745Y-34682343D01*
X23792729Y-34682343D01*
X23579883Y-34640006D01*
X23379386Y-34556957D01*
X23198944Y-34436390D01*
X23045490Y-34282936D01*
X22924923Y-34102494D01*
X22841874Y-33901997D01*
X22799537Y-33689151D01*
X22799537Y-33472135D01*
X22841874Y-33259289D01*
X22924923Y-33058792D01*
X23045490Y-32878350D01*
X23198944Y-32724896D01*
X23379386Y-32604329D01*
X23579883Y-32521280D01*
X23792729Y-32478943D01*
X24009745Y-32478943D01*
X24222591Y-32521280D01*
X24222591Y-32521280D01*
G37*
G36*
X39462591Y-32521280D02*
X39663088Y-32604329D01*
X39843530Y-32724896D01*
X39996984Y-32878350D01*
X40117551Y-33058792D01*
X40200600Y-33259289D01*
X40242937Y-33472135D01*
X40242937Y-33689151D01*
X40200600Y-33901997D01*
X40117551Y-34102494D01*
X39996984Y-34282936D01*
X39843530Y-34436390D01*
X39663088Y-34556957D01*
X39462591Y-34640006D01*
X39249745Y-34682343D01*
X39032729Y-34682343D01*
X38819883Y-34640006D01*
X38619386Y-34556957D01*
X38438944Y-34436390D01*
X38285490Y-34282936D01*
X38164923Y-34102494D01*
X38081874Y-33901997D01*
X38039537Y-33689151D01*
X38039537Y-33472135D01*
X38081874Y-33259289D01*
X38164923Y-33058792D01*
X38285490Y-32878350D01*
X38438944Y-32724896D01*
X38619386Y-32604329D01*
X38819883Y-32521280D01*
X39032729Y-32478943D01*
X39249745Y-32478943D01*
X39462591Y-32521280D01*
X39462591Y-32521280D01*
G37*
G36*
X44542591Y-32521280D02*
X44743088Y-32604329D01*
X44923530Y-32724896D01*
X45076984Y-32878350D01*
X45197551Y-33058792D01*
X45280600Y-33259289D01*
X45322937Y-33472135D01*
X45322937Y-33689151D01*
X45280600Y-33901997D01*
X45197551Y-34102494D01*
X45076984Y-34282936D01*
X44923530Y-34436390D01*
X44743088Y-34556957D01*
X44542591Y-34640006D01*
X44329745Y-34682343D01*
X44112729Y-34682343D01*
X43899883Y-34640006D01*
X43699386Y-34556957D01*
X43518944Y-34436390D01*
X43365490Y-34282936D01*
X43244923Y-34102494D01*
X43161874Y-33901997D01*
X43119537Y-33689151D01*
X43119537Y-33472135D01*
X43161874Y-33259289D01*
X43244923Y-33058792D01*
X43365490Y-32878350D01*
X43518944Y-32724896D01*
X43699386Y-32604329D01*
X43899883Y-32521280D01*
X44112729Y-32478943D01*
X44329745Y-32478943D01*
X44542591Y-32521280D01*
X44542591Y-32521280D01*
G37*
G36*
X42002591Y-32521280D02*
X42203088Y-32604329D01*
X42383530Y-32724896D01*
X42536984Y-32878350D01*
X42657551Y-33058792D01*
X42740600Y-33259289D01*
X42782937Y-33472135D01*
X42782937Y-33689151D01*
X42740600Y-33901997D01*
X42657551Y-34102494D01*
X42536984Y-34282936D01*
X42383530Y-34436390D01*
X42203088Y-34556957D01*
X42002591Y-34640006D01*
X41789745Y-34682343D01*
X41572729Y-34682343D01*
X41359883Y-34640006D01*
X41159386Y-34556957D01*
X40978944Y-34436390D01*
X40825490Y-34282936D01*
X40704923Y-34102494D01*
X40621874Y-33901997D01*
X40579537Y-33689151D01*
X40579537Y-33472135D01*
X40621874Y-33259289D01*
X40704923Y-33058792D01*
X40825490Y-32878350D01*
X40978944Y-32724896D01*
X41159386Y-32604329D01*
X41359883Y-32521280D01*
X41572729Y-32478943D01*
X41789745Y-32478943D01*
X42002591Y-32521280D01*
X42002591Y-32521280D01*
G37*
G36*
X67233530Y-32767710D02*
X67283379Y-32782831D01*
X67329311Y-32807382D01*
X67369574Y-32840426D01*
X67402618Y-32880689D01*
X67427169Y-32926621D01*
X67442290Y-32976470D01*
X67448000Y-33034444D01*
X67448000Y-34039556D01*
X67442290Y-34097530D01*
X67427169Y-34147379D01*
X67402618Y-34193311D01*
X67369574Y-34233574D01*
X67329311Y-34266618D01*
X67283379Y-34291169D01*
X67233530Y-34306290D01*
X67175556Y-34312000D01*
X65920444Y-34312000D01*
X65862470Y-34306290D01*
X65812621Y-34291169D01*
X65766689Y-34266618D01*
X65726426Y-34233574D01*
X65693382Y-34193311D01*
X65668831Y-34147379D01*
X65653710Y-34097530D01*
X65648000Y-34039556D01*
X65648000Y-33034444D01*
X65653710Y-32976470D01*
X65668831Y-32926621D01*
X65693382Y-32880689D01*
X65726426Y-32840426D01*
X65766689Y-32807382D01*
X65812621Y-32782831D01*
X65862470Y-32767710D01*
X65920444Y-32762000D01*
X67175556Y-32762000D01*
X67233530Y-32767710D01*
X67233530Y-32767710D01*
G37*
G36*
X73859530Y-32695877D02*
X73911010Y-32711493D01*
X73958442Y-32736846D01*
X74000027Y-32770973D01*
X74034154Y-32812558D01*
X74059507Y-32859990D01*
X74075123Y-32911470D01*
X74081000Y-32971140D01*
X74081000Y-33858860D01*
X74075123Y-33918530D01*
X74059507Y-33970010D01*
X74034154Y-34017442D01*
X74000027Y-34059027D01*
X73958442Y-34093154D01*
X73911010Y-34118507D01*
X73859530Y-34134123D01*
X73799860Y-34140000D01*
X73012140Y-34140000D01*
X72952470Y-34134123D01*
X72900990Y-34118507D01*
X72853558Y-34093154D01*
X72811973Y-34059027D01*
X72777846Y-34017442D01*
X72752493Y-33970010D01*
X72736877Y-33918530D01*
X72731000Y-33858860D01*
X72731000Y-32971140D01*
X72736877Y-32911470D01*
X72752493Y-32859990D01*
X72777846Y-32812558D01*
X72811973Y-32770973D01*
X72853558Y-32736846D01*
X72900990Y-32711493D01*
X72952470Y-32695877D01*
X73012140Y-32690000D01*
X73799860Y-32690000D01*
X73859530Y-32695877D01*
X73859530Y-32695877D01*
G37*
G36*
X53846130Y-32567710D02*
X53895979Y-32582831D01*
X53941911Y-32607382D01*
X53982174Y-32640426D01*
X54015218Y-32680689D01*
X54039769Y-32726621D01*
X54054890Y-32776470D01*
X54060600Y-32834444D01*
X54060600Y-33839556D01*
X54054890Y-33897530D01*
X54039769Y-33947379D01*
X54015218Y-33993311D01*
X53982174Y-34033574D01*
X53941911Y-34066618D01*
X53895979Y-34091169D01*
X53846130Y-34106290D01*
X53788156Y-34112000D01*
X52533044Y-34112000D01*
X52475070Y-34106290D01*
X52425221Y-34091169D01*
X52379289Y-34066618D01*
X52339026Y-34033574D01*
X52305982Y-33993311D01*
X52281431Y-33947379D01*
X52266310Y-33897530D01*
X52260600Y-33839556D01*
X52260600Y-32834444D01*
X52266310Y-32776470D01*
X52281431Y-32726621D01*
X52305982Y-32680689D01*
X52339026Y-32640426D01*
X52379289Y-32607382D01*
X52425221Y-32582831D01*
X52475070Y-32567710D01*
X52533044Y-32562000D01*
X53788156Y-32562000D01*
X53846130Y-32567710D01*
X53846130Y-32567710D01*
G37*
G36*
X57912130Y-32667877D02*
X57963610Y-32683493D01*
X58011042Y-32708846D01*
X58052627Y-32742973D01*
X58086754Y-32784558D01*
X58112107Y-32831990D01*
X58127723Y-32883470D01*
X58133600Y-32943140D01*
X58133600Y-33830860D01*
X58127723Y-33890530D01*
X58112107Y-33942010D01*
X58086754Y-33989442D01*
X58052627Y-34031027D01*
X58011042Y-34065154D01*
X57963610Y-34090507D01*
X57912130Y-34106123D01*
X57852460Y-34112000D01*
X57064740Y-34112000D01*
X57005070Y-34106123D01*
X56953590Y-34090507D01*
X56906158Y-34065154D01*
X56864573Y-34031027D01*
X56830446Y-33989442D01*
X56805093Y-33942010D01*
X56789477Y-33890530D01*
X56783600Y-33830860D01*
X56783600Y-32943140D01*
X56789477Y-32883470D01*
X56805093Y-32831990D01*
X56830446Y-32784558D01*
X56864573Y-32742973D01*
X56906158Y-32708846D01*
X56953590Y-32683493D01*
X57005070Y-32667877D01*
X57064740Y-32662000D01*
X57852460Y-32662000D01*
X57912130Y-32667877D01*
X57912130Y-32667877D01*
G37*
G36*
X55873130Y-32667877D02*
X55924610Y-32683493D01*
X55972042Y-32708846D01*
X56013627Y-32742973D01*
X56047754Y-32784558D01*
X56073107Y-32831990D01*
X56088723Y-32883470D01*
X56094600Y-32943140D01*
X56094600Y-33830860D01*
X56088723Y-33890530D01*
X56073107Y-33942010D01*
X56047754Y-33989442D01*
X56013627Y-34031027D01*
X55972042Y-34065154D01*
X55924610Y-34090507D01*
X55873130Y-34106123D01*
X55813460Y-34112000D01*
X55025740Y-34112000D01*
X54966070Y-34106123D01*
X54914590Y-34090507D01*
X54867158Y-34065154D01*
X54825573Y-34031027D01*
X54791446Y-33989442D01*
X54766093Y-33942010D01*
X54750477Y-33890530D01*
X54744600Y-33830860D01*
X54744600Y-32943140D01*
X54750477Y-32883470D01*
X54766093Y-32831990D01*
X54791446Y-32784558D01*
X54825573Y-32742973D01*
X54867158Y-32708846D01*
X54914590Y-32683493D01*
X54966070Y-32667877D01*
X55025740Y-32662000D01*
X55813460Y-32662000D01*
X55873130Y-32667877D01*
X55873130Y-32667877D01*
G37*
G36*
X51355130Y-32667877D02*
X51406610Y-32683493D01*
X51454042Y-32708846D01*
X51495627Y-32742973D01*
X51529754Y-32784558D01*
X51555107Y-32831990D01*
X51570723Y-32883470D01*
X51576600Y-32943140D01*
X51576600Y-33830860D01*
X51570723Y-33890530D01*
X51555107Y-33942010D01*
X51529754Y-33989442D01*
X51495627Y-34031027D01*
X51454042Y-34065154D01*
X51406610Y-34090507D01*
X51355130Y-34106123D01*
X51295460Y-34112000D01*
X50507740Y-34112000D01*
X50448070Y-34106123D01*
X50396590Y-34090507D01*
X50349158Y-34065154D01*
X50307573Y-34031027D01*
X50273446Y-33989442D01*
X50248093Y-33942010D01*
X50232477Y-33890530D01*
X50226600Y-33830860D01*
X50226600Y-32943140D01*
X50232477Y-32883470D01*
X50248093Y-32831990D01*
X50273446Y-32784558D01*
X50307573Y-32742973D01*
X50349158Y-32708846D01*
X50396590Y-32683493D01*
X50448070Y-32667877D01*
X50507740Y-32662000D01*
X51295460Y-32662000D01*
X51355130Y-32667877D01*
X51355130Y-32667877D01*
G37*
G36*
X59991130Y-32667877D02*
X60042610Y-32683493D01*
X60090042Y-32708846D01*
X60131627Y-32742973D01*
X60165754Y-32784558D01*
X60191107Y-32831990D01*
X60206723Y-32883470D01*
X60212600Y-32943140D01*
X60212600Y-33830860D01*
X60206723Y-33890530D01*
X60191107Y-33942010D01*
X60165754Y-33989442D01*
X60131627Y-34031027D01*
X60090042Y-34065154D01*
X60042610Y-34090507D01*
X59991130Y-34106123D01*
X59931460Y-34112000D01*
X59143740Y-34112000D01*
X59084070Y-34106123D01*
X59032590Y-34090507D01*
X58985158Y-34065154D01*
X58943573Y-34031027D01*
X58909446Y-33989442D01*
X58884093Y-33942010D01*
X58868477Y-33890530D01*
X58862600Y-33830860D01*
X58862600Y-32943140D01*
X58868477Y-32883470D01*
X58884093Y-32831990D01*
X58909446Y-32784558D01*
X58943573Y-32742973D01*
X58985158Y-32708846D01*
X59032590Y-32683493D01*
X59084070Y-32667877D01*
X59143740Y-32662000D01*
X59931460Y-32662000D01*
X59991130Y-32667877D01*
X59991130Y-32667877D01*
G37*
G36*
X69478530Y-32604877D02*
X69530010Y-32620493D01*
X69577442Y-32645846D01*
X69619027Y-32679973D01*
X69653154Y-32721558D01*
X69678507Y-32768990D01*
X69694123Y-32820470D01*
X69700000Y-32880140D01*
X69700000Y-33667860D01*
X69694123Y-33727530D01*
X69678507Y-33779010D01*
X69653154Y-33826442D01*
X69619027Y-33868027D01*
X69577442Y-33902154D01*
X69530010Y-33927507D01*
X69478530Y-33943123D01*
X69418860Y-33949000D01*
X68531140Y-33949000D01*
X68471470Y-33943123D01*
X68419990Y-33927507D01*
X68372558Y-33902154D01*
X68330973Y-33868027D01*
X68296846Y-33826442D01*
X68271493Y-33779010D01*
X68255877Y-33727530D01*
X68250000Y-33667860D01*
X68250000Y-32880140D01*
X68255877Y-32820470D01*
X68271493Y-32768990D01*
X68296846Y-32721558D01*
X68330973Y-32679973D01*
X68372558Y-32645846D01*
X68419990Y-32620493D01*
X68471470Y-32604877D01*
X68531140Y-32599000D01*
X69418860Y-32599000D01*
X69478530Y-32604877D01*
X69478530Y-32604877D01*
G37*
G36*
X71228530Y-32604877D02*
X71280010Y-32620493D01*
X71327442Y-32645846D01*
X71369027Y-32679973D01*
X71403154Y-32721558D01*
X71428507Y-32768990D01*
X71444123Y-32820470D01*
X71450000Y-32880140D01*
X71450000Y-33667860D01*
X71444123Y-33727530D01*
X71428507Y-33779010D01*
X71403154Y-33826442D01*
X71369027Y-33868027D01*
X71327442Y-33902154D01*
X71280010Y-33927507D01*
X71228530Y-33943123D01*
X71168860Y-33949000D01*
X70281140Y-33949000D01*
X70221470Y-33943123D01*
X70169990Y-33927507D01*
X70122558Y-33902154D01*
X70080973Y-33868027D01*
X70046846Y-33826442D01*
X70021493Y-33779010D01*
X70005877Y-33727530D01*
X70000000Y-33667860D01*
X70000000Y-32880140D01*
X70005877Y-32820470D01*
X70021493Y-32768990D01*
X70046846Y-32721558D01*
X70080973Y-32679973D01*
X70122558Y-32645846D01*
X70169990Y-32620493D01*
X70221470Y-32604877D01*
X70281140Y-32599000D01*
X71168860Y-32599000D01*
X71228530Y-32604877D01*
X71228530Y-32604877D01*
G37*
G36*
X51355130Y-30917877D02*
X51406610Y-30933493D01*
X51454042Y-30958846D01*
X51495627Y-30992973D01*
X51529754Y-31034558D01*
X51555107Y-31081990D01*
X51570723Y-31133470D01*
X51576600Y-31193140D01*
X51576600Y-32080860D01*
X51570723Y-32140530D01*
X51555107Y-32192010D01*
X51529754Y-32239442D01*
X51495627Y-32281027D01*
X51454042Y-32315154D01*
X51406610Y-32340507D01*
X51355130Y-32356123D01*
X51295460Y-32362000D01*
X50507740Y-32362000D01*
X50448070Y-32356123D01*
X50396590Y-32340507D01*
X50349158Y-32315154D01*
X50307573Y-32281027D01*
X50273446Y-32239442D01*
X50248093Y-32192010D01*
X50232477Y-32140530D01*
X50226600Y-32080860D01*
X50226600Y-31193140D01*
X50232477Y-31133470D01*
X50248093Y-31081990D01*
X50273446Y-31034558D01*
X50307573Y-30992973D01*
X50349158Y-30958846D01*
X50396590Y-30933493D01*
X50448070Y-30917877D01*
X50507740Y-30912000D01*
X51295460Y-30912000D01*
X51355130Y-30917877D01*
X51355130Y-30917877D01*
G37*
G36*
X57912130Y-30917877D02*
X57963610Y-30933493D01*
X58011042Y-30958846D01*
X58052627Y-30992973D01*
X58086754Y-31034558D01*
X58112107Y-31081990D01*
X58127723Y-31133470D01*
X58133600Y-31193140D01*
X58133600Y-32080860D01*
X58127723Y-32140530D01*
X58112107Y-32192010D01*
X58086754Y-32239442D01*
X58052627Y-32281027D01*
X58011042Y-32315154D01*
X57963610Y-32340507D01*
X57912130Y-32356123D01*
X57852460Y-32362000D01*
X57064740Y-32362000D01*
X57005070Y-32356123D01*
X56953590Y-32340507D01*
X56906158Y-32315154D01*
X56864573Y-32281027D01*
X56830446Y-32239442D01*
X56805093Y-32192010D01*
X56789477Y-32140530D01*
X56783600Y-32080860D01*
X56783600Y-31193140D01*
X56789477Y-31133470D01*
X56805093Y-31081990D01*
X56830446Y-31034558D01*
X56864573Y-30992973D01*
X56906158Y-30958846D01*
X56953590Y-30933493D01*
X57005070Y-30917877D01*
X57064740Y-30912000D01*
X57852460Y-30912000D01*
X57912130Y-30917877D01*
X57912130Y-30917877D01*
G37*
G36*
X59991130Y-30917877D02*
X60042610Y-30933493D01*
X60090042Y-30958846D01*
X60131627Y-30992973D01*
X60165754Y-31034558D01*
X60191107Y-31081990D01*
X60206723Y-31133470D01*
X60212600Y-31193140D01*
X60212600Y-32080860D01*
X60206723Y-32140530D01*
X60191107Y-32192010D01*
X60165754Y-32239442D01*
X60131627Y-32281027D01*
X60090042Y-32315154D01*
X60042610Y-32340507D01*
X59991130Y-32356123D01*
X59931460Y-32362000D01*
X59143740Y-32362000D01*
X59084070Y-32356123D01*
X59032590Y-32340507D01*
X58985158Y-32315154D01*
X58943573Y-32281027D01*
X58909446Y-32239442D01*
X58884093Y-32192010D01*
X58868477Y-32140530D01*
X58862600Y-32080860D01*
X58862600Y-31193140D01*
X58868477Y-31133470D01*
X58884093Y-31081990D01*
X58909446Y-31034558D01*
X58943573Y-30992973D01*
X58985158Y-30958846D01*
X59032590Y-30933493D01*
X59084070Y-30917877D01*
X59143740Y-30912000D01*
X59931460Y-30912000D01*
X59991130Y-30917877D01*
X59991130Y-30917877D01*
G37*
G36*
X55873130Y-30917877D02*
X55924610Y-30933493D01*
X55972042Y-30958846D01*
X56013627Y-30992973D01*
X56047754Y-31034558D01*
X56073107Y-31081990D01*
X56088723Y-31133470D01*
X56094600Y-31193140D01*
X56094600Y-32080860D01*
X56088723Y-32140530D01*
X56073107Y-32192010D01*
X56047754Y-32239442D01*
X56013627Y-32281027D01*
X55972042Y-32315154D01*
X55924610Y-32340507D01*
X55873130Y-32356123D01*
X55813460Y-32362000D01*
X55025740Y-32362000D01*
X54966070Y-32356123D01*
X54914590Y-32340507D01*
X54867158Y-32315154D01*
X54825573Y-32281027D01*
X54791446Y-32239442D01*
X54766093Y-32192010D01*
X54750477Y-32140530D01*
X54744600Y-32080860D01*
X54744600Y-31193140D01*
X54750477Y-31133470D01*
X54766093Y-31081990D01*
X54791446Y-31034558D01*
X54825573Y-30992973D01*
X54867158Y-30958846D01*
X54914590Y-30933493D01*
X54966070Y-30917877D01*
X55025740Y-30912000D01*
X55813460Y-30912000D01*
X55873130Y-30917877D01*
X55873130Y-30917877D01*
G37*
G36*
X67233530Y-30717710D02*
X67283379Y-30732831D01*
X67329311Y-30757382D01*
X67369574Y-30790426D01*
X67402618Y-30830689D01*
X67427169Y-30876621D01*
X67442290Y-30926470D01*
X67448000Y-30984444D01*
X67448000Y-31989556D01*
X67442290Y-32047530D01*
X67427169Y-32097379D01*
X67402618Y-32143311D01*
X67369574Y-32183574D01*
X67329311Y-32216618D01*
X67283379Y-32241169D01*
X67233530Y-32256290D01*
X67175556Y-32262000D01*
X65920444Y-32262000D01*
X65862470Y-32256290D01*
X65812621Y-32241169D01*
X65766689Y-32216618D01*
X65726426Y-32183574D01*
X65693382Y-32143311D01*
X65668831Y-32097379D01*
X65653710Y-32047530D01*
X65648000Y-31989556D01*
X65648000Y-30984444D01*
X65653710Y-30926470D01*
X65668831Y-30876621D01*
X65693382Y-30830689D01*
X65726426Y-30790426D01*
X65766689Y-30757382D01*
X65812621Y-30732831D01*
X65862470Y-30717710D01*
X65920444Y-30712000D01*
X67175556Y-30712000D01*
X67233530Y-30717710D01*
X67233530Y-30717710D01*
G37*
G36*
X53846130Y-30517710D02*
X53895979Y-30532831D01*
X53941911Y-30557382D01*
X53982174Y-30590426D01*
X54015218Y-30630689D01*
X54039769Y-30676621D01*
X54054890Y-30726470D01*
X54060600Y-30784444D01*
X54060600Y-31789556D01*
X54054890Y-31847530D01*
X54039769Y-31897379D01*
X54015218Y-31943311D01*
X53982174Y-31983574D01*
X53941911Y-32016618D01*
X53895979Y-32041169D01*
X53846130Y-32056290D01*
X53788156Y-32062000D01*
X52533044Y-32062000D01*
X52475070Y-32056290D01*
X52425221Y-32041169D01*
X52379289Y-32016618D01*
X52339026Y-31983574D01*
X52305982Y-31943311D01*
X52281431Y-31897379D01*
X52266310Y-31847530D01*
X52260600Y-31789556D01*
X52260600Y-30784444D01*
X52266310Y-30726470D01*
X52281431Y-30676621D01*
X52305982Y-30630689D01*
X52339026Y-30590426D01*
X52379289Y-30557382D01*
X52425221Y-30532831D01*
X52475070Y-30517710D01*
X52533044Y-30512000D01*
X53788156Y-30512000D01*
X53846130Y-30517710D01*
X53846130Y-30517710D01*
G37*
G36*
X71208530Y-30572877D02*
X71260010Y-30588493D01*
X71307442Y-30613846D01*
X71349027Y-30647973D01*
X71383154Y-30689558D01*
X71408507Y-30736990D01*
X71424123Y-30788470D01*
X71430000Y-30848140D01*
X71430000Y-31635860D01*
X71424123Y-31695530D01*
X71408507Y-31747010D01*
X71383154Y-31794442D01*
X71349027Y-31836027D01*
X71307442Y-31870154D01*
X71260010Y-31895507D01*
X71208530Y-31911123D01*
X71148860Y-31917000D01*
X70261140Y-31917000D01*
X70201470Y-31911123D01*
X70149990Y-31895507D01*
X70102558Y-31870154D01*
X70060973Y-31836027D01*
X70026846Y-31794442D01*
X70001493Y-31747010D01*
X69985877Y-31695530D01*
X69980000Y-31635860D01*
X69980000Y-30848140D01*
X69985877Y-30788470D01*
X70001493Y-30736990D01*
X70026846Y-30689558D01*
X70060973Y-30647973D01*
X70102558Y-30613846D01*
X70149990Y-30588493D01*
X70201470Y-30572877D01*
X70261140Y-30567000D01*
X71148860Y-30567000D01*
X71208530Y-30572877D01*
X71208530Y-30572877D01*
G37*
G36*
X69458530Y-30572877D02*
X69510010Y-30588493D01*
X69557442Y-30613846D01*
X69599027Y-30647973D01*
X69633154Y-30689558D01*
X69658507Y-30736990D01*
X69674123Y-30788470D01*
X69680000Y-30848140D01*
X69680000Y-31635860D01*
X69674123Y-31695530D01*
X69658507Y-31747010D01*
X69633154Y-31794442D01*
X69599027Y-31836027D01*
X69557442Y-31870154D01*
X69510010Y-31895507D01*
X69458530Y-31911123D01*
X69398860Y-31917000D01*
X68511140Y-31917000D01*
X68451470Y-31911123D01*
X68399990Y-31895507D01*
X68352558Y-31870154D01*
X68310973Y-31836027D01*
X68276846Y-31794442D01*
X68251493Y-31747010D01*
X68235877Y-31695530D01*
X68230000Y-31635860D01*
X68230000Y-30848140D01*
X68235877Y-30788470D01*
X68251493Y-30736990D01*
X68276846Y-30689558D01*
X68310973Y-30647973D01*
X68352558Y-30613846D01*
X68399990Y-30588493D01*
X68451470Y-30572877D01*
X68511140Y-30567000D01*
X69398860Y-30567000D01*
X69458530Y-30572877D01*
X69458530Y-30572877D01*
G37*
G36*
X73774030Y-29763210D02*
X73823879Y-29778331D01*
X73869811Y-29802882D01*
X73910074Y-29835926D01*
X73943118Y-29876189D01*
X73967669Y-29922121D01*
X73982790Y-29971970D01*
X73988500Y-30029944D01*
X73988500Y-31035056D01*
X73982790Y-31093030D01*
X73967669Y-31142879D01*
X73943118Y-31188811D01*
X73910074Y-31229074D01*
X73869811Y-31262118D01*
X73823879Y-31286669D01*
X73774030Y-31301790D01*
X73716056Y-31307500D01*
X72460944Y-31307500D01*
X72402970Y-31301790D01*
X72353121Y-31286669D01*
X72307189Y-31262118D01*
X72266926Y-31229074D01*
X72233882Y-31188811D01*
X72209331Y-31142879D01*
X72194210Y-31093030D01*
X72188500Y-31035056D01*
X72188500Y-30029944D01*
X72194210Y-29971970D01*
X72209331Y-29922121D01*
X72233882Y-29876189D01*
X72266926Y-29835926D01*
X72307189Y-29802882D01*
X72353121Y-29778331D01*
X72402970Y-29763210D01*
X72460944Y-29757500D01*
X73716056Y-29757500D01*
X73774030Y-29763210D01*
X73774030Y-29763210D01*
G37*
G36*
X75739130Y-29456077D02*
X75790610Y-29471693D01*
X75838042Y-29497046D01*
X75879627Y-29531173D01*
X75913754Y-29572758D01*
X75939107Y-29620190D01*
X75954723Y-29671670D01*
X75960600Y-29731340D01*
X75960600Y-30619060D01*
X75954723Y-30678730D01*
X75939107Y-30730210D01*
X75913754Y-30777642D01*
X75879627Y-30819227D01*
X75838042Y-30853354D01*
X75790610Y-30878707D01*
X75739130Y-30894323D01*
X75679460Y-30900200D01*
X74891740Y-30900200D01*
X74832070Y-30894323D01*
X74780590Y-30878707D01*
X74733158Y-30853354D01*
X74691573Y-30819227D01*
X74657446Y-30777642D01*
X74632093Y-30730210D01*
X74616477Y-30678730D01*
X74610600Y-30619060D01*
X74610600Y-29731340D01*
X74616477Y-29671670D01*
X74632093Y-29620190D01*
X74657446Y-29572758D01*
X74691573Y-29531173D01*
X74733158Y-29497046D01*
X74780590Y-29471693D01*
X74832070Y-29456077D01*
X74891740Y-29450200D01*
X75679460Y-29450200D01*
X75739130Y-29456077D01*
X75739130Y-29456077D01*
G37*
G36*
X56372000Y-30079600D02*
X54372000Y-30079600D01*
X54372000Y-27479600D01*
X56372000Y-27479600D01*
X56372000Y-30079600D01*
X56372000Y-30079600D01*
G37*
G36*
X60232800Y-30079600D02*
X58232800Y-30079600D01*
X58232800Y-27479600D01*
X60232800Y-27479600D01*
X60232800Y-30079600D01*
X60232800Y-30079600D01*
G37*
G36*
X34189944Y-27710396D02*
X34267073Y-27717993D01*
X34362848Y-27747046D01*
X34465000Y-27778033D01*
X34647409Y-27875533D01*
X34807291Y-28006746D01*
X34938504Y-28166628D01*
X35036004Y-28349037D01*
X35036004Y-28349038D01*
X35096044Y-28546964D01*
X35116317Y-28752800D01*
X35096044Y-28958636D01*
X35067920Y-29051349D01*
X35036004Y-29156563D01*
X34938504Y-29338972D01*
X34807291Y-29498854D01*
X34647409Y-29630067D01*
X34465000Y-29727567D01*
X34433504Y-29737121D01*
X34267073Y-29787607D01*
X34202163Y-29794000D01*
X34112817Y-29802800D01*
X34009657Y-29802800D01*
X33920311Y-29794000D01*
X33855401Y-29787607D01*
X33688970Y-29737121D01*
X33657474Y-29727567D01*
X33475065Y-29630067D01*
X33315183Y-29498854D01*
X33183970Y-29338972D01*
X33086470Y-29156563D01*
X33054554Y-29051349D01*
X33026430Y-28958636D01*
X33006157Y-28752800D01*
X33026430Y-28546964D01*
X33086470Y-28349038D01*
X33086470Y-28349037D01*
X33183970Y-28166628D01*
X33315183Y-28006746D01*
X33475065Y-27875533D01*
X33657474Y-27778033D01*
X33759626Y-27747046D01*
X33855401Y-27717993D01*
X33932530Y-27710396D01*
X34009657Y-27702800D01*
X34112817Y-27702800D01*
X34189944Y-27710396D01*
X34189944Y-27710396D01*
G37*
G36*
X66524307Y-27710396D02*
X66601436Y-27717993D01*
X66697211Y-27747046D01*
X66799363Y-27778033D01*
X66981772Y-27875533D01*
X67141654Y-28006746D01*
X67272867Y-28166628D01*
X67370367Y-28349037D01*
X67370367Y-28349038D01*
X67430407Y-28546964D01*
X67450680Y-28752800D01*
X67430407Y-28958636D01*
X67402283Y-29051349D01*
X67370367Y-29156563D01*
X67272867Y-29338972D01*
X67141654Y-29498854D01*
X66981772Y-29630067D01*
X66799363Y-29727567D01*
X66767867Y-29737121D01*
X66601436Y-29787607D01*
X66536526Y-29794000D01*
X66447180Y-29802800D01*
X66344020Y-29802800D01*
X66254674Y-29794000D01*
X66189764Y-29787607D01*
X66023333Y-29737121D01*
X65991837Y-29727567D01*
X65809428Y-29630067D01*
X65649546Y-29498854D01*
X65518333Y-29338972D01*
X65420833Y-29156563D01*
X65388917Y-29051349D01*
X65360793Y-28958636D01*
X65340520Y-28752800D01*
X65360793Y-28546964D01*
X65420833Y-28349038D01*
X65420833Y-28349037D01*
X65518333Y-28166628D01*
X65649546Y-28006746D01*
X65809428Y-27875533D01*
X65991837Y-27778033D01*
X66093989Y-27747046D01*
X66189764Y-27717993D01*
X66266893Y-27710396D01*
X66344020Y-27702800D01*
X66447180Y-27702800D01*
X66524307Y-27710396D01*
X66524307Y-27710396D01*
G37*
G36*
X63069907Y-27710396D02*
X63147036Y-27717993D01*
X63242811Y-27747046D01*
X63344963Y-27778033D01*
X63527372Y-27875533D01*
X63687254Y-28006746D01*
X63818467Y-28166628D01*
X63915967Y-28349037D01*
X63915967Y-28349038D01*
X63976007Y-28546964D01*
X63996280Y-28752800D01*
X63976007Y-28958636D01*
X63947883Y-29051349D01*
X63915967Y-29156563D01*
X63818467Y-29338972D01*
X63687254Y-29498854D01*
X63527372Y-29630067D01*
X63344963Y-29727567D01*
X63313467Y-29737121D01*
X63147036Y-29787607D01*
X63082126Y-29794000D01*
X62992780Y-29802800D01*
X62889620Y-29802800D01*
X62800274Y-29794000D01*
X62735364Y-29787607D01*
X62568933Y-29737121D01*
X62537437Y-29727567D01*
X62355028Y-29630067D01*
X62195146Y-29498854D01*
X62063933Y-29338972D01*
X61966433Y-29156563D01*
X61934517Y-29051349D01*
X61906393Y-28958636D01*
X61886120Y-28752800D01*
X61906393Y-28546964D01*
X61966433Y-28349038D01*
X61966433Y-28349037D01*
X62063933Y-28166628D01*
X62195146Y-28006746D01*
X62355028Y-27875533D01*
X62537437Y-27778033D01*
X62639589Y-27747046D01*
X62735364Y-27717993D01*
X62812493Y-27710396D01*
X62889620Y-27702800D01*
X62992780Y-27702800D01*
X63069907Y-27710396D01*
X63069907Y-27710396D01*
G37*
G36*
X69541530Y-28349877D02*
X69593010Y-28365493D01*
X69640442Y-28390846D01*
X69682027Y-28424973D01*
X69716154Y-28466558D01*
X69741507Y-28513990D01*
X69757123Y-28565470D01*
X69763000Y-28625140D01*
X69763000Y-29512860D01*
X69757123Y-29572530D01*
X69741507Y-29624010D01*
X69716154Y-29671442D01*
X69682027Y-29713027D01*
X69640442Y-29747154D01*
X69593010Y-29772507D01*
X69541530Y-29788123D01*
X69481860Y-29794000D01*
X68694140Y-29794000D01*
X68634470Y-29788123D01*
X68582990Y-29772507D01*
X68535558Y-29747154D01*
X68493973Y-29713027D01*
X68459846Y-29671442D01*
X68434493Y-29624010D01*
X68418877Y-29572530D01*
X68413000Y-29512860D01*
X68413000Y-28625140D01*
X68418877Y-28565470D01*
X68434493Y-28513990D01*
X68459846Y-28466558D01*
X68493973Y-28424973D01*
X68535558Y-28390846D01*
X68582990Y-28365493D01*
X68634470Y-28349877D01*
X68694140Y-28344000D01*
X69481860Y-28344000D01*
X69541530Y-28349877D01*
X69541530Y-28349877D01*
G37*
G36*
X71573530Y-28349877D02*
X71625010Y-28365493D01*
X71672442Y-28390846D01*
X71714027Y-28424973D01*
X71748154Y-28466558D01*
X71773507Y-28513990D01*
X71789123Y-28565470D01*
X71795000Y-28625140D01*
X71795000Y-29512860D01*
X71789123Y-29572530D01*
X71773507Y-29624010D01*
X71748154Y-29671442D01*
X71714027Y-29713027D01*
X71672442Y-29747154D01*
X71625010Y-29772507D01*
X71573530Y-29788123D01*
X71513860Y-29794000D01*
X70726140Y-29794000D01*
X70666470Y-29788123D01*
X70614990Y-29772507D01*
X70567558Y-29747154D01*
X70525973Y-29713027D01*
X70491846Y-29671442D01*
X70466493Y-29624010D01*
X70450877Y-29572530D01*
X70445000Y-29512860D01*
X70445000Y-28625140D01*
X70450877Y-28565470D01*
X70466493Y-28513990D01*
X70491846Y-28466558D01*
X70525973Y-28424973D01*
X70567558Y-28390846D01*
X70614990Y-28365493D01*
X70666470Y-28349877D01*
X70726140Y-28344000D01*
X71513860Y-28344000D01*
X71573530Y-28349877D01*
X71573530Y-28349877D01*
G37*
G36*
X73774030Y-27713210D02*
X73823879Y-27728331D01*
X73869811Y-27752882D01*
X73910074Y-27785926D01*
X73943118Y-27826189D01*
X73967669Y-27872121D01*
X73982790Y-27921970D01*
X73988500Y-27979944D01*
X73988500Y-28985056D01*
X73982790Y-29043030D01*
X73967669Y-29092879D01*
X73943118Y-29138811D01*
X73910074Y-29179074D01*
X73869811Y-29212118D01*
X73823879Y-29236669D01*
X73774030Y-29251790D01*
X73716056Y-29257500D01*
X72460944Y-29257500D01*
X72402970Y-29251790D01*
X72353121Y-29236669D01*
X72307189Y-29212118D01*
X72266926Y-29179074D01*
X72233882Y-29138811D01*
X72209331Y-29092879D01*
X72194210Y-29043030D01*
X72188500Y-28985056D01*
X72188500Y-27979944D01*
X72194210Y-27921970D01*
X72209331Y-27872121D01*
X72233882Y-27826189D01*
X72266926Y-27785926D01*
X72307189Y-27752882D01*
X72353121Y-27728331D01*
X72402970Y-27713210D01*
X72460944Y-27707500D01*
X73716056Y-27707500D01*
X73774030Y-27713210D01*
X73774030Y-27713210D01*
G37*
G36*
X75739130Y-27706077D02*
X75790610Y-27721693D01*
X75838042Y-27747046D01*
X75879627Y-27781173D01*
X75913754Y-27822758D01*
X75939107Y-27870190D01*
X75954723Y-27921670D01*
X75960600Y-27981340D01*
X75960600Y-28869060D01*
X75954723Y-28928730D01*
X75939107Y-28980210D01*
X75913754Y-29027642D01*
X75879627Y-29069227D01*
X75838042Y-29103354D01*
X75790610Y-29128707D01*
X75739130Y-29144323D01*
X75679460Y-29150200D01*
X74891740Y-29150200D01*
X74832070Y-29144323D01*
X74780590Y-29128707D01*
X74733158Y-29103354D01*
X74691573Y-29069227D01*
X74657446Y-29027642D01*
X74632093Y-28980210D01*
X74616477Y-28928730D01*
X74610600Y-28869060D01*
X74610600Y-27981340D01*
X74616477Y-27921670D01*
X74632093Y-27870190D01*
X74657446Y-27822758D01*
X74691573Y-27781173D01*
X74733158Y-27747046D01*
X74780590Y-27721693D01*
X74832070Y-27706077D01*
X74891740Y-27700200D01*
X75679460Y-27700200D01*
X75739130Y-27706077D01*
X75739130Y-27706077D01*
G37*
G36*
X46522742Y-25095674D02*
X46801822Y-25211273D01*
X47049642Y-25376862D01*
X47052989Y-25379098D01*
X47266582Y-25592691D01*
X47266584Y-25592694D01*
X47388836Y-25775656D01*
X47434408Y-25843860D01*
X47550006Y-26122938D01*
X47608937Y-26419205D01*
X47608937Y-26721281D01*
X47550006Y-27017548D01*
X47434408Y-27296626D01*
X47266582Y-27547795D01*
X47052989Y-27761388D01*
X47052986Y-27761390D01*
X46801822Y-27929213D01*
X46801821Y-27929214D01*
X46801820Y-27929214D01*
X46522742Y-28044812D01*
X46226475Y-28103743D01*
X45924399Y-28103743D01*
X45628132Y-28044812D01*
X45349054Y-27929214D01*
X45349053Y-27929214D01*
X45349052Y-27929213D01*
X45097888Y-27761390D01*
X45097885Y-27761388D01*
X44884292Y-27547795D01*
X44716466Y-27296626D01*
X44600868Y-27017548D01*
X44541937Y-26721281D01*
X44541937Y-26419205D01*
X44600868Y-26122938D01*
X44716466Y-25843860D01*
X44762039Y-25775656D01*
X44884290Y-25592694D01*
X44884292Y-25592691D01*
X45097885Y-25379098D01*
X45101232Y-25376862D01*
X45349052Y-25211273D01*
X45628132Y-25095674D01*
X45924399Y-25036743D01*
X46226475Y-25036743D01*
X46522742Y-25095674D01*
X46522742Y-25095674D01*
G37*
G36*
X37734342Y-25095674D02*
X38013422Y-25211273D01*
X38261242Y-25376862D01*
X38264589Y-25379098D01*
X38478182Y-25592691D01*
X38478184Y-25592694D01*
X38600436Y-25775656D01*
X38646008Y-25843860D01*
X38761606Y-26122938D01*
X38820537Y-26419205D01*
X38820537Y-26721281D01*
X38761606Y-27017548D01*
X38646008Y-27296626D01*
X38478182Y-27547795D01*
X38264589Y-27761388D01*
X38264586Y-27761390D01*
X38013422Y-27929213D01*
X38013421Y-27929214D01*
X38013420Y-27929214D01*
X37734342Y-28044812D01*
X37438075Y-28103743D01*
X37135999Y-28103743D01*
X36839732Y-28044812D01*
X36560654Y-27929214D01*
X36560653Y-27929214D01*
X36560652Y-27929213D01*
X36309488Y-27761390D01*
X36309485Y-27761388D01*
X36095892Y-27547795D01*
X35928066Y-27296626D01*
X35812468Y-27017548D01*
X35753537Y-26721281D01*
X35753537Y-26419205D01*
X35812468Y-26122938D01*
X35928066Y-25843860D01*
X35973639Y-25775656D01*
X36095890Y-25592694D01*
X36095892Y-25592691D01*
X36309485Y-25379098D01*
X36312832Y-25376862D01*
X36560652Y-25211273D01*
X36839732Y-25095674D01*
X37135999Y-25036743D01*
X37438075Y-25036743D01*
X37734342Y-25095674D01*
X37734342Y-25095674D01*
G37*
G36*
X31282742Y-25095674D02*
X31561822Y-25211273D01*
X31809642Y-25376862D01*
X31812989Y-25379098D01*
X32026582Y-25592691D01*
X32026584Y-25592694D01*
X32148836Y-25775656D01*
X32194408Y-25843860D01*
X32310006Y-26122938D01*
X32368937Y-26419205D01*
X32368937Y-26721281D01*
X32310006Y-27017548D01*
X32194408Y-27296626D01*
X32026582Y-27547795D01*
X31812989Y-27761388D01*
X31812986Y-27761390D01*
X31561822Y-27929213D01*
X31561821Y-27929214D01*
X31561820Y-27929214D01*
X31282742Y-28044812D01*
X30986475Y-28103743D01*
X30684399Y-28103743D01*
X30388132Y-28044812D01*
X30109054Y-27929214D01*
X30109053Y-27929214D01*
X30109052Y-27929213D01*
X29857888Y-27761390D01*
X29857885Y-27761388D01*
X29644292Y-27547795D01*
X29476466Y-27296626D01*
X29360868Y-27017548D01*
X29301937Y-26721281D01*
X29301937Y-26419205D01*
X29360868Y-26122938D01*
X29476466Y-25843860D01*
X29522039Y-25775656D01*
X29644290Y-25592694D01*
X29644292Y-25592691D01*
X29857885Y-25379098D01*
X29861232Y-25376862D01*
X30109052Y-25211273D01*
X30388132Y-25095674D01*
X30684399Y-25036743D01*
X30986475Y-25036743D01*
X31282742Y-25095674D01*
X31282742Y-25095674D01*
G37*
G36*
X22494342Y-25095674D02*
X22773422Y-25211273D01*
X23021242Y-25376862D01*
X23024589Y-25379098D01*
X23238182Y-25592691D01*
X23238184Y-25592694D01*
X23360436Y-25775656D01*
X23406008Y-25843860D01*
X23521606Y-26122938D01*
X23580537Y-26419205D01*
X23580537Y-26721281D01*
X23521606Y-27017548D01*
X23406008Y-27296626D01*
X23238182Y-27547795D01*
X23024589Y-27761388D01*
X23024586Y-27761390D01*
X22773422Y-27929213D01*
X22773421Y-27929214D01*
X22773420Y-27929214D01*
X22494342Y-28044812D01*
X22198075Y-28103743D01*
X21895999Y-28103743D01*
X21599732Y-28044812D01*
X21320654Y-27929214D01*
X21320653Y-27929214D01*
X21320652Y-27929213D01*
X21069488Y-27761390D01*
X21069485Y-27761388D01*
X20855892Y-27547795D01*
X20688066Y-27296626D01*
X20572468Y-27017548D01*
X20513537Y-26721281D01*
X20513537Y-26419205D01*
X20572468Y-26122938D01*
X20688066Y-25843860D01*
X20733639Y-25775656D01*
X20855890Y-25592694D01*
X20855892Y-25592691D01*
X21069485Y-25379098D01*
X21072832Y-25376862D01*
X21320652Y-25211273D01*
X21599732Y-25095674D01*
X21895999Y-25036743D01*
X22198075Y-25036743D01*
X22494342Y-25095674D01*
X22494342Y-25095674D01*
G37*
G36*
X71573530Y-26599877D02*
X71625010Y-26615493D01*
X71672442Y-26640846D01*
X71714027Y-26674973D01*
X71748154Y-26716558D01*
X71773507Y-26763990D01*
X71789123Y-26815470D01*
X71795000Y-26875140D01*
X71795000Y-27762860D01*
X71789123Y-27822530D01*
X71773507Y-27874010D01*
X71748154Y-27921442D01*
X71714027Y-27963027D01*
X71672442Y-27997154D01*
X71625010Y-28022507D01*
X71573530Y-28038123D01*
X71513860Y-28044000D01*
X70726140Y-28044000D01*
X70666470Y-28038123D01*
X70614990Y-28022507D01*
X70567558Y-27997154D01*
X70525973Y-27963027D01*
X70491846Y-27921442D01*
X70466493Y-27874010D01*
X70450877Y-27822530D01*
X70445000Y-27762860D01*
X70445000Y-26875140D01*
X70450877Y-26815470D01*
X70466493Y-26763990D01*
X70491846Y-26716558D01*
X70525973Y-26674973D01*
X70567558Y-26640846D01*
X70614990Y-26615493D01*
X70666470Y-26599877D01*
X70726140Y-26594000D01*
X71513860Y-26594000D01*
X71573530Y-26599877D01*
X71573530Y-26599877D01*
G37*
G36*
X69541530Y-26599877D02*
X69593010Y-26615493D01*
X69640442Y-26640846D01*
X69682027Y-26674973D01*
X69716154Y-26716558D01*
X69741507Y-26763990D01*
X69757123Y-26815470D01*
X69763000Y-26875140D01*
X69763000Y-27762860D01*
X69757123Y-27822530D01*
X69741507Y-27874010D01*
X69716154Y-27921442D01*
X69682027Y-27963027D01*
X69640442Y-27997154D01*
X69593010Y-28022507D01*
X69541530Y-28038123D01*
X69481860Y-28044000D01*
X68694140Y-28044000D01*
X68634470Y-28038123D01*
X68582990Y-28022507D01*
X68535558Y-27997154D01*
X68493973Y-27963027D01*
X68459846Y-27921442D01*
X68434493Y-27874010D01*
X68418877Y-27822530D01*
X68413000Y-27762860D01*
X68413000Y-26875140D01*
X68418877Y-26815470D01*
X68434493Y-26763990D01*
X68459846Y-26716558D01*
X68493973Y-26674973D01*
X68535558Y-26640846D01*
X68582990Y-26615493D01*
X68634470Y-26599877D01*
X68694140Y-26594000D01*
X69481860Y-26594000D01*
X69541530Y-26599877D01*
X69541530Y-26599877D01*
G37*
G36*
X51313600Y-27761200D02*
X50113600Y-27761200D01*
X50113600Y-26461200D01*
X51313600Y-26461200D01*
X51313600Y-27761200D01*
X51313600Y-27761200D01*
G37*
G36*
X53213600Y-27761200D02*
X52013600Y-27761200D01*
X52013600Y-26461200D01*
X53213600Y-26461200D01*
X53213600Y-27761200D01*
X53213600Y-27761200D01*
G37*
G36*
X34189944Y-25170397D02*
X34267073Y-25177993D01*
X34399024Y-25218020D01*
X34465000Y-25238033D01*
X34647409Y-25335533D01*
X34807291Y-25466746D01*
X34938504Y-25626628D01*
X35036004Y-25809037D01*
X35046567Y-25843860D01*
X35096044Y-26006964D01*
X35116317Y-26212800D01*
X35096044Y-26418636D01*
X35083132Y-26461200D01*
X35036004Y-26616563D01*
X34938504Y-26798972D01*
X34807291Y-26958854D01*
X34647409Y-27090067D01*
X34465000Y-27187567D01*
X34399024Y-27207580D01*
X34267073Y-27247607D01*
X34189944Y-27255204D01*
X34112817Y-27262800D01*
X34009657Y-27262800D01*
X33932530Y-27255204D01*
X33855401Y-27247607D01*
X33723450Y-27207580D01*
X33657474Y-27187567D01*
X33475065Y-27090067D01*
X33315183Y-26958854D01*
X33183970Y-26798972D01*
X33086470Y-26616563D01*
X33039342Y-26461200D01*
X33026430Y-26418636D01*
X33006157Y-26212800D01*
X33026430Y-26006964D01*
X33075907Y-25843860D01*
X33086470Y-25809037D01*
X33183970Y-25626628D01*
X33315183Y-25466746D01*
X33475065Y-25335533D01*
X33657474Y-25238033D01*
X33723450Y-25218020D01*
X33855401Y-25177993D01*
X33932530Y-25170396D01*
X34009657Y-25162800D01*
X34112817Y-25162800D01*
X34189944Y-25170397D01*
X34189944Y-25170397D01*
G37*
G36*
X63069907Y-25170397D02*
X63147036Y-25177993D01*
X63278987Y-25218020D01*
X63344963Y-25238033D01*
X63527372Y-25335533D01*
X63687254Y-25466746D01*
X63818467Y-25626628D01*
X63915967Y-25809037D01*
X63926530Y-25843860D01*
X63976007Y-26006964D01*
X63996280Y-26212800D01*
X63976007Y-26418636D01*
X63963095Y-26461200D01*
X63915967Y-26616563D01*
X63818467Y-26798972D01*
X63687254Y-26958854D01*
X63527372Y-27090067D01*
X63344963Y-27187567D01*
X63278987Y-27207580D01*
X63147036Y-27247607D01*
X63069907Y-27255204D01*
X62992780Y-27262800D01*
X62889620Y-27262800D01*
X62812493Y-27255204D01*
X62735364Y-27247607D01*
X62603413Y-27207580D01*
X62537437Y-27187567D01*
X62355028Y-27090067D01*
X62195146Y-26958854D01*
X62063933Y-26798972D01*
X61966433Y-26616563D01*
X61919305Y-26461200D01*
X61906393Y-26418636D01*
X61886120Y-26212800D01*
X61906393Y-26006964D01*
X61955870Y-25843860D01*
X61966433Y-25809037D01*
X62063933Y-25626628D01*
X62195146Y-25466746D01*
X62355028Y-25335533D01*
X62537437Y-25238033D01*
X62603413Y-25218020D01*
X62735364Y-25177993D01*
X62812493Y-25170396D01*
X62889620Y-25162800D01*
X62992780Y-25162800D01*
X63069907Y-25170397D01*
X63069907Y-25170397D01*
G37*
G36*
X66524307Y-25170397D02*
X66601436Y-25177993D01*
X66733387Y-25218020D01*
X66799363Y-25238033D01*
X66981772Y-25335533D01*
X67141654Y-25466746D01*
X67272867Y-25626628D01*
X67370367Y-25809037D01*
X67380930Y-25843860D01*
X67430407Y-26006964D01*
X67450680Y-26212800D01*
X67430407Y-26418636D01*
X67417495Y-26461200D01*
X67370367Y-26616563D01*
X67272867Y-26798972D01*
X67141654Y-26958854D01*
X66981772Y-27090067D01*
X66799363Y-27187567D01*
X66733387Y-27207580D01*
X66601436Y-27247607D01*
X66524307Y-27255204D01*
X66447180Y-27262800D01*
X66344020Y-27262800D01*
X66266893Y-27255204D01*
X66189764Y-27247607D01*
X66057813Y-27207580D01*
X65991837Y-27187567D01*
X65809428Y-27090067D01*
X65649546Y-26958854D01*
X65518333Y-26798972D01*
X65420833Y-26616563D01*
X65373705Y-26461200D01*
X65360793Y-26418636D01*
X65340520Y-26212800D01*
X65360793Y-26006964D01*
X65410270Y-25843860D01*
X65420833Y-25809037D01*
X65518333Y-25626628D01*
X65649546Y-25466746D01*
X65809428Y-25335533D01*
X65991837Y-25238033D01*
X66057813Y-25218020D01*
X66189764Y-25177993D01*
X66266893Y-25170396D01*
X66344020Y-25162800D01*
X66447180Y-25162800D01*
X66524307Y-25170397D01*
X66524307Y-25170397D01*
G37*
G36*
X60232800Y-27079600D02*
X58232800Y-27079600D01*
X58232800Y-24479600D01*
X60232800Y-24479600D01*
X60232800Y-27079600D01*
X60232800Y-27079600D01*
G37*
G36*
X56372000Y-27079600D02*
X54372000Y-27079600D01*
X54372000Y-24479600D01*
X56372000Y-24479600D01*
X56372000Y-27079600D01*
X56372000Y-27079600D01*
G37*
G36*
X71573530Y-24623877D02*
X71625010Y-24639493D01*
X71672442Y-24664846D01*
X71714027Y-24698973D01*
X71748154Y-24740558D01*
X71773507Y-24787990D01*
X71789123Y-24839470D01*
X71795000Y-24899140D01*
X71795000Y-25786860D01*
X71789123Y-25846530D01*
X71773507Y-25898010D01*
X71748154Y-25945442D01*
X71714027Y-25987027D01*
X71672442Y-26021154D01*
X71625010Y-26046507D01*
X71573530Y-26062123D01*
X71513860Y-26068000D01*
X70726140Y-26068000D01*
X70666470Y-26062123D01*
X70614990Y-26046507D01*
X70567558Y-26021154D01*
X70525973Y-25987027D01*
X70491846Y-25945442D01*
X70466493Y-25898010D01*
X70450877Y-25846530D01*
X70445000Y-25786860D01*
X70445000Y-24899140D01*
X70450877Y-24839470D01*
X70466493Y-24787990D01*
X70491846Y-24740558D01*
X70525973Y-24698973D01*
X70567558Y-24664846D01*
X70614990Y-24639493D01*
X70666470Y-24623877D01*
X70726140Y-24618000D01*
X71513860Y-24618000D01*
X71573530Y-24623877D01*
X71573530Y-24623877D01*
G37*
G36*
X69541530Y-24623877D02*
X69593010Y-24639493D01*
X69640442Y-24664846D01*
X69682027Y-24698973D01*
X69716154Y-24740558D01*
X69741507Y-24787990D01*
X69757123Y-24839470D01*
X69763000Y-24899140D01*
X69763000Y-25786860D01*
X69757123Y-25846530D01*
X69741507Y-25898010D01*
X69716154Y-25945442D01*
X69682027Y-25987027D01*
X69640442Y-26021154D01*
X69593010Y-26046507D01*
X69541530Y-26062123D01*
X69481860Y-26068000D01*
X68694140Y-26068000D01*
X68634470Y-26062123D01*
X68582990Y-26046507D01*
X68535558Y-26021154D01*
X68493973Y-25987027D01*
X68459846Y-25945442D01*
X68434493Y-25898010D01*
X68418877Y-25846530D01*
X68413000Y-25786860D01*
X68413000Y-24899140D01*
X68418877Y-24839470D01*
X68434493Y-24787990D01*
X68459846Y-24740558D01*
X68493973Y-24698973D01*
X68535558Y-24664846D01*
X68582990Y-24639493D01*
X68634470Y-24623877D01*
X68694140Y-24618000D01*
X69481860Y-24618000D01*
X69541530Y-24623877D01*
X69541530Y-24623877D01*
G37*
G36*
X73859530Y-24539877D02*
X73911010Y-24555493D01*
X73958442Y-24580846D01*
X74000027Y-24614973D01*
X74034154Y-24656558D01*
X74059507Y-24703990D01*
X74075123Y-24755470D01*
X74081000Y-24815140D01*
X74081000Y-25702860D01*
X74075123Y-25762530D01*
X74059507Y-25814010D01*
X74034154Y-25861442D01*
X74000027Y-25903027D01*
X73958442Y-25937154D01*
X73911010Y-25962507D01*
X73859530Y-25978123D01*
X73799860Y-25984000D01*
X73012140Y-25984000D01*
X72952470Y-25978123D01*
X72900990Y-25962507D01*
X72853558Y-25937154D01*
X72811973Y-25903027D01*
X72777846Y-25861442D01*
X72752493Y-25814010D01*
X72736877Y-25762530D01*
X72731000Y-25702860D01*
X72731000Y-24815140D01*
X72736877Y-24755470D01*
X72752493Y-24703990D01*
X72777846Y-24656558D01*
X72811973Y-24614973D01*
X72853558Y-24580846D01*
X72900990Y-24555493D01*
X72952470Y-24539877D01*
X73012140Y-24534000D01*
X73799860Y-24534000D01*
X73859530Y-24539877D01*
X73859530Y-24539877D01*
G37*
G36*
X52263600Y-25761200D02*
X51063600Y-25761200D01*
X51063600Y-24461200D01*
X52263600Y-24461200D01*
X52263600Y-25761200D01*
X52263600Y-25761200D01*
G37*
G36*
X67445600Y-24722800D02*
X65345600Y-24722800D01*
X65345600Y-22622800D01*
X67445600Y-22622800D01*
X67445600Y-24722800D01*
X67445600Y-24722800D01*
G37*
G36*
X35111237Y-24722800D02*
X33011237Y-24722800D01*
X33011237Y-22622800D01*
X35111237Y-22622800D01*
X35111237Y-24722800D01*
X35111237Y-24722800D01*
G37*
G36*
X63991200Y-24722800D02*
X61891200Y-24722800D01*
X61891200Y-22622800D01*
X63991200Y-22622800D01*
X63991200Y-24722800D01*
X63991200Y-24722800D01*
G37*
G36*
X69541530Y-22873877D02*
X69593010Y-22889493D01*
X69640442Y-22914846D01*
X69682027Y-22948973D01*
X69716154Y-22990558D01*
X69741507Y-23037990D01*
X69757123Y-23089470D01*
X69763000Y-23149140D01*
X69763000Y-24036860D01*
X69757123Y-24096530D01*
X69741507Y-24148010D01*
X69716154Y-24195442D01*
X69682027Y-24237027D01*
X69640442Y-24271154D01*
X69593010Y-24296507D01*
X69541530Y-24312123D01*
X69481860Y-24318000D01*
X68694140Y-24318000D01*
X68634470Y-24312123D01*
X68582990Y-24296507D01*
X68535558Y-24271154D01*
X68493973Y-24237027D01*
X68459846Y-24195442D01*
X68434493Y-24148010D01*
X68418877Y-24096530D01*
X68413000Y-24036860D01*
X68413000Y-23149140D01*
X68418877Y-23089470D01*
X68434493Y-23037990D01*
X68459846Y-22990558D01*
X68493973Y-22948973D01*
X68535558Y-22914846D01*
X68582990Y-22889493D01*
X68634470Y-22873877D01*
X68694140Y-22868000D01*
X69481860Y-22868000D01*
X69541530Y-22873877D01*
X69541530Y-22873877D01*
G37*
G36*
X71573530Y-22873877D02*
X71625010Y-22889493D01*
X71672442Y-22914846D01*
X71714027Y-22948973D01*
X71748154Y-22990558D01*
X71773507Y-23037990D01*
X71789123Y-23089470D01*
X71795000Y-23149140D01*
X71795000Y-24036860D01*
X71789123Y-24096530D01*
X71773507Y-24148010D01*
X71748154Y-24195442D01*
X71714027Y-24237027D01*
X71672442Y-24271154D01*
X71625010Y-24296507D01*
X71573530Y-24312123D01*
X71513860Y-24318000D01*
X70726140Y-24318000D01*
X70666470Y-24312123D01*
X70614990Y-24296507D01*
X70567558Y-24271154D01*
X70525973Y-24237027D01*
X70491846Y-24195442D01*
X70466493Y-24148010D01*
X70450877Y-24096530D01*
X70445000Y-24036860D01*
X70445000Y-23149140D01*
X70450877Y-23089470D01*
X70466493Y-23037990D01*
X70491846Y-22990558D01*
X70525973Y-22948973D01*
X70567558Y-22914846D01*
X70614990Y-22889493D01*
X70666470Y-22873877D01*
X70726140Y-22868000D01*
X71513860Y-22868000D01*
X71573530Y-22873877D01*
X71573530Y-22873877D01*
G37*
G36*
X73859530Y-22789877D02*
X73911010Y-22805493D01*
X73958442Y-22830846D01*
X74000027Y-22864973D01*
X74034154Y-22906558D01*
X74059507Y-22953990D01*
X74075123Y-23005470D01*
X74081000Y-23065140D01*
X74081000Y-23952860D01*
X74075123Y-24012530D01*
X74059507Y-24064010D01*
X74034154Y-24111442D01*
X74000027Y-24153027D01*
X73958442Y-24187154D01*
X73911010Y-24212507D01*
X73859530Y-24228123D01*
X73799860Y-24234000D01*
X73012140Y-24234000D01*
X72952470Y-24228123D01*
X72900990Y-24212507D01*
X72853558Y-24187154D01*
X72811973Y-24153027D01*
X72777846Y-24111442D01*
X72752493Y-24064010D01*
X72736877Y-24012530D01*
X72731000Y-23952860D01*
X72731000Y-23065140D01*
X72736877Y-23005470D01*
X72752493Y-22953990D01*
X72777846Y-22906558D01*
X72811973Y-22864973D01*
X72853558Y-22830846D01*
X72900990Y-22805493D01*
X72952470Y-22789877D01*
X73012140Y-22784000D01*
X73799860Y-22784000D01*
X73859530Y-22789877D01*
X73859530Y-22789877D01*
G37*
M02*
