M48
;DRILL file {KiCad (5.0.1)-4} date 01/10/19 09:37:58
;FORMAT={-:-/ absolute / inch / decimal}
FMAT,2
INCH,TZ
T1C0.0157
T2C0.0350
T3C0.0394
T4C0.0450
T5C0.0810
%
G90
G05
M72
T1
X0.842Y-1.386
X0.912Y-1.42
X1.048Y-1.648
X1.088Y-1.736
X1.132Y-1.766
X1.134Y-1.494
X1.214Y-1.624
X1.214Y-1.774
X1.2161Y-1.7347
X1.224Y-1.526
X1.334Y-1.418
X1.446Y-1.552
X1.976Y-1.77
X1.998Y-1.124
X2.14Y-1.2
X2.252Y-1.68
X2.2911Y-1.198
X2.31Y-1.29
X2.348Y-1.616
X2.4054Y-0.9094
X2.412Y-1.006
X2.4315Y-1.86
X2.5615Y-1.59
X2.602Y-1.652
X2.616Y-1.884
X2.668Y-1.086
X2.726Y-1.55
X2.736Y-1.276
X2.764Y-1.724
X2.83Y-1.684
X2.84Y-1.4735
X2.888Y-1.432
X2.894Y-1.868
X2.922Y-1.056
X2.934Y-1.654
T2
X1.341Y-1.489
X1.741Y-1.489
X1.541Y-1.3221
X1.641Y-1.3221
X1.741Y-1.3221
X0.941Y-1.3221
X1.041Y-1.3221
X1.141Y-1.3221
X0.941Y-1.489
T3
X2.478Y-0.932
X2.478Y-1.032
X2.478Y-1.132
X1.442Y-1.422
X1.542Y-1.422
X1.642Y-1.422
X1.341Y-0.932
X1.341Y-1.032
X1.341Y-1.132
X2.614Y-0.932
X2.614Y-1.032
X2.614Y-1.132
X2.582Y-1.422
X2.682Y-1.422
X2.782Y-1.422
X2.178Y-1.422
X2.278Y-1.422
X2.378Y-1.422
X1.038Y-1.422
X1.138Y-1.422
X1.238Y-1.422
T4
X0.941Y-1.584
X0.941Y-1.921
X1.341Y-1.584
X1.341Y-1.921
X1.741Y-1.584
X1.741Y-1.921
T5
X1.468Y-1.0461
X1.814Y-1.0461
X0.868Y-1.0461
X1.214Y-1.0461
T0
M30
