G04 #@! TF.GenerationSoftware,KiCad,Pcbnew,(5.0.1)-4*
G04 #@! TF.CreationDate,2019-02-17T11:16:12+01:00*
G04 #@! TF.ProjectId,1U Rim,31552052696D2E6B696361645F706362,rev?*
G04 #@! TF.SameCoordinates,Original*
G04 #@! TF.FileFunction,Copper,L2,Bot,Signal*
G04 #@! TF.FilePolarity,Positive*
%FSLAX46Y46*%
G04 Gerber Fmt 4.6, Leading zero omitted, Abs format (unit mm)*
G04 Created by KiCad (PCBNEW (5.0.1)-4) date 2/17/2019 11:16:12 AM*
%MOMM*%
%LPD*%
G01*
G04 APERTURE LIST*
G04 #@! TA.AperFunction,ComponentPad*
%ADD10C,1.930400*%
G04 #@! TD*
G04 #@! TA.AperFunction,WasherPad*
%ADD11C,2.800000*%
G04 #@! TD*
G04 #@! TA.AperFunction,ComponentPad*
%ADD12R,1.700000X1.700000*%
G04 #@! TD*
G04 #@! TA.AperFunction,ComponentPad*
%ADD13O,1.700000X1.700000*%
G04 #@! TD*
G04 #@! TA.AperFunction,ComponentPad*
%ADD14C,2.667000*%
G04 #@! TD*
G04 #@! TA.AperFunction,ComponentPad*
%ADD15C,1.803400*%
G04 #@! TD*
G04 #@! TA.AperFunction,ViaPad*
%ADD16C,0.800000*%
G04 #@! TD*
G04 #@! TA.AperFunction,Conductor*
%ADD17C,0.250000*%
G04 #@! TD*
G04 #@! TA.AperFunction,Conductor*
%ADD18C,0.254000*%
G04 #@! TD*
G04 #@! TA.AperFunction,Conductor*
%ADD19C,0.127000*%
G04 #@! TD*
G04 APERTURE END LIST*
D10*
G04 #@! TO.P,J1,T*
G04 #@! TO.N,Trig*
X44221400Y-48793400D03*
G04 #@! TO.P,J1,S*
G04 #@! TO.N,GND*
X44221400Y-37820600D03*
G04 #@! TO.P,J1,TN*
G04 #@! TO.N,Net-(J1-PadTN)*
X44221400Y-40233600D03*
D11*
G04 #@! TO.P,J1,*
G04 #@! TO.N,*
X44221400Y-43586400D03*
G04 #@! TD*
G04 #@! TO.P,J2,*
G04 #@! TO.N,*
X34061400Y-43586400D03*
D10*
G04 #@! TO.P,J2,TN*
G04 #@! TO.N,Net-(J2-PadTN)*
X34061400Y-40233600D03*
G04 #@! TO.P,J2,S*
G04 #@! TO.N,GND*
X34061400Y-37820600D03*
G04 #@! TO.P,J2,T*
G04 #@! TO.N,Acc*
X34061400Y-48793400D03*
G04 #@! TD*
D12*
G04 #@! TO.P,J3,1*
G04 #@! TO.N,GND*
X66395600Y-23672800D03*
D13*
G04 #@! TO.P,J3,2*
G04 #@! TO.N,+12V*
X66395600Y-26212800D03*
G04 #@! TO.P,J3,3*
G04 #@! TO.N,-12V*
X66395600Y-28752800D03*
G04 #@! TD*
D11*
G04 #@! TO.P,J4,*
G04 #@! TO.N,*
X23901400Y-43586400D03*
D10*
G04 #@! TO.P,J4,TN*
G04 #@! TO.N,Net-(J4-PadTN)*
X23901400Y-40233600D03*
G04 #@! TO.P,J4,S*
G04 #@! TO.N,GND*
X23901400Y-37820600D03*
G04 #@! TO.P,J4,T*
G04 #@! TO.N,Net-(C17-Pad2)*
X23901400Y-48793400D03*
G04 #@! TD*
D13*
G04 #@! TO.P,J5,3*
G04 #@! TO.N,-12V*
X34061237Y-28752800D03*
G04 #@! TO.P,J5,2*
G04 #@! TO.N,+12V*
X34061237Y-26212800D03*
D12*
G04 #@! TO.P,J5,1*
G04 #@! TO.N,GND*
X34061237Y-23672800D03*
G04 #@! TD*
D13*
G04 #@! TO.P,J6,3*
G04 #@! TO.N,-12V*
X62941200Y-28752800D03*
G04 #@! TO.P,J6,2*
G04 #@! TO.N,+12V*
X62941200Y-26212800D03*
D12*
G04 #@! TO.P,J6,1*
G04 #@! TO.N,GND*
X62941200Y-23672800D03*
G04 #@! TD*
G04 #@! TO.P,J7,1*
G04 #@! TO.N,Acc*
X26365200Y-36118800D03*
D13*
G04 #@! TO.P,J7,2*
G04 #@! TO.N,Trig*
X28905200Y-36118800D03*
G04 #@! TO.P,J7,3*
G04 #@! TO.N,Out*
X31445200Y-36118800D03*
G04 #@! TD*
D12*
G04 #@! TO.P,J8,1*
G04 #@! TO.N,Acc*
X55321200Y-36118800D03*
D13*
G04 #@! TO.P,J8,2*
G04 #@! TO.N,Trig*
X57861200Y-36118800D03*
G04 #@! TO.P,J8,3*
G04 #@! TO.N,Out*
X60401200Y-36118800D03*
G04 #@! TD*
G04 #@! TO.P,J9,3*
G04 #@! TO.N,GND*
X41706800Y-36118800D03*
G04 #@! TO.P,J9,2*
G04 #@! TO.N,Ptc2*
X39166800Y-36118800D03*
D12*
G04 #@! TO.P,J9,1*
G04 #@! TO.N,Ptc1*
X36626800Y-36118800D03*
G04 #@! TD*
G04 #@! TO.P,J10,1*
G04 #@! TO.N,Ptc1*
X65582800Y-36118800D03*
D13*
G04 #@! TO.P,J10,2*
G04 #@! TO.N,Ptc2*
X68122800Y-36118800D03*
G04 #@! TO.P,J10,3*
G04 #@! TO.N,GND*
X70662800Y-36118800D03*
G04 #@! TD*
D14*
G04 #@! TO.P,RV1,5*
G04 #@! TO.N,N/C*
X22047037Y-26570243D03*
G04 #@! TO.P,RV1,4*
X30835437Y-26570243D03*
D15*
G04 #@! TO.P,RV1,1*
G04 #@! TO.N,GND*
X28981237Y-33580643D03*
G04 #@! TO.P,RV1,2*
X26441237Y-33580643D03*
G04 #@! TO.P,RV1,3*
G04 #@! TO.N,Ptc1*
X23901237Y-33580643D03*
G04 #@! TD*
G04 #@! TO.P,RV2,3*
G04 #@! TO.N,Ptc2*
X39141237Y-33580643D03*
G04 #@! TO.P,RV2,2*
G04 #@! TO.N,GND*
X41681237Y-33580643D03*
G04 #@! TO.P,RV2,1*
X44221237Y-33580643D03*
D14*
G04 #@! TO.P,RV2,4*
G04 #@! TO.N,N/C*
X46075437Y-26570243D03*
G04 #@! TO.P,RV2,5*
X37287037Y-26570243D03*
G04 #@! TD*
D16*
G04 #@! TO.N,Net-(C1-Pad2)*
X58194371Y-30430195D03*
X54356000Y-30480000D03*
G04 #@! TO.N,GND*
X61264800Y-25552400D03*
X72999600Y-41402000D03*
X33883600Y-36017200D03*
X30835600Y-41249600D03*
X26619200Y-41859200D03*
X23164800Y-36068000D03*
X52781200Y-28803600D03*
G04 #@! TO.N,Net-(C4-Pad2)*
X61214000Y-47498000D03*
X63946847Y-46928847D03*
G04 #@! TO.N,Net-(C5-Pad2)*
X75641200Y-47853600D03*
X71845000Y-45672600D03*
G04 #@! TO.N,Net-(C5-Pad1)*
X73355200Y-36372800D03*
X70154800Y-46228000D03*
G04 #@! TO.N,Net-(C6-Pad2)*
X70840600Y-42595800D03*
X72136000Y-37425800D03*
X72929800Y-47072602D03*
X72237600Y-42997600D03*
G04 #@! TO.N,Net-(C9-Pad1)*
X74523600Y-42011600D03*
X74218800Y-26822400D03*
X75865559Y-43404359D03*
G04 #@! TO.N,Net-(C10-Pad1)*
X31089600Y-38760400D03*
X36728400Y-39420800D03*
G04 #@! TO.N,Net-(C12-Pad1)*
X30888158Y-44060980D03*
X27635200Y-44094400D03*
G04 #@! TO.N,Net-(D4-Pad2)*
X66802000Y-47345600D03*
X67767200Y-27584400D03*
G04 #@! TO.N,Net-(Q2-Pad2)*
X66090800Y-41960800D03*
X59639200Y-41046400D03*
G04 #@! TO.N,Net-(Q3-Pad1)*
X57200800Y-42672000D03*
X50749200Y-28549600D03*
G04 #@! TO.N,Net-(R2-Pad1)*
X50190400Y-44958000D03*
X60960000Y-45974000D03*
G04 #@! TO.N,Net-(R6-Pad2)*
X69240400Y-39370000D03*
X69494400Y-32410400D03*
G04 #@! TO.N,Net-(R22-Pad1)*
X30835600Y-45059600D03*
X28752800Y-44856400D03*
G04 #@! TO.N,Out*
X61097803Y-23098803D03*
X28803600Y-37947600D03*
X21386800Y-35204400D03*
G04 #@! TO.N,Trig*
X58674000Y-32766000D03*
G04 #@! TO.N,Ptc1*
X65061000Y-40386000D03*
G04 #@! TD*
D17*
G04 #@! TO.N,Net-(C1-Pad2)*
X58194371Y-30430195D02*
X54405805Y-30430195D01*
X54405805Y-30430195D02*
X54356000Y-30480000D01*
G04 #@! TO.N,Net-(C4-Pad2)*
X61214000Y-47498000D02*
X61783153Y-46928847D01*
X61783153Y-46928847D02*
X63946847Y-46928847D01*
G04 #@! TO.N,Net-(C5-Pad2)*
X73460200Y-45672600D02*
X71845000Y-45672600D01*
X75641200Y-47853600D02*
X73460200Y-45672600D01*
G04 #@! TO.N,Net-(C5-Pad1)*
X73507600Y-36525200D02*
X73355200Y-36372800D01*
X70154800Y-44354602D02*
X71704200Y-42805202D01*
X70154800Y-46228000D02*
X70154800Y-44354602D01*
X71704200Y-42805202D02*
X71704200Y-41452800D01*
X73507600Y-39649400D02*
X73507600Y-39268400D01*
X71704200Y-41452800D02*
X73507600Y-39649400D01*
X73507600Y-39268400D02*
X73507600Y-36525200D01*
G04 #@! TO.N,Net-(C6-Pad2)*
X71489400Y-37425800D02*
X72136000Y-37425800D01*
X70840600Y-42595800D02*
X70840600Y-38074600D01*
X70840600Y-38074600D02*
X71489400Y-37425800D01*
X71120000Y-44115200D02*
X72237600Y-42997600D01*
X70916800Y-44318400D02*
X71120000Y-44115200D01*
X70916800Y-46609000D02*
X70916800Y-44318400D01*
X72929800Y-47072602D02*
X71380402Y-47072602D01*
X71380402Y-47072602D02*
X70916800Y-46609000D01*
G04 #@! TO.N,Net-(C9-Pad1)*
X74523600Y-42011600D02*
X74523600Y-27127200D01*
X74523600Y-27127200D02*
X74218800Y-26822400D01*
X75865559Y-43353559D02*
X74523600Y-42011600D01*
X75865559Y-43404359D02*
X75865559Y-43353559D01*
G04 #@! TO.N,Net-(C10-Pad1)*
X34625399Y-41523801D02*
X36728400Y-39420800D01*
X33287316Y-41523801D02*
X34625399Y-41523801D01*
X31089600Y-38760400D02*
X31089600Y-39326085D01*
X31089600Y-39326085D02*
X33287316Y-41523801D01*
G04 #@! TO.N,Net-(C12-Pad1)*
X30888158Y-44060980D02*
X27668620Y-44060980D01*
X27668620Y-44060980D02*
X27635200Y-44094400D01*
G04 #@! TO.N,+12V*
X66395600Y-26212800D02*
X62941200Y-26212800D01*
G04 #@! TO.N,-12V*
X65193519Y-28752800D02*
X62941200Y-28752800D01*
X66395600Y-28752800D02*
X65193519Y-28752800D01*
G04 #@! TO.N,Net-(D4-Pad2)*
X67767200Y-27584400D02*
X67767200Y-29819600D01*
X66947799Y-30639001D02*
X66947799Y-35864800D01*
X67767200Y-29819600D02*
X66947799Y-30639001D01*
X66947799Y-35864800D02*
X66947799Y-35554799D01*
X66947799Y-46609000D02*
X66947799Y-35864800D01*
X66802000Y-46754799D02*
X66802000Y-47345600D01*
X66947799Y-46609000D02*
X66802000Y-46754799D01*
G04 #@! TO.N,Net-(Q2-Pad2)*
X66090800Y-41960800D02*
X60553600Y-41960800D01*
X60553600Y-41960800D02*
X59639200Y-41046400D01*
G04 #@! TO.N,Net-(Q3-Pad1)*
X57200800Y-42672000D02*
X53543200Y-42672000D01*
X53543200Y-42672000D02*
X50749200Y-39878000D01*
X50749200Y-39878000D02*
X50749200Y-28549600D01*
G04 #@! TO.N,Net-(R2-Pad1)*
X59473000Y-44958000D02*
X50190400Y-44958000D01*
X60960000Y-45974000D02*
X59944000Y-44958000D01*
X59944000Y-44958000D02*
X59473000Y-44958000D01*
G04 #@! TO.N,Net-(R6-Pad2)*
X69487799Y-32417001D02*
X69494400Y-32410400D01*
X69487799Y-38556916D02*
X69487799Y-32417001D01*
X69240400Y-39370000D02*
X69240400Y-38804315D01*
X69240400Y-38804315D02*
X69487799Y-38556916D01*
G04 #@! TO.N,Net-(R22-Pad1)*
X30835600Y-45059600D02*
X28956000Y-45059600D01*
X28956000Y-45059600D02*
X28752800Y-44856400D01*
G04 #@! TO.N,Acc*
X26365200Y-38443202D02*
X26365200Y-36118800D01*
X34061400Y-48793400D02*
X34061400Y-46139402D01*
X34061400Y-46139402D02*
X26365200Y-38443202D01*
G04 #@! TO.N,Out*
X60697804Y-23498802D02*
X61097803Y-23098803D01*
X60401200Y-23795406D02*
X61097803Y-23098803D01*
X60401200Y-36118800D02*
X60401200Y-23795406D01*
X21647401Y-34943799D02*
X21386800Y-35204400D01*
X27475201Y-34943799D02*
X21647401Y-34943799D01*
X27540201Y-35008799D02*
X27475201Y-34943799D01*
X28803600Y-37947600D02*
X27540201Y-36684201D01*
X27540201Y-36684201D02*
X27540201Y-35008799D01*
G04 #@! TO.N,Trig*
X57861200Y-36118800D02*
X57861200Y-33578800D01*
X57861200Y-33578800D02*
X58674000Y-32766000D01*
X28905200Y-36118800D02*
X31045990Y-33978010D01*
X31045990Y-33978010D02*
X34130410Y-33978010D01*
X35351601Y-35199201D02*
X35351601Y-37028001D01*
X34130410Y-33978010D02*
X35351601Y-35199201D01*
X35351601Y-37028001D02*
X37019399Y-38695799D01*
X44221400Y-48793400D02*
X40081200Y-44653200D01*
X40081200Y-41083399D02*
X37693600Y-38695799D01*
X40081200Y-44653200D02*
X40081200Y-41083399D01*
X37019399Y-38695799D02*
X37693600Y-38695799D01*
G04 #@! TO.N,Ptc1*
X65582800Y-36118800D02*
X65582800Y-39864200D01*
X65582800Y-39864200D02*
X65061000Y-40386000D01*
X36626800Y-34086800D02*
X36626800Y-36118800D01*
X34544000Y-32004000D02*
X36626800Y-34086800D01*
X23901237Y-33580643D02*
X25477880Y-32004000D01*
X25477880Y-32004000D02*
X34544000Y-32004000D01*
G04 #@! TD*
D18*
G04 #@! TO.N,GND*
G36*
X32851539Y-22284473D02*
X32672910Y-22463101D01*
X32576237Y-22696490D01*
X32576237Y-23387050D01*
X32734987Y-23545800D01*
X33934237Y-23545800D01*
X33934237Y-23525800D01*
X34188237Y-23525800D01*
X34188237Y-23545800D01*
X35387487Y-23545800D01*
X35546237Y-23387050D01*
X35546237Y-22696490D01*
X35449564Y-22463101D01*
X35270935Y-22284473D01*
X35124458Y-22223800D01*
X47473800Y-22223800D01*
X47473800Y-25364332D01*
X47118563Y-25009095D01*
X46441734Y-24728743D01*
X45709140Y-24728743D01*
X45032311Y-25009095D01*
X44514289Y-25527117D01*
X44233937Y-26203946D01*
X44233937Y-26936540D01*
X44514289Y-27613369D01*
X45032311Y-28131391D01*
X45709140Y-28411743D01*
X46441734Y-28411743D01*
X47118563Y-28131391D01*
X47473801Y-27776153D01*
X47473801Y-31972517D01*
X47485002Y-32028828D01*
X47485002Y-32028837D01*
X47523062Y-32220179D01*
X47523063Y-32220181D01*
X47523063Y-32220183D01*
X47540925Y-32263305D01*
X47610113Y-32430339D01*
X47610114Y-32430340D01*
X47610115Y-32430342D01*
X47718502Y-32592553D01*
X47798925Y-32672975D01*
X47879347Y-32753398D01*
X47898726Y-32766347D01*
X47899536Y-33223287D01*
X47702259Y-33420564D01*
X47548800Y-33791046D01*
X47548800Y-34192054D01*
X47702259Y-34562536D01*
X47902265Y-34762542D01*
X47903132Y-35251691D01*
X47702259Y-35452564D01*
X47548800Y-35823046D01*
X47548800Y-36224054D01*
X47702259Y-36594536D01*
X47905874Y-36798151D01*
X47906729Y-37280094D01*
X47702259Y-37484564D01*
X47548800Y-37855046D01*
X47548800Y-38256054D01*
X47702259Y-38626536D01*
X47909483Y-38833760D01*
X47910262Y-39273045D01*
X47879347Y-39293702D01*
X47798925Y-39374125D01*
X47718502Y-39454547D01*
X47610115Y-39616758D01*
X47610114Y-39616760D01*
X47610113Y-39616761D01*
X47570796Y-39711681D01*
X47523063Y-39826917D01*
X47523063Y-39826919D01*
X47523062Y-39826921D01*
X47485002Y-40018263D01*
X47485002Y-40018268D01*
X47473800Y-40074584D01*
X47473801Y-49759800D01*
X45338420Y-49759800D01*
X45470319Y-49627901D01*
X45694600Y-49086438D01*
X45694600Y-48500362D01*
X45470319Y-47958899D01*
X45055901Y-47544481D01*
X44514438Y-47320200D01*
X43928362Y-47320200D01*
X43726861Y-47403664D01*
X40714200Y-44391004D01*
X40714200Y-43206875D01*
X42313400Y-43206875D01*
X42313400Y-43965925D01*
X42603876Y-44667195D01*
X43140605Y-45203924D01*
X43841875Y-45494400D01*
X44600925Y-45494400D01*
X45302195Y-45203924D01*
X45838924Y-44667195D01*
X46129400Y-43965925D01*
X46129400Y-43206875D01*
X45838924Y-42505605D01*
X45302195Y-41968876D01*
X44600925Y-41678400D01*
X44583002Y-41678400D01*
X45055901Y-41482519D01*
X45470319Y-41068101D01*
X45694600Y-40526638D01*
X45694600Y-39940562D01*
X45470319Y-39399099D01*
X45129560Y-39058340D01*
X45169145Y-38947950D01*
X44221400Y-38000205D01*
X43273655Y-38947950D01*
X43313240Y-39058340D01*
X42972481Y-39399099D01*
X42748200Y-39940562D01*
X42748200Y-40526638D01*
X42972481Y-41068101D01*
X43386899Y-41482519D01*
X43859798Y-41678400D01*
X43841875Y-41678400D01*
X43140605Y-41968876D01*
X42603876Y-42505605D01*
X42313400Y-43206875D01*
X40714200Y-43206875D01*
X40714200Y-41145737D01*
X40726600Y-41083398D01*
X40714200Y-41021059D01*
X40714200Y-41021055D01*
X40677473Y-40836415D01*
X40537567Y-40627032D01*
X40484716Y-40591718D01*
X38185283Y-38292286D01*
X38149967Y-38239432D01*
X37940584Y-38099526D01*
X37755944Y-38062799D01*
X37755939Y-38062799D01*
X37693600Y-38050399D01*
X37631261Y-38062799D01*
X37281596Y-38062799D01*
X36705549Y-37486752D01*
X37476800Y-37486752D01*
X37675012Y-37447325D01*
X37843047Y-37335047D01*
X37955325Y-37167012D01*
X37994752Y-36968800D01*
X37994752Y-36809040D01*
X38187737Y-37097863D01*
X38636935Y-37398007D01*
X39033053Y-37476800D01*
X39300547Y-37476800D01*
X39696665Y-37398007D01*
X40145863Y-37097863D01*
X40387599Y-36736079D01*
X40511617Y-37000158D01*
X40939876Y-37390445D01*
X41349910Y-37560276D01*
X41579800Y-37438955D01*
X41579800Y-36245800D01*
X41833800Y-36245800D01*
X41833800Y-37438955D01*
X42063690Y-37560276D01*
X42473724Y-37390445D01*
X42776308Y-37114690D01*
X42610095Y-37564369D01*
X42634693Y-38200493D01*
X42830804Y-38673946D01*
X43094050Y-38768345D01*
X44041795Y-37820600D01*
X44401005Y-37820600D01*
X45348750Y-38768345D01*
X45611996Y-38673946D01*
X45832705Y-38076831D01*
X45808107Y-37440707D01*
X45611996Y-36967254D01*
X45348750Y-36872855D01*
X44401005Y-37820600D01*
X44041795Y-37820600D01*
X43094050Y-36872855D01*
X42934979Y-36929897D01*
X43046114Y-36693250D01*
X43273655Y-36693250D01*
X44221400Y-37640995D01*
X45169145Y-36693250D01*
X45074746Y-36430004D01*
X44477631Y-36209295D01*
X43841507Y-36233893D01*
X43368054Y-36430004D01*
X43273655Y-36693250D01*
X43046114Y-36693250D01*
X43148286Y-36475692D01*
X43027619Y-36245800D01*
X41833800Y-36245800D01*
X41579800Y-36245800D01*
X41559800Y-36245800D01*
X41559800Y-35991800D01*
X41579800Y-35991800D01*
X41579800Y-35971800D01*
X41833800Y-35971800D01*
X41833800Y-35991800D01*
X43027619Y-35991800D01*
X43148286Y-35761908D01*
X42901983Y-35237442D01*
X42509535Y-34879791D01*
X42583022Y-34662033D01*
X43319452Y-34662033D01*
X43406067Y-34918693D01*
X43980168Y-35128792D01*
X44590969Y-35103199D01*
X45036407Y-34918693D01*
X45123022Y-34662033D01*
X44221237Y-33760248D01*
X43319452Y-34662033D01*
X42583022Y-34662033D01*
X41681237Y-33760248D01*
X40779452Y-34662033D01*
X40864964Y-34915425D01*
X40511617Y-35237442D01*
X40387599Y-35501521D01*
X40145863Y-35139737D01*
X39730694Y-34862330D01*
X39939768Y-34775729D01*
X40336303Y-34379194D01*
X40343187Y-34395813D01*
X40599847Y-34482428D01*
X41501632Y-33580643D01*
X41860842Y-33580643D01*
X42762627Y-34482428D01*
X42951237Y-34418778D01*
X43139847Y-34482428D01*
X44041632Y-33580643D01*
X44400842Y-33580643D01*
X45302627Y-34482428D01*
X45559287Y-34395813D01*
X45769386Y-33821712D01*
X45743793Y-33210911D01*
X45559287Y-32765473D01*
X45302627Y-32678858D01*
X44400842Y-33580643D01*
X44041632Y-33580643D01*
X43139847Y-32678858D01*
X42951237Y-32742508D01*
X42762627Y-32678858D01*
X41860842Y-33580643D01*
X41501632Y-33580643D01*
X40599847Y-32678858D01*
X40343187Y-32765473D01*
X40336734Y-32783105D01*
X40336323Y-32782112D01*
X40053464Y-32499253D01*
X40779452Y-32499253D01*
X41681237Y-33401038D01*
X42583022Y-32499253D01*
X43319452Y-32499253D01*
X44221237Y-33401038D01*
X45123022Y-32499253D01*
X45036407Y-32242593D01*
X44462306Y-32032494D01*
X43851505Y-32058087D01*
X43406067Y-32242593D01*
X43319452Y-32499253D01*
X42583022Y-32499253D01*
X42496407Y-32242593D01*
X41922306Y-32032494D01*
X41311505Y-32058087D01*
X40866067Y-32242593D01*
X40779452Y-32499253D01*
X40053464Y-32499253D01*
X39939768Y-32385557D01*
X39421644Y-32170943D01*
X38860830Y-32170943D01*
X38342706Y-32385557D01*
X37946151Y-32782112D01*
X37731537Y-33300236D01*
X37731537Y-33861050D01*
X37946151Y-34379174D01*
X38342706Y-34775729D01*
X38583341Y-34875403D01*
X38187737Y-35139737D01*
X37994752Y-35428560D01*
X37994752Y-35268800D01*
X37955325Y-35070588D01*
X37843047Y-34902553D01*
X37675012Y-34790275D01*
X37476800Y-34750848D01*
X37259800Y-34750848D01*
X37259800Y-34149138D01*
X37272200Y-34086799D01*
X37259800Y-34024460D01*
X37259800Y-34024456D01*
X37223073Y-33839816D01*
X37161600Y-33747816D01*
X37118482Y-33683285D01*
X37118481Y-33683284D01*
X37083167Y-33630433D01*
X37030316Y-33595119D01*
X35035683Y-31600487D01*
X35000367Y-31547633D01*
X34790984Y-31407727D01*
X34606344Y-31371000D01*
X34606339Y-31371000D01*
X34544000Y-31358600D01*
X34481661Y-31371000D01*
X25540219Y-31371000D01*
X25477880Y-31358600D01*
X25415541Y-31371000D01*
X25415536Y-31371000D01*
X25230896Y-31407727D01*
X25021513Y-31547633D01*
X24986199Y-31600484D01*
X24347175Y-32239508D01*
X24181644Y-32170943D01*
X23620830Y-32170943D01*
X23102706Y-32385557D01*
X22706151Y-32782112D01*
X22491537Y-33300236D01*
X22491537Y-33861050D01*
X22677829Y-34310799D01*
X21709739Y-34310799D01*
X21647400Y-34298399D01*
X21596622Y-34308499D01*
X21567412Y-34296400D01*
X21206188Y-34296400D01*
X20872459Y-34434635D01*
X20699800Y-34607294D01*
X20699800Y-27827280D01*
X21003911Y-28131391D01*
X21680740Y-28411743D01*
X22413334Y-28411743D01*
X23090163Y-28131391D01*
X23608185Y-27613369D01*
X23888537Y-26936540D01*
X23888537Y-26203946D01*
X28993937Y-26203946D01*
X28993937Y-26936540D01*
X29274289Y-27613369D01*
X29792311Y-28131391D01*
X30469140Y-28411743D01*
X31201734Y-28411743D01*
X31878563Y-28131391D01*
X32396585Y-27613369D01*
X32676937Y-26936540D01*
X32676937Y-26214328D01*
X32782030Y-26742665D01*
X33082174Y-27191863D01*
X33517593Y-27482800D01*
X33082174Y-27773737D01*
X32782030Y-28222935D01*
X32676633Y-28752800D01*
X32782030Y-29282665D01*
X33082174Y-29731863D01*
X33531372Y-30032007D01*
X33927490Y-30110800D01*
X34194984Y-30110800D01*
X34591102Y-30032007D01*
X35040300Y-29731863D01*
X35340444Y-29282665D01*
X35445841Y-28752800D01*
X35340444Y-28222935D01*
X35040300Y-27773737D01*
X34604881Y-27482800D01*
X35040300Y-27191863D01*
X35340444Y-26742665D01*
X35445537Y-26214328D01*
X35445537Y-26936540D01*
X35725889Y-27613369D01*
X36243911Y-28131391D01*
X36920740Y-28411743D01*
X37653334Y-28411743D01*
X38330163Y-28131391D01*
X38848185Y-27613369D01*
X39128537Y-26936540D01*
X39128537Y-26203946D01*
X38848185Y-25527117D01*
X38330163Y-25009095D01*
X37653334Y-24728743D01*
X36920740Y-24728743D01*
X36243911Y-25009095D01*
X35725889Y-25527117D01*
X35445537Y-26203946D01*
X35445537Y-26211272D01*
X35340444Y-25682935D01*
X35040300Y-25233737D01*
X34926652Y-25157800D01*
X35037546Y-25157800D01*
X35270935Y-25061127D01*
X35449564Y-24882499D01*
X35546237Y-24649110D01*
X35546237Y-23958550D01*
X35387487Y-23799800D01*
X34188237Y-23799800D01*
X34188237Y-23819800D01*
X33934237Y-23819800D01*
X33934237Y-23799800D01*
X32734987Y-23799800D01*
X32576237Y-23958550D01*
X32576237Y-24649110D01*
X32672910Y-24882499D01*
X32851539Y-25061127D01*
X33084928Y-25157800D01*
X33195822Y-25157800D01*
X33082174Y-25233737D01*
X32782030Y-25682935D01*
X32676937Y-26211272D01*
X32676937Y-26203946D01*
X32396585Y-25527117D01*
X31878563Y-25009095D01*
X31201734Y-24728743D01*
X30469140Y-24728743D01*
X29792311Y-25009095D01*
X29274289Y-25527117D01*
X28993937Y-26203946D01*
X23888537Y-26203946D01*
X23608185Y-25527117D01*
X23090163Y-25009095D01*
X22413334Y-24728743D01*
X21680740Y-24728743D01*
X21003911Y-25009095D01*
X20699800Y-25313206D01*
X20699800Y-22223800D01*
X32998016Y-22223800D01*
X32851539Y-22284473D01*
X32851539Y-22284473D01*
G37*
X32851539Y-22284473D02*
X32672910Y-22463101D01*
X32576237Y-22696490D01*
X32576237Y-23387050D01*
X32734987Y-23545800D01*
X33934237Y-23545800D01*
X33934237Y-23525800D01*
X34188237Y-23525800D01*
X34188237Y-23545800D01*
X35387487Y-23545800D01*
X35546237Y-23387050D01*
X35546237Y-22696490D01*
X35449564Y-22463101D01*
X35270935Y-22284473D01*
X35124458Y-22223800D01*
X47473800Y-22223800D01*
X47473800Y-25364332D01*
X47118563Y-25009095D01*
X46441734Y-24728743D01*
X45709140Y-24728743D01*
X45032311Y-25009095D01*
X44514289Y-25527117D01*
X44233937Y-26203946D01*
X44233937Y-26936540D01*
X44514289Y-27613369D01*
X45032311Y-28131391D01*
X45709140Y-28411743D01*
X46441734Y-28411743D01*
X47118563Y-28131391D01*
X47473801Y-27776153D01*
X47473801Y-31972517D01*
X47485002Y-32028828D01*
X47485002Y-32028837D01*
X47523062Y-32220179D01*
X47523063Y-32220181D01*
X47523063Y-32220183D01*
X47540925Y-32263305D01*
X47610113Y-32430339D01*
X47610114Y-32430340D01*
X47610115Y-32430342D01*
X47718502Y-32592553D01*
X47798925Y-32672975D01*
X47879347Y-32753398D01*
X47898726Y-32766347D01*
X47899536Y-33223287D01*
X47702259Y-33420564D01*
X47548800Y-33791046D01*
X47548800Y-34192054D01*
X47702259Y-34562536D01*
X47902265Y-34762542D01*
X47903132Y-35251691D01*
X47702259Y-35452564D01*
X47548800Y-35823046D01*
X47548800Y-36224054D01*
X47702259Y-36594536D01*
X47905874Y-36798151D01*
X47906729Y-37280094D01*
X47702259Y-37484564D01*
X47548800Y-37855046D01*
X47548800Y-38256054D01*
X47702259Y-38626536D01*
X47909483Y-38833760D01*
X47910262Y-39273045D01*
X47879347Y-39293702D01*
X47798925Y-39374125D01*
X47718502Y-39454547D01*
X47610115Y-39616758D01*
X47610114Y-39616760D01*
X47610113Y-39616761D01*
X47570796Y-39711681D01*
X47523063Y-39826917D01*
X47523063Y-39826919D01*
X47523062Y-39826921D01*
X47485002Y-40018263D01*
X47485002Y-40018268D01*
X47473800Y-40074584D01*
X47473801Y-49759800D01*
X45338420Y-49759800D01*
X45470319Y-49627901D01*
X45694600Y-49086438D01*
X45694600Y-48500362D01*
X45470319Y-47958899D01*
X45055901Y-47544481D01*
X44514438Y-47320200D01*
X43928362Y-47320200D01*
X43726861Y-47403664D01*
X40714200Y-44391004D01*
X40714200Y-43206875D01*
X42313400Y-43206875D01*
X42313400Y-43965925D01*
X42603876Y-44667195D01*
X43140605Y-45203924D01*
X43841875Y-45494400D01*
X44600925Y-45494400D01*
X45302195Y-45203924D01*
X45838924Y-44667195D01*
X46129400Y-43965925D01*
X46129400Y-43206875D01*
X45838924Y-42505605D01*
X45302195Y-41968876D01*
X44600925Y-41678400D01*
X44583002Y-41678400D01*
X45055901Y-41482519D01*
X45470319Y-41068101D01*
X45694600Y-40526638D01*
X45694600Y-39940562D01*
X45470319Y-39399099D01*
X45129560Y-39058340D01*
X45169145Y-38947950D01*
X44221400Y-38000205D01*
X43273655Y-38947950D01*
X43313240Y-39058340D01*
X42972481Y-39399099D01*
X42748200Y-39940562D01*
X42748200Y-40526638D01*
X42972481Y-41068101D01*
X43386899Y-41482519D01*
X43859798Y-41678400D01*
X43841875Y-41678400D01*
X43140605Y-41968876D01*
X42603876Y-42505605D01*
X42313400Y-43206875D01*
X40714200Y-43206875D01*
X40714200Y-41145737D01*
X40726600Y-41083398D01*
X40714200Y-41021059D01*
X40714200Y-41021055D01*
X40677473Y-40836415D01*
X40537567Y-40627032D01*
X40484716Y-40591718D01*
X38185283Y-38292286D01*
X38149967Y-38239432D01*
X37940584Y-38099526D01*
X37755944Y-38062799D01*
X37755939Y-38062799D01*
X37693600Y-38050399D01*
X37631261Y-38062799D01*
X37281596Y-38062799D01*
X36705549Y-37486752D01*
X37476800Y-37486752D01*
X37675012Y-37447325D01*
X37843047Y-37335047D01*
X37955325Y-37167012D01*
X37994752Y-36968800D01*
X37994752Y-36809040D01*
X38187737Y-37097863D01*
X38636935Y-37398007D01*
X39033053Y-37476800D01*
X39300547Y-37476800D01*
X39696665Y-37398007D01*
X40145863Y-37097863D01*
X40387599Y-36736079D01*
X40511617Y-37000158D01*
X40939876Y-37390445D01*
X41349910Y-37560276D01*
X41579800Y-37438955D01*
X41579800Y-36245800D01*
X41833800Y-36245800D01*
X41833800Y-37438955D01*
X42063690Y-37560276D01*
X42473724Y-37390445D01*
X42776308Y-37114690D01*
X42610095Y-37564369D01*
X42634693Y-38200493D01*
X42830804Y-38673946D01*
X43094050Y-38768345D01*
X44041795Y-37820600D01*
X44401005Y-37820600D01*
X45348750Y-38768345D01*
X45611996Y-38673946D01*
X45832705Y-38076831D01*
X45808107Y-37440707D01*
X45611996Y-36967254D01*
X45348750Y-36872855D01*
X44401005Y-37820600D01*
X44041795Y-37820600D01*
X43094050Y-36872855D01*
X42934979Y-36929897D01*
X43046114Y-36693250D01*
X43273655Y-36693250D01*
X44221400Y-37640995D01*
X45169145Y-36693250D01*
X45074746Y-36430004D01*
X44477631Y-36209295D01*
X43841507Y-36233893D01*
X43368054Y-36430004D01*
X43273655Y-36693250D01*
X43046114Y-36693250D01*
X43148286Y-36475692D01*
X43027619Y-36245800D01*
X41833800Y-36245800D01*
X41579800Y-36245800D01*
X41559800Y-36245800D01*
X41559800Y-35991800D01*
X41579800Y-35991800D01*
X41579800Y-35971800D01*
X41833800Y-35971800D01*
X41833800Y-35991800D01*
X43027619Y-35991800D01*
X43148286Y-35761908D01*
X42901983Y-35237442D01*
X42509535Y-34879791D01*
X42583022Y-34662033D01*
X43319452Y-34662033D01*
X43406067Y-34918693D01*
X43980168Y-35128792D01*
X44590969Y-35103199D01*
X45036407Y-34918693D01*
X45123022Y-34662033D01*
X44221237Y-33760248D01*
X43319452Y-34662033D01*
X42583022Y-34662033D01*
X41681237Y-33760248D01*
X40779452Y-34662033D01*
X40864964Y-34915425D01*
X40511617Y-35237442D01*
X40387599Y-35501521D01*
X40145863Y-35139737D01*
X39730694Y-34862330D01*
X39939768Y-34775729D01*
X40336303Y-34379194D01*
X40343187Y-34395813D01*
X40599847Y-34482428D01*
X41501632Y-33580643D01*
X41860842Y-33580643D01*
X42762627Y-34482428D01*
X42951237Y-34418778D01*
X43139847Y-34482428D01*
X44041632Y-33580643D01*
X44400842Y-33580643D01*
X45302627Y-34482428D01*
X45559287Y-34395813D01*
X45769386Y-33821712D01*
X45743793Y-33210911D01*
X45559287Y-32765473D01*
X45302627Y-32678858D01*
X44400842Y-33580643D01*
X44041632Y-33580643D01*
X43139847Y-32678858D01*
X42951237Y-32742508D01*
X42762627Y-32678858D01*
X41860842Y-33580643D01*
X41501632Y-33580643D01*
X40599847Y-32678858D01*
X40343187Y-32765473D01*
X40336734Y-32783105D01*
X40336323Y-32782112D01*
X40053464Y-32499253D01*
X40779452Y-32499253D01*
X41681237Y-33401038D01*
X42583022Y-32499253D01*
X43319452Y-32499253D01*
X44221237Y-33401038D01*
X45123022Y-32499253D01*
X45036407Y-32242593D01*
X44462306Y-32032494D01*
X43851505Y-32058087D01*
X43406067Y-32242593D01*
X43319452Y-32499253D01*
X42583022Y-32499253D01*
X42496407Y-32242593D01*
X41922306Y-32032494D01*
X41311505Y-32058087D01*
X40866067Y-32242593D01*
X40779452Y-32499253D01*
X40053464Y-32499253D01*
X39939768Y-32385557D01*
X39421644Y-32170943D01*
X38860830Y-32170943D01*
X38342706Y-32385557D01*
X37946151Y-32782112D01*
X37731537Y-33300236D01*
X37731537Y-33861050D01*
X37946151Y-34379174D01*
X38342706Y-34775729D01*
X38583341Y-34875403D01*
X38187737Y-35139737D01*
X37994752Y-35428560D01*
X37994752Y-35268800D01*
X37955325Y-35070588D01*
X37843047Y-34902553D01*
X37675012Y-34790275D01*
X37476800Y-34750848D01*
X37259800Y-34750848D01*
X37259800Y-34149138D01*
X37272200Y-34086799D01*
X37259800Y-34024460D01*
X37259800Y-34024456D01*
X37223073Y-33839816D01*
X37161600Y-33747816D01*
X37118482Y-33683285D01*
X37118481Y-33683284D01*
X37083167Y-33630433D01*
X37030316Y-33595119D01*
X35035683Y-31600487D01*
X35000367Y-31547633D01*
X34790984Y-31407727D01*
X34606344Y-31371000D01*
X34606339Y-31371000D01*
X34544000Y-31358600D01*
X34481661Y-31371000D01*
X25540219Y-31371000D01*
X25477880Y-31358600D01*
X25415541Y-31371000D01*
X25415536Y-31371000D01*
X25230896Y-31407727D01*
X25021513Y-31547633D01*
X24986199Y-31600484D01*
X24347175Y-32239508D01*
X24181644Y-32170943D01*
X23620830Y-32170943D01*
X23102706Y-32385557D01*
X22706151Y-32782112D01*
X22491537Y-33300236D01*
X22491537Y-33861050D01*
X22677829Y-34310799D01*
X21709739Y-34310799D01*
X21647400Y-34298399D01*
X21596622Y-34308499D01*
X21567412Y-34296400D01*
X21206188Y-34296400D01*
X20872459Y-34434635D01*
X20699800Y-34607294D01*
X20699800Y-27827280D01*
X21003911Y-28131391D01*
X21680740Y-28411743D01*
X22413334Y-28411743D01*
X23090163Y-28131391D01*
X23608185Y-27613369D01*
X23888537Y-26936540D01*
X23888537Y-26203946D01*
X28993937Y-26203946D01*
X28993937Y-26936540D01*
X29274289Y-27613369D01*
X29792311Y-28131391D01*
X30469140Y-28411743D01*
X31201734Y-28411743D01*
X31878563Y-28131391D01*
X32396585Y-27613369D01*
X32676937Y-26936540D01*
X32676937Y-26214328D01*
X32782030Y-26742665D01*
X33082174Y-27191863D01*
X33517593Y-27482800D01*
X33082174Y-27773737D01*
X32782030Y-28222935D01*
X32676633Y-28752800D01*
X32782030Y-29282665D01*
X33082174Y-29731863D01*
X33531372Y-30032007D01*
X33927490Y-30110800D01*
X34194984Y-30110800D01*
X34591102Y-30032007D01*
X35040300Y-29731863D01*
X35340444Y-29282665D01*
X35445841Y-28752800D01*
X35340444Y-28222935D01*
X35040300Y-27773737D01*
X34604881Y-27482800D01*
X35040300Y-27191863D01*
X35340444Y-26742665D01*
X35445537Y-26214328D01*
X35445537Y-26936540D01*
X35725889Y-27613369D01*
X36243911Y-28131391D01*
X36920740Y-28411743D01*
X37653334Y-28411743D01*
X38330163Y-28131391D01*
X38848185Y-27613369D01*
X39128537Y-26936540D01*
X39128537Y-26203946D01*
X38848185Y-25527117D01*
X38330163Y-25009095D01*
X37653334Y-24728743D01*
X36920740Y-24728743D01*
X36243911Y-25009095D01*
X35725889Y-25527117D01*
X35445537Y-26203946D01*
X35445537Y-26211272D01*
X35340444Y-25682935D01*
X35040300Y-25233737D01*
X34926652Y-25157800D01*
X35037546Y-25157800D01*
X35270935Y-25061127D01*
X35449564Y-24882499D01*
X35546237Y-24649110D01*
X35546237Y-23958550D01*
X35387487Y-23799800D01*
X34188237Y-23799800D01*
X34188237Y-23819800D01*
X33934237Y-23819800D01*
X33934237Y-23799800D01*
X32734987Y-23799800D01*
X32576237Y-23958550D01*
X32576237Y-24649110D01*
X32672910Y-24882499D01*
X32851539Y-25061127D01*
X33084928Y-25157800D01*
X33195822Y-25157800D01*
X33082174Y-25233737D01*
X32782030Y-25682935D01*
X32676937Y-26211272D01*
X32676937Y-26203946D01*
X32396585Y-25527117D01*
X31878563Y-25009095D01*
X31201734Y-24728743D01*
X30469140Y-24728743D01*
X29792311Y-25009095D01*
X29274289Y-25527117D01*
X28993937Y-26203946D01*
X23888537Y-26203946D01*
X23608185Y-25527117D01*
X23090163Y-25009095D01*
X22413334Y-24728743D01*
X21680740Y-24728743D01*
X21003911Y-25009095D01*
X20699800Y-25313206D01*
X20699800Y-22223800D01*
X32998016Y-22223800D01*
X32851539Y-22284473D01*
G36*
X24997248Y-36612606D02*
X24963517Y-36578875D01*
X24849144Y-36693248D01*
X24754746Y-36430004D01*
X24157631Y-36209295D01*
X23521507Y-36233893D01*
X23048054Y-36430004D01*
X22953655Y-36693250D01*
X23901400Y-37640995D01*
X23915543Y-37626853D01*
X24095148Y-37806458D01*
X24081005Y-37820600D01*
X25028750Y-38768345D01*
X25291996Y-38673946D01*
X25512705Y-38076831D01*
X25489691Y-37481678D01*
X25515200Y-37486752D01*
X25732200Y-37486752D01*
X25732200Y-38380863D01*
X25719800Y-38443202D01*
X25732200Y-38505541D01*
X25732200Y-38505545D01*
X25768927Y-38690185D01*
X25908833Y-38899569D01*
X25961687Y-38934885D01*
X30345916Y-43319116D01*
X30237052Y-43427980D01*
X28252886Y-43427980D01*
X28149541Y-43324635D01*
X27815812Y-43186400D01*
X27454588Y-43186400D01*
X27120859Y-43324635D01*
X26865435Y-43580059D01*
X26727200Y-43913788D01*
X26727200Y-44275012D01*
X26865435Y-44608741D01*
X27120859Y-44864165D01*
X27454588Y-45002400D01*
X27815812Y-45002400D01*
X27844800Y-44990393D01*
X27844800Y-45037012D01*
X27983035Y-45370741D01*
X28238459Y-45626165D01*
X28572188Y-45764400D01*
X28933412Y-45764400D01*
X29106753Y-45692600D01*
X30184494Y-45692600D01*
X30321259Y-45829365D01*
X30654988Y-45967600D01*
X31016212Y-45967600D01*
X31349941Y-45829365D01*
X31605365Y-45573941D01*
X31743600Y-45240212D01*
X31743600Y-44878988D01*
X31629564Y-44603680D01*
X31630022Y-44603222D01*
X33428401Y-46401601D01*
X33428401Y-47461016D01*
X33226899Y-47544481D01*
X32812481Y-47958899D01*
X32588200Y-48500362D01*
X32588200Y-49086438D01*
X32812481Y-49627901D01*
X32944380Y-49759800D01*
X25018420Y-49759800D01*
X25150319Y-49627901D01*
X25374600Y-49086438D01*
X25374600Y-48500362D01*
X25150319Y-47958899D01*
X24735901Y-47544481D01*
X24194438Y-47320200D01*
X23608362Y-47320200D01*
X23066899Y-47544481D01*
X22652481Y-47958899D01*
X22428200Y-48500362D01*
X22428200Y-49086438D01*
X22652481Y-49627901D01*
X22784380Y-49759800D01*
X20699800Y-49759800D01*
X20699800Y-43206875D01*
X21993400Y-43206875D01*
X21993400Y-43965925D01*
X22283876Y-44667195D01*
X22820605Y-45203924D01*
X23521875Y-45494400D01*
X24280925Y-45494400D01*
X24982195Y-45203924D01*
X25518924Y-44667195D01*
X25809400Y-43965925D01*
X25809400Y-43206875D01*
X25518924Y-42505605D01*
X24982195Y-41968876D01*
X24280925Y-41678400D01*
X24263002Y-41678400D01*
X24735901Y-41482519D01*
X25150319Y-41068101D01*
X25374600Y-40526638D01*
X25374600Y-39940562D01*
X25150319Y-39399099D01*
X24809560Y-39058340D01*
X24849145Y-38947950D01*
X23901400Y-38000205D01*
X22953655Y-38947950D01*
X22993240Y-39058340D01*
X22652481Y-39399099D01*
X22428200Y-39940562D01*
X22428200Y-40526638D01*
X22652481Y-41068101D01*
X23066899Y-41482519D01*
X23539798Y-41678400D01*
X23521875Y-41678400D01*
X22820605Y-41968876D01*
X22283876Y-42505605D01*
X21993400Y-43206875D01*
X20699800Y-43206875D01*
X20699800Y-37564369D01*
X22290095Y-37564369D01*
X22314693Y-38200493D01*
X22510804Y-38673946D01*
X22774050Y-38768345D01*
X23721795Y-37820600D01*
X22774050Y-36872855D01*
X22510804Y-36967254D01*
X22290095Y-37564369D01*
X20699800Y-37564369D01*
X20699800Y-35801506D01*
X20872459Y-35974165D01*
X21206188Y-36112400D01*
X21567412Y-36112400D01*
X21901141Y-35974165D01*
X22156565Y-35718741D01*
X22215359Y-35576799D01*
X24997248Y-35576799D01*
X24997248Y-36612606D01*
X24997248Y-36612606D01*
G37*
X24997248Y-36612606D02*
X24963517Y-36578875D01*
X24849144Y-36693248D01*
X24754746Y-36430004D01*
X24157631Y-36209295D01*
X23521507Y-36233893D01*
X23048054Y-36430004D01*
X22953655Y-36693250D01*
X23901400Y-37640995D01*
X23915543Y-37626853D01*
X24095148Y-37806458D01*
X24081005Y-37820600D01*
X25028750Y-38768345D01*
X25291996Y-38673946D01*
X25512705Y-38076831D01*
X25489691Y-37481678D01*
X25515200Y-37486752D01*
X25732200Y-37486752D01*
X25732200Y-38380863D01*
X25719800Y-38443202D01*
X25732200Y-38505541D01*
X25732200Y-38505545D01*
X25768927Y-38690185D01*
X25908833Y-38899569D01*
X25961687Y-38934885D01*
X30345916Y-43319116D01*
X30237052Y-43427980D01*
X28252886Y-43427980D01*
X28149541Y-43324635D01*
X27815812Y-43186400D01*
X27454588Y-43186400D01*
X27120859Y-43324635D01*
X26865435Y-43580059D01*
X26727200Y-43913788D01*
X26727200Y-44275012D01*
X26865435Y-44608741D01*
X27120859Y-44864165D01*
X27454588Y-45002400D01*
X27815812Y-45002400D01*
X27844800Y-44990393D01*
X27844800Y-45037012D01*
X27983035Y-45370741D01*
X28238459Y-45626165D01*
X28572188Y-45764400D01*
X28933412Y-45764400D01*
X29106753Y-45692600D01*
X30184494Y-45692600D01*
X30321259Y-45829365D01*
X30654988Y-45967600D01*
X31016212Y-45967600D01*
X31349941Y-45829365D01*
X31605365Y-45573941D01*
X31743600Y-45240212D01*
X31743600Y-44878988D01*
X31629564Y-44603680D01*
X31630022Y-44603222D01*
X33428401Y-46401601D01*
X33428401Y-47461016D01*
X33226899Y-47544481D01*
X32812481Y-47958899D01*
X32588200Y-48500362D01*
X32588200Y-49086438D01*
X32812481Y-49627901D01*
X32944380Y-49759800D01*
X25018420Y-49759800D01*
X25150319Y-49627901D01*
X25374600Y-49086438D01*
X25374600Y-48500362D01*
X25150319Y-47958899D01*
X24735901Y-47544481D01*
X24194438Y-47320200D01*
X23608362Y-47320200D01*
X23066899Y-47544481D01*
X22652481Y-47958899D01*
X22428200Y-48500362D01*
X22428200Y-49086438D01*
X22652481Y-49627901D01*
X22784380Y-49759800D01*
X20699800Y-49759800D01*
X20699800Y-43206875D01*
X21993400Y-43206875D01*
X21993400Y-43965925D01*
X22283876Y-44667195D01*
X22820605Y-45203924D01*
X23521875Y-45494400D01*
X24280925Y-45494400D01*
X24982195Y-45203924D01*
X25518924Y-44667195D01*
X25809400Y-43965925D01*
X25809400Y-43206875D01*
X25518924Y-42505605D01*
X24982195Y-41968876D01*
X24280925Y-41678400D01*
X24263002Y-41678400D01*
X24735901Y-41482519D01*
X25150319Y-41068101D01*
X25374600Y-40526638D01*
X25374600Y-39940562D01*
X25150319Y-39399099D01*
X24809560Y-39058340D01*
X24849145Y-38947950D01*
X23901400Y-38000205D01*
X22953655Y-38947950D01*
X22993240Y-39058340D01*
X22652481Y-39399099D01*
X22428200Y-39940562D01*
X22428200Y-40526638D01*
X22652481Y-41068101D01*
X23066899Y-41482519D01*
X23539798Y-41678400D01*
X23521875Y-41678400D01*
X22820605Y-41968876D01*
X22283876Y-42505605D01*
X21993400Y-43206875D01*
X20699800Y-43206875D01*
X20699800Y-37564369D01*
X22290095Y-37564369D01*
X22314693Y-38200493D01*
X22510804Y-38673946D01*
X22774050Y-38768345D01*
X23721795Y-37820600D01*
X22774050Y-36872855D01*
X22510804Y-36967254D01*
X22290095Y-37564369D01*
X20699800Y-37564369D01*
X20699800Y-35801506D01*
X20872459Y-35974165D01*
X21206188Y-36112400D01*
X21567412Y-36112400D01*
X21901141Y-35974165D01*
X22156565Y-35718741D01*
X22215359Y-35576799D01*
X24997248Y-35576799D01*
X24997248Y-36612606D01*
G36*
X34718601Y-35461398D02*
X34718602Y-36357504D01*
X34317631Y-36209295D01*
X33681507Y-36233893D01*
X33208054Y-36430004D01*
X33113655Y-36693250D01*
X34061400Y-37640995D01*
X34075543Y-37626853D01*
X34255148Y-37806458D01*
X34241005Y-37820600D01*
X35188750Y-38768345D01*
X35451996Y-38673946D01*
X35627509Y-38199106D01*
X36146749Y-38718345D01*
X35958635Y-38906459D01*
X35820400Y-39240188D01*
X35820400Y-39433603D01*
X35469824Y-39784179D01*
X35310319Y-39399099D01*
X34969560Y-39058340D01*
X35009145Y-38947950D01*
X34061400Y-38000205D01*
X33113655Y-38947950D01*
X33153240Y-39058340D01*
X32812481Y-39399099D01*
X32591443Y-39932732D01*
X31881065Y-39222353D01*
X31997600Y-38941012D01*
X31997600Y-38579788D01*
X31859365Y-38246059D01*
X31603941Y-37990635D01*
X31270212Y-37852400D01*
X30908988Y-37852400D01*
X30575259Y-37990635D01*
X30319835Y-38246059D01*
X30181600Y-38579788D01*
X30181600Y-38941012D01*
X30319835Y-39274741D01*
X30462330Y-39417236D01*
X30493327Y-39573069D01*
X30633234Y-39782452D01*
X30686085Y-39817766D01*
X32795635Y-41927317D01*
X32830949Y-41980168D01*
X32913892Y-42035589D01*
X32443876Y-42505605D01*
X32153400Y-43206875D01*
X32153400Y-43336205D01*
X26998200Y-38181006D01*
X26998200Y-37486752D01*
X27215200Y-37486752D01*
X27409005Y-37448202D01*
X27895600Y-37934797D01*
X27895600Y-38128212D01*
X28033835Y-38461941D01*
X28289259Y-38717365D01*
X28622988Y-38855600D01*
X28984212Y-38855600D01*
X29317941Y-38717365D01*
X29573365Y-38461941D01*
X29711600Y-38128212D01*
X29711600Y-37766988D01*
X29627673Y-37564369D01*
X32450095Y-37564369D01*
X32474693Y-38200493D01*
X32670804Y-38673946D01*
X32934050Y-38768345D01*
X33881795Y-37820600D01*
X32934050Y-36872855D01*
X32670804Y-36967254D01*
X32450095Y-37564369D01*
X29627673Y-37564369D01*
X29573365Y-37433259D01*
X29496838Y-37356732D01*
X29884263Y-37097863D01*
X30175200Y-36662444D01*
X30466137Y-37097863D01*
X30915335Y-37398007D01*
X31311453Y-37476800D01*
X31578947Y-37476800D01*
X31975065Y-37398007D01*
X32424263Y-37097863D01*
X32724407Y-36648665D01*
X32829804Y-36118800D01*
X32724407Y-35588935D01*
X32424263Y-35139737D01*
X31975065Y-34839593D01*
X31578947Y-34760800D01*
X31311453Y-34760800D01*
X31120392Y-34798804D01*
X31308187Y-34611010D01*
X33868214Y-34611010D01*
X34718601Y-35461398D01*
X34718601Y-35461398D01*
G37*
X34718601Y-35461398D02*
X34718602Y-36357504D01*
X34317631Y-36209295D01*
X33681507Y-36233893D01*
X33208054Y-36430004D01*
X33113655Y-36693250D01*
X34061400Y-37640995D01*
X34075543Y-37626853D01*
X34255148Y-37806458D01*
X34241005Y-37820600D01*
X35188750Y-38768345D01*
X35451996Y-38673946D01*
X35627509Y-38199106D01*
X36146749Y-38718345D01*
X35958635Y-38906459D01*
X35820400Y-39240188D01*
X35820400Y-39433603D01*
X35469824Y-39784179D01*
X35310319Y-39399099D01*
X34969560Y-39058340D01*
X35009145Y-38947950D01*
X34061400Y-38000205D01*
X33113655Y-38947950D01*
X33153240Y-39058340D01*
X32812481Y-39399099D01*
X32591443Y-39932732D01*
X31881065Y-39222353D01*
X31997600Y-38941012D01*
X31997600Y-38579788D01*
X31859365Y-38246059D01*
X31603941Y-37990635D01*
X31270212Y-37852400D01*
X30908988Y-37852400D01*
X30575259Y-37990635D01*
X30319835Y-38246059D01*
X30181600Y-38579788D01*
X30181600Y-38941012D01*
X30319835Y-39274741D01*
X30462330Y-39417236D01*
X30493327Y-39573069D01*
X30633234Y-39782452D01*
X30686085Y-39817766D01*
X32795635Y-41927317D01*
X32830949Y-41980168D01*
X32913892Y-42035589D01*
X32443876Y-42505605D01*
X32153400Y-43206875D01*
X32153400Y-43336205D01*
X26998200Y-38181006D01*
X26998200Y-37486752D01*
X27215200Y-37486752D01*
X27409005Y-37448202D01*
X27895600Y-37934797D01*
X27895600Y-38128212D01*
X28033835Y-38461941D01*
X28289259Y-38717365D01*
X28622988Y-38855600D01*
X28984212Y-38855600D01*
X29317941Y-38717365D01*
X29573365Y-38461941D01*
X29711600Y-38128212D01*
X29711600Y-37766988D01*
X29627673Y-37564369D01*
X32450095Y-37564369D01*
X32474693Y-38200493D01*
X32670804Y-38673946D01*
X32934050Y-38768345D01*
X33881795Y-37820600D01*
X32934050Y-36872855D01*
X32670804Y-36967254D01*
X32450095Y-37564369D01*
X29627673Y-37564369D01*
X29573365Y-37433259D01*
X29496838Y-37356732D01*
X29884263Y-37097863D01*
X30175200Y-36662444D01*
X30466137Y-37097863D01*
X30915335Y-37398007D01*
X31311453Y-37476800D01*
X31578947Y-37476800D01*
X31975065Y-37398007D01*
X32424263Y-37097863D01*
X32724407Y-36648665D01*
X32829804Y-36118800D01*
X32724407Y-35588935D01*
X32424263Y-35139737D01*
X31975065Y-34839593D01*
X31578947Y-34760800D01*
X31311453Y-34760800D01*
X31120392Y-34798804D01*
X31308187Y-34611010D01*
X33868214Y-34611010D01*
X34718601Y-35461398D01*
G36*
X29174985Y-33566501D02*
X29160842Y-33580643D01*
X29174985Y-33594786D01*
X28995380Y-33774391D01*
X28981237Y-33760248D01*
X28967095Y-33774391D01*
X28787490Y-33594786D01*
X28801632Y-33580643D01*
X28787490Y-33566501D01*
X28967095Y-33386896D01*
X28981237Y-33401038D01*
X28995380Y-33386896D01*
X29174985Y-33566501D01*
X29174985Y-33566501D01*
G37*
X29174985Y-33566501D02*
X29160842Y-33580643D01*
X29174985Y-33594786D01*
X28995380Y-33774391D01*
X28981237Y-33760248D01*
X28967095Y-33774391D01*
X28787490Y-33594786D01*
X28801632Y-33580643D01*
X28787490Y-33566501D01*
X28967095Y-33386896D01*
X28981237Y-33401038D01*
X28995380Y-33386896D01*
X29174985Y-33566501D01*
G36*
X26634985Y-33566501D02*
X26620842Y-33580643D01*
X26634985Y-33594786D01*
X26455380Y-33774391D01*
X26441237Y-33760248D01*
X26427095Y-33774391D01*
X26247490Y-33594786D01*
X26261632Y-33580643D01*
X26247490Y-33566501D01*
X26427095Y-33386896D01*
X26441237Y-33401038D01*
X26455380Y-33386896D01*
X26634985Y-33566501D01*
X26634985Y-33566501D01*
G37*
X26634985Y-33566501D02*
X26620842Y-33580643D01*
X26634985Y-33594786D01*
X26455380Y-33774391D01*
X26441237Y-33760248D01*
X26427095Y-33774391D01*
X26247490Y-33594786D01*
X26261632Y-33580643D01*
X26247490Y-33566501D01*
X26427095Y-33386896D01*
X26441237Y-33401038D01*
X26455380Y-33386896D01*
X26634985Y-33566501D01*
D19*
G36*
X76731301Y-50077300D02*
X49322300Y-50077300D01*
X49322300Y-47366022D01*
X60550500Y-47366022D01*
X60550500Y-47629978D01*
X60651512Y-47873843D01*
X60838157Y-48060488D01*
X61082022Y-48161500D01*
X61345978Y-48161500D01*
X61589843Y-48060488D01*
X61776488Y-47873843D01*
X61877500Y-47629978D01*
X61877500Y-47383922D01*
X61944075Y-47317347D01*
X63397016Y-47317347D01*
X63571004Y-47491335D01*
X63814869Y-47592347D01*
X64078825Y-47592347D01*
X64322690Y-47491335D01*
X64509335Y-47304690D01*
X64610347Y-47060825D01*
X64610347Y-46796869D01*
X64509335Y-46553004D01*
X64322690Y-46366359D01*
X64078825Y-46265347D01*
X63814869Y-46265347D01*
X63571004Y-46366359D01*
X63397016Y-46540347D01*
X61821415Y-46540347D01*
X61783153Y-46532736D01*
X61744891Y-46540347D01*
X61744890Y-46540347D01*
X61631568Y-46562888D01*
X61503060Y-46648754D01*
X61481385Y-46681193D01*
X61328078Y-46834500D01*
X61082022Y-46834500D01*
X60838157Y-46935512D01*
X60651512Y-47122157D01*
X60550500Y-47366022D01*
X49322300Y-47366022D01*
X49322300Y-44826022D01*
X49526900Y-44826022D01*
X49526900Y-45089978D01*
X49627912Y-45333843D01*
X49814557Y-45520488D01*
X50058422Y-45621500D01*
X50322378Y-45621500D01*
X50566243Y-45520488D01*
X50740231Y-45346500D01*
X59783079Y-45346500D01*
X60296500Y-45859922D01*
X60296500Y-46105978D01*
X60397512Y-46349843D01*
X60584157Y-46536488D01*
X60828022Y-46637500D01*
X61091978Y-46637500D01*
X61335843Y-46536488D01*
X61522488Y-46349843D01*
X61623500Y-46105978D01*
X61623500Y-45842022D01*
X61522488Y-45598157D01*
X61335843Y-45411512D01*
X61091978Y-45310500D01*
X60845922Y-45310500D01*
X60245770Y-44710349D01*
X60224093Y-44677907D01*
X60095585Y-44592041D01*
X59982263Y-44569500D01*
X59982262Y-44569500D01*
X59944000Y-44561889D01*
X59905738Y-44569500D01*
X50740231Y-44569500D01*
X50566243Y-44395512D01*
X50322378Y-44294500D01*
X50058422Y-44294500D01*
X49814557Y-44395512D01*
X49627912Y-44582157D01*
X49526900Y-44826022D01*
X49322300Y-44826022D01*
X49322300Y-40105853D01*
X49317199Y-40080209D01*
X49317199Y-40080204D01*
X49279139Y-39888862D01*
X49239495Y-39793155D01*
X49239494Y-39793154D01*
X49239494Y-39793153D01*
X49136300Y-39638712D01*
X49136300Y-38555802D01*
X49204064Y-38488038D01*
X49320300Y-38207420D01*
X49320300Y-37903680D01*
X49204064Y-37623062D01*
X49136300Y-37555298D01*
X49136300Y-36523802D01*
X49204064Y-36456038D01*
X49320300Y-36175420D01*
X49320300Y-35871680D01*
X49204064Y-35591062D01*
X49136300Y-35523298D01*
X49136300Y-34491802D01*
X49204064Y-34424038D01*
X49320300Y-34143420D01*
X49320300Y-33839680D01*
X49204064Y-33559062D01*
X49136300Y-33491298D01*
X49136300Y-32408388D01*
X49239494Y-32253947D01*
X49249605Y-32229537D01*
X49279139Y-32158238D01*
X49317199Y-31966896D01*
X49317199Y-31966891D01*
X49322300Y-31941247D01*
X49322300Y-28417622D01*
X50085700Y-28417622D01*
X50085700Y-28681578D01*
X50186712Y-28925443D01*
X50360701Y-29099432D01*
X50360700Y-39839738D01*
X50353089Y-39878000D01*
X50360700Y-39916262D01*
X50383241Y-40029584D01*
X50469107Y-40158093D01*
X50501549Y-40179770D01*
X53241432Y-42919654D01*
X53263107Y-42952093D01*
X53295545Y-42973767D01*
X53391614Y-43037959D01*
X53543200Y-43068111D01*
X53581463Y-43060500D01*
X56650969Y-43060500D01*
X56824957Y-43234488D01*
X57068822Y-43335500D01*
X57332778Y-43335500D01*
X57576643Y-43234488D01*
X57763288Y-43047843D01*
X57864300Y-42803978D01*
X57864300Y-42540022D01*
X57763288Y-42296157D01*
X57576643Y-42109512D01*
X57332778Y-42008500D01*
X57068822Y-42008500D01*
X56824957Y-42109512D01*
X56650969Y-42283500D01*
X53704122Y-42283500D01*
X52335044Y-40914422D01*
X58975700Y-40914422D01*
X58975700Y-41178378D01*
X59076712Y-41422243D01*
X59263357Y-41608888D01*
X59507222Y-41709900D01*
X59753279Y-41709900D01*
X60251832Y-42208454D01*
X60273507Y-42240893D01*
X60402015Y-42326759D01*
X60515337Y-42349300D01*
X60515338Y-42349300D01*
X60553600Y-42356911D01*
X60591862Y-42349300D01*
X65540969Y-42349300D01*
X65714957Y-42523288D01*
X65958822Y-42624300D01*
X66222778Y-42624300D01*
X66466643Y-42523288D01*
X66559299Y-42430632D01*
X66559299Y-46448079D01*
X66554349Y-46453029D01*
X66521907Y-46474706D01*
X66436041Y-46603215D01*
X66426983Y-46648754D01*
X66405889Y-46754799D01*
X66413500Y-46793062D01*
X66413500Y-46795769D01*
X66239512Y-46969757D01*
X66138500Y-47213622D01*
X66138500Y-47477578D01*
X66239512Y-47721443D01*
X66426157Y-47908088D01*
X66670022Y-48009100D01*
X66933978Y-48009100D01*
X67177843Y-47908088D01*
X67364488Y-47721443D01*
X67465500Y-47477578D01*
X67465500Y-47213622D01*
X67364488Y-46969757D01*
X67250295Y-46855564D01*
X67313758Y-46760585D01*
X67336299Y-46647263D01*
X67336299Y-46647262D01*
X67343910Y-46609000D01*
X67336299Y-46570738D01*
X67336299Y-46096022D01*
X69491300Y-46096022D01*
X69491300Y-46359978D01*
X69592312Y-46603843D01*
X69778957Y-46790488D01*
X70022822Y-46891500D01*
X70286778Y-46891500D01*
X70530643Y-46790488D01*
X70554729Y-46766402D01*
X70636707Y-46889093D01*
X70669149Y-46910770D01*
X71078634Y-47320256D01*
X71100309Y-47352695D01*
X71228817Y-47438561D01*
X71342139Y-47461102D01*
X71380401Y-47468713D01*
X71418663Y-47461102D01*
X72379969Y-47461102D01*
X72553957Y-47635090D01*
X72797822Y-47736102D01*
X73061778Y-47736102D01*
X73305643Y-47635090D01*
X73492288Y-47448445D01*
X73593300Y-47204580D01*
X73593300Y-46940624D01*
X73492288Y-46696759D01*
X73305643Y-46510114D01*
X73061778Y-46409102D01*
X72797822Y-46409102D01*
X72553957Y-46510114D01*
X72379969Y-46684102D01*
X71541324Y-46684102D01*
X71305300Y-46448079D01*
X71305300Y-46071231D01*
X71469157Y-46235088D01*
X71713022Y-46336100D01*
X71976978Y-46336100D01*
X72220843Y-46235088D01*
X72394831Y-46061100D01*
X73299279Y-46061100D01*
X74977700Y-47739522D01*
X74977700Y-47985578D01*
X75078712Y-48229443D01*
X75265357Y-48416088D01*
X75509222Y-48517100D01*
X75773178Y-48517100D01*
X76017043Y-48416088D01*
X76203688Y-48229443D01*
X76304700Y-47985578D01*
X76304700Y-47721622D01*
X76203688Y-47477757D01*
X76017043Y-47291112D01*
X75773178Y-47190100D01*
X75527122Y-47190100D01*
X73761970Y-45424949D01*
X73740293Y-45392507D01*
X73611785Y-45306641D01*
X73498463Y-45284100D01*
X73498462Y-45284100D01*
X73460200Y-45276489D01*
X73421938Y-45284100D01*
X72394831Y-45284100D01*
X72220843Y-45110112D01*
X71976978Y-45009100D01*
X71713022Y-45009100D01*
X71469157Y-45110112D01*
X71305300Y-45273969D01*
X71305300Y-44479321D01*
X71421766Y-44362855D01*
X72123522Y-43661100D01*
X72369578Y-43661100D01*
X72613443Y-43560088D01*
X72800088Y-43373443D01*
X72901100Y-43129578D01*
X72901100Y-42865622D01*
X72800088Y-42621757D01*
X72613443Y-42435112D01*
X72369578Y-42334100D01*
X72105622Y-42334100D01*
X72092700Y-42339452D01*
X72092700Y-41613721D01*
X73755255Y-39951167D01*
X73787693Y-39929493D01*
X73838968Y-39852755D01*
X73873559Y-39800986D01*
X73903711Y-39649400D01*
X73896100Y-39611137D01*
X73896100Y-36770231D01*
X73917688Y-36748643D01*
X74018700Y-36504778D01*
X74018700Y-36240822D01*
X73917688Y-35996957D01*
X73731043Y-35810312D01*
X73487178Y-35709300D01*
X73223222Y-35709300D01*
X72979357Y-35810312D01*
X72792712Y-35996957D01*
X72691700Y-36240822D01*
X72691700Y-36504778D01*
X72792712Y-36748643D01*
X72979357Y-36935288D01*
X73119101Y-36993172D01*
X73119100Y-39230137D01*
X73119100Y-39488478D01*
X71456547Y-41151032D01*
X71424108Y-41172707D01*
X71402433Y-41205146D01*
X71338242Y-41301215D01*
X71308089Y-41452800D01*
X71315701Y-41491067D01*
X71315700Y-42132569D01*
X71229100Y-42045969D01*
X71229100Y-38235521D01*
X71618245Y-37846376D01*
X71760157Y-37988288D01*
X72004022Y-38089300D01*
X72267978Y-38089300D01*
X72511843Y-37988288D01*
X72698488Y-37801643D01*
X72799500Y-37557778D01*
X72799500Y-37293822D01*
X72698488Y-37049957D01*
X72511843Y-36863312D01*
X72267978Y-36762300D01*
X72004022Y-36762300D01*
X71760157Y-36863312D01*
X71586169Y-37037300D01*
X71527663Y-37037300D01*
X71489400Y-37029689D01*
X71337814Y-37059841D01*
X71320198Y-37071612D01*
X71209307Y-37145707D01*
X71187632Y-37178146D01*
X70592947Y-37772832D01*
X70560508Y-37794507D01*
X70538833Y-37826946D01*
X70474642Y-37923015D01*
X70444489Y-38074600D01*
X70452101Y-38112867D01*
X70452100Y-42045969D01*
X70278112Y-42219957D01*
X70177100Y-42463822D01*
X70177100Y-42727778D01*
X70278112Y-42971643D01*
X70464757Y-43158288D01*
X70703006Y-43256974D01*
X69907147Y-44052834D01*
X69874708Y-44074509D01*
X69853033Y-44106948D01*
X69788842Y-44203017D01*
X69758689Y-44354602D01*
X69766301Y-44392869D01*
X69766300Y-45678169D01*
X69592312Y-45852157D01*
X69491300Y-46096022D01*
X67336299Y-46096022D01*
X67336299Y-36932471D01*
X67688334Y-37167693D01*
X68013134Y-37232300D01*
X68232466Y-37232300D01*
X68557266Y-37167693D01*
X68925588Y-36921588D01*
X69099299Y-36661611D01*
X69099299Y-38395996D01*
X68992747Y-38502547D01*
X68960308Y-38524222D01*
X68938633Y-38556661D01*
X68874442Y-38652730D01*
X68844289Y-38804315D01*
X68848182Y-38823887D01*
X68677912Y-38994157D01*
X68576900Y-39238022D01*
X68576900Y-39501978D01*
X68677912Y-39745843D01*
X68864557Y-39932488D01*
X69108422Y-40033500D01*
X69372378Y-40033500D01*
X69616243Y-39932488D01*
X69802888Y-39745843D01*
X69903900Y-39501978D01*
X69903900Y-39238022D01*
X69802888Y-38994157D01*
X69701433Y-38892702D01*
X69735448Y-38858687D01*
X69767892Y-38837009D01*
X69853758Y-38708501D01*
X69876299Y-38595179D01*
X69876299Y-38595178D01*
X69883910Y-38556917D01*
X69876299Y-38518655D01*
X69876299Y-36957778D01*
X70139864Y-37162657D01*
X70294456Y-37226671D01*
X70472300Y-37190120D01*
X70472300Y-36309300D01*
X70853300Y-36309300D01*
X70853300Y-37190120D01*
X71031144Y-37226671D01*
X71185736Y-37162657D01*
X71545397Y-36883079D01*
X71770690Y-36487147D01*
X71735297Y-36309300D01*
X70853300Y-36309300D01*
X70472300Y-36309300D01*
X70452300Y-36309300D01*
X70452300Y-35928300D01*
X70472300Y-35928300D01*
X70472300Y-35047480D01*
X70853300Y-35047480D01*
X70853300Y-35928300D01*
X71735297Y-35928300D01*
X71770690Y-35750453D01*
X71545397Y-35354521D01*
X71185736Y-35074943D01*
X71031144Y-35010929D01*
X70853300Y-35047480D01*
X70472300Y-35047480D01*
X70294456Y-35010929D01*
X70139864Y-35074943D01*
X69876299Y-35279822D01*
X69876299Y-32966832D01*
X70056888Y-32786243D01*
X70157900Y-32542378D01*
X70157900Y-32278422D01*
X70056888Y-32034557D01*
X69870243Y-31847912D01*
X69626378Y-31746900D01*
X69362422Y-31746900D01*
X69118557Y-31847912D01*
X68931912Y-32034557D01*
X68830900Y-32278422D01*
X68830900Y-32542378D01*
X68931912Y-32786243D01*
X69099300Y-32953631D01*
X69099299Y-35575989D01*
X68925588Y-35316012D01*
X68557266Y-35069907D01*
X68232466Y-35005300D01*
X68013134Y-35005300D01*
X67688334Y-35069907D01*
X67336299Y-35305129D01*
X67336299Y-30799922D01*
X68014854Y-30121368D01*
X68047293Y-30099693D01*
X68133159Y-29971185D01*
X68155700Y-29857863D01*
X68163311Y-29819601D01*
X68155700Y-29781339D01*
X68155700Y-28134231D01*
X68329688Y-27960243D01*
X68430700Y-27716378D01*
X68430700Y-27452422D01*
X68329688Y-27208557D01*
X68143043Y-27021912D01*
X67899178Y-26920900D01*
X67635222Y-26920900D01*
X67391357Y-27021912D01*
X67204712Y-27208557D01*
X67103700Y-27452422D01*
X67103700Y-27716378D01*
X67203877Y-27958226D01*
X67198388Y-27950012D01*
X66830066Y-27703907D01*
X66505266Y-27639300D01*
X66285934Y-27639300D01*
X65961134Y-27703907D01*
X65592812Y-27950012D01*
X65346707Y-28318334D01*
X65337564Y-28364300D01*
X63999236Y-28364300D01*
X63990093Y-28318334D01*
X63743988Y-27950012D01*
X63375666Y-27703907D01*
X63050866Y-27639300D01*
X62831534Y-27639300D01*
X62506734Y-27703907D01*
X62138412Y-27950012D01*
X61892307Y-28318334D01*
X61805886Y-28752800D01*
X61892307Y-29187266D01*
X62138412Y-29555588D01*
X62506734Y-29801693D01*
X62831534Y-29866300D01*
X63050866Y-29866300D01*
X63375666Y-29801693D01*
X63743988Y-29555588D01*
X63990093Y-29187266D01*
X63999236Y-29141300D01*
X65337564Y-29141300D01*
X65346707Y-29187266D01*
X65592812Y-29555588D01*
X65961134Y-29801693D01*
X66285934Y-29866300D01*
X66505266Y-29866300D01*
X66830066Y-29801693D01*
X67198388Y-29555588D01*
X67378701Y-29285731D01*
X67378701Y-29658677D01*
X66700148Y-30337231D01*
X66667706Y-30358908D01*
X66581840Y-30487417D01*
X66566970Y-30562173D01*
X66551688Y-30639001D01*
X66559299Y-30677263D01*
X66559300Y-35036416D01*
X66535612Y-35020589D01*
X66432800Y-35000138D01*
X64732800Y-35000138D01*
X64629988Y-35020589D01*
X64542827Y-35078827D01*
X64484589Y-35165988D01*
X64464138Y-35268800D01*
X64464138Y-36968800D01*
X64484589Y-37071612D01*
X64542827Y-37158773D01*
X64629988Y-37217011D01*
X64732800Y-37237462D01*
X65194300Y-37237462D01*
X65194301Y-39703277D01*
X65175078Y-39722500D01*
X64929022Y-39722500D01*
X64685157Y-39823512D01*
X64498512Y-40010157D01*
X64397500Y-40254022D01*
X64397500Y-40517978D01*
X64498512Y-40761843D01*
X64685157Y-40948488D01*
X64929022Y-41049500D01*
X65192978Y-41049500D01*
X65436843Y-40948488D01*
X65623488Y-40761843D01*
X65724500Y-40517978D01*
X65724500Y-40271922D01*
X65830454Y-40165968D01*
X65862893Y-40144293D01*
X65928897Y-40045511D01*
X65948759Y-40015786D01*
X65978911Y-39864200D01*
X65971300Y-39825937D01*
X65971300Y-37237462D01*
X66432800Y-37237462D01*
X66535612Y-37217011D01*
X66559300Y-37201184D01*
X66559299Y-41490968D01*
X66466643Y-41398312D01*
X66222778Y-41297300D01*
X65958822Y-41297300D01*
X65714957Y-41398312D01*
X65540969Y-41572300D01*
X60714522Y-41572300D01*
X60302700Y-41160479D01*
X60302700Y-40914422D01*
X60201688Y-40670557D01*
X60015043Y-40483912D01*
X59771178Y-40382900D01*
X59507222Y-40382900D01*
X59263357Y-40483912D01*
X59076712Y-40670557D01*
X58975700Y-40914422D01*
X52335044Y-40914422D01*
X51137700Y-39717079D01*
X51137700Y-35268800D01*
X54202538Y-35268800D01*
X54202538Y-36968800D01*
X54222989Y-37071612D01*
X54281227Y-37158773D01*
X54368388Y-37217011D01*
X54471200Y-37237462D01*
X56171200Y-37237462D01*
X56274012Y-37217011D01*
X56361173Y-37158773D01*
X56419411Y-37071612D01*
X56439862Y-36968800D01*
X56439862Y-36118800D01*
X56725886Y-36118800D01*
X56812307Y-36553266D01*
X57058412Y-36921588D01*
X57426734Y-37167693D01*
X57751534Y-37232300D01*
X57970866Y-37232300D01*
X58295666Y-37167693D01*
X58663988Y-36921588D01*
X58910093Y-36553266D01*
X58996514Y-36118800D01*
X59265886Y-36118800D01*
X59352307Y-36553266D01*
X59598412Y-36921588D01*
X59966734Y-37167693D01*
X60291534Y-37232300D01*
X60510866Y-37232300D01*
X60835666Y-37167693D01*
X61203988Y-36921588D01*
X61450093Y-36553266D01*
X61536514Y-36118800D01*
X61450093Y-35684334D01*
X61203988Y-35316012D01*
X60835666Y-35069907D01*
X60789700Y-35060764D01*
X60789700Y-26212800D01*
X61805886Y-26212800D01*
X61892307Y-26647266D01*
X62138412Y-27015588D01*
X62506734Y-27261693D01*
X62831534Y-27326300D01*
X63050866Y-27326300D01*
X63375666Y-27261693D01*
X63743988Y-27015588D01*
X63990093Y-26647266D01*
X63999236Y-26601300D01*
X65337564Y-26601300D01*
X65346707Y-26647266D01*
X65592812Y-27015588D01*
X65961134Y-27261693D01*
X66285934Y-27326300D01*
X66505266Y-27326300D01*
X66830066Y-27261693D01*
X67198388Y-27015588D01*
X67415657Y-26690422D01*
X73555300Y-26690422D01*
X73555300Y-26954378D01*
X73656312Y-27198243D01*
X73842957Y-27384888D01*
X74086822Y-27485900D01*
X74135101Y-27485900D01*
X74135100Y-41461769D01*
X73961112Y-41635757D01*
X73860100Y-41879622D01*
X73860100Y-42143578D01*
X73961112Y-42387443D01*
X74147757Y-42574088D01*
X74391622Y-42675100D01*
X74637679Y-42675100D01*
X75211695Y-43249117D01*
X75202059Y-43272381D01*
X75202059Y-43536337D01*
X75303071Y-43780202D01*
X75489716Y-43966847D01*
X75733581Y-44067859D01*
X75997537Y-44067859D01*
X76241402Y-43966847D01*
X76428047Y-43780202D01*
X76529059Y-43536337D01*
X76529059Y-43272381D01*
X76428047Y-43028516D01*
X76241402Y-42841871D01*
X75997537Y-42740859D01*
X75802281Y-42740859D01*
X75187100Y-42125679D01*
X75187100Y-41879622D01*
X75086088Y-41635757D01*
X74912100Y-41461769D01*
X74912100Y-27165461D01*
X74919711Y-27127199D01*
X74897510Y-27015588D01*
X74889559Y-26975615D01*
X74879648Y-26960781D01*
X74882300Y-26954378D01*
X74882300Y-26690422D01*
X74781288Y-26446557D01*
X74594643Y-26259912D01*
X74350778Y-26158900D01*
X74086822Y-26158900D01*
X73842957Y-26259912D01*
X73656312Y-26446557D01*
X73555300Y-26690422D01*
X67415657Y-26690422D01*
X67444493Y-26647266D01*
X67530914Y-26212800D01*
X67444493Y-25778334D01*
X67198388Y-25410012D01*
X66830066Y-25163907D01*
X66505266Y-25099300D01*
X66285934Y-25099300D01*
X65961134Y-25163907D01*
X65592812Y-25410012D01*
X65346707Y-25778334D01*
X65337564Y-25824300D01*
X63999236Y-25824300D01*
X63990093Y-25778334D01*
X63743988Y-25410012D01*
X63375666Y-25163907D01*
X63050866Y-25099300D01*
X62831534Y-25099300D01*
X62506734Y-25163907D01*
X62138412Y-25410012D01*
X61892307Y-25778334D01*
X61805886Y-26212800D01*
X60789700Y-26212800D01*
X60789700Y-23956327D01*
X60803352Y-23942675D01*
X61773700Y-23942675D01*
X61773700Y-24585954D01*
X61822036Y-24702649D01*
X61911350Y-24791963D01*
X62028045Y-24840300D01*
X62671325Y-24840300D01*
X62750700Y-24760925D01*
X62750700Y-23863300D01*
X63131700Y-23863300D01*
X63131700Y-24760925D01*
X63211075Y-24840300D01*
X63854355Y-24840300D01*
X63971050Y-24791963D01*
X64060364Y-24702649D01*
X64108700Y-24585954D01*
X64108700Y-23942675D01*
X65228100Y-23942675D01*
X65228100Y-24585954D01*
X65276436Y-24702649D01*
X65365750Y-24791963D01*
X65482445Y-24840300D01*
X66125725Y-24840300D01*
X66205100Y-24760925D01*
X66205100Y-23863300D01*
X66586100Y-23863300D01*
X66586100Y-24760925D01*
X66665475Y-24840300D01*
X67308755Y-24840300D01*
X67425450Y-24791963D01*
X67514764Y-24702649D01*
X67563100Y-24585954D01*
X67563100Y-23942675D01*
X67483725Y-23863300D01*
X66586100Y-23863300D01*
X66205100Y-23863300D01*
X65307475Y-23863300D01*
X65228100Y-23942675D01*
X64108700Y-23942675D01*
X64029325Y-23863300D01*
X63131700Y-23863300D01*
X62750700Y-23863300D01*
X61853075Y-23863300D01*
X61773700Y-23942675D01*
X60803352Y-23942675D01*
X60983724Y-23762303D01*
X61229781Y-23762303D01*
X61473646Y-23661291D01*
X61660291Y-23474646D01*
X61761303Y-23230781D01*
X61761303Y-22966825D01*
X61675487Y-22759646D01*
X61773700Y-22759646D01*
X61773700Y-23402925D01*
X61853075Y-23482300D01*
X62750700Y-23482300D01*
X62750700Y-22584675D01*
X63131700Y-22584675D01*
X63131700Y-23482300D01*
X64029325Y-23482300D01*
X64108700Y-23402925D01*
X64108700Y-22759646D01*
X65228100Y-22759646D01*
X65228100Y-23402925D01*
X65307475Y-23482300D01*
X66205100Y-23482300D01*
X66205100Y-22584675D01*
X66586100Y-22584675D01*
X66586100Y-23482300D01*
X67483725Y-23482300D01*
X67563100Y-23402925D01*
X67563100Y-22759646D01*
X67514764Y-22642951D01*
X67425450Y-22553637D01*
X67308755Y-22505300D01*
X66665475Y-22505300D01*
X66586100Y-22584675D01*
X66205100Y-22584675D01*
X66125725Y-22505300D01*
X65482445Y-22505300D01*
X65365750Y-22553637D01*
X65276436Y-22642951D01*
X65228100Y-22759646D01*
X64108700Y-22759646D01*
X64060364Y-22642951D01*
X63971050Y-22553637D01*
X63854355Y-22505300D01*
X63211075Y-22505300D01*
X63131700Y-22584675D01*
X62750700Y-22584675D01*
X62671325Y-22505300D01*
X62028045Y-22505300D01*
X61911350Y-22553637D01*
X61822036Y-22642951D01*
X61773700Y-22759646D01*
X61675487Y-22759646D01*
X61660291Y-22722960D01*
X61473646Y-22536315D01*
X61229781Y-22435303D01*
X60965825Y-22435303D01*
X60721960Y-22536315D01*
X60535315Y-22722960D01*
X60434303Y-22966825D01*
X60434303Y-23212882D01*
X60153547Y-23493638D01*
X60121108Y-23515313D01*
X60099433Y-23547752D01*
X60035242Y-23643821D01*
X60005089Y-23795406D01*
X60012701Y-23833673D01*
X60012700Y-35060764D01*
X59966734Y-35069907D01*
X59598412Y-35316012D01*
X59352307Y-35684334D01*
X59265886Y-36118800D01*
X58996514Y-36118800D01*
X58910093Y-35684334D01*
X58663988Y-35316012D01*
X58295666Y-35069907D01*
X58249700Y-35060764D01*
X58249700Y-33739721D01*
X58559922Y-33429500D01*
X58805978Y-33429500D01*
X59049843Y-33328488D01*
X59236488Y-33141843D01*
X59337500Y-32897978D01*
X59337500Y-32634022D01*
X59236488Y-32390157D01*
X59049843Y-32203512D01*
X58805978Y-32102500D01*
X58542022Y-32102500D01*
X58298157Y-32203512D01*
X58111512Y-32390157D01*
X58010500Y-32634022D01*
X58010500Y-32880078D01*
X57613547Y-33277032D01*
X57581108Y-33298707D01*
X57559433Y-33331146D01*
X57495242Y-33427215D01*
X57465089Y-33578800D01*
X57472701Y-33617067D01*
X57472700Y-35060764D01*
X57426734Y-35069907D01*
X57058412Y-35316012D01*
X56812307Y-35684334D01*
X56725886Y-36118800D01*
X56439862Y-36118800D01*
X56439862Y-35268800D01*
X56419411Y-35165988D01*
X56361173Y-35078827D01*
X56274012Y-35020589D01*
X56171200Y-35000138D01*
X54471200Y-35000138D01*
X54368388Y-35020589D01*
X54281227Y-35078827D01*
X54222989Y-35165988D01*
X54202538Y-35268800D01*
X51137700Y-35268800D01*
X51137700Y-30348022D01*
X53692500Y-30348022D01*
X53692500Y-30611978D01*
X53793512Y-30855843D01*
X53980157Y-31042488D01*
X54224022Y-31143500D01*
X54487978Y-31143500D01*
X54731843Y-31042488D01*
X54918488Y-30855843D01*
X54933875Y-30818695D01*
X57644540Y-30818695D01*
X57818528Y-30992683D01*
X58062393Y-31093695D01*
X58326349Y-31093695D01*
X58570214Y-30992683D01*
X58756859Y-30806038D01*
X58857871Y-30562173D01*
X58857871Y-30298217D01*
X58756859Y-30054352D01*
X58570214Y-29867707D01*
X58326349Y-29766695D01*
X58062393Y-29766695D01*
X57818528Y-29867707D01*
X57644540Y-30041695D01*
X54856026Y-30041695D01*
X54731843Y-29917512D01*
X54487978Y-29816500D01*
X54224022Y-29816500D01*
X53980157Y-29917512D01*
X53793512Y-30104157D01*
X53692500Y-30348022D01*
X51137700Y-30348022D01*
X51137700Y-29099431D01*
X51311688Y-28925443D01*
X51412700Y-28681578D01*
X51412700Y-28417622D01*
X51311688Y-28173757D01*
X51125043Y-27987112D01*
X50881178Y-27886100D01*
X50617222Y-27886100D01*
X50373357Y-27987112D01*
X50186712Y-28173757D01*
X50085700Y-28417622D01*
X49322300Y-28417622D01*
X49322300Y-21906300D01*
X76731300Y-21906300D01*
X76731301Y-50077300D01*
X76731301Y-50077300D01*
G37*
X76731301Y-50077300D02*
X49322300Y-50077300D01*
X49322300Y-47366022D01*
X60550500Y-47366022D01*
X60550500Y-47629978D01*
X60651512Y-47873843D01*
X60838157Y-48060488D01*
X61082022Y-48161500D01*
X61345978Y-48161500D01*
X61589843Y-48060488D01*
X61776488Y-47873843D01*
X61877500Y-47629978D01*
X61877500Y-47383922D01*
X61944075Y-47317347D01*
X63397016Y-47317347D01*
X63571004Y-47491335D01*
X63814869Y-47592347D01*
X64078825Y-47592347D01*
X64322690Y-47491335D01*
X64509335Y-47304690D01*
X64610347Y-47060825D01*
X64610347Y-46796869D01*
X64509335Y-46553004D01*
X64322690Y-46366359D01*
X64078825Y-46265347D01*
X63814869Y-46265347D01*
X63571004Y-46366359D01*
X63397016Y-46540347D01*
X61821415Y-46540347D01*
X61783153Y-46532736D01*
X61744891Y-46540347D01*
X61744890Y-46540347D01*
X61631568Y-46562888D01*
X61503060Y-46648754D01*
X61481385Y-46681193D01*
X61328078Y-46834500D01*
X61082022Y-46834500D01*
X60838157Y-46935512D01*
X60651512Y-47122157D01*
X60550500Y-47366022D01*
X49322300Y-47366022D01*
X49322300Y-44826022D01*
X49526900Y-44826022D01*
X49526900Y-45089978D01*
X49627912Y-45333843D01*
X49814557Y-45520488D01*
X50058422Y-45621500D01*
X50322378Y-45621500D01*
X50566243Y-45520488D01*
X50740231Y-45346500D01*
X59783079Y-45346500D01*
X60296500Y-45859922D01*
X60296500Y-46105978D01*
X60397512Y-46349843D01*
X60584157Y-46536488D01*
X60828022Y-46637500D01*
X61091978Y-46637500D01*
X61335843Y-46536488D01*
X61522488Y-46349843D01*
X61623500Y-46105978D01*
X61623500Y-45842022D01*
X61522488Y-45598157D01*
X61335843Y-45411512D01*
X61091978Y-45310500D01*
X60845922Y-45310500D01*
X60245770Y-44710349D01*
X60224093Y-44677907D01*
X60095585Y-44592041D01*
X59982263Y-44569500D01*
X59982262Y-44569500D01*
X59944000Y-44561889D01*
X59905738Y-44569500D01*
X50740231Y-44569500D01*
X50566243Y-44395512D01*
X50322378Y-44294500D01*
X50058422Y-44294500D01*
X49814557Y-44395512D01*
X49627912Y-44582157D01*
X49526900Y-44826022D01*
X49322300Y-44826022D01*
X49322300Y-40105853D01*
X49317199Y-40080209D01*
X49317199Y-40080204D01*
X49279139Y-39888862D01*
X49239495Y-39793155D01*
X49239494Y-39793154D01*
X49239494Y-39793153D01*
X49136300Y-39638712D01*
X49136300Y-38555802D01*
X49204064Y-38488038D01*
X49320300Y-38207420D01*
X49320300Y-37903680D01*
X49204064Y-37623062D01*
X49136300Y-37555298D01*
X49136300Y-36523802D01*
X49204064Y-36456038D01*
X49320300Y-36175420D01*
X49320300Y-35871680D01*
X49204064Y-35591062D01*
X49136300Y-35523298D01*
X49136300Y-34491802D01*
X49204064Y-34424038D01*
X49320300Y-34143420D01*
X49320300Y-33839680D01*
X49204064Y-33559062D01*
X49136300Y-33491298D01*
X49136300Y-32408388D01*
X49239494Y-32253947D01*
X49249605Y-32229537D01*
X49279139Y-32158238D01*
X49317199Y-31966896D01*
X49317199Y-31966891D01*
X49322300Y-31941247D01*
X49322300Y-28417622D01*
X50085700Y-28417622D01*
X50085700Y-28681578D01*
X50186712Y-28925443D01*
X50360701Y-29099432D01*
X50360700Y-39839738D01*
X50353089Y-39878000D01*
X50360700Y-39916262D01*
X50383241Y-40029584D01*
X50469107Y-40158093D01*
X50501549Y-40179770D01*
X53241432Y-42919654D01*
X53263107Y-42952093D01*
X53295545Y-42973767D01*
X53391614Y-43037959D01*
X53543200Y-43068111D01*
X53581463Y-43060500D01*
X56650969Y-43060500D01*
X56824957Y-43234488D01*
X57068822Y-43335500D01*
X57332778Y-43335500D01*
X57576643Y-43234488D01*
X57763288Y-43047843D01*
X57864300Y-42803978D01*
X57864300Y-42540022D01*
X57763288Y-42296157D01*
X57576643Y-42109512D01*
X57332778Y-42008500D01*
X57068822Y-42008500D01*
X56824957Y-42109512D01*
X56650969Y-42283500D01*
X53704122Y-42283500D01*
X52335044Y-40914422D01*
X58975700Y-40914422D01*
X58975700Y-41178378D01*
X59076712Y-41422243D01*
X59263357Y-41608888D01*
X59507222Y-41709900D01*
X59753279Y-41709900D01*
X60251832Y-42208454D01*
X60273507Y-42240893D01*
X60402015Y-42326759D01*
X60515337Y-42349300D01*
X60515338Y-42349300D01*
X60553600Y-42356911D01*
X60591862Y-42349300D01*
X65540969Y-42349300D01*
X65714957Y-42523288D01*
X65958822Y-42624300D01*
X66222778Y-42624300D01*
X66466643Y-42523288D01*
X66559299Y-42430632D01*
X66559299Y-46448079D01*
X66554349Y-46453029D01*
X66521907Y-46474706D01*
X66436041Y-46603215D01*
X66426983Y-46648754D01*
X66405889Y-46754799D01*
X66413500Y-46793062D01*
X66413500Y-46795769D01*
X66239512Y-46969757D01*
X66138500Y-47213622D01*
X66138500Y-47477578D01*
X66239512Y-47721443D01*
X66426157Y-47908088D01*
X66670022Y-48009100D01*
X66933978Y-48009100D01*
X67177843Y-47908088D01*
X67364488Y-47721443D01*
X67465500Y-47477578D01*
X67465500Y-47213622D01*
X67364488Y-46969757D01*
X67250295Y-46855564D01*
X67313758Y-46760585D01*
X67336299Y-46647263D01*
X67336299Y-46647262D01*
X67343910Y-46609000D01*
X67336299Y-46570738D01*
X67336299Y-46096022D01*
X69491300Y-46096022D01*
X69491300Y-46359978D01*
X69592312Y-46603843D01*
X69778957Y-46790488D01*
X70022822Y-46891500D01*
X70286778Y-46891500D01*
X70530643Y-46790488D01*
X70554729Y-46766402D01*
X70636707Y-46889093D01*
X70669149Y-46910770D01*
X71078634Y-47320256D01*
X71100309Y-47352695D01*
X71228817Y-47438561D01*
X71342139Y-47461102D01*
X71380401Y-47468713D01*
X71418663Y-47461102D01*
X72379969Y-47461102D01*
X72553957Y-47635090D01*
X72797822Y-47736102D01*
X73061778Y-47736102D01*
X73305643Y-47635090D01*
X73492288Y-47448445D01*
X73593300Y-47204580D01*
X73593300Y-46940624D01*
X73492288Y-46696759D01*
X73305643Y-46510114D01*
X73061778Y-46409102D01*
X72797822Y-46409102D01*
X72553957Y-46510114D01*
X72379969Y-46684102D01*
X71541324Y-46684102D01*
X71305300Y-46448079D01*
X71305300Y-46071231D01*
X71469157Y-46235088D01*
X71713022Y-46336100D01*
X71976978Y-46336100D01*
X72220843Y-46235088D01*
X72394831Y-46061100D01*
X73299279Y-46061100D01*
X74977700Y-47739522D01*
X74977700Y-47985578D01*
X75078712Y-48229443D01*
X75265357Y-48416088D01*
X75509222Y-48517100D01*
X75773178Y-48517100D01*
X76017043Y-48416088D01*
X76203688Y-48229443D01*
X76304700Y-47985578D01*
X76304700Y-47721622D01*
X76203688Y-47477757D01*
X76017043Y-47291112D01*
X75773178Y-47190100D01*
X75527122Y-47190100D01*
X73761970Y-45424949D01*
X73740293Y-45392507D01*
X73611785Y-45306641D01*
X73498463Y-45284100D01*
X73498462Y-45284100D01*
X73460200Y-45276489D01*
X73421938Y-45284100D01*
X72394831Y-45284100D01*
X72220843Y-45110112D01*
X71976978Y-45009100D01*
X71713022Y-45009100D01*
X71469157Y-45110112D01*
X71305300Y-45273969D01*
X71305300Y-44479321D01*
X71421766Y-44362855D01*
X72123522Y-43661100D01*
X72369578Y-43661100D01*
X72613443Y-43560088D01*
X72800088Y-43373443D01*
X72901100Y-43129578D01*
X72901100Y-42865622D01*
X72800088Y-42621757D01*
X72613443Y-42435112D01*
X72369578Y-42334100D01*
X72105622Y-42334100D01*
X72092700Y-42339452D01*
X72092700Y-41613721D01*
X73755255Y-39951167D01*
X73787693Y-39929493D01*
X73838968Y-39852755D01*
X73873559Y-39800986D01*
X73903711Y-39649400D01*
X73896100Y-39611137D01*
X73896100Y-36770231D01*
X73917688Y-36748643D01*
X74018700Y-36504778D01*
X74018700Y-36240822D01*
X73917688Y-35996957D01*
X73731043Y-35810312D01*
X73487178Y-35709300D01*
X73223222Y-35709300D01*
X72979357Y-35810312D01*
X72792712Y-35996957D01*
X72691700Y-36240822D01*
X72691700Y-36504778D01*
X72792712Y-36748643D01*
X72979357Y-36935288D01*
X73119101Y-36993172D01*
X73119100Y-39230137D01*
X73119100Y-39488478D01*
X71456547Y-41151032D01*
X71424108Y-41172707D01*
X71402433Y-41205146D01*
X71338242Y-41301215D01*
X71308089Y-41452800D01*
X71315701Y-41491067D01*
X71315700Y-42132569D01*
X71229100Y-42045969D01*
X71229100Y-38235521D01*
X71618245Y-37846376D01*
X71760157Y-37988288D01*
X72004022Y-38089300D01*
X72267978Y-38089300D01*
X72511843Y-37988288D01*
X72698488Y-37801643D01*
X72799500Y-37557778D01*
X72799500Y-37293822D01*
X72698488Y-37049957D01*
X72511843Y-36863312D01*
X72267978Y-36762300D01*
X72004022Y-36762300D01*
X71760157Y-36863312D01*
X71586169Y-37037300D01*
X71527663Y-37037300D01*
X71489400Y-37029689D01*
X71337814Y-37059841D01*
X71320198Y-37071612D01*
X71209307Y-37145707D01*
X71187632Y-37178146D01*
X70592947Y-37772832D01*
X70560508Y-37794507D01*
X70538833Y-37826946D01*
X70474642Y-37923015D01*
X70444489Y-38074600D01*
X70452101Y-38112867D01*
X70452100Y-42045969D01*
X70278112Y-42219957D01*
X70177100Y-42463822D01*
X70177100Y-42727778D01*
X70278112Y-42971643D01*
X70464757Y-43158288D01*
X70703006Y-43256974D01*
X69907147Y-44052834D01*
X69874708Y-44074509D01*
X69853033Y-44106948D01*
X69788842Y-44203017D01*
X69758689Y-44354602D01*
X69766301Y-44392869D01*
X69766300Y-45678169D01*
X69592312Y-45852157D01*
X69491300Y-46096022D01*
X67336299Y-46096022D01*
X67336299Y-36932471D01*
X67688334Y-37167693D01*
X68013134Y-37232300D01*
X68232466Y-37232300D01*
X68557266Y-37167693D01*
X68925588Y-36921588D01*
X69099299Y-36661611D01*
X69099299Y-38395996D01*
X68992747Y-38502547D01*
X68960308Y-38524222D01*
X68938633Y-38556661D01*
X68874442Y-38652730D01*
X68844289Y-38804315D01*
X68848182Y-38823887D01*
X68677912Y-38994157D01*
X68576900Y-39238022D01*
X68576900Y-39501978D01*
X68677912Y-39745843D01*
X68864557Y-39932488D01*
X69108422Y-40033500D01*
X69372378Y-40033500D01*
X69616243Y-39932488D01*
X69802888Y-39745843D01*
X69903900Y-39501978D01*
X69903900Y-39238022D01*
X69802888Y-38994157D01*
X69701433Y-38892702D01*
X69735448Y-38858687D01*
X69767892Y-38837009D01*
X69853758Y-38708501D01*
X69876299Y-38595179D01*
X69876299Y-38595178D01*
X69883910Y-38556917D01*
X69876299Y-38518655D01*
X69876299Y-36957778D01*
X70139864Y-37162657D01*
X70294456Y-37226671D01*
X70472300Y-37190120D01*
X70472300Y-36309300D01*
X70853300Y-36309300D01*
X70853300Y-37190120D01*
X71031144Y-37226671D01*
X71185736Y-37162657D01*
X71545397Y-36883079D01*
X71770690Y-36487147D01*
X71735297Y-36309300D01*
X70853300Y-36309300D01*
X70472300Y-36309300D01*
X70452300Y-36309300D01*
X70452300Y-35928300D01*
X70472300Y-35928300D01*
X70472300Y-35047480D01*
X70853300Y-35047480D01*
X70853300Y-35928300D01*
X71735297Y-35928300D01*
X71770690Y-35750453D01*
X71545397Y-35354521D01*
X71185736Y-35074943D01*
X71031144Y-35010929D01*
X70853300Y-35047480D01*
X70472300Y-35047480D01*
X70294456Y-35010929D01*
X70139864Y-35074943D01*
X69876299Y-35279822D01*
X69876299Y-32966832D01*
X70056888Y-32786243D01*
X70157900Y-32542378D01*
X70157900Y-32278422D01*
X70056888Y-32034557D01*
X69870243Y-31847912D01*
X69626378Y-31746900D01*
X69362422Y-31746900D01*
X69118557Y-31847912D01*
X68931912Y-32034557D01*
X68830900Y-32278422D01*
X68830900Y-32542378D01*
X68931912Y-32786243D01*
X69099300Y-32953631D01*
X69099299Y-35575989D01*
X68925588Y-35316012D01*
X68557266Y-35069907D01*
X68232466Y-35005300D01*
X68013134Y-35005300D01*
X67688334Y-35069907D01*
X67336299Y-35305129D01*
X67336299Y-30799922D01*
X68014854Y-30121368D01*
X68047293Y-30099693D01*
X68133159Y-29971185D01*
X68155700Y-29857863D01*
X68163311Y-29819601D01*
X68155700Y-29781339D01*
X68155700Y-28134231D01*
X68329688Y-27960243D01*
X68430700Y-27716378D01*
X68430700Y-27452422D01*
X68329688Y-27208557D01*
X68143043Y-27021912D01*
X67899178Y-26920900D01*
X67635222Y-26920900D01*
X67391357Y-27021912D01*
X67204712Y-27208557D01*
X67103700Y-27452422D01*
X67103700Y-27716378D01*
X67203877Y-27958226D01*
X67198388Y-27950012D01*
X66830066Y-27703907D01*
X66505266Y-27639300D01*
X66285934Y-27639300D01*
X65961134Y-27703907D01*
X65592812Y-27950012D01*
X65346707Y-28318334D01*
X65337564Y-28364300D01*
X63999236Y-28364300D01*
X63990093Y-28318334D01*
X63743988Y-27950012D01*
X63375666Y-27703907D01*
X63050866Y-27639300D01*
X62831534Y-27639300D01*
X62506734Y-27703907D01*
X62138412Y-27950012D01*
X61892307Y-28318334D01*
X61805886Y-28752800D01*
X61892307Y-29187266D01*
X62138412Y-29555588D01*
X62506734Y-29801693D01*
X62831534Y-29866300D01*
X63050866Y-29866300D01*
X63375666Y-29801693D01*
X63743988Y-29555588D01*
X63990093Y-29187266D01*
X63999236Y-29141300D01*
X65337564Y-29141300D01*
X65346707Y-29187266D01*
X65592812Y-29555588D01*
X65961134Y-29801693D01*
X66285934Y-29866300D01*
X66505266Y-29866300D01*
X66830066Y-29801693D01*
X67198388Y-29555588D01*
X67378701Y-29285731D01*
X67378701Y-29658677D01*
X66700148Y-30337231D01*
X66667706Y-30358908D01*
X66581840Y-30487417D01*
X66566970Y-30562173D01*
X66551688Y-30639001D01*
X66559299Y-30677263D01*
X66559300Y-35036416D01*
X66535612Y-35020589D01*
X66432800Y-35000138D01*
X64732800Y-35000138D01*
X64629988Y-35020589D01*
X64542827Y-35078827D01*
X64484589Y-35165988D01*
X64464138Y-35268800D01*
X64464138Y-36968800D01*
X64484589Y-37071612D01*
X64542827Y-37158773D01*
X64629988Y-37217011D01*
X64732800Y-37237462D01*
X65194300Y-37237462D01*
X65194301Y-39703277D01*
X65175078Y-39722500D01*
X64929022Y-39722500D01*
X64685157Y-39823512D01*
X64498512Y-40010157D01*
X64397500Y-40254022D01*
X64397500Y-40517978D01*
X64498512Y-40761843D01*
X64685157Y-40948488D01*
X64929022Y-41049500D01*
X65192978Y-41049500D01*
X65436843Y-40948488D01*
X65623488Y-40761843D01*
X65724500Y-40517978D01*
X65724500Y-40271922D01*
X65830454Y-40165968D01*
X65862893Y-40144293D01*
X65928897Y-40045511D01*
X65948759Y-40015786D01*
X65978911Y-39864200D01*
X65971300Y-39825937D01*
X65971300Y-37237462D01*
X66432800Y-37237462D01*
X66535612Y-37217011D01*
X66559300Y-37201184D01*
X66559299Y-41490968D01*
X66466643Y-41398312D01*
X66222778Y-41297300D01*
X65958822Y-41297300D01*
X65714957Y-41398312D01*
X65540969Y-41572300D01*
X60714522Y-41572300D01*
X60302700Y-41160479D01*
X60302700Y-40914422D01*
X60201688Y-40670557D01*
X60015043Y-40483912D01*
X59771178Y-40382900D01*
X59507222Y-40382900D01*
X59263357Y-40483912D01*
X59076712Y-40670557D01*
X58975700Y-40914422D01*
X52335044Y-40914422D01*
X51137700Y-39717079D01*
X51137700Y-35268800D01*
X54202538Y-35268800D01*
X54202538Y-36968800D01*
X54222989Y-37071612D01*
X54281227Y-37158773D01*
X54368388Y-37217011D01*
X54471200Y-37237462D01*
X56171200Y-37237462D01*
X56274012Y-37217011D01*
X56361173Y-37158773D01*
X56419411Y-37071612D01*
X56439862Y-36968800D01*
X56439862Y-36118800D01*
X56725886Y-36118800D01*
X56812307Y-36553266D01*
X57058412Y-36921588D01*
X57426734Y-37167693D01*
X57751534Y-37232300D01*
X57970866Y-37232300D01*
X58295666Y-37167693D01*
X58663988Y-36921588D01*
X58910093Y-36553266D01*
X58996514Y-36118800D01*
X59265886Y-36118800D01*
X59352307Y-36553266D01*
X59598412Y-36921588D01*
X59966734Y-37167693D01*
X60291534Y-37232300D01*
X60510866Y-37232300D01*
X60835666Y-37167693D01*
X61203988Y-36921588D01*
X61450093Y-36553266D01*
X61536514Y-36118800D01*
X61450093Y-35684334D01*
X61203988Y-35316012D01*
X60835666Y-35069907D01*
X60789700Y-35060764D01*
X60789700Y-26212800D01*
X61805886Y-26212800D01*
X61892307Y-26647266D01*
X62138412Y-27015588D01*
X62506734Y-27261693D01*
X62831534Y-27326300D01*
X63050866Y-27326300D01*
X63375666Y-27261693D01*
X63743988Y-27015588D01*
X63990093Y-26647266D01*
X63999236Y-26601300D01*
X65337564Y-26601300D01*
X65346707Y-26647266D01*
X65592812Y-27015588D01*
X65961134Y-27261693D01*
X66285934Y-27326300D01*
X66505266Y-27326300D01*
X66830066Y-27261693D01*
X67198388Y-27015588D01*
X67415657Y-26690422D01*
X73555300Y-26690422D01*
X73555300Y-26954378D01*
X73656312Y-27198243D01*
X73842957Y-27384888D01*
X74086822Y-27485900D01*
X74135101Y-27485900D01*
X74135100Y-41461769D01*
X73961112Y-41635757D01*
X73860100Y-41879622D01*
X73860100Y-42143578D01*
X73961112Y-42387443D01*
X74147757Y-42574088D01*
X74391622Y-42675100D01*
X74637679Y-42675100D01*
X75211695Y-43249117D01*
X75202059Y-43272381D01*
X75202059Y-43536337D01*
X75303071Y-43780202D01*
X75489716Y-43966847D01*
X75733581Y-44067859D01*
X75997537Y-44067859D01*
X76241402Y-43966847D01*
X76428047Y-43780202D01*
X76529059Y-43536337D01*
X76529059Y-43272381D01*
X76428047Y-43028516D01*
X76241402Y-42841871D01*
X75997537Y-42740859D01*
X75802281Y-42740859D01*
X75187100Y-42125679D01*
X75187100Y-41879622D01*
X75086088Y-41635757D01*
X74912100Y-41461769D01*
X74912100Y-27165461D01*
X74919711Y-27127199D01*
X74897510Y-27015588D01*
X74889559Y-26975615D01*
X74879648Y-26960781D01*
X74882300Y-26954378D01*
X74882300Y-26690422D01*
X74781288Y-26446557D01*
X74594643Y-26259912D01*
X74350778Y-26158900D01*
X74086822Y-26158900D01*
X73842957Y-26259912D01*
X73656312Y-26446557D01*
X73555300Y-26690422D01*
X67415657Y-26690422D01*
X67444493Y-26647266D01*
X67530914Y-26212800D01*
X67444493Y-25778334D01*
X67198388Y-25410012D01*
X66830066Y-25163907D01*
X66505266Y-25099300D01*
X66285934Y-25099300D01*
X65961134Y-25163907D01*
X65592812Y-25410012D01*
X65346707Y-25778334D01*
X65337564Y-25824300D01*
X63999236Y-25824300D01*
X63990093Y-25778334D01*
X63743988Y-25410012D01*
X63375666Y-25163907D01*
X63050866Y-25099300D01*
X62831534Y-25099300D01*
X62506734Y-25163907D01*
X62138412Y-25410012D01*
X61892307Y-25778334D01*
X61805886Y-26212800D01*
X60789700Y-26212800D01*
X60789700Y-23956327D01*
X60803352Y-23942675D01*
X61773700Y-23942675D01*
X61773700Y-24585954D01*
X61822036Y-24702649D01*
X61911350Y-24791963D01*
X62028045Y-24840300D01*
X62671325Y-24840300D01*
X62750700Y-24760925D01*
X62750700Y-23863300D01*
X63131700Y-23863300D01*
X63131700Y-24760925D01*
X63211075Y-24840300D01*
X63854355Y-24840300D01*
X63971050Y-24791963D01*
X64060364Y-24702649D01*
X64108700Y-24585954D01*
X64108700Y-23942675D01*
X65228100Y-23942675D01*
X65228100Y-24585954D01*
X65276436Y-24702649D01*
X65365750Y-24791963D01*
X65482445Y-24840300D01*
X66125725Y-24840300D01*
X66205100Y-24760925D01*
X66205100Y-23863300D01*
X66586100Y-23863300D01*
X66586100Y-24760925D01*
X66665475Y-24840300D01*
X67308755Y-24840300D01*
X67425450Y-24791963D01*
X67514764Y-24702649D01*
X67563100Y-24585954D01*
X67563100Y-23942675D01*
X67483725Y-23863300D01*
X66586100Y-23863300D01*
X66205100Y-23863300D01*
X65307475Y-23863300D01*
X65228100Y-23942675D01*
X64108700Y-23942675D01*
X64029325Y-23863300D01*
X63131700Y-23863300D01*
X62750700Y-23863300D01*
X61853075Y-23863300D01*
X61773700Y-23942675D01*
X60803352Y-23942675D01*
X60983724Y-23762303D01*
X61229781Y-23762303D01*
X61473646Y-23661291D01*
X61660291Y-23474646D01*
X61761303Y-23230781D01*
X61761303Y-22966825D01*
X61675487Y-22759646D01*
X61773700Y-22759646D01*
X61773700Y-23402925D01*
X61853075Y-23482300D01*
X62750700Y-23482300D01*
X62750700Y-22584675D01*
X63131700Y-22584675D01*
X63131700Y-23482300D01*
X64029325Y-23482300D01*
X64108700Y-23402925D01*
X64108700Y-22759646D01*
X65228100Y-22759646D01*
X65228100Y-23402925D01*
X65307475Y-23482300D01*
X66205100Y-23482300D01*
X66205100Y-22584675D01*
X66586100Y-22584675D01*
X66586100Y-23482300D01*
X67483725Y-23482300D01*
X67563100Y-23402925D01*
X67563100Y-22759646D01*
X67514764Y-22642951D01*
X67425450Y-22553637D01*
X67308755Y-22505300D01*
X66665475Y-22505300D01*
X66586100Y-22584675D01*
X66205100Y-22584675D01*
X66125725Y-22505300D01*
X65482445Y-22505300D01*
X65365750Y-22553637D01*
X65276436Y-22642951D01*
X65228100Y-22759646D01*
X64108700Y-22759646D01*
X64060364Y-22642951D01*
X63971050Y-22553637D01*
X63854355Y-22505300D01*
X63211075Y-22505300D01*
X63131700Y-22584675D01*
X62750700Y-22584675D01*
X62671325Y-22505300D01*
X62028045Y-22505300D01*
X61911350Y-22553637D01*
X61822036Y-22642951D01*
X61773700Y-22759646D01*
X61675487Y-22759646D01*
X61660291Y-22722960D01*
X61473646Y-22536315D01*
X61229781Y-22435303D01*
X60965825Y-22435303D01*
X60721960Y-22536315D01*
X60535315Y-22722960D01*
X60434303Y-22966825D01*
X60434303Y-23212882D01*
X60153547Y-23493638D01*
X60121108Y-23515313D01*
X60099433Y-23547752D01*
X60035242Y-23643821D01*
X60005089Y-23795406D01*
X60012701Y-23833673D01*
X60012700Y-35060764D01*
X59966734Y-35069907D01*
X59598412Y-35316012D01*
X59352307Y-35684334D01*
X59265886Y-36118800D01*
X58996514Y-36118800D01*
X58910093Y-35684334D01*
X58663988Y-35316012D01*
X58295666Y-35069907D01*
X58249700Y-35060764D01*
X58249700Y-33739721D01*
X58559922Y-33429500D01*
X58805978Y-33429500D01*
X59049843Y-33328488D01*
X59236488Y-33141843D01*
X59337500Y-32897978D01*
X59337500Y-32634022D01*
X59236488Y-32390157D01*
X59049843Y-32203512D01*
X58805978Y-32102500D01*
X58542022Y-32102500D01*
X58298157Y-32203512D01*
X58111512Y-32390157D01*
X58010500Y-32634022D01*
X58010500Y-32880078D01*
X57613547Y-33277032D01*
X57581108Y-33298707D01*
X57559433Y-33331146D01*
X57495242Y-33427215D01*
X57465089Y-33578800D01*
X57472701Y-33617067D01*
X57472700Y-35060764D01*
X57426734Y-35069907D01*
X57058412Y-35316012D01*
X56812307Y-35684334D01*
X56725886Y-36118800D01*
X56439862Y-36118800D01*
X56439862Y-35268800D01*
X56419411Y-35165988D01*
X56361173Y-35078827D01*
X56274012Y-35020589D01*
X56171200Y-35000138D01*
X54471200Y-35000138D01*
X54368388Y-35020589D01*
X54281227Y-35078827D01*
X54222989Y-35165988D01*
X54202538Y-35268800D01*
X51137700Y-35268800D01*
X51137700Y-30348022D01*
X53692500Y-30348022D01*
X53692500Y-30611978D01*
X53793512Y-30855843D01*
X53980157Y-31042488D01*
X54224022Y-31143500D01*
X54487978Y-31143500D01*
X54731843Y-31042488D01*
X54918488Y-30855843D01*
X54933875Y-30818695D01*
X57644540Y-30818695D01*
X57818528Y-30992683D01*
X58062393Y-31093695D01*
X58326349Y-31093695D01*
X58570214Y-30992683D01*
X58756859Y-30806038D01*
X58857871Y-30562173D01*
X58857871Y-30298217D01*
X58756859Y-30054352D01*
X58570214Y-29867707D01*
X58326349Y-29766695D01*
X58062393Y-29766695D01*
X57818528Y-29867707D01*
X57644540Y-30041695D01*
X54856026Y-30041695D01*
X54731843Y-29917512D01*
X54487978Y-29816500D01*
X54224022Y-29816500D01*
X53980157Y-29917512D01*
X53793512Y-30104157D01*
X53692500Y-30348022D01*
X51137700Y-30348022D01*
X51137700Y-29099431D01*
X51311688Y-28925443D01*
X51412700Y-28681578D01*
X51412700Y-28417622D01*
X51311688Y-28173757D01*
X51125043Y-27987112D01*
X50881178Y-27886100D01*
X50617222Y-27886100D01*
X50373357Y-27987112D01*
X50186712Y-28173757D01*
X50085700Y-28417622D01*
X49322300Y-28417622D01*
X49322300Y-21906300D01*
X76731300Y-21906300D01*
X76731301Y-50077300D01*
G04 #@! TD*
M02*
