G04 #@! TF.GenerationSoftware,KiCad,Pcbnew,(5.0.1)-4*
G04 #@! TF.CreationDate,2019-02-17T20:46:42+01:00*
G04 #@! TF.ProjectId,1U Rim,31552052696D2E6B696361645F706362,rev?*
G04 #@! TF.SameCoordinates,Original*
G04 #@! TF.FileFunction,Paste,Top*
G04 #@! TF.FilePolarity,Positive*
%FSLAX46Y46*%
G04 Gerber Fmt 4.6, Leading zero omitted, Abs format (unit mm)*
G04 Created by KiCad (PCBNEW (5.0.1)-4) date 2/17/2019 8:46:42 PM*
%MOMM*%
%LPD*%
G01*
G04 APERTURE LIST*
%ADD10C,0.100000*%
%ADD11C,1.150000*%
%ADD12C,0.950000*%
%ADD13R,1.600000X2.200000*%
%ADD14R,0.800000X0.900000*%
%ADD15R,1.450000X0.450000*%
%ADD16R,0.450000X1.450000*%
G04 APERTURE END LIST*
D10*
G04 #@! TO.C,C1*
G36*
X53635105Y-30713204D02*
X53659373Y-30716804D01*
X53683172Y-30722765D01*
X53706271Y-30731030D01*
X53728450Y-30741520D01*
X53749493Y-30754132D01*
X53769199Y-30768747D01*
X53787377Y-30785223D01*
X53803853Y-30803401D01*
X53818468Y-30823107D01*
X53831080Y-30844150D01*
X53841570Y-30866329D01*
X53849835Y-30889428D01*
X53855796Y-30913227D01*
X53859396Y-30937495D01*
X53860600Y-30961999D01*
X53860600Y-31612001D01*
X53859396Y-31636505D01*
X53855796Y-31660773D01*
X53849835Y-31684572D01*
X53841570Y-31707671D01*
X53831080Y-31729850D01*
X53818468Y-31750893D01*
X53803853Y-31770599D01*
X53787377Y-31788777D01*
X53769199Y-31805253D01*
X53749493Y-31819868D01*
X53728450Y-31832480D01*
X53706271Y-31842970D01*
X53683172Y-31851235D01*
X53659373Y-31857196D01*
X53635105Y-31860796D01*
X53610601Y-31862000D01*
X52710599Y-31862000D01*
X52686095Y-31860796D01*
X52661827Y-31857196D01*
X52638028Y-31851235D01*
X52614929Y-31842970D01*
X52592750Y-31832480D01*
X52571707Y-31819868D01*
X52552001Y-31805253D01*
X52533823Y-31788777D01*
X52517347Y-31770599D01*
X52502732Y-31750893D01*
X52490120Y-31729850D01*
X52479630Y-31707671D01*
X52471365Y-31684572D01*
X52465404Y-31660773D01*
X52461804Y-31636505D01*
X52460600Y-31612001D01*
X52460600Y-30961999D01*
X52461804Y-30937495D01*
X52465404Y-30913227D01*
X52471365Y-30889428D01*
X52479630Y-30866329D01*
X52490120Y-30844150D01*
X52502732Y-30823107D01*
X52517347Y-30803401D01*
X52533823Y-30785223D01*
X52552001Y-30768747D01*
X52571707Y-30754132D01*
X52592750Y-30741520D01*
X52614929Y-30731030D01*
X52638028Y-30722765D01*
X52661827Y-30716804D01*
X52686095Y-30713204D01*
X52710599Y-30712000D01*
X53610601Y-30712000D01*
X53635105Y-30713204D01*
X53635105Y-30713204D01*
G37*
D11*
X53160600Y-31287000D03*
D10*
G36*
X53635105Y-32763204D02*
X53659373Y-32766804D01*
X53683172Y-32772765D01*
X53706271Y-32781030D01*
X53728450Y-32791520D01*
X53749493Y-32804132D01*
X53769199Y-32818747D01*
X53787377Y-32835223D01*
X53803853Y-32853401D01*
X53818468Y-32873107D01*
X53831080Y-32894150D01*
X53841570Y-32916329D01*
X53849835Y-32939428D01*
X53855796Y-32963227D01*
X53859396Y-32987495D01*
X53860600Y-33011999D01*
X53860600Y-33662001D01*
X53859396Y-33686505D01*
X53855796Y-33710773D01*
X53849835Y-33734572D01*
X53841570Y-33757671D01*
X53831080Y-33779850D01*
X53818468Y-33800893D01*
X53803853Y-33820599D01*
X53787377Y-33838777D01*
X53769199Y-33855253D01*
X53749493Y-33869868D01*
X53728450Y-33882480D01*
X53706271Y-33892970D01*
X53683172Y-33901235D01*
X53659373Y-33907196D01*
X53635105Y-33910796D01*
X53610601Y-33912000D01*
X52710599Y-33912000D01*
X52686095Y-33910796D01*
X52661827Y-33907196D01*
X52638028Y-33901235D01*
X52614929Y-33892970D01*
X52592750Y-33882480D01*
X52571707Y-33869868D01*
X52552001Y-33855253D01*
X52533823Y-33838777D01*
X52517347Y-33820599D01*
X52502732Y-33800893D01*
X52490120Y-33779850D01*
X52479630Y-33757671D01*
X52471365Y-33734572D01*
X52465404Y-33710773D01*
X52461804Y-33686505D01*
X52460600Y-33662001D01*
X52460600Y-33011999D01*
X52461804Y-32987495D01*
X52465404Y-32963227D01*
X52471365Y-32939428D01*
X52479630Y-32916329D01*
X52490120Y-32894150D01*
X52502732Y-32873107D01*
X52517347Y-32853401D01*
X52533823Y-32835223D01*
X52552001Y-32818747D01*
X52571707Y-32804132D01*
X52592750Y-32791520D01*
X52614929Y-32781030D01*
X52638028Y-32772765D01*
X52661827Y-32766804D01*
X52686095Y-32763204D01*
X52710599Y-32762000D01*
X53610601Y-32762000D01*
X53635105Y-32763204D01*
X53635105Y-32763204D01*
G37*
D11*
X53160600Y-33337000D03*
G04 #@! TD*
D10*
G04 #@! TO.C,C2*
G36*
X33099579Y-33155744D02*
X33122634Y-33159163D01*
X33145243Y-33164827D01*
X33167187Y-33172679D01*
X33188257Y-33182644D01*
X33208248Y-33194626D01*
X33226968Y-33208510D01*
X33244238Y-33224162D01*
X33259890Y-33241432D01*
X33273774Y-33260152D01*
X33285756Y-33280143D01*
X33295721Y-33301213D01*
X33303573Y-33323157D01*
X33309237Y-33345766D01*
X33312656Y-33368821D01*
X33313800Y-33392100D01*
X33313800Y-33867100D01*
X33312656Y-33890379D01*
X33309237Y-33913434D01*
X33303573Y-33936043D01*
X33295721Y-33957987D01*
X33285756Y-33979057D01*
X33273774Y-33999048D01*
X33259890Y-34017768D01*
X33244238Y-34035038D01*
X33226968Y-34050690D01*
X33208248Y-34064574D01*
X33188257Y-34076556D01*
X33167187Y-34086521D01*
X33145243Y-34094373D01*
X33122634Y-34100037D01*
X33099579Y-34103456D01*
X33076300Y-34104600D01*
X32501300Y-34104600D01*
X32478021Y-34103456D01*
X32454966Y-34100037D01*
X32432357Y-34094373D01*
X32410413Y-34086521D01*
X32389343Y-34076556D01*
X32369352Y-34064574D01*
X32350632Y-34050690D01*
X32333362Y-34035038D01*
X32317710Y-34017768D01*
X32303826Y-33999048D01*
X32291844Y-33979057D01*
X32281879Y-33957987D01*
X32274027Y-33936043D01*
X32268363Y-33913434D01*
X32264944Y-33890379D01*
X32263800Y-33867100D01*
X32263800Y-33392100D01*
X32264944Y-33368821D01*
X32268363Y-33345766D01*
X32274027Y-33323157D01*
X32281879Y-33301213D01*
X32291844Y-33280143D01*
X32303826Y-33260152D01*
X32317710Y-33241432D01*
X32333362Y-33224162D01*
X32350632Y-33208510D01*
X32369352Y-33194626D01*
X32389343Y-33182644D01*
X32410413Y-33172679D01*
X32432357Y-33164827D01*
X32454966Y-33159163D01*
X32478021Y-33155744D01*
X32501300Y-33154600D01*
X33076300Y-33154600D01*
X33099579Y-33155744D01*
X33099579Y-33155744D01*
G37*
D12*
X32788800Y-33629600D03*
D10*
G36*
X31349579Y-33155744D02*
X31372634Y-33159163D01*
X31395243Y-33164827D01*
X31417187Y-33172679D01*
X31438257Y-33182644D01*
X31458248Y-33194626D01*
X31476968Y-33208510D01*
X31494238Y-33224162D01*
X31509890Y-33241432D01*
X31523774Y-33260152D01*
X31535756Y-33280143D01*
X31545721Y-33301213D01*
X31553573Y-33323157D01*
X31559237Y-33345766D01*
X31562656Y-33368821D01*
X31563800Y-33392100D01*
X31563800Y-33867100D01*
X31562656Y-33890379D01*
X31559237Y-33913434D01*
X31553573Y-33936043D01*
X31545721Y-33957987D01*
X31535756Y-33979057D01*
X31523774Y-33999048D01*
X31509890Y-34017768D01*
X31494238Y-34035038D01*
X31476968Y-34050690D01*
X31458248Y-34064574D01*
X31438257Y-34076556D01*
X31417187Y-34086521D01*
X31395243Y-34094373D01*
X31372634Y-34100037D01*
X31349579Y-34103456D01*
X31326300Y-34104600D01*
X30751300Y-34104600D01*
X30728021Y-34103456D01*
X30704966Y-34100037D01*
X30682357Y-34094373D01*
X30660413Y-34086521D01*
X30639343Y-34076556D01*
X30619352Y-34064574D01*
X30600632Y-34050690D01*
X30583362Y-34035038D01*
X30567710Y-34017768D01*
X30553826Y-33999048D01*
X30541844Y-33979057D01*
X30531879Y-33957987D01*
X30524027Y-33936043D01*
X30518363Y-33913434D01*
X30514944Y-33890379D01*
X30513800Y-33867100D01*
X30513800Y-33392100D01*
X30514944Y-33368821D01*
X30518363Y-33345766D01*
X30524027Y-33323157D01*
X30531879Y-33301213D01*
X30541844Y-33280143D01*
X30553826Y-33260152D01*
X30567710Y-33241432D01*
X30583362Y-33224162D01*
X30600632Y-33208510D01*
X30619352Y-33194626D01*
X30639343Y-33182644D01*
X30660413Y-33172679D01*
X30682357Y-33164827D01*
X30704966Y-33159163D01*
X30728021Y-33155744D01*
X30751300Y-33154600D01*
X31326300Y-33154600D01*
X31349579Y-33155744D01*
X31349579Y-33155744D01*
G37*
D12*
X31038800Y-33629600D03*
G04 #@! TD*
D10*
G04 #@! TO.C,C3*
G36*
X58640505Y-46407204D02*
X58664773Y-46410804D01*
X58688572Y-46416765D01*
X58711671Y-46425030D01*
X58733850Y-46435520D01*
X58754893Y-46448132D01*
X58774599Y-46462747D01*
X58792777Y-46479223D01*
X58809253Y-46497401D01*
X58823868Y-46517107D01*
X58836480Y-46538150D01*
X58846970Y-46560329D01*
X58855235Y-46583428D01*
X58861196Y-46607227D01*
X58864796Y-46631495D01*
X58866000Y-46655999D01*
X58866000Y-47306001D01*
X58864796Y-47330505D01*
X58861196Y-47354773D01*
X58855235Y-47378572D01*
X58846970Y-47401671D01*
X58836480Y-47423850D01*
X58823868Y-47444893D01*
X58809253Y-47464599D01*
X58792777Y-47482777D01*
X58774599Y-47499253D01*
X58754893Y-47513868D01*
X58733850Y-47526480D01*
X58711671Y-47536970D01*
X58688572Y-47545235D01*
X58664773Y-47551196D01*
X58640505Y-47554796D01*
X58616001Y-47556000D01*
X57715999Y-47556000D01*
X57691495Y-47554796D01*
X57667227Y-47551196D01*
X57643428Y-47545235D01*
X57620329Y-47536970D01*
X57598150Y-47526480D01*
X57577107Y-47513868D01*
X57557401Y-47499253D01*
X57539223Y-47482777D01*
X57522747Y-47464599D01*
X57508132Y-47444893D01*
X57495520Y-47423850D01*
X57485030Y-47401671D01*
X57476765Y-47378572D01*
X57470804Y-47354773D01*
X57467204Y-47330505D01*
X57466000Y-47306001D01*
X57466000Y-46655999D01*
X57467204Y-46631495D01*
X57470804Y-46607227D01*
X57476765Y-46583428D01*
X57485030Y-46560329D01*
X57495520Y-46538150D01*
X57508132Y-46517107D01*
X57522747Y-46497401D01*
X57539223Y-46479223D01*
X57557401Y-46462747D01*
X57577107Y-46448132D01*
X57598150Y-46435520D01*
X57620329Y-46425030D01*
X57643428Y-46416765D01*
X57667227Y-46410804D01*
X57691495Y-46407204D01*
X57715999Y-46406000D01*
X58616001Y-46406000D01*
X58640505Y-46407204D01*
X58640505Y-46407204D01*
G37*
D11*
X58166000Y-46981000D03*
D10*
G36*
X58640505Y-48457204D02*
X58664773Y-48460804D01*
X58688572Y-48466765D01*
X58711671Y-48475030D01*
X58733850Y-48485520D01*
X58754893Y-48498132D01*
X58774599Y-48512747D01*
X58792777Y-48529223D01*
X58809253Y-48547401D01*
X58823868Y-48567107D01*
X58836480Y-48588150D01*
X58846970Y-48610329D01*
X58855235Y-48633428D01*
X58861196Y-48657227D01*
X58864796Y-48681495D01*
X58866000Y-48705999D01*
X58866000Y-49356001D01*
X58864796Y-49380505D01*
X58861196Y-49404773D01*
X58855235Y-49428572D01*
X58846970Y-49451671D01*
X58836480Y-49473850D01*
X58823868Y-49494893D01*
X58809253Y-49514599D01*
X58792777Y-49532777D01*
X58774599Y-49549253D01*
X58754893Y-49563868D01*
X58733850Y-49576480D01*
X58711671Y-49586970D01*
X58688572Y-49595235D01*
X58664773Y-49601196D01*
X58640505Y-49604796D01*
X58616001Y-49606000D01*
X57715999Y-49606000D01*
X57691495Y-49604796D01*
X57667227Y-49601196D01*
X57643428Y-49595235D01*
X57620329Y-49586970D01*
X57598150Y-49576480D01*
X57577107Y-49563868D01*
X57557401Y-49549253D01*
X57539223Y-49532777D01*
X57522747Y-49514599D01*
X57508132Y-49494893D01*
X57495520Y-49473850D01*
X57485030Y-49451671D01*
X57476765Y-49428572D01*
X57470804Y-49404773D01*
X57467204Y-49380505D01*
X57466000Y-49356001D01*
X57466000Y-48705999D01*
X57467204Y-48681495D01*
X57470804Y-48657227D01*
X57476765Y-48633428D01*
X57485030Y-48610329D01*
X57495520Y-48588150D01*
X57508132Y-48567107D01*
X57522747Y-48547401D01*
X57539223Y-48529223D01*
X57557401Y-48512747D01*
X57577107Y-48498132D01*
X57598150Y-48485520D01*
X57620329Y-48475030D01*
X57643428Y-48466765D01*
X57667227Y-48460804D01*
X57691495Y-48457204D01*
X57715999Y-48456000D01*
X58616001Y-48456000D01*
X58640505Y-48457204D01*
X58640505Y-48457204D01*
G37*
D11*
X58166000Y-49031000D03*
G04 #@! TD*
D10*
G04 #@! TO.C,C4*
G36*
X65498505Y-45409204D02*
X65522773Y-45412804D01*
X65546572Y-45418765D01*
X65569671Y-45427030D01*
X65591850Y-45437520D01*
X65612893Y-45450132D01*
X65632599Y-45464747D01*
X65650777Y-45481223D01*
X65667253Y-45499401D01*
X65681868Y-45519107D01*
X65694480Y-45540150D01*
X65704970Y-45562329D01*
X65713235Y-45585428D01*
X65719196Y-45609227D01*
X65722796Y-45633495D01*
X65724000Y-45657999D01*
X65724000Y-46308001D01*
X65722796Y-46332505D01*
X65719196Y-46356773D01*
X65713235Y-46380572D01*
X65704970Y-46403671D01*
X65694480Y-46425850D01*
X65681868Y-46446893D01*
X65667253Y-46466599D01*
X65650777Y-46484777D01*
X65632599Y-46501253D01*
X65612893Y-46515868D01*
X65591850Y-46528480D01*
X65569671Y-46538970D01*
X65546572Y-46547235D01*
X65522773Y-46553196D01*
X65498505Y-46556796D01*
X65474001Y-46558000D01*
X64573999Y-46558000D01*
X64549495Y-46556796D01*
X64525227Y-46553196D01*
X64501428Y-46547235D01*
X64478329Y-46538970D01*
X64456150Y-46528480D01*
X64435107Y-46515868D01*
X64415401Y-46501253D01*
X64397223Y-46484777D01*
X64380747Y-46466599D01*
X64366132Y-46446893D01*
X64353520Y-46425850D01*
X64343030Y-46403671D01*
X64334765Y-46380572D01*
X64328804Y-46356773D01*
X64325204Y-46332505D01*
X64324000Y-46308001D01*
X64324000Y-45657999D01*
X64325204Y-45633495D01*
X64328804Y-45609227D01*
X64334765Y-45585428D01*
X64343030Y-45562329D01*
X64353520Y-45540150D01*
X64366132Y-45519107D01*
X64380747Y-45499401D01*
X64397223Y-45481223D01*
X64415401Y-45464747D01*
X64435107Y-45450132D01*
X64456150Y-45437520D01*
X64478329Y-45427030D01*
X64501428Y-45418765D01*
X64525227Y-45412804D01*
X64549495Y-45409204D01*
X64573999Y-45408000D01*
X65474001Y-45408000D01*
X65498505Y-45409204D01*
X65498505Y-45409204D01*
G37*
D11*
X65024000Y-45983000D03*
D10*
G36*
X65498505Y-43359204D02*
X65522773Y-43362804D01*
X65546572Y-43368765D01*
X65569671Y-43377030D01*
X65591850Y-43387520D01*
X65612893Y-43400132D01*
X65632599Y-43414747D01*
X65650777Y-43431223D01*
X65667253Y-43449401D01*
X65681868Y-43469107D01*
X65694480Y-43490150D01*
X65704970Y-43512329D01*
X65713235Y-43535428D01*
X65719196Y-43559227D01*
X65722796Y-43583495D01*
X65724000Y-43607999D01*
X65724000Y-44258001D01*
X65722796Y-44282505D01*
X65719196Y-44306773D01*
X65713235Y-44330572D01*
X65704970Y-44353671D01*
X65694480Y-44375850D01*
X65681868Y-44396893D01*
X65667253Y-44416599D01*
X65650777Y-44434777D01*
X65632599Y-44451253D01*
X65612893Y-44465868D01*
X65591850Y-44478480D01*
X65569671Y-44488970D01*
X65546572Y-44497235D01*
X65522773Y-44503196D01*
X65498505Y-44506796D01*
X65474001Y-44508000D01*
X64573999Y-44508000D01*
X64549495Y-44506796D01*
X64525227Y-44503196D01*
X64501428Y-44497235D01*
X64478329Y-44488970D01*
X64456150Y-44478480D01*
X64435107Y-44465868D01*
X64415401Y-44451253D01*
X64397223Y-44434777D01*
X64380747Y-44416599D01*
X64366132Y-44396893D01*
X64353520Y-44375850D01*
X64343030Y-44353671D01*
X64334765Y-44330572D01*
X64328804Y-44306773D01*
X64325204Y-44282505D01*
X64324000Y-44258001D01*
X64324000Y-43607999D01*
X64325204Y-43583495D01*
X64328804Y-43559227D01*
X64334765Y-43535428D01*
X64343030Y-43512329D01*
X64353520Y-43490150D01*
X64366132Y-43469107D01*
X64380747Y-43449401D01*
X64397223Y-43431223D01*
X64415401Y-43414747D01*
X64435107Y-43400132D01*
X64456150Y-43387520D01*
X64478329Y-43377030D01*
X64501428Y-43368765D01*
X64525227Y-43362804D01*
X64549495Y-43359204D01*
X64573999Y-43358000D01*
X65474001Y-43358000D01*
X65498505Y-43359204D01*
X65498505Y-43359204D01*
G37*
D11*
X65024000Y-43933000D03*
G04 #@! TD*
D10*
G04 #@! TO.C,C5*
G36*
X66491105Y-48120004D02*
X66515373Y-48123604D01*
X66539172Y-48129565D01*
X66562271Y-48137830D01*
X66584450Y-48148320D01*
X66605493Y-48160932D01*
X66625199Y-48175547D01*
X66643377Y-48192023D01*
X66659853Y-48210201D01*
X66674468Y-48229907D01*
X66687080Y-48250950D01*
X66697570Y-48273129D01*
X66705835Y-48296228D01*
X66711796Y-48320027D01*
X66715396Y-48344295D01*
X66716600Y-48368799D01*
X66716600Y-49268801D01*
X66715396Y-49293305D01*
X66711796Y-49317573D01*
X66705835Y-49341372D01*
X66697570Y-49364471D01*
X66687080Y-49386650D01*
X66674468Y-49407693D01*
X66659853Y-49427399D01*
X66643377Y-49445577D01*
X66625199Y-49462053D01*
X66605493Y-49476668D01*
X66584450Y-49489280D01*
X66562271Y-49499770D01*
X66539172Y-49508035D01*
X66515373Y-49513996D01*
X66491105Y-49517596D01*
X66466601Y-49518800D01*
X65816599Y-49518800D01*
X65792095Y-49517596D01*
X65767827Y-49513996D01*
X65744028Y-49508035D01*
X65720929Y-49499770D01*
X65698750Y-49489280D01*
X65677707Y-49476668D01*
X65658001Y-49462053D01*
X65639823Y-49445577D01*
X65623347Y-49427399D01*
X65608732Y-49407693D01*
X65596120Y-49386650D01*
X65585630Y-49364471D01*
X65577365Y-49341372D01*
X65571404Y-49317573D01*
X65567804Y-49293305D01*
X65566600Y-49268801D01*
X65566600Y-48368799D01*
X65567804Y-48344295D01*
X65571404Y-48320027D01*
X65577365Y-48296228D01*
X65585630Y-48273129D01*
X65596120Y-48250950D01*
X65608732Y-48229907D01*
X65623347Y-48210201D01*
X65639823Y-48192023D01*
X65658001Y-48175547D01*
X65677707Y-48160932D01*
X65698750Y-48148320D01*
X65720929Y-48137830D01*
X65744028Y-48129565D01*
X65767827Y-48123604D01*
X65792095Y-48120004D01*
X65816599Y-48118800D01*
X66466601Y-48118800D01*
X66491105Y-48120004D01*
X66491105Y-48120004D01*
G37*
D11*
X66141600Y-48818800D03*
D10*
G36*
X68541105Y-48120004D02*
X68565373Y-48123604D01*
X68589172Y-48129565D01*
X68612271Y-48137830D01*
X68634450Y-48148320D01*
X68655493Y-48160932D01*
X68675199Y-48175547D01*
X68693377Y-48192023D01*
X68709853Y-48210201D01*
X68724468Y-48229907D01*
X68737080Y-48250950D01*
X68747570Y-48273129D01*
X68755835Y-48296228D01*
X68761796Y-48320027D01*
X68765396Y-48344295D01*
X68766600Y-48368799D01*
X68766600Y-49268801D01*
X68765396Y-49293305D01*
X68761796Y-49317573D01*
X68755835Y-49341372D01*
X68747570Y-49364471D01*
X68737080Y-49386650D01*
X68724468Y-49407693D01*
X68709853Y-49427399D01*
X68693377Y-49445577D01*
X68675199Y-49462053D01*
X68655493Y-49476668D01*
X68634450Y-49489280D01*
X68612271Y-49499770D01*
X68589172Y-49508035D01*
X68565373Y-49513996D01*
X68541105Y-49517596D01*
X68516601Y-49518800D01*
X67866599Y-49518800D01*
X67842095Y-49517596D01*
X67817827Y-49513996D01*
X67794028Y-49508035D01*
X67770929Y-49499770D01*
X67748750Y-49489280D01*
X67727707Y-49476668D01*
X67708001Y-49462053D01*
X67689823Y-49445577D01*
X67673347Y-49427399D01*
X67658732Y-49407693D01*
X67646120Y-49386650D01*
X67635630Y-49364471D01*
X67627365Y-49341372D01*
X67621404Y-49317573D01*
X67617804Y-49293305D01*
X67616600Y-49268801D01*
X67616600Y-48368799D01*
X67617804Y-48344295D01*
X67621404Y-48320027D01*
X67627365Y-48296228D01*
X67635630Y-48273129D01*
X67646120Y-48250950D01*
X67658732Y-48229907D01*
X67673347Y-48210201D01*
X67689823Y-48192023D01*
X67708001Y-48175547D01*
X67727707Y-48160932D01*
X67748750Y-48148320D01*
X67770929Y-48137830D01*
X67794028Y-48129565D01*
X67817827Y-48123604D01*
X67842095Y-48120004D01*
X67866599Y-48118800D01*
X68516601Y-48118800D01*
X68541105Y-48120004D01*
X68541105Y-48120004D01*
G37*
D11*
X68191600Y-48818800D03*
G04 #@! TD*
D10*
G04 #@! TO.C,C6*
G36*
X67022505Y-32963204D02*
X67046773Y-32966804D01*
X67070572Y-32972765D01*
X67093671Y-32981030D01*
X67115850Y-32991520D01*
X67136893Y-33004132D01*
X67156599Y-33018747D01*
X67174777Y-33035223D01*
X67191253Y-33053401D01*
X67205868Y-33073107D01*
X67218480Y-33094150D01*
X67228970Y-33116329D01*
X67237235Y-33139428D01*
X67243196Y-33163227D01*
X67246796Y-33187495D01*
X67248000Y-33211999D01*
X67248000Y-33862001D01*
X67246796Y-33886505D01*
X67243196Y-33910773D01*
X67237235Y-33934572D01*
X67228970Y-33957671D01*
X67218480Y-33979850D01*
X67205868Y-34000893D01*
X67191253Y-34020599D01*
X67174777Y-34038777D01*
X67156599Y-34055253D01*
X67136893Y-34069868D01*
X67115850Y-34082480D01*
X67093671Y-34092970D01*
X67070572Y-34101235D01*
X67046773Y-34107196D01*
X67022505Y-34110796D01*
X66998001Y-34112000D01*
X66097999Y-34112000D01*
X66073495Y-34110796D01*
X66049227Y-34107196D01*
X66025428Y-34101235D01*
X66002329Y-34092970D01*
X65980150Y-34082480D01*
X65959107Y-34069868D01*
X65939401Y-34055253D01*
X65921223Y-34038777D01*
X65904747Y-34020599D01*
X65890132Y-34000893D01*
X65877520Y-33979850D01*
X65867030Y-33957671D01*
X65858765Y-33934572D01*
X65852804Y-33910773D01*
X65849204Y-33886505D01*
X65848000Y-33862001D01*
X65848000Y-33211999D01*
X65849204Y-33187495D01*
X65852804Y-33163227D01*
X65858765Y-33139428D01*
X65867030Y-33116329D01*
X65877520Y-33094150D01*
X65890132Y-33073107D01*
X65904747Y-33053401D01*
X65921223Y-33035223D01*
X65939401Y-33018747D01*
X65959107Y-33004132D01*
X65980150Y-32991520D01*
X66002329Y-32981030D01*
X66025428Y-32972765D01*
X66049227Y-32966804D01*
X66073495Y-32963204D01*
X66097999Y-32962000D01*
X66998001Y-32962000D01*
X67022505Y-32963204D01*
X67022505Y-32963204D01*
G37*
D11*
X66548000Y-33537000D03*
D10*
G36*
X67022505Y-30913204D02*
X67046773Y-30916804D01*
X67070572Y-30922765D01*
X67093671Y-30931030D01*
X67115850Y-30941520D01*
X67136893Y-30954132D01*
X67156599Y-30968747D01*
X67174777Y-30985223D01*
X67191253Y-31003401D01*
X67205868Y-31023107D01*
X67218480Y-31044150D01*
X67228970Y-31066329D01*
X67237235Y-31089428D01*
X67243196Y-31113227D01*
X67246796Y-31137495D01*
X67248000Y-31161999D01*
X67248000Y-31812001D01*
X67246796Y-31836505D01*
X67243196Y-31860773D01*
X67237235Y-31884572D01*
X67228970Y-31907671D01*
X67218480Y-31929850D01*
X67205868Y-31950893D01*
X67191253Y-31970599D01*
X67174777Y-31988777D01*
X67156599Y-32005253D01*
X67136893Y-32019868D01*
X67115850Y-32032480D01*
X67093671Y-32042970D01*
X67070572Y-32051235D01*
X67046773Y-32057196D01*
X67022505Y-32060796D01*
X66998001Y-32062000D01*
X66097999Y-32062000D01*
X66073495Y-32060796D01*
X66049227Y-32057196D01*
X66025428Y-32051235D01*
X66002329Y-32042970D01*
X65980150Y-32032480D01*
X65959107Y-32019868D01*
X65939401Y-32005253D01*
X65921223Y-31988777D01*
X65904747Y-31970599D01*
X65890132Y-31950893D01*
X65877520Y-31929850D01*
X65867030Y-31907671D01*
X65858765Y-31884572D01*
X65852804Y-31860773D01*
X65849204Y-31836505D01*
X65848000Y-31812001D01*
X65848000Y-31161999D01*
X65849204Y-31137495D01*
X65852804Y-31113227D01*
X65858765Y-31089428D01*
X65867030Y-31066329D01*
X65877520Y-31044150D01*
X65890132Y-31023107D01*
X65904747Y-31003401D01*
X65921223Y-30985223D01*
X65939401Y-30968747D01*
X65959107Y-30954132D01*
X65980150Y-30941520D01*
X66002329Y-30931030D01*
X66025428Y-30922765D01*
X66049227Y-30916804D01*
X66073495Y-30913204D01*
X66097999Y-30912000D01*
X66998001Y-30912000D01*
X67022505Y-30913204D01*
X67022505Y-30913204D01*
G37*
D11*
X66548000Y-31487000D03*
G04 #@! TD*
D10*
G04 #@! TO.C,C7*
G36*
X62958505Y-45409204D02*
X62982773Y-45412804D01*
X63006572Y-45418765D01*
X63029671Y-45427030D01*
X63051850Y-45437520D01*
X63072893Y-45450132D01*
X63092599Y-45464747D01*
X63110777Y-45481223D01*
X63127253Y-45499401D01*
X63141868Y-45519107D01*
X63154480Y-45540150D01*
X63164970Y-45562329D01*
X63173235Y-45585428D01*
X63179196Y-45609227D01*
X63182796Y-45633495D01*
X63184000Y-45657999D01*
X63184000Y-46308001D01*
X63182796Y-46332505D01*
X63179196Y-46356773D01*
X63173235Y-46380572D01*
X63164970Y-46403671D01*
X63154480Y-46425850D01*
X63141868Y-46446893D01*
X63127253Y-46466599D01*
X63110777Y-46484777D01*
X63092599Y-46501253D01*
X63072893Y-46515868D01*
X63051850Y-46528480D01*
X63029671Y-46538970D01*
X63006572Y-46547235D01*
X62982773Y-46553196D01*
X62958505Y-46556796D01*
X62934001Y-46558000D01*
X62033999Y-46558000D01*
X62009495Y-46556796D01*
X61985227Y-46553196D01*
X61961428Y-46547235D01*
X61938329Y-46538970D01*
X61916150Y-46528480D01*
X61895107Y-46515868D01*
X61875401Y-46501253D01*
X61857223Y-46484777D01*
X61840747Y-46466599D01*
X61826132Y-46446893D01*
X61813520Y-46425850D01*
X61803030Y-46403671D01*
X61794765Y-46380572D01*
X61788804Y-46356773D01*
X61785204Y-46332505D01*
X61784000Y-46308001D01*
X61784000Y-45657999D01*
X61785204Y-45633495D01*
X61788804Y-45609227D01*
X61794765Y-45585428D01*
X61803030Y-45562329D01*
X61813520Y-45540150D01*
X61826132Y-45519107D01*
X61840747Y-45499401D01*
X61857223Y-45481223D01*
X61875401Y-45464747D01*
X61895107Y-45450132D01*
X61916150Y-45437520D01*
X61938329Y-45427030D01*
X61961428Y-45418765D01*
X61985227Y-45412804D01*
X62009495Y-45409204D01*
X62033999Y-45408000D01*
X62934001Y-45408000D01*
X62958505Y-45409204D01*
X62958505Y-45409204D01*
G37*
D11*
X62484000Y-45983000D03*
D10*
G36*
X62958505Y-43359204D02*
X62982773Y-43362804D01*
X63006572Y-43368765D01*
X63029671Y-43377030D01*
X63051850Y-43387520D01*
X63072893Y-43400132D01*
X63092599Y-43414747D01*
X63110777Y-43431223D01*
X63127253Y-43449401D01*
X63141868Y-43469107D01*
X63154480Y-43490150D01*
X63164970Y-43512329D01*
X63173235Y-43535428D01*
X63179196Y-43559227D01*
X63182796Y-43583495D01*
X63184000Y-43607999D01*
X63184000Y-44258001D01*
X63182796Y-44282505D01*
X63179196Y-44306773D01*
X63173235Y-44330572D01*
X63164970Y-44353671D01*
X63154480Y-44375850D01*
X63141868Y-44396893D01*
X63127253Y-44416599D01*
X63110777Y-44434777D01*
X63092599Y-44451253D01*
X63072893Y-44465868D01*
X63051850Y-44478480D01*
X63029671Y-44488970D01*
X63006572Y-44497235D01*
X62982773Y-44503196D01*
X62958505Y-44506796D01*
X62934001Y-44508000D01*
X62033999Y-44508000D01*
X62009495Y-44506796D01*
X61985227Y-44503196D01*
X61961428Y-44497235D01*
X61938329Y-44488970D01*
X61916150Y-44478480D01*
X61895107Y-44465868D01*
X61875401Y-44451253D01*
X61857223Y-44434777D01*
X61840747Y-44416599D01*
X61826132Y-44396893D01*
X61813520Y-44375850D01*
X61803030Y-44353671D01*
X61794765Y-44330572D01*
X61788804Y-44306773D01*
X61785204Y-44282505D01*
X61784000Y-44258001D01*
X61784000Y-43607999D01*
X61785204Y-43583495D01*
X61788804Y-43559227D01*
X61794765Y-43535428D01*
X61803030Y-43512329D01*
X61813520Y-43490150D01*
X61826132Y-43469107D01*
X61840747Y-43449401D01*
X61857223Y-43431223D01*
X61875401Y-43414747D01*
X61895107Y-43400132D01*
X61916150Y-43387520D01*
X61938329Y-43377030D01*
X61961428Y-43368765D01*
X61985227Y-43362804D01*
X62009495Y-43359204D01*
X62033999Y-43358000D01*
X62934001Y-43358000D01*
X62958505Y-43359204D01*
X62958505Y-43359204D01*
G37*
D11*
X62484000Y-43933000D03*
G04 #@! TD*
D10*
G04 #@! TO.C,C8*
G36*
X72554305Y-48120004D02*
X72578573Y-48123604D01*
X72602372Y-48129565D01*
X72625471Y-48137830D01*
X72647650Y-48148320D01*
X72668693Y-48160932D01*
X72688399Y-48175547D01*
X72706577Y-48192023D01*
X72723053Y-48210201D01*
X72737668Y-48229907D01*
X72750280Y-48250950D01*
X72760770Y-48273129D01*
X72769035Y-48296228D01*
X72774996Y-48320027D01*
X72778596Y-48344295D01*
X72779800Y-48368799D01*
X72779800Y-49268801D01*
X72778596Y-49293305D01*
X72774996Y-49317573D01*
X72769035Y-49341372D01*
X72760770Y-49364471D01*
X72750280Y-49386650D01*
X72737668Y-49407693D01*
X72723053Y-49427399D01*
X72706577Y-49445577D01*
X72688399Y-49462053D01*
X72668693Y-49476668D01*
X72647650Y-49489280D01*
X72625471Y-49499770D01*
X72602372Y-49508035D01*
X72578573Y-49513996D01*
X72554305Y-49517596D01*
X72529801Y-49518800D01*
X71879799Y-49518800D01*
X71855295Y-49517596D01*
X71831027Y-49513996D01*
X71807228Y-49508035D01*
X71784129Y-49499770D01*
X71761950Y-49489280D01*
X71740907Y-49476668D01*
X71721201Y-49462053D01*
X71703023Y-49445577D01*
X71686547Y-49427399D01*
X71671932Y-49407693D01*
X71659320Y-49386650D01*
X71648830Y-49364471D01*
X71640565Y-49341372D01*
X71634604Y-49317573D01*
X71631004Y-49293305D01*
X71629800Y-49268801D01*
X71629800Y-48368799D01*
X71631004Y-48344295D01*
X71634604Y-48320027D01*
X71640565Y-48296228D01*
X71648830Y-48273129D01*
X71659320Y-48250950D01*
X71671932Y-48229907D01*
X71686547Y-48210201D01*
X71703023Y-48192023D01*
X71721201Y-48175547D01*
X71740907Y-48160932D01*
X71761950Y-48148320D01*
X71784129Y-48137830D01*
X71807228Y-48129565D01*
X71831027Y-48123604D01*
X71855295Y-48120004D01*
X71879799Y-48118800D01*
X72529801Y-48118800D01*
X72554305Y-48120004D01*
X72554305Y-48120004D01*
G37*
D11*
X72204800Y-48818800D03*
D10*
G36*
X70504305Y-48120004D02*
X70528573Y-48123604D01*
X70552372Y-48129565D01*
X70575471Y-48137830D01*
X70597650Y-48148320D01*
X70618693Y-48160932D01*
X70638399Y-48175547D01*
X70656577Y-48192023D01*
X70673053Y-48210201D01*
X70687668Y-48229907D01*
X70700280Y-48250950D01*
X70710770Y-48273129D01*
X70719035Y-48296228D01*
X70724996Y-48320027D01*
X70728596Y-48344295D01*
X70729800Y-48368799D01*
X70729800Y-49268801D01*
X70728596Y-49293305D01*
X70724996Y-49317573D01*
X70719035Y-49341372D01*
X70710770Y-49364471D01*
X70700280Y-49386650D01*
X70687668Y-49407693D01*
X70673053Y-49427399D01*
X70656577Y-49445577D01*
X70638399Y-49462053D01*
X70618693Y-49476668D01*
X70597650Y-49489280D01*
X70575471Y-49499770D01*
X70552372Y-49508035D01*
X70528573Y-49513996D01*
X70504305Y-49517596D01*
X70479801Y-49518800D01*
X69829799Y-49518800D01*
X69805295Y-49517596D01*
X69781027Y-49513996D01*
X69757228Y-49508035D01*
X69734129Y-49499770D01*
X69711950Y-49489280D01*
X69690907Y-49476668D01*
X69671201Y-49462053D01*
X69653023Y-49445577D01*
X69636547Y-49427399D01*
X69621932Y-49407693D01*
X69609320Y-49386650D01*
X69598830Y-49364471D01*
X69590565Y-49341372D01*
X69584604Y-49317573D01*
X69581004Y-49293305D01*
X69579800Y-49268801D01*
X69579800Y-48368799D01*
X69581004Y-48344295D01*
X69584604Y-48320027D01*
X69590565Y-48296228D01*
X69598830Y-48273129D01*
X69609320Y-48250950D01*
X69621932Y-48229907D01*
X69636547Y-48210201D01*
X69653023Y-48192023D01*
X69671201Y-48175547D01*
X69690907Y-48160932D01*
X69711950Y-48148320D01*
X69734129Y-48137830D01*
X69757228Y-48129565D01*
X69781027Y-48123604D01*
X69805295Y-48120004D01*
X69829799Y-48118800D01*
X70479801Y-48118800D01*
X70504305Y-48120004D01*
X70504305Y-48120004D01*
G37*
D11*
X70154800Y-48818800D03*
G04 #@! TD*
D10*
G04 #@! TO.C,C9*
G36*
X73563005Y-27908704D02*
X73587273Y-27912304D01*
X73611072Y-27918265D01*
X73634171Y-27926530D01*
X73656350Y-27937020D01*
X73677393Y-27949632D01*
X73697099Y-27964247D01*
X73715277Y-27980723D01*
X73731753Y-27998901D01*
X73746368Y-28018607D01*
X73758980Y-28039650D01*
X73769470Y-28061829D01*
X73777735Y-28084928D01*
X73783696Y-28108727D01*
X73787296Y-28132995D01*
X73788500Y-28157499D01*
X73788500Y-28807501D01*
X73787296Y-28832005D01*
X73783696Y-28856273D01*
X73777735Y-28880072D01*
X73769470Y-28903171D01*
X73758980Y-28925350D01*
X73746368Y-28946393D01*
X73731753Y-28966099D01*
X73715277Y-28984277D01*
X73697099Y-29000753D01*
X73677393Y-29015368D01*
X73656350Y-29027980D01*
X73634171Y-29038470D01*
X73611072Y-29046735D01*
X73587273Y-29052696D01*
X73563005Y-29056296D01*
X73538501Y-29057500D01*
X72638499Y-29057500D01*
X72613995Y-29056296D01*
X72589727Y-29052696D01*
X72565928Y-29046735D01*
X72542829Y-29038470D01*
X72520650Y-29027980D01*
X72499607Y-29015368D01*
X72479901Y-29000753D01*
X72461723Y-28984277D01*
X72445247Y-28966099D01*
X72430632Y-28946393D01*
X72418020Y-28925350D01*
X72407530Y-28903171D01*
X72399265Y-28880072D01*
X72393304Y-28856273D01*
X72389704Y-28832005D01*
X72388500Y-28807501D01*
X72388500Y-28157499D01*
X72389704Y-28132995D01*
X72393304Y-28108727D01*
X72399265Y-28084928D01*
X72407530Y-28061829D01*
X72418020Y-28039650D01*
X72430632Y-28018607D01*
X72445247Y-27998901D01*
X72461723Y-27980723D01*
X72479901Y-27964247D01*
X72499607Y-27949632D01*
X72520650Y-27937020D01*
X72542829Y-27926530D01*
X72565928Y-27918265D01*
X72589727Y-27912304D01*
X72613995Y-27908704D01*
X72638499Y-27907500D01*
X73538501Y-27907500D01*
X73563005Y-27908704D01*
X73563005Y-27908704D01*
G37*
D11*
X73088500Y-28482500D03*
D10*
G36*
X73563005Y-29958704D02*
X73587273Y-29962304D01*
X73611072Y-29968265D01*
X73634171Y-29976530D01*
X73656350Y-29987020D01*
X73677393Y-29999632D01*
X73697099Y-30014247D01*
X73715277Y-30030723D01*
X73731753Y-30048901D01*
X73746368Y-30068607D01*
X73758980Y-30089650D01*
X73769470Y-30111829D01*
X73777735Y-30134928D01*
X73783696Y-30158727D01*
X73787296Y-30182995D01*
X73788500Y-30207499D01*
X73788500Y-30857501D01*
X73787296Y-30882005D01*
X73783696Y-30906273D01*
X73777735Y-30930072D01*
X73769470Y-30953171D01*
X73758980Y-30975350D01*
X73746368Y-30996393D01*
X73731753Y-31016099D01*
X73715277Y-31034277D01*
X73697099Y-31050753D01*
X73677393Y-31065368D01*
X73656350Y-31077980D01*
X73634171Y-31088470D01*
X73611072Y-31096735D01*
X73587273Y-31102696D01*
X73563005Y-31106296D01*
X73538501Y-31107500D01*
X72638499Y-31107500D01*
X72613995Y-31106296D01*
X72589727Y-31102696D01*
X72565928Y-31096735D01*
X72542829Y-31088470D01*
X72520650Y-31077980D01*
X72499607Y-31065368D01*
X72479901Y-31050753D01*
X72461723Y-31034277D01*
X72445247Y-31016099D01*
X72430632Y-30996393D01*
X72418020Y-30975350D01*
X72407530Y-30953171D01*
X72399265Y-30930072D01*
X72393304Y-30906273D01*
X72389704Y-30882005D01*
X72388500Y-30857501D01*
X72388500Y-30207499D01*
X72389704Y-30182995D01*
X72393304Y-30158727D01*
X72399265Y-30134928D01*
X72407530Y-30111829D01*
X72418020Y-30089650D01*
X72430632Y-30068607D01*
X72445247Y-30048901D01*
X72461723Y-30030723D01*
X72479901Y-30014247D01*
X72499607Y-29999632D01*
X72520650Y-29987020D01*
X72542829Y-29976530D01*
X72565928Y-29968265D01*
X72589727Y-29962304D01*
X72613995Y-29958704D01*
X72638499Y-29957500D01*
X73538501Y-29957500D01*
X73563005Y-29958704D01*
X73563005Y-29958704D01*
G37*
D11*
X73088500Y-30532500D03*
G04 #@! TD*
D10*
G04 #@! TO.C,C10*
G36*
X28617879Y-38197644D02*
X28640934Y-38201063D01*
X28663543Y-38206727D01*
X28685487Y-38214579D01*
X28706557Y-38224544D01*
X28726548Y-38236526D01*
X28745268Y-38250410D01*
X28762538Y-38266062D01*
X28778190Y-38283332D01*
X28792074Y-38302052D01*
X28804056Y-38322043D01*
X28814021Y-38343113D01*
X28821873Y-38365057D01*
X28827537Y-38387666D01*
X28830956Y-38410721D01*
X28832100Y-38434000D01*
X28832100Y-38909000D01*
X28830956Y-38932279D01*
X28827537Y-38955334D01*
X28821873Y-38977943D01*
X28814021Y-38999887D01*
X28804056Y-39020957D01*
X28792074Y-39040948D01*
X28778190Y-39059668D01*
X28762538Y-39076938D01*
X28745268Y-39092590D01*
X28726548Y-39106474D01*
X28706557Y-39118456D01*
X28685487Y-39128421D01*
X28663543Y-39136273D01*
X28640934Y-39141937D01*
X28617879Y-39145356D01*
X28594600Y-39146500D01*
X28019600Y-39146500D01*
X27996321Y-39145356D01*
X27973266Y-39141937D01*
X27950657Y-39136273D01*
X27928713Y-39128421D01*
X27907643Y-39118456D01*
X27887652Y-39106474D01*
X27868932Y-39092590D01*
X27851662Y-39076938D01*
X27836010Y-39059668D01*
X27822126Y-39040948D01*
X27810144Y-39020957D01*
X27800179Y-38999887D01*
X27792327Y-38977943D01*
X27786663Y-38955334D01*
X27783244Y-38932279D01*
X27782100Y-38909000D01*
X27782100Y-38434000D01*
X27783244Y-38410721D01*
X27786663Y-38387666D01*
X27792327Y-38365057D01*
X27800179Y-38343113D01*
X27810144Y-38322043D01*
X27822126Y-38302052D01*
X27836010Y-38283332D01*
X27851662Y-38266062D01*
X27868932Y-38250410D01*
X27887652Y-38236526D01*
X27907643Y-38224544D01*
X27928713Y-38214579D01*
X27950657Y-38206727D01*
X27973266Y-38201063D01*
X27996321Y-38197644D01*
X28019600Y-38196500D01*
X28594600Y-38196500D01*
X28617879Y-38197644D01*
X28617879Y-38197644D01*
G37*
D12*
X28307100Y-38671500D03*
D10*
G36*
X30367879Y-38197644D02*
X30390934Y-38201063D01*
X30413543Y-38206727D01*
X30435487Y-38214579D01*
X30456557Y-38224544D01*
X30476548Y-38236526D01*
X30495268Y-38250410D01*
X30512538Y-38266062D01*
X30528190Y-38283332D01*
X30542074Y-38302052D01*
X30554056Y-38322043D01*
X30564021Y-38343113D01*
X30571873Y-38365057D01*
X30577537Y-38387666D01*
X30580956Y-38410721D01*
X30582100Y-38434000D01*
X30582100Y-38909000D01*
X30580956Y-38932279D01*
X30577537Y-38955334D01*
X30571873Y-38977943D01*
X30564021Y-38999887D01*
X30554056Y-39020957D01*
X30542074Y-39040948D01*
X30528190Y-39059668D01*
X30512538Y-39076938D01*
X30495268Y-39092590D01*
X30476548Y-39106474D01*
X30456557Y-39118456D01*
X30435487Y-39128421D01*
X30413543Y-39136273D01*
X30390934Y-39141937D01*
X30367879Y-39145356D01*
X30344600Y-39146500D01*
X29769600Y-39146500D01*
X29746321Y-39145356D01*
X29723266Y-39141937D01*
X29700657Y-39136273D01*
X29678713Y-39128421D01*
X29657643Y-39118456D01*
X29637652Y-39106474D01*
X29618932Y-39092590D01*
X29601662Y-39076938D01*
X29586010Y-39059668D01*
X29572126Y-39040948D01*
X29560144Y-39020957D01*
X29550179Y-38999887D01*
X29542327Y-38977943D01*
X29536663Y-38955334D01*
X29533244Y-38932279D01*
X29532100Y-38909000D01*
X29532100Y-38434000D01*
X29533244Y-38410721D01*
X29536663Y-38387666D01*
X29542327Y-38365057D01*
X29550179Y-38343113D01*
X29560144Y-38322043D01*
X29572126Y-38302052D01*
X29586010Y-38283332D01*
X29601662Y-38266062D01*
X29618932Y-38250410D01*
X29637652Y-38236526D01*
X29657643Y-38224544D01*
X29678713Y-38214579D01*
X29700657Y-38206727D01*
X29723266Y-38201063D01*
X29746321Y-38197644D01*
X29769600Y-38196500D01*
X30344600Y-38196500D01*
X30367879Y-38197644D01*
X30367879Y-38197644D01*
G37*
D12*
X30057100Y-38671500D03*
G04 #@! TD*
D10*
G04 #@! TO.C,C11*
G36*
X40515905Y-38417204D02*
X40540173Y-38420804D01*
X40563972Y-38426765D01*
X40587071Y-38435030D01*
X40609250Y-38445520D01*
X40630293Y-38458132D01*
X40649999Y-38472747D01*
X40668177Y-38489223D01*
X40684653Y-38507401D01*
X40699268Y-38527107D01*
X40711880Y-38548150D01*
X40722370Y-38570329D01*
X40730635Y-38593428D01*
X40736596Y-38617227D01*
X40740196Y-38641495D01*
X40741400Y-38665999D01*
X40741400Y-39566001D01*
X40740196Y-39590505D01*
X40736596Y-39614773D01*
X40730635Y-39638572D01*
X40722370Y-39661671D01*
X40711880Y-39683850D01*
X40699268Y-39704893D01*
X40684653Y-39724599D01*
X40668177Y-39742777D01*
X40649999Y-39759253D01*
X40630293Y-39773868D01*
X40609250Y-39786480D01*
X40587071Y-39796970D01*
X40563972Y-39805235D01*
X40540173Y-39811196D01*
X40515905Y-39814796D01*
X40491401Y-39816000D01*
X39841399Y-39816000D01*
X39816895Y-39814796D01*
X39792627Y-39811196D01*
X39768828Y-39805235D01*
X39745729Y-39796970D01*
X39723550Y-39786480D01*
X39702507Y-39773868D01*
X39682801Y-39759253D01*
X39664623Y-39742777D01*
X39648147Y-39724599D01*
X39633532Y-39704893D01*
X39620920Y-39683850D01*
X39610430Y-39661671D01*
X39602165Y-39638572D01*
X39596204Y-39614773D01*
X39592604Y-39590505D01*
X39591400Y-39566001D01*
X39591400Y-38665999D01*
X39592604Y-38641495D01*
X39596204Y-38617227D01*
X39602165Y-38593428D01*
X39610430Y-38570329D01*
X39620920Y-38548150D01*
X39633532Y-38527107D01*
X39648147Y-38507401D01*
X39664623Y-38489223D01*
X39682801Y-38472747D01*
X39702507Y-38458132D01*
X39723550Y-38445520D01*
X39745729Y-38435030D01*
X39768828Y-38426765D01*
X39792627Y-38420804D01*
X39816895Y-38417204D01*
X39841399Y-38416000D01*
X40491401Y-38416000D01*
X40515905Y-38417204D01*
X40515905Y-38417204D01*
G37*
D11*
X40166400Y-39116000D03*
D10*
G36*
X38465905Y-38417204D02*
X38490173Y-38420804D01*
X38513972Y-38426765D01*
X38537071Y-38435030D01*
X38559250Y-38445520D01*
X38580293Y-38458132D01*
X38599999Y-38472747D01*
X38618177Y-38489223D01*
X38634653Y-38507401D01*
X38649268Y-38527107D01*
X38661880Y-38548150D01*
X38672370Y-38570329D01*
X38680635Y-38593428D01*
X38686596Y-38617227D01*
X38690196Y-38641495D01*
X38691400Y-38665999D01*
X38691400Y-39566001D01*
X38690196Y-39590505D01*
X38686596Y-39614773D01*
X38680635Y-39638572D01*
X38672370Y-39661671D01*
X38661880Y-39683850D01*
X38649268Y-39704893D01*
X38634653Y-39724599D01*
X38618177Y-39742777D01*
X38599999Y-39759253D01*
X38580293Y-39773868D01*
X38559250Y-39786480D01*
X38537071Y-39796970D01*
X38513972Y-39805235D01*
X38490173Y-39811196D01*
X38465905Y-39814796D01*
X38441401Y-39816000D01*
X37791399Y-39816000D01*
X37766895Y-39814796D01*
X37742627Y-39811196D01*
X37718828Y-39805235D01*
X37695729Y-39796970D01*
X37673550Y-39786480D01*
X37652507Y-39773868D01*
X37632801Y-39759253D01*
X37614623Y-39742777D01*
X37598147Y-39724599D01*
X37583532Y-39704893D01*
X37570920Y-39683850D01*
X37560430Y-39661671D01*
X37552165Y-39638572D01*
X37546204Y-39614773D01*
X37542604Y-39590505D01*
X37541400Y-39566001D01*
X37541400Y-38665999D01*
X37542604Y-38641495D01*
X37546204Y-38617227D01*
X37552165Y-38593428D01*
X37560430Y-38570329D01*
X37570920Y-38548150D01*
X37583532Y-38527107D01*
X37598147Y-38507401D01*
X37614623Y-38489223D01*
X37632801Y-38472747D01*
X37652507Y-38458132D01*
X37673550Y-38445520D01*
X37695729Y-38435030D01*
X37718828Y-38426765D01*
X37742627Y-38420804D01*
X37766895Y-38417204D01*
X37791399Y-38416000D01*
X38441401Y-38416000D01*
X38465905Y-38417204D01*
X38465905Y-38417204D01*
G37*
D11*
X38116400Y-39116000D03*
G04 #@! TD*
D10*
G04 #@! TO.C,C12*
G36*
X40515905Y-40703204D02*
X40540173Y-40706804D01*
X40563972Y-40712765D01*
X40587071Y-40721030D01*
X40609250Y-40731520D01*
X40630293Y-40744132D01*
X40649999Y-40758747D01*
X40668177Y-40775223D01*
X40684653Y-40793401D01*
X40699268Y-40813107D01*
X40711880Y-40834150D01*
X40722370Y-40856329D01*
X40730635Y-40879428D01*
X40736596Y-40903227D01*
X40740196Y-40927495D01*
X40741400Y-40951999D01*
X40741400Y-41852001D01*
X40740196Y-41876505D01*
X40736596Y-41900773D01*
X40730635Y-41924572D01*
X40722370Y-41947671D01*
X40711880Y-41969850D01*
X40699268Y-41990893D01*
X40684653Y-42010599D01*
X40668177Y-42028777D01*
X40649999Y-42045253D01*
X40630293Y-42059868D01*
X40609250Y-42072480D01*
X40587071Y-42082970D01*
X40563972Y-42091235D01*
X40540173Y-42097196D01*
X40515905Y-42100796D01*
X40491401Y-42102000D01*
X39841399Y-42102000D01*
X39816895Y-42100796D01*
X39792627Y-42097196D01*
X39768828Y-42091235D01*
X39745729Y-42082970D01*
X39723550Y-42072480D01*
X39702507Y-42059868D01*
X39682801Y-42045253D01*
X39664623Y-42028777D01*
X39648147Y-42010599D01*
X39633532Y-41990893D01*
X39620920Y-41969850D01*
X39610430Y-41947671D01*
X39602165Y-41924572D01*
X39596204Y-41900773D01*
X39592604Y-41876505D01*
X39591400Y-41852001D01*
X39591400Y-40951999D01*
X39592604Y-40927495D01*
X39596204Y-40903227D01*
X39602165Y-40879428D01*
X39610430Y-40856329D01*
X39620920Y-40834150D01*
X39633532Y-40813107D01*
X39648147Y-40793401D01*
X39664623Y-40775223D01*
X39682801Y-40758747D01*
X39702507Y-40744132D01*
X39723550Y-40731520D01*
X39745729Y-40721030D01*
X39768828Y-40712765D01*
X39792627Y-40706804D01*
X39816895Y-40703204D01*
X39841399Y-40702000D01*
X40491401Y-40702000D01*
X40515905Y-40703204D01*
X40515905Y-40703204D01*
G37*
D11*
X40166400Y-41402000D03*
D10*
G36*
X38465905Y-40703204D02*
X38490173Y-40706804D01*
X38513972Y-40712765D01*
X38537071Y-40721030D01*
X38559250Y-40731520D01*
X38580293Y-40744132D01*
X38599999Y-40758747D01*
X38618177Y-40775223D01*
X38634653Y-40793401D01*
X38649268Y-40813107D01*
X38661880Y-40834150D01*
X38672370Y-40856329D01*
X38680635Y-40879428D01*
X38686596Y-40903227D01*
X38690196Y-40927495D01*
X38691400Y-40951999D01*
X38691400Y-41852001D01*
X38690196Y-41876505D01*
X38686596Y-41900773D01*
X38680635Y-41924572D01*
X38672370Y-41947671D01*
X38661880Y-41969850D01*
X38649268Y-41990893D01*
X38634653Y-42010599D01*
X38618177Y-42028777D01*
X38599999Y-42045253D01*
X38580293Y-42059868D01*
X38559250Y-42072480D01*
X38537071Y-42082970D01*
X38513972Y-42091235D01*
X38490173Y-42097196D01*
X38465905Y-42100796D01*
X38441401Y-42102000D01*
X37791399Y-42102000D01*
X37766895Y-42100796D01*
X37742627Y-42097196D01*
X37718828Y-42091235D01*
X37695729Y-42082970D01*
X37673550Y-42072480D01*
X37652507Y-42059868D01*
X37632801Y-42045253D01*
X37614623Y-42028777D01*
X37598147Y-42010599D01*
X37583532Y-41990893D01*
X37570920Y-41969850D01*
X37560430Y-41947671D01*
X37552165Y-41924572D01*
X37546204Y-41900773D01*
X37542604Y-41876505D01*
X37541400Y-41852001D01*
X37541400Y-40951999D01*
X37542604Y-40927495D01*
X37546204Y-40903227D01*
X37552165Y-40879428D01*
X37560430Y-40856329D01*
X37570920Y-40834150D01*
X37583532Y-40813107D01*
X37598147Y-40793401D01*
X37614623Y-40775223D01*
X37632801Y-40758747D01*
X37652507Y-40744132D01*
X37673550Y-40731520D01*
X37695729Y-40721030D01*
X37718828Y-40712765D01*
X37742627Y-40706804D01*
X37766895Y-40703204D01*
X37791399Y-40702000D01*
X38441401Y-40702000D01*
X38465905Y-40703204D01*
X38465905Y-40703204D01*
G37*
D11*
X38116400Y-41402000D03*
G04 #@! TD*
D10*
G04 #@! TO.C,C13*
G36*
X72954779Y-39912144D02*
X72977834Y-39915563D01*
X73000443Y-39921227D01*
X73022387Y-39929079D01*
X73043457Y-39939044D01*
X73063448Y-39951026D01*
X73082168Y-39964910D01*
X73099438Y-39980562D01*
X73115090Y-39997832D01*
X73128974Y-40016552D01*
X73140956Y-40036543D01*
X73150921Y-40057613D01*
X73158773Y-40079557D01*
X73164437Y-40102166D01*
X73167856Y-40125221D01*
X73169000Y-40148500D01*
X73169000Y-40623500D01*
X73167856Y-40646779D01*
X73164437Y-40669834D01*
X73158773Y-40692443D01*
X73150921Y-40714387D01*
X73140956Y-40735457D01*
X73128974Y-40755448D01*
X73115090Y-40774168D01*
X73099438Y-40791438D01*
X73082168Y-40807090D01*
X73063448Y-40820974D01*
X73043457Y-40832956D01*
X73022387Y-40842921D01*
X73000443Y-40850773D01*
X72977834Y-40856437D01*
X72954779Y-40859856D01*
X72931500Y-40861000D01*
X72356500Y-40861000D01*
X72333221Y-40859856D01*
X72310166Y-40856437D01*
X72287557Y-40850773D01*
X72265613Y-40842921D01*
X72244543Y-40832956D01*
X72224552Y-40820974D01*
X72205832Y-40807090D01*
X72188562Y-40791438D01*
X72172910Y-40774168D01*
X72159026Y-40755448D01*
X72147044Y-40735457D01*
X72137079Y-40714387D01*
X72129227Y-40692443D01*
X72123563Y-40669834D01*
X72120144Y-40646779D01*
X72119000Y-40623500D01*
X72119000Y-40148500D01*
X72120144Y-40125221D01*
X72123563Y-40102166D01*
X72129227Y-40079557D01*
X72137079Y-40057613D01*
X72147044Y-40036543D01*
X72159026Y-40016552D01*
X72172910Y-39997832D01*
X72188562Y-39980562D01*
X72205832Y-39964910D01*
X72224552Y-39951026D01*
X72244543Y-39939044D01*
X72265613Y-39929079D01*
X72287557Y-39921227D01*
X72310166Y-39915563D01*
X72333221Y-39912144D01*
X72356500Y-39911000D01*
X72931500Y-39911000D01*
X72954779Y-39912144D01*
X72954779Y-39912144D01*
G37*
D12*
X72644000Y-40386000D03*
D10*
G36*
X71204779Y-39912144D02*
X71227834Y-39915563D01*
X71250443Y-39921227D01*
X71272387Y-39929079D01*
X71293457Y-39939044D01*
X71313448Y-39951026D01*
X71332168Y-39964910D01*
X71349438Y-39980562D01*
X71365090Y-39997832D01*
X71378974Y-40016552D01*
X71390956Y-40036543D01*
X71400921Y-40057613D01*
X71408773Y-40079557D01*
X71414437Y-40102166D01*
X71417856Y-40125221D01*
X71419000Y-40148500D01*
X71419000Y-40623500D01*
X71417856Y-40646779D01*
X71414437Y-40669834D01*
X71408773Y-40692443D01*
X71400921Y-40714387D01*
X71390956Y-40735457D01*
X71378974Y-40755448D01*
X71365090Y-40774168D01*
X71349438Y-40791438D01*
X71332168Y-40807090D01*
X71313448Y-40820974D01*
X71293457Y-40832956D01*
X71272387Y-40842921D01*
X71250443Y-40850773D01*
X71227834Y-40856437D01*
X71204779Y-40859856D01*
X71181500Y-40861000D01*
X70606500Y-40861000D01*
X70583221Y-40859856D01*
X70560166Y-40856437D01*
X70537557Y-40850773D01*
X70515613Y-40842921D01*
X70494543Y-40832956D01*
X70474552Y-40820974D01*
X70455832Y-40807090D01*
X70438562Y-40791438D01*
X70422910Y-40774168D01*
X70409026Y-40755448D01*
X70397044Y-40735457D01*
X70387079Y-40714387D01*
X70379227Y-40692443D01*
X70373563Y-40669834D01*
X70370144Y-40646779D01*
X70369000Y-40623500D01*
X70369000Y-40148500D01*
X70370144Y-40125221D01*
X70373563Y-40102166D01*
X70379227Y-40079557D01*
X70387079Y-40057613D01*
X70397044Y-40036543D01*
X70409026Y-40016552D01*
X70422910Y-39997832D01*
X70438562Y-39980562D01*
X70455832Y-39964910D01*
X70474552Y-39951026D01*
X70494543Y-39939044D01*
X70515613Y-39929079D01*
X70537557Y-39921227D01*
X70560166Y-39915563D01*
X70583221Y-39912144D01*
X70606500Y-39911000D01*
X71181500Y-39911000D01*
X71204779Y-39912144D01*
X71204779Y-39912144D01*
G37*
D12*
X70894000Y-40386000D03*
G04 #@! TD*
D10*
G04 #@! TO.C,C14*
G36*
X74682779Y-39834144D02*
X74705834Y-39837563D01*
X74728443Y-39843227D01*
X74750387Y-39851079D01*
X74771457Y-39861044D01*
X74791448Y-39873026D01*
X74810168Y-39886910D01*
X74827438Y-39902562D01*
X74843090Y-39919832D01*
X74856974Y-39938552D01*
X74868956Y-39958543D01*
X74878921Y-39979613D01*
X74886773Y-40001557D01*
X74892437Y-40024166D01*
X74895856Y-40047221D01*
X74897000Y-40070500D01*
X74897000Y-40645500D01*
X74895856Y-40668779D01*
X74892437Y-40691834D01*
X74886773Y-40714443D01*
X74878921Y-40736387D01*
X74868956Y-40757457D01*
X74856974Y-40777448D01*
X74843090Y-40796168D01*
X74827438Y-40813438D01*
X74810168Y-40829090D01*
X74791448Y-40842974D01*
X74771457Y-40854956D01*
X74750387Y-40864921D01*
X74728443Y-40872773D01*
X74705834Y-40878437D01*
X74682779Y-40881856D01*
X74659500Y-40883000D01*
X74184500Y-40883000D01*
X74161221Y-40881856D01*
X74138166Y-40878437D01*
X74115557Y-40872773D01*
X74093613Y-40864921D01*
X74072543Y-40854956D01*
X74052552Y-40842974D01*
X74033832Y-40829090D01*
X74016562Y-40813438D01*
X74000910Y-40796168D01*
X73987026Y-40777448D01*
X73975044Y-40757457D01*
X73965079Y-40736387D01*
X73957227Y-40714443D01*
X73951563Y-40691834D01*
X73948144Y-40668779D01*
X73947000Y-40645500D01*
X73947000Y-40070500D01*
X73948144Y-40047221D01*
X73951563Y-40024166D01*
X73957227Y-40001557D01*
X73965079Y-39979613D01*
X73975044Y-39958543D01*
X73987026Y-39938552D01*
X74000910Y-39919832D01*
X74016562Y-39902562D01*
X74033832Y-39886910D01*
X74052552Y-39873026D01*
X74072543Y-39861044D01*
X74093613Y-39851079D01*
X74115557Y-39843227D01*
X74138166Y-39837563D01*
X74161221Y-39834144D01*
X74184500Y-39833000D01*
X74659500Y-39833000D01*
X74682779Y-39834144D01*
X74682779Y-39834144D01*
G37*
D12*
X74422000Y-40358000D03*
D10*
G36*
X74682779Y-38084144D02*
X74705834Y-38087563D01*
X74728443Y-38093227D01*
X74750387Y-38101079D01*
X74771457Y-38111044D01*
X74791448Y-38123026D01*
X74810168Y-38136910D01*
X74827438Y-38152562D01*
X74843090Y-38169832D01*
X74856974Y-38188552D01*
X74868956Y-38208543D01*
X74878921Y-38229613D01*
X74886773Y-38251557D01*
X74892437Y-38274166D01*
X74895856Y-38297221D01*
X74897000Y-38320500D01*
X74897000Y-38895500D01*
X74895856Y-38918779D01*
X74892437Y-38941834D01*
X74886773Y-38964443D01*
X74878921Y-38986387D01*
X74868956Y-39007457D01*
X74856974Y-39027448D01*
X74843090Y-39046168D01*
X74827438Y-39063438D01*
X74810168Y-39079090D01*
X74791448Y-39092974D01*
X74771457Y-39104956D01*
X74750387Y-39114921D01*
X74728443Y-39122773D01*
X74705834Y-39128437D01*
X74682779Y-39131856D01*
X74659500Y-39133000D01*
X74184500Y-39133000D01*
X74161221Y-39131856D01*
X74138166Y-39128437D01*
X74115557Y-39122773D01*
X74093613Y-39114921D01*
X74072543Y-39104956D01*
X74052552Y-39092974D01*
X74033832Y-39079090D01*
X74016562Y-39063438D01*
X74000910Y-39046168D01*
X73987026Y-39027448D01*
X73975044Y-39007457D01*
X73965079Y-38986387D01*
X73957227Y-38964443D01*
X73951563Y-38941834D01*
X73948144Y-38918779D01*
X73947000Y-38895500D01*
X73947000Y-38320500D01*
X73948144Y-38297221D01*
X73951563Y-38274166D01*
X73957227Y-38251557D01*
X73965079Y-38229613D01*
X73975044Y-38208543D01*
X73987026Y-38188552D01*
X74000910Y-38169832D01*
X74016562Y-38152562D01*
X74033832Y-38136910D01*
X74052552Y-38123026D01*
X74072543Y-38111044D01*
X74093613Y-38101079D01*
X74115557Y-38093227D01*
X74138166Y-38087563D01*
X74161221Y-38084144D01*
X74184500Y-38083000D01*
X74659500Y-38083000D01*
X74682779Y-38084144D01*
X74682779Y-38084144D01*
G37*
D12*
X74422000Y-38608000D03*
G04 #@! TD*
D10*
G04 #@! TO.C,C15*
G36*
X32010779Y-39815144D02*
X32033834Y-39818563D01*
X32056443Y-39824227D01*
X32078387Y-39832079D01*
X32099457Y-39842044D01*
X32119448Y-39854026D01*
X32138168Y-39867910D01*
X32155438Y-39883562D01*
X32171090Y-39900832D01*
X32184974Y-39919552D01*
X32196956Y-39939543D01*
X32206921Y-39960613D01*
X32214773Y-39982557D01*
X32220437Y-40005166D01*
X32223856Y-40028221D01*
X32225000Y-40051500D01*
X32225000Y-40626500D01*
X32223856Y-40649779D01*
X32220437Y-40672834D01*
X32214773Y-40695443D01*
X32206921Y-40717387D01*
X32196956Y-40738457D01*
X32184974Y-40758448D01*
X32171090Y-40777168D01*
X32155438Y-40794438D01*
X32138168Y-40810090D01*
X32119448Y-40823974D01*
X32099457Y-40835956D01*
X32078387Y-40845921D01*
X32056443Y-40853773D01*
X32033834Y-40859437D01*
X32010779Y-40862856D01*
X31987500Y-40864000D01*
X31512500Y-40864000D01*
X31489221Y-40862856D01*
X31466166Y-40859437D01*
X31443557Y-40853773D01*
X31421613Y-40845921D01*
X31400543Y-40835956D01*
X31380552Y-40823974D01*
X31361832Y-40810090D01*
X31344562Y-40794438D01*
X31328910Y-40777168D01*
X31315026Y-40758448D01*
X31303044Y-40738457D01*
X31293079Y-40717387D01*
X31285227Y-40695443D01*
X31279563Y-40672834D01*
X31276144Y-40649779D01*
X31275000Y-40626500D01*
X31275000Y-40051500D01*
X31276144Y-40028221D01*
X31279563Y-40005166D01*
X31285227Y-39982557D01*
X31293079Y-39960613D01*
X31303044Y-39939543D01*
X31315026Y-39919552D01*
X31328910Y-39900832D01*
X31344562Y-39883562D01*
X31361832Y-39867910D01*
X31380552Y-39854026D01*
X31400543Y-39842044D01*
X31421613Y-39832079D01*
X31443557Y-39824227D01*
X31466166Y-39818563D01*
X31489221Y-39815144D01*
X31512500Y-39814000D01*
X31987500Y-39814000D01*
X32010779Y-39815144D01*
X32010779Y-39815144D01*
G37*
D12*
X31750000Y-40339000D03*
D10*
G36*
X32010779Y-41565144D02*
X32033834Y-41568563D01*
X32056443Y-41574227D01*
X32078387Y-41582079D01*
X32099457Y-41592044D01*
X32119448Y-41604026D01*
X32138168Y-41617910D01*
X32155438Y-41633562D01*
X32171090Y-41650832D01*
X32184974Y-41669552D01*
X32196956Y-41689543D01*
X32206921Y-41710613D01*
X32214773Y-41732557D01*
X32220437Y-41755166D01*
X32223856Y-41778221D01*
X32225000Y-41801500D01*
X32225000Y-42376500D01*
X32223856Y-42399779D01*
X32220437Y-42422834D01*
X32214773Y-42445443D01*
X32206921Y-42467387D01*
X32196956Y-42488457D01*
X32184974Y-42508448D01*
X32171090Y-42527168D01*
X32155438Y-42544438D01*
X32138168Y-42560090D01*
X32119448Y-42573974D01*
X32099457Y-42585956D01*
X32078387Y-42595921D01*
X32056443Y-42603773D01*
X32033834Y-42609437D01*
X32010779Y-42612856D01*
X31987500Y-42614000D01*
X31512500Y-42614000D01*
X31489221Y-42612856D01*
X31466166Y-42609437D01*
X31443557Y-42603773D01*
X31421613Y-42595921D01*
X31400543Y-42585956D01*
X31380552Y-42573974D01*
X31361832Y-42560090D01*
X31344562Y-42544438D01*
X31328910Y-42527168D01*
X31315026Y-42508448D01*
X31303044Y-42488457D01*
X31293079Y-42467387D01*
X31285227Y-42445443D01*
X31279563Y-42422834D01*
X31276144Y-42399779D01*
X31275000Y-42376500D01*
X31275000Y-41801500D01*
X31276144Y-41778221D01*
X31279563Y-41755166D01*
X31285227Y-41732557D01*
X31293079Y-41710613D01*
X31303044Y-41689543D01*
X31315026Y-41669552D01*
X31328910Y-41650832D01*
X31344562Y-41633562D01*
X31361832Y-41617910D01*
X31380552Y-41604026D01*
X31400543Y-41592044D01*
X31421613Y-41582079D01*
X31443557Y-41574227D01*
X31466166Y-41568563D01*
X31489221Y-41565144D01*
X31512500Y-41564000D01*
X31987500Y-41564000D01*
X32010779Y-41565144D01*
X32010779Y-41565144D01*
G37*
D12*
X31750000Y-42089000D03*
G04 #@! TD*
D10*
G04 #@! TO.C,C16*
G36*
X26168779Y-38291144D02*
X26191834Y-38294563D01*
X26214443Y-38300227D01*
X26236387Y-38308079D01*
X26257457Y-38318044D01*
X26277448Y-38330026D01*
X26296168Y-38343910D01*
X26313438Y-38359562D01*
X26329090Y-38376832D01*
X26342974Y-38395552D01*
X26354956Y-38415543D01*
X26364921Y-38436613D01*
X26372773Y-38458557D01*
X26378437Y-38481166D01*
X26381856Y-38504221D01*
X26383000Y-38527500D01*
X26383000Y-39102500D01*
X26381856Y-39125779D01*
X26378437Y-39148834D01*
X26372773Y-39171443D01*
X26364921Y-39193387D01*
X26354956Y-39214457D01*
X26342974Y-39234448D01*
X26329090Y-39253168D01*
X26313438Y-39270438D01*
X26296168Y-39286090D01*
X26277448Y-39299974D01*
X26257457Y-39311956D01*
X26236387Y-39321921D01*
X26214443Y-39329773D01*
X26191834Y-39335437D01*
X26168779Y-39338856D01*
X26145500Y-39340000D01*
X25670500Y-39340000D01*
X25647221Y-39338856D01*
X25624166Y-39335437D01*
X25601557Y-39329773D01*
X25579613Y-39321921D01*
X25558543Y-39311956D01*
X25538552Y-39299974D01*
X25519832Y-39286090D01*
X25502562Y-39270438D01*
X25486910Y-39253168D01*
X25473026Y-39234448D01*
X25461044Y-39214457D01*
X25451079Y-39193387D01*
X25443227Y-39171443D01*
X25437563Y-39148834D01*
X25434144Y-39125779D01*
X25433000Y-39102500D01*
X25433000Y-38527500D01*
X25434144Y-38504221D01*
X25437563Y-38481166D01*
X25443227Y-38458557D01*
X25451079Y-38436613D01*
X25461044Y-38415543D01*
X25473026Y-38395552D01*
X25486910Y-38376832D01*
X25502562Y-38359562D01*
X25519832Y-38343910D01*
X25538552Y-38330026D01*
X25558543Y-38318044D01*
X25579613Y-38308079D01*
X25601557Y-38300227D01*
X25624166Y-38294563D01*
X25647221Y-38291144D01*
X25670500Y-38290000D01*
X26145500Y-38290000D01*
X26168779Y-38291144D01*
X26168779Y-38291144D01*
G37*
D12*
X25908000Y-38815000D03*
D10*
G36*
X26168779Y-40041144D02*
X26191834Y-40044563D01*
X26214443Y-40050227D01*
X26236387Y-40058079D01*
X26257457Y-40068044D01*
X26277448Y-40080026D01*
X26296168Y-40093910D01*
X26313438Y-40109562D01*
X26329090Y-40126832D01*
X26342974Y-40145552D01*
X26354956Y-40165543D01*
X26364921Y-40186613D01*
X26372773Y-40208557D01*
X26378437Y-40231166D01*
X26381856Y-40254221D01*
X26383000Y-40277500D01*
X26383000Y-40852500D01*
X26381856Y-40875779D01*
X26378437Y-40898834D01*
X26372773Y-40921443D01*
X26364921Y-40943387D01*
X26354956Y-40964457D01*
X26342974Y-40984448D01*
X26329090Y-41003168D01*
X26313438Y-41020438D01*
X26296168Y-41036090D01*
X26277448Y-41049974D01*
X26257457Y-41061956D01*
X26236387Y-41071921D01*
X26214443Y-41079773D01*
X26191834Y-41085437D01*
X26168779Y-41088856D01*
X26145500Y-41090000D01*
X25670500Y-41090000D01*
X25647221Y-41088856D01*
X25624166Y-41085437D01*
X25601557Y-41079773D01*
X25579613Y-41071921D01*
X25558543Y-41061956D01*
X25538552Y-41049974D01*
X25519832Y-41036090D01*
X25502562Y-41020438D01*
X25486910Y-41003168D01*
X25473026Y-40984448D01*
X25461044Y-40964457D01*
X25451079Y-40943387D01*
X25443227Y-40921443D01*
X25437563Y-40898834D01*
X25434144Y-40875779D01*
X25433000Y-40852500D01*
X25433000Y-40277500D01*
X25434144Y-40254221D01*
X25437563Y-40231166D01*
X25443227Y-40208557D01*
X25451079Y-40186613D01*
X25461044Y-40165543D01*
X25473026Y-40145552D01*
X25486910Y-40126832D01*
X25502562Y-40109562D01*
X25519832Y-40093910D01*
X25538552Y-40080026D01*
X25558543Y-40068044D01*
X25579613Y-40058079D01*
X25601557Y-40050227D01*
X25624166Y-40044563D01*
X25647221Y-40041144D01*
X25670500Y-40040000D01*
X26145500Y-40040000D01*
X26168779Y-40041144D01*
X26168779Y-40041144D01*
G37*
D12*
X25908000Y-40565000D03*
G04 #@! TD*
D10*
G04 #@! TO.C,C17*
G36*
X23225905Y-45783204D02*
X23250173Y-45786804D01*
X23273972Y-45792765D01*
X23297071Y-45801030D01*
X23319250Y-45811520D01*
X23340293Y-45824132D01*
X23359999Y-45838747D01*
X23378177Y-45855223D01*
X23394653Y-45873401D01*
X23409268Y-45893107D01*
X23421880Y-45914150D01*
X23432370Y-45936329D01*
X23440635Y-45959428D01*
X23446596Y-45983227D01*
X23450196Y-46007495D01*
X23451400Y-46031999D01*
X23451400Y-46932001D01*
X23450196Y-46956505D01*
X23446596Y-46980773D01*
X23440635Y-47004572D01*
X23432370Y-47027671D01*
X23421880Y-47049850D01*
X23409268Y-47070893D01*
X23394653Y-47090599D01*
X23378177Y-47108777D01*
X23359999Y-47125253D01*
X23340293Y-47139868D01*
X23319250Y-47152480D01*
X23297071Y-47162970D01*
X23273972Y-47171235D01*
X23250173Y-47177196D01*
X23225905Y-47180796D01*
X23201401Y-47182000D01*
X22551399Y-47182000D01*
X22526895Y-47180796D01*
X22502627Y-47177196D01*
X22478828Y-47171235D01*
X22455729Y-47162970D01*
X22433550Y-47152480D01*
X22412507Y-47139868D01*
X22392801Y-47125253D01*
X22374623Y-47108777D01*
X22358147Y-47090599D01*
X22343532Y-47070893D01*
X22330920Y-47049850D01*
X22320430Y-47027671D01*
X22312165Y-47004572D01*
X22306204Y-46980773D01*
X22302604Y-46956505D01*
X22301400Y-46932001D01*
X22301400Y-46031999D01*
X22302604Y-46007495D01*
X22306204Y-45983227D01*
X22312165Y-45959428D01*
X22320430Y-45936329D01*
X22330920Y-45914150D01*
X22343532Y-45893107D01*
X22358147Y-45873401D01*
X22374623Y-45855223D01*
X22392801Y-45838747D01*
X22412507Y-45824132D01*
X22433550Y-45811520D01*
X22455729Y-45801030D01*
X22478828Y-45792765D01*
X22502627Y-45786804D01*
X22526895Y-45783204D01*
X22551399Y-45782000D01*
X23201401Y-45782000D01*
X23225905Y-45783204D01*
X23225905Y-45783204D01*
G37*
D11*
X22876400Y-46482000D03*
D10*
G36*
X25275905Y-45783204D02*
X25300173Y-45786804D01*
X25323972Y-45792765D01*
X25347071Y-45801030D01*
X25369250Y-45811520D01*
X25390293Y-45824132D01*
X25409999Y-45838747D01*
X25428177Y-45855223D01*
X25444653Y-45873401D01*
X25459268Y-45893107D01*
X25471880Y-45914150D01*
X25482370Y-45936329D01*
X25490635Y-45959428D01*
X25496596Y-45983227D01*
X25500196Y-46007495D01*
X25501400Y-46031999D01*
X25501400Y-46932001D01*
X25500196Y-46956505D01*
X25496596Y-46980773D01*
X25490635Y-47004572D01*
X25482370Y-47027671D01*
X25471880Y-47049850D01*
X25459268Y-47070893D01*
X25444653Y-47090599D01*
X25428177Y-47108777D01*
X25409999Y-47125253D01*
X25390293Y-47139868D01*
X25369250Y-47152480D01*
X25347071Y-47162970D01*
X25323972Y-47171235D01*
X25300173Y-47177196D01*
X25275905Y-47180796D01*
X25251401Y-47182000D01*
X24601399Y-47182000D01*
X24576895Y-47180796D01*
X24552627Y-47177196D01*
X24528828Y-47171235D01*
X24505729Y-47162970D01*
X24483550Y-47152480D01*
X24462507Y-47139868D01*
X24442801Y-47125253D01*
X24424623Y-47108777D01*
X24408147Y-47090599D01*
X24393532Y-47070893D01*
X24380920Y-47049850D01*
X24370430Y-47027671D01*
X24362165Y-47004572D01*
X24356204Y-46980773D01*
X24352604Y-46956505D01*
X24351400Y-46932001D01*
X24351400Y-46031999D01*
X24352604Y-46007495D01*
X24356204Y-45983227D01*
X24362165Y-45959428D01*
X24370430Y-45936329D01*
X24380920Y-45914150D01*
X24393532Y-45893107D01*
X24408147Y-45873401D01*
X24424623Y-45855223D01*
X24442801Y-45838747D01*
X24462507Y-45824132D01*
X24483550Y-45811520D01*
X24505729Y-45801030D01*
X24528828Y-45792765D01*
X24552627Y-45786804D01*
X24576895Y-45783204D01*
X24601399Y-45782000D01*
X25251401Y-45782000D01*
X25275905Y-45783204D01*
X25275905Y-45783204D01*
G37*
D11*
X24926400Y-46482000D03*
G04 #@! TD*
D13*
G04 #@! TO.C,C18*
X55372000Y-28779600D03*
X55372000Y-25779600D03*
G04 #@! TD*
G04 #@! TO.C,C19*
X59232800Y-25779600D03*
X59232800Y-28779600D03*
G04 #@! TD*
D10*
G04 #@! TO.C,D1*
G36*
X59798379Y-31113144D02*
X59821434Y-31116563D01*
X59844043Y-31122227D01*
X59865987Y-31130079D01*
X59887057Y-31140044D01*
X59907048Y-31152026D01*
X59925768Y-31165910D01*
X59943038Y-31181562D01*
X59958690Y-31198832D01*
X59972574Y-31217552D01*
X59984556Y-31237543D01*
X59994521Y-31258613D01*
X60002373Y-31280557D01*
X60008037Y-31303166D01*
X60011456Y-31326221D01*
X60012600Y-31349500D01*
X60012600Y-31924500D01*
X60011456Y-31947779D01*
X60008037Y-31970834D01*
X60002373Y-31993443D01*
X59994521Y-32015387D01*
X59984556Y-32036457D01*
X59972574Y-32056448D01*
X59958690Y-32075168D01*
X59943038Y-32092438D01*
X59925768Y-32108090D01*
X59907048Y-32121974D01*
X59887057Y-32133956D01*
X59865987Y-32143921D01*
X59844043Y-32151773D01*
X59821434Y-32157437D01*
X59798379Y-32160856D01*
X59775100Y-32162000D01*
X59300100Y-32162000D01*
X59276821Y-32160856D01*
X59253766Y-32157437D01*
X59231157Y-32151773D01*
X59209213Y-32143921D01*
X59188143Y-32133956D01*
X59168152Y-32121974D01*
X59149432Y-32108090D01*
X59132162Y-32092438D01*
X59116510Y-32075168D01*
X59102626Y-32056448D01*
X59090644Y-32036457D01*
X59080679Y-32015387D01*
X59072827Y-31993443D01*
X59067163Y-31970834D01*
X59063744Y-31947779D01*
X59062600Y-31924500D01*
X59062600Y-31349500D01*
X59063744Y-31326221D01*
X59067163Y-31303166D01*
X59072827Y-31280557D01*
X59080679Y-31258613D01*
X59090644Y-31237543D01*
X59102626Y-31217552D01*
X59116510Y-31198832D01*
X59132162Y-31181562D01*
X59149432Y-31165910D01*
X59168152Y-31152026D01*
X59188143Y-31140044D01*
X59209213Y-31130079D01*
X59231157Y-31122227D01*
X59253766Y-31116563D01*
X59276821Y-31113144D01*
X59300100Y-31112000D01*
X59775100Y-31112000D01*
X59798379Y-31113144D01*
X59798379Y-31113144D01*
G37*
D12*
X59537600Y-31637000D03*
D10*
G36*
X59798379Y-32863144D02*
X59821434Y-32866563D01*
X59844043Y-32872227D01*
X59865987Y-32880079D01*
X59887057Y-32890044D01*
X59907048Y-32902026D01*
X59925768Y-32915910D01*
X59943038Y-32931562D01*
X59958690Y-32948832D01*
X59972574Y-32967552D01*
X59984556Y-32987543D01*
X59994521Y-33008613D01*
X60002373Y-33030557D01*
X60008037Y-33053166D01*
X60011456Y-33076221D01*
X60012600Y-33099500D01*
X60012600Y-33674500D01*
X60011456Y-33697779D01*
X60008037Y-33720834D01*
X60002373Y-33743443D01*
X59994521Y-33765387D01*
X59984556Y-33786457D01*
X59972574Y-33806448D01*
X59958690Y-33825168D01*
X59943038Y-33842438D01*
X59925768Y-33858090D01*
X59907048Y-33871974D01*
X59887057Y-33883956D01*
X59865987Y-33893921D01*
X59844043Y-33901773D01*
X59821434Y-33907437D01*
X59798379Y-33910856D01*
X59775100Y-33912000D01*
X59300100Y-33912000D01*
X59276821Y-33910856D01*
X59253766Y-33907437D01*
X59231157Y-33901773D01*
X59209213Y-33893921D01*
X59188143Y-33883956D01*
X59168152Y-33871974D01*
X59149432Y-33858090D01*
X59132162Y-33842438D01*
X59116510Y-33825168D01*
X59102626Y-33806448D01*
X59090644Y-33786457D01*
X59080679Y-33765387D01*
X59072827Y-33743443D01*
X59067163Y-33720834D01*
X59063744Y-33697779D01*
X59062600Y-33674500D01*
X59062600Y-33099500D01*
X59063744Y-33076221D01*
X59067163Y-33053166D01*
X59072827Y-33030557D01*
X59080679Y-33008613D01*
X59090644Y-32987543D01*
X59102626Y-32967552D01*
X59116510Y-32948832D01*
X59132162Y-32931562D01*
X59149432Y-32915910D01*
X59168152Y-32902026D01*
X59188143Y-32890044D01*
X59209213Y-32880079D01*
X59231157Y-32872227D01*
X59253766Y-32866563D01*
X59276821Y-32863144D01*
X59300100Y-32862000D01*
X59775100Y-32862000D01*
X59798379Y-32863144D01*
X59798379Y-32863144D01*
G37*
D12*
X59537600Y-33387000D03*
G04 #@! TD*
D10*
G04 #@! TO.C,D2*
G36*
X53143579Y-37638344D02*
X53166634Y-37641763D01*
X53189243Y-37647427D01*
X53211187Y-37655279D01*
X53232257Y-37665244D01*
X53252248Y-37677226D01*
X53270968Y-37691110D01*
X53288238Y-37706762D01*
X53303890Y-37724032D01*
X53317774Y-37742752D01*
X53329756Y-37762743D01*
X53339721Y-37783813D01*
X53347573Y-37805757D01*
X53353237Y-37828366D01*
X53356656Y-37851421D01*
X53357800Y-37874700D01*
X53357800Y-38449700D01*
X53356656Y-38472979D01*
X53353237Y-38496034D01*
X53347573Y-38518643D01*
X53339721Y-38540587D01*
X53329756Y-38561657D01*
X53317774Y-38581648D01*
X53303890Y-38600368D01*
X53288238Y-38617638D01*
X53270968Y-38633290D01*
X53252248Y-38647174D01*
X53232257Y-38659156D01*
X53211187Y-38669121D01*
X53189243Y-38676973D01*
X53166634Y-38682637D01*
X53143579Y-38686056D01*
X53120300Y-38687200D01*
X52645300Y-38687200D01*
X52622021Y-38686056D01*
X52598966Y-38682637D01*
X52576357Y-38676973D01*
X52554413Y-38669121D01*
X52533343Y-38659156D01*
X52513352Y-38647174D01*
X52494632Y-38633290D01*
X52477362Y-38617638D01*
X52461710Y-38600368D01*
X52447826Y-38581648D01*
X52435844Y-38561657D01*
X52425879Y-38540587D01*
X52418027Y-38518643D01*
X52412363Y-38496034D01*
X52408944Y-38472979D01*
X52407800Y-38449700D01*
X52407800Y-37874700D01*
X52408944Y-37851421D01*
X52412363Y-37828366D01*
X52418027Y-37805757D01*
X52425879Y-37783813D01*
X52435844Y-37762743D01*
X52447826Y-37742752D01*
X52461710Y-37724032D01*
X52477362Y-37706762D01*
X52494632Y-37691110D01*
X52513352Y-37677226D01*
X52533343Y-37665244D01*
X52554413Y-37655279D01*
X52576357Y-37647427D01*
X52598966Y-37641763D01*
X52622021Y-37638344D01*
X52645300Y-37637200D01*
X53120300Y-37637200D01*
X53143579Y-37638344D01*
X53143579Y-37638344D01*
G37*
D12*
X52882800Y-38162200D03*
D10*
G36*
X53143579Y-35888344D02*
X53166634Y-35891763D01*
X53189243Y-35897427D01*
X53211187Y-35905279D01*
X53232257Y-35915244D01*
X53252248Y-35927226D01*
X53270968Y-35941110D01*
X53288238Y-35956762D01*
X53303890Y-35974032D01*
X53317774Y-35992752D01*
X53329756Y-36012743D01*
X53339721Y-36033813D01*
X53347573Y-36055757D01*
X53353237Y-36078366D01*
X53356656Y-36101421D01*
X53357800Y-36124700D01*
X53357800Y-36699700D01*
X53356656Y-36722979D01*
X53353237Y-36746034D01*
X53347573Y-36768643D01*
X53339721Y-36790587D01*
X53329756Y-36811657D01*
X53317774Y-36831648D01*
X53303890Y-36850368D01*
X53288238Y-36867638D01*
X53270968Y-36883290D01*
X53252248Y-36897174D01*
X53232257Y-36909156D01*
X53211187Y-36919121D01*
X53189243Y-36926973D01*
X53166634Y-36932637D01*
X53143579Y-36936056D01*
X53120300Y-36937200D01*
X52645300Y-36937200D01*
X52622021Y-36936056D01*
X52598966Y-36932637D01*
X52576357Y-36926973D01*
X52554413Y-36919121D01*
X52533343Y-36909156D01*
X52513352Y-36897174D01*
X52494632Y-36883290D01*
X52477362Y-36867638D01*
X52461710Y-36850368D01*
X52447826Y-36831648D01*
X52435844Y-36811657D01*
X52425879Y-36790587D01*
X52418027Y-36768643D01*
X52412363Y-36746034D01*
X52408944Y-36722979D01*
X52407800Y-36699700D01*
X52407800Y-36124700D01*
X52408944Y-36101421D01*
X52412363Y-36078366D01*
X52418027Y-36055757D01*
X52425879Y-36033813D01*
X52435844Y-36012743D01*
X52447826Y-35992752D01*
X52461710Y-35974032D01*
X52477362Y-35956762D01*
X52494632Y-35941110D01*
X52513352Y-35927226D01*
X52533343Y-35915244D01*
X52554413Y-35905279D01*
X52576357Y-35897427D01*
X52598966Y-35891763D01*
X52622021Y-35888344D01*
X52645300Y-35887200D01*
X53120300Y-35887200D01*
X53143579Y-35888344D01*
X53143579Y-35888344D01*
G37*
D12*
X52882800Y-36412200D03*
G04 #@! TD*
D10*
G04 #@! TO.C,D3*
G36*
X55886779Y-44459144D02*
X55909834Y-44462563D01*
X55932443Y-44468227D01*
X55954387Y-44476079D01*
X55975457Y-44486044D01*
X55995448Y-44498026D01*
X56014168Y-44511910D01*
X56031438Y-44527562D01*
X56047090Y-44544832D01*
X56060974Y-44563552D01*
X56072956Y-44583543D01*
X56082921Y-44604613D01*
X56090773Y-44626557D01*
X56096437Y-44649166D01*
X56099856Y-44672221D01*
X56101000Y-44695500D01*
X56101000Y-45270500D01*
X56099856Y-45293779D01*
X56096437Y-45316834D01*
X56090773Y-45339443D01*
X56082921Y-45361387D01*
X56072956Y-45382457D01*
X56060974Y-45402448D01*
X56047090Y-45421168D01*
X56031438Y-45438438D01*
X56014168Y-45454090D01*
X55995448Y-45467974D01*
X55975457Y-45479956D01*
X55954387Y-45489921D01*
X55932443Y-45497773D01*
X55909834Y-45503437D01*
X55886779Y-45506856D01*
X55863500Y-45508000D01*
X55388500Y-45508000D01*
X55365221Y-45506856D01*
X55342166Y-45503437D01*
X55319557Y-45497773D01*
X55297613Y-45489921D01*
X55276543Y-45479956D01*
X55256552Y-45467974D01*
X55237832Y-45454090D01*
X55220562Y-45438438D01*
X55204910Y-45421168D01*
X55191026Y-45402448D01*
X55179044Y-45382457D01*
X55169079Y-45361387D01*
X55161227Y-45339443D01*
X55155563Y-45316834D01*
X55152144Y-45293779D01*
X55151000Y-45270500D01*
X55151000Y-44695500D01*
X55152144Y-44672221D01*
X55155563Y-44649166D01*
X55161227Y-44626557D01*
X55169079Y-44604613D01*
X55179044Y-44583543D01*
X55191026Y-44563552D01*
X55204910Y-44544832D01*
X55220562Y-44527562D01*
X55237832Y-44511910D01*
X55256552Y-44498026D01*
X55276543Y-44486044D01*
X55297613Y-44476079D01*
X55319557Y-44468227D01*
X55342166Y-44462563D01*
X55365221Y-44459144D01*
X55388500Y-44458000D01*
X55863500Y-44458000D01*
X55886779Y-44459144D01*
X55886779Y-44459144D01*
G37*
D12*
X55626000Y-44983000D03*
D10*
G36*
X55886779Y-42709144D02*
X55909834Y-42712563D01*
X55932443Y-42718227D01*
X55954387Y-42726079D01*
X55975457Y-42736044D01*
X55995448Y-42748026D01*
X56014168Y-42761910D01*
X56031438Y-42777562D01*
X56047090Y-42794832D01*
X56060974Y-42813552D01*
X56072956Y-42833543D01*
X56082921Y-42854613D01*
X56090773Y-42876557D01*
X56096437Y-42899166D01*
X56099856Y-42922221D01*
X56101000Y-42945500D01*
X56101000Y-43520500D01*
X56099856Y-43543779D01*
X56096437Y-43566834D01*
X56090773Y-43589443D01*
X56082921Y-43611387D01*
X56072956Y-43632457D01*
X56060974Y-43652448D01*
X56047090Y-43671168D01*
X56031438Y-43688438D01*
X56014168Y-43704090D01*
X55995448Y-43717974D01*
X55975457Y-43729956D01*
X55954387Y-43739921D01*
X55932443Y-43747773D01*
X55909834Y-43753437D01*
X55886779Y-43756856D01*
X55863500Y-43758000D01*
X55388500Y-43758000D01*
X55365221Y-43756856D01*
X55342166Y-43753437D01*
X55319557Y-43747773D01*
X55297613Y-43739921D01*
X55276543Y-43729956D01*
X55256552Y-43717974D01*
X55237832Y-43704090D01*
X55220562Y-43688438D01*
X55204910Y-43671168D01*
X55191026Y-43652448D01*
X55179044Y-43632457D01*
X55169079Y-43611387D01*
X55161227Y-43589443D01*
X55155563Y-43566834D01*
X55152144Y-43543779D01*
X55151000Y-43520500D01*
X55151000Y-42945500D01*
X55152144Y-42922221D01*
X55155563Y-42899166D01*
X55161227Y-42876557D01*
X55169079Y-42854613D01*
X55179044Y-42833543D01*
X55191026Y-42813552D01*
X55204910Y-42794832D01*
X55220562Y-42777562D01*
X55237832Y-42761910D01*
X55256552Y-42748026D01*
X55276543Y-42736044D01*
X55297613Y-42726079D01*
X55319557Y-42718227D01*
X55342166Y-42712563D01*
X55365221Y-42709144D01*
X55388500Y-42708000D01*
X55863500Y-42708000D01*
X55886779Y-42709144D01*
X55886779Y-42709144D01*
G37*
D12*
X55626000Y-43233000D03*
G04 #@! TD*
D10*
G04 #@! TO.C,D4*
G36*
X69348779Y-28545144D02*
X69371834Y-28548563D01*
X69394443Y-28554227D01*
X69416387Y-28562079D01*
X69437457Y-28572044D01*
X69457448Y-28584026D01*
X69476168Y-28597910D01*
X69493438Y-28613562D01*
X69509090Y-28630832D01*
X69522974Y-28649552D01*
X69534956Y-28669543D01*
X69544921Y-28690613D01*
X69552773Y-28712557D01*
X69558437Y-28735166D01*
X69561856Y-28758221D01*
X69563000Y-28781500D01*
X69563000Y-29356500D01*
X69561856Y-29379779D01*
X69558437Y-29402834D01*
X69552773Y-29425443D01*
X69544921Y-29447387D01*
X69534956Y-29468457D01*
X69522974Y-29488448D01*
X69509090Y-29507168D01*
X69493438Y-29524438D01*
X69476168Y-29540090D01*
X69457448Y-29553974D01*
X69437457Y-29565956D01*
X69416387Y-29575921D01*
X69394443Y-29583773D01*
X69371834Y-29589437D01*
X69348779Y-29592856D01*
X69325500Y-29594000D01*
X68850500Y-29594000D01*
X68827221Y-29592856D01*
X68804166Y-29589437D01*
X68781557Y-29583773D01*
X68759613Y-29575921D01*
X68738543Y-29565956D01*
X68718552Y-29553974D01*
X68699832Y-29540090D01*
X68682562Y-29524438D01*
X68666910Y-29507168D01*
X68653026Y-29488448D01*
X68641044Y-29468457D01*
X68631079Y-29447387D01*
X68623227Y-29425443D01*
X68617563Y-29402834D01*
X68614144Y-29379779D01*
X68613000Y-29356500D01*
X68613000Y-28781500D01*
X68614144Y-28758221D01*
X68617563Y-28735166D01*
X68623227Y-28712557D01*
X68631079Y-28690613D01*
X68641044Y-28669543D01*
X68653026Y-28649552D01*
X68666910Y-28630832D01*
X68682562Y-28613562D01*
X68699832Y-28597910D01*
X68718552Y-28584026D01*
X68738543Y-28572044D01*
X68759613Y-28562079D01*
X68781557Y-28554227D01*
X68804166Y-28548563D01*
X68827221Y-28545144D01*
X68850500Y-28544000D01*
X69325500Y-28544000D01*
X69348779Y-28545144D01*
X69348779Y-28545144D01*
G37*
D12*
X69088000Y-29069000D03*
D10*
G36*
X69348779Y-26795144D02*
X69371834Y-26798563D01*
X69394443Y-26804227D01*
X69416387Y-26812079D01*
X69437457Y-26822044D01*
X69457448Y-26834026D01*
X69476168Y-26847910D01*
X69493438Y-26863562D01*
X69509090Y-26880832D01*
X69522974Y-26899552D01*
X69534956Y-26919543D01*
X69544921Y-26940613D01*
X69552773Y-26962557D01*
X69558437Y-26985166D01*
X69561856Y-27008221D01*
X69563000Y-27031500D01*
X69563000Y-27606500D01*
X69561856Y-27629779D01*
X69558437Y-27652834D01*
X69552773Y-27675443D01*
X69544921Y-27697387D01*
X69534956Y-27718457D01*
X69522974Y-27738448D01*
X69509090Y-27757168D01*
X69493438Y-27774438D01*
X69476168Y-27790090D01*
X69457448Y-27803974D01*
X69437457Y-27815956D01*
X69416387Y-27825921D01*
X69394443Y-27833773D01*
X69371834Y-27839437D01*
X69348779Y-27842856D01*
X69325500Y-27844000D01*
X68850500Y-27844000D01*
X68827221Y-27842856D01*
X68804166Y-27839437D01*
X68781557Y-27833773D01*
X68759613Y-27825921D01*
X68738543Y-27815956D01*
X68718552Y-27803974D01*
X68699832Y-27790090D01*
X68682562Y-27774438D01*
X68666910Y-27757168D01*
X68653026Y-27738448D01*
X68641044Y-27718457D01*
X68631079Y-27697387D01*
X68623227Y-27675443D01*
X68617563Y-27652834D01*
X68614144Y-27629779D01*
X68613000Y-27606500D01*
X68613000Y-27031500D01*
X68614144Y-27008221D01*
X68617563Y-26985166D01*
X68623227Y-26962557D01*
X68631079Y-26940613D01*
X68641044Y-26919543D01*
X68653026Y-26899552D01*
X68666910Y-26880832D01*
X68682562Y-26863562D01*
X68699832Y-26847910D01*
X68718552Y-26834026D01*
X68738543Y-26822044D01*
X68759613Y-26812079D01*
X68781557Y-26804227D01*
X68804166Y-26798563D01*
X68827221Y-26795144D01*
X68850500Y-26794000D01*
X69325500Y-26794000D01*
X69348779Y-26795144D01*
X69348779Y-26795144D01*
G37*
D12*
X69088000Y-27319000D03*
G04 #@! TD*
D10*
G04 #@! TO.C,D5*
G36*
X71380779Y-28545144D02*
X71403834Y-28548563D01*
X71426443Y-28554227D01*
X71448387Y-28562079D01*
X71469457Y-28572044D01*
X71489448Y-28584026D01*
X71508168Y-28597910D01*
X71525438Y-28613562D01*
X71541090Y-28630832D01*
X71554974Y-28649552D01*
X71566956Y-28669543D01*
X71576921Y-28690613D01*
X71584773Y-28712557D01*
X71590437Y-28735166D01*
X71593856Y-28758221D01*
X71595000Y-28781500D01*
X71595000Y-29356500D01*
X71593856Y-29379779D01*
X71590437Y-29402834D01*
X71584773Y-29425443D01*
X71576921Y-29447387D01*
X71566956Y-29468457D01*
X71554974Y-29488448D01*
X71541090Y-29507168D01*
X71525438Y-29524438D01*
X71508168Y-29540090D01*
X71489448Y-29553974D01*
X71469457Y-29565956D01*
X71448387Y-29575921D01*
X71426443Y-29583773D01*
X71403834Y-29589437D01*
X71380779Y-29592856D01*
X71357500Y-29594000D01*
X70882500Y-29594000D01*
X70859221Y-29592856D01*
X70836166Y-29589437D01*
X70813557Y-29583773D01*
X70791613Y-29575921D01*
X70770543Y-29565956D01*
X70750552Y-29553974D01*
X70731832Y-29540090D01*
X70714562Y-29524438D01*
X70698910Y-29507168D01*
X70685026Y-29488448D01*
X70673044Y-29468457D01*
X70663079Y-29447387D01*
X70655227Y-29425443D01*
X70649563Y-29402834D01*
X70646144Y-29379779D01*
X70645000Y-29356500D01*
X70645000Y-28781500D01*
X70646144Y-28758221D01*
X70649563Y-28735166D01*
X70655227Y-28712557D01*
X70663079Y-28690613D01*
X70673044Y-28669543D01*
X70685026Y-28649552D01*
X70698910Y-28630832D01*
X70714562Y-28613562D01*
X70731832Y-28597910D01*
X70750552Y-28584026D01*
X70770543Y-28572044D01*
X70791613Y-28562079D01*
X70813557Y-28554227D01*
X70836166Y-28548563D01*
X70859221Y-28545144D01*
X70882500Y-28544000D01*
X71357500Y-28544000D01*
X71380779Y-28545144D01*
X71380779Y-28545144D01*
G37*
D12*
X71120000Y-29069000D03*
D10*
G36*
X71380779Y-26795144D02*
X71403834Y-26798563D01*
X71426443Y-26804227D01*
X71448387Y-26812079D01*
X71469457Y-26822044D01*
X71489448Y-26834026D01*
X71508168Y-26847910D01*
X71525438Y-26863562D01*
X71541090Y-26880832D01*
X71554974Y-26899552D01*
X71566956Y-26919543D01*
X71576921Y-26940613D01*
X71584773Y-26962557D01*
X71590437Y-26985166D01*
X71593856Y-27008221D01*
X71595000Y-27031500D01*
X71595000Y-27606500D01*
X71593856Y-27629779D01*
X71590437Y-27652834D01*
X71584773Y-27675443D01*
X71576921Y-27697387D01*
X71566956Y-27718457D01*
X71554974Y-27738448D01*
X71541090Y-27757168D01*
X71525438Y-27774438D01*
X71508168Y-27790090D01*
X71489448Y-27803974D01*
X71469457Y-27815956D01*
X71448387Y-27825921D01*
X71426443Y-27833773D01*
X71403834Y-27839437D01*
X71380779Y-27842856D01*
X71357500Y-27844000D01*
X70882500Y-27844000D01*
X70859221Y-27842856D01*
X70836166Y-27839437D01*
X70813557Y-27833773D01*
X70791613Y-27825921D01*
X70770543Y-27815956D01*
X70750552Y-27803974D01*
X70731832Y-27790090D01*
X70714562Y-27774438D01*
X70698910Y-27757168D01*
X70685026Y-27738448D01*
X70673044Y-27718457D01*
X70663079Y-27697387D01*
X70655227Y-27675443D01*
X70649563Y-27652834D01*
X70646144Y-27629779D01*
X70645000Y-27606500D01*
X70645000Y-27031500D01*
X70646144Y-27008221D01*
X70649563Y-26985166D01*
X70655227Y-26962557D01*
X70663079Y-26940613D01*
X70673044Y-26919543D01*
X70685026Y-26899552D01*
X70698910Y-26880832D01*
X70714562Y-26863562D01*
X70731832Y-26847910D01*
X70750552Y-26834026D01*
X70770543Y-26822044D01*
X70791613Y-26812079D01*
X70813557Y-26804227D01*
X70836166Y-26798563D01*
X70859221Y-26795144D01*
X70882500Y-26794000D01*
X71357500Y-26794000D01*
X71380779Y-26795144D01*
X71380779Y-26795144D01*
G37*
D12*
X71120000Y-27319000D03*
G04 #@! TD*
D14*
G04 #@! TO.C,Q1*
X54610000Y-48997100D03*
X53660000Y-46997100D03*
X55560000Y-46997100D03*
G04 #@! TD*
G04 #@! TO.C,Q2*
X61994000Y-39320000D03*
X60094000Y-39320000D03*
X61044000Y-41320000D03*
G04 #@! TD*
G04 #@! TO.C,Q3*
X50713600Y-27111200D03*
X52613600Y-27111200D03*
X51663600Y-25111200D03*
G04 #@! TD*
D10*
G04 #@! TO.C,R1*
G36*
X51162379Y-31113144D02*
X51185434Y-31116563D01*
X51208043Y-31122227D01*
X51229987Y-31130079D01*
X51251057Y-31140044D01*
X51271048Y-31152026D01*
X51289768Y-31165910D01*
X51307038Y-31181562D01*
X51322690Y-31198832D01*
X51336574Y-31217552D01*
X51348556Y-31237543D01*
X51358521Y-31258613D01*
X51366373Y-31280557D01*
X51372037Y-31303166D01*
X51375456Y-31326221D01*
X51376600Y-31349500D01*
X51376600Y-31924500D01*
X51375456Y-31947779D01*
X51372037Y-31970834D01*
X51366373Y-31993443D01*
X51358521Y-32015387D01*
X51348556Y-32036457D01*
X51336574Y-32056448D01*
X51322690Y-32075168D01*
X51307038Y-32092438D01*
X51289768Y-32108090D01*
X51271048Y-32121974D01*
X51251057Y-32133956D01*
X51229987Y-32143921D01*
X51208043Y-32151773D01*
X51185434Y-32157437D01*
X51162379Y-32160856D01*
X51139100Y-32162000D01*
X50664100Y-32162000D01*
X50640821Y-32160856D01*
X50617766Y-32157437D01*
X50595157Y-32151773D01*
X50573213Y-32143921D01*
X50552143Y-32133956D01*
X50532152Y-32121974D01*
X50513432Y-32108090D01*
X50496162Y-32092438D01*
X50480510Y-32075168D01*
X50466626Y-32056448D01*
X50454644Y-32036457D01*
X50444679Y-32015387D01*
X50436827Y-31993443D01*
X50431163Y-31970834D01*
X50427744Y-31947779D01*
X50426600Y-31924500D01*
X50426600Y-31349500D01*
X50427744Y-31326221D01*
X50431163Y-31303166D01*
X50436827Y-31280557D01*
X50444679Y-31258613D01*
X50454644Y-31237543D01*
X50466626Y-31217552D01*
X50480510Y-31198832D01*
X50496162Y-31181562D01*
X50513432Y-31165910D01*
X50532152Y-31152026D01*
X50552143Y-31140044D01*
X50573213Y-31130079D01*
X50595157Y-31122227D01*
X50617766Y-31116563D01*
X50640821Y-31113144D01*
X50664100Y-31112000D01*
X51139100Y-31112000D01*
X51162379Y-31113144D01*
X51162379Y-31113144D01*
G37*
D12*
X50901600Y-31637000D03*
D10*
G36*
X51162379Y-32863144D02*
X51185434Y-32866563D01*
X51208043Y-32872227D01*
X51229987Y-32880079D01*
X51251057Y-32890044D01*
X51271048Y-32902026D01*
X51289768Y-32915910D01*
X51307038Y-32931562D01*
X51322690Y-32948832D01*
X51336574Y-32967552D01*
X51348556Y-32987543D01*
X51358521Y-33008613D01*
X51366373Y-33030557D01*
X51372037Y-33053166D01*
X51375456Y-33076221D01*
X51376600Y-33099500D01*
X51376600Y-33674500D01*
X51375456Y-33697779D01*
X51372037Y-33720834D01*
X51366373Y-33743443D01*
X51358521Y-33765387D01*
X51348556Y-33786457D01*
X51336574Y-33806448D01*
X51322690Y-33825168D01*
X51307038Y-33842438D01*
X51289768Y-33858090D01*
X51271048Y-33871974D01*
X51251057Y-33883956D01*
X51229987Y-33893921D01*
X51208043Y-33901773D01*
X51185434Y-33907437D01*
X51162379Y-33910856D01*
X51139100Y-33912000D01*
X50664100Y-33912000D01*
X50640821Y-33910856D01*
X50617766Y-33907437D01*
X50595157Y-33901773D01*
X50573213Y-33893921D01*
X50552143Y-33883956D01*
X50532152Y-33871974D01*
X50513432Y-33858090D01*
X50496162Y-33842438D01*
X50480510Y-33825168D01*
X50466626Y-33806448D01*
X50454644Y-33786457D01*
X50444679Y-33765387D01*
X50436827Y-33743443D01*
X50431163Y-33720834D01*
X50427744Y-33697779D01*
X50426600Y-33674500D01*
X50426600Y-33099500D01*
X50427744Y-33076221D01*
X50431163Y-33053166D01*
X50436827Y-33030557D01*
X50444679Y-33008613D01*
X50454644Y-32987543D01*
X50466626Y-32967552D01*
X50480510Y-32948832D01*
X50496162Y-32931562D01*
X50513432Y-32915910D01*
X50532152Y-32902026D01*
X50552143Y-32890044D01*
X50573213Y-32880079D01*
X50595157Y-32872227D01*
X50617766Y-32866563D01*
X50640821Y-32863144D01*
X50664100Y-32862000D01*
X51139100Y-32862000D01*
X51162379Y-32863144D01*
X51162379Y-32863144D01*
G37*
D12*
X50901600Y-33387000D03*
G04 #@! TD*
D10*
G04 #@! TO.C,R2*
G36*
X51314779Y-35899810D02*
X51337834Y-35903229D01*
X51360443Y-35908893D01*
X51382387Y-35916745D01*
X51403457Y-35926710D01*
X51423448Y-35938692D01*
X51442168Y-35952576D01*
X51459438Y-35968228D01*
X51475090Y-35985498D01*
X51488974Y-36004218D01*
X51500956Y-36024209D01*
X51510921Y-36045279D01*
X51518773Y-36067223D01*
X51524437Y-36089832D01*
X51527856Y-36112887D01*
X51529000Y-36136166D01*
X51529000Y-36711166D01*
X51527856Y-36734445D01*
X51524437Y-36757500D01*
X51518773Y-36780109D01*
X51510921Y-36802053D01*
X51500956Y-36823123D01*
X51488974Y-36843114D01*
X51475090Y-36861834D01*
X51459438Y-36879104D01*
X51442168Y-36894756D01*
X51423448Y-36908640D01*
X51403457Y-36920622D01*
X51382387Y-36930587D01*
X51360443Y-36938439D01*
X51337834Y-36944103D01*
X51314779Y-36947522D01*
X51291500Y-36948666D01*
X50816500Y-36948666D01*
X50793221Y-36947522D01*
X50770166Y-36944103D01*
X50747557Y-36938439D01*
X50725613Y-36930587D01*
X50704543Y-36920622D01*
X50684552Y-36908640D01*
X50665832Y-36894756D01*
X50648562Y-36879104D01*
X50632910Y-36861834D01*
X50619026Y-36843114D01*
X50607044Y-36823123D01*
X50597079Y-36802053D01*
X50589227Y-36780109D01*
X50583563Y-36757500D01*
X50580144Y-36734445D01*
X50579000Y-36711166D01*
X50579000Y-36136166D01*
X50580144Y-36112887D01*
X50583563Y-36089832D01*
X50589227Y-36067223D01*
X50597079Y-36045279D01*
X50607044Y-36024209D01*
X50619026Y-36004218D01*
X50632910Y-35985498D01*
X50648562Y-35968228D01*
X50665832Y-35952576D01*
X50684552Y-35938692D01*
X50704543Y-35926710D01*
X50725613Y-35916745D01*
X50747557Y-35908893D01*
X50770166Y-35903229D01*
X50793221Y-35899810D01*
X50816500Y-35898666D01*
X51291500Y-35898666D01*
X51314779Y-35899810D01*
X51314779Y-35899810D01*
G37*
D12*
X51054000Y-36423666D03*
D10*
G36*
X51314779Y-37649810D02*
X51337834Y-37653229D01*
X51360443Y-37658893D01*
X51382387Y-37666745D01*
X51403457Y-37676710D01*
X51423448Y-37688692D01*
X51442168Y-37702576D01*
X51459438Y-37718228D01*
X51475090Y-37735498D01*
X51488974Y-37754218D01*
X51500956Y-37774209D01*
X51510921Y-37795279D01*
X51518773Y-37817223D01*
X51524437Y-37839832D01*
X51527856Y-37862887D01*
X51529000Y-37886166D01*
X51529000Y-38461166D01*
X51527856Y-38484445D01*
X51524437Y-38507500D01*
X51518773Y-38530109D01*
X51510921Y-38552053D01*
X51500956Y-38573123D01*
X51488974Y-38593114D01*
X51475090Y-38611834D01*
X51459438Y-38629104D01*
X51442168Y-38644756D01*
X51423448Y-38658640D01*
X51403457Y-38670622D01*
X51382387Y-38680587D01*
X51360443Y-38688439D01*
X51337834Y-38694103D01*
X51314779Y-38697522D01*
X51291500Y-38698666D01*
X50816500Y-38698666D01*
X50793221Y-38697522D01*
X50770166Y-38694103D01*
X50747557Y-38688439D01*
X50725613Y-38680587D01*
X50704543Y-38670622D01*
X50684552Y-38658640D01*
X50665832Y-38644756D01*
X50648562Y-38629104D01*
X50632910Y-38611834D01*
X50619026Y-38593114D01*
X50607044Y-38573123D01*
X50597079Y-38552053D01*
X50589227Y-38530109D01*
X50583563Y-38507500D01*
X50580144Y-38484445D01*
X50579000Y-38461166D01*
X50579000Y-37886166D01*
X50580144Y-37862887D01*
X50583563Y-37839832D01*
X50589227Y-37817223D01*
X50597079Y-37795279D01*
X50607044Y-37774209D01*
X50619026Y-37754218D01*
X50632910Y-37735498D01*
X50648562Y-37718228D01*
X50665832Y-37702576D01*
X50684552Y-37688692D01*
X50704543Y-37676710D01*
X50725613Y-37666745D01*
X50747557Y-37658893D01*
X50770166Y-37653229D01*
X50793221Y-37649810D01*
X50816500Y-37648666D01*
X51291500Y-37648666D01*
X51314779Y-37649810D01*
X51314779Y-37649810D01*
G37*
D12*
X51054000Y-38173666D03*
G04 #@! TD*
D10*
G04 #@! TO.C,R3*
G36*
X51314779Y-42749476D02*
X51337834Y-42752895D01*
X51360443Y-42758559D01*
X51382387Y-42766411D01*
X51403457Y-42776376D01*
X51423448Y-42788358D01*
X51442168Y-42802242D01*
X51459438Y-42817894D01*
X51475090Y-42835164D01*
X51488974Y-42853884D01*
X51500956Y-42873875D01*
X51510921Y-42894945D01*
X51518773Y-42916889D01*
X51524437Y-42939498D01*
X51527856Y-42962553D01*
X51529000Y-42985832D01*
X51529000Y-43560832D01*
X51527856Y-43584111D01*
X51524437Y-43607166D01*
X51518773Y-43629775D01*
X51510921Y-43651719D01*
X51500956Y-43672789D01*
X51488974Y-43692780D01*
X51475090Y-43711500D01*
X51459438Y-43728770D01*
X51442168Y-43744422D01*
X51423448Y-43758306D01*
X51403457Y-43770288D01*
X51382387Y-43780253D01*
X51360443Y-43788105D01*
X51337834Y-43793769D01*
X51314779Y-43797188D01*
X51291500Y-43798332D01*
X50816500Y-43798332D01*
X50793221Y-43797188D01*
X50770166Y-43793769D01*
X50747557Y-43788105D01*
X50725613Y-43780253D01*
X50704543Y-43770288D01*
X50684552Y-43758306D01*
X50665832Y-43744422D01*
X50648562Y-43728770D01*
X50632910Y-43711500D01*
X50619026Y-43692780D01*
X50607044Y-43672789D01*
X50597079Y-43651719D01*
X50589227Y-43629775D01*
X50583563Y-43607166D01*
X50580144Y-43584111D01*
X50579000Y-43560832D01*
X50579000Y-42985832D01*
X50580144Y-42962553D01*
X50583563Y-42939498D01*
X50589227Y-42916889D01*
X50597079Y-42894945D01*
X50607044Y-42873875D01*
X50619026Y-42853884D01*
X50632910Y-42835164D01*
X50648562Y-42817894D01*
X50665832Y-42802242D01*
X50684552Y-42788358D01*
X50704543Y-42776376D01*
X50725613Y-42766411D01*
X50747557Y-42758559D01*
X50770166Y-42752895D01*
X50793221Y-42749476D01*
X50816500Y-42748332D01*
X51291500Y-42748332D01*
X51314779Y-42749476D01*
X51314779Y-42749476D01*
G37*
D12*
X51054000Y-43273332D03*
D10*
G36*
X51314779Y-40999476D02*
X51337834Y-41002895D01*
X51360443Y-41008559D01*
X51382387Y-41016411D01*
X51403457Y-41026376D01*
X51423448Y-41038358D01*
X51442168Y-41052242D01*
X51459438Y-41067894D01*
X51475090Y-41085164D01*
X51488974Y-41103884D01*
X51500956Y-41123875D01*
X51510921Y-41144945D01*
X51518773Y-41166889D01*
X51524437Y-41189498D01*
X51527856Y-41212553D01*
X51529000Y-41235832D01*
X51529000Y-41810832D01*
X51527856Y-41834111D01*
X51524437Y-41857166D01*
X51518773Y-41879775D01*
X51510921Y-41901719D01*
X51500956Y-41922789D01*
X51488974Y-41942780D01*
X51475090Y-41961500D01*
X51459438Y-41978770D01*
X51442168Y-41994422D01*
X51423448Y-42008306D01*
X51403457Y-42020288D01*
X51382387Y-42030253D01*
X51360443Y-42038105D01*
X51337834Y-42043769D01*
X51314779Y-42047188D01*
X51291500Y-42048332D01*
X50816500Y-42048332D01*
X50793221Y-42047188D01*
X50770166Y-42043769D01*
X50747557Y-42038105D01*
X50725613Y-42030253D01*
X50704543Y-42020288D01*
X50684552Y-42008306D01*
X50665832Y-41994422D01*
X50648562Y-41978770D01*
X50632910Y-41961500D01*
X50619026Y-41942780D01*
X50607044Y-41922789D01*
X50597079Y-41901719D01*
X50589227Y-41879775D01*
X50583563Y-41857166D01*
X50580144Y-41834111D01*
X50579000Y-41810832D01*
X50579000Y-41235832D01*
X50580144Y-41212553D01*
X50583563Y-41189498D01*
X50589227Y-41166889D01*
X50597079Y-41144945D01*
X50607044Y-41123875D01*
X50619026Y-41103884D01*
X50632910Y-41085164D01*
X50648562Y-41067894D01*
X50665832Y-41052242D01*
X50684552Y-41038358D01*
X50704543Y-41026376D01*
X50725613Y-41016411D01*
X50747557Y-41008559D01*
X50770166Y-41002895D01*
X50793221Y-40999476D01*
X50816500Y-40998332D01*
X51291500Y-40998332D01*
X51314779Y-40999476D01*
X51314779Y-40999476D01*
G37*
D12*
X51054000Y-41523332D03*
G04 #@! TD*
D10*
G04 #@! TO.C,R4*
G36*
X37446379Y-29233544D02*
X37469434Y-29236963D01*
X37492043Y-29242627D01*
X37513987Y-29250479D01*
X37535057Y-29260444D01*
X37555048Y-29272426D01*
X37573768Y-29286310D01*
X37591038Y-29301962D01*
X37606690Y-29319232D01*
X37620574Y-29337952D01*
X37632556Y-29357943D01*
X37642521Y-29379013D01*
X37650373Y-29400957D01*
X37656037Y-29423566D01*
X37659456Y-29446621D01*
X37660600Y-29469900D01*
X37660600Y-30044900D01*
X37659456Y-30068179D01*
X37656037Y-30091234D01*
X37650373Y-30113843D01*
X37642521Y-30135787D01*
X37632556Y-30156857D01*
X37620574Y-30176848D01*
X37606690Y-30195568D01*
X37591038Y-30212838D01*
X37573768Y-30228490D01*
X37555048Y-30242374D01*
X37535057Y-30254356D01*
X37513987Y-30264321D01*
X37492043Y-30272173D01*
X37469434Y-30277837D01*
X37446379Y-30281256D01*
X37423100Y-30282400D01*
X36948100Y-30282400D01*
X36924821Y-30281256D01*
X36901766Y-30277837D01*
X36879157Y-30272173D01*
X36857213Y-30264321D01*
X36836143Y-30254356D01*
X36816152Y-30242374D01*
X36797432Y-30228490D01*
X36780162Y-30212838D01*
X36764510Y-30195568D01*
X36750626Y-30176848D01*
X36738644Y-30156857D01*
X36728679Y-30135787D01*
X36720827Y-30113843D01*
X36715163Y-30091234D01*
X36711744Y-30068179D01*
X36710600Y-30044900D01*
X36710600Y-29469900D01*
X36711744Y-29446621D01*
X36715163Y-29423566D01*
X36720827Y-29400957D01*
X36728679Y-29379013D01*
X36738644Y-29357943D01*
X36750626Y-29337952D01*
X36764510Y-29319232D01*
X36780162Y-29301962D01*
X36797432Y-29286310D01*
X36816152Y-29272426D01*
X36836143Y-29260444D01*
X36857213Y-29250479D01*
X36879157Y-29242627D01*
X36901766Y-29236963D01*
X36924821Y-29233544D01*
X36948100Y-29232400D01*
X37423100Y-29232400D01*
X37446379Y-29233544D01*
X37446379Y-29233544D01*
G37*
D12*
X37185600Y-29757400D03*
D10*
G36*
X37446379Y-30983544D02*
X37469434Y-30986963D01*
X37492043Y-30992627D01*
X37513987Y-31000479D01*
X37535057Y-31010444D01*
X37555048Y-31022426D01*
X37573768Y-31036310D01*
X37591038Y-31051962D01*
X37606690Y-31069232D01*
X37620574Y-31087952D01*
X37632556Y-31107943D01*
X37642521Y-31129013D01*
X37650373Y-31150957D01*
X37656037Y-31173566D01*
X37659456Y-31196621D01*
X37660600Y-31219900D01*
X37660600Y-31794900D01*
X37659456Y-31818179D01*
X37656037Y-31841234D01*
X37650373Y-31863843D01*
X37642521Y-31885787D01*
X37632556Y-31906857D01*
X37620574Y-31926848D01*
X37606690Y-31945568D01*
X37591038Y-31962838D01*
X37573768Y-31978490D01*
X37555048Y-31992374D01*
X37535057Y-32004356D01*
X37513987Y-32014321D01*
X37492043Y-32022173D01*
X37469434Y-32027837D01*
X37446379Y-32031256D01*
X37423100Y-32032400D01*
X36948100Y-32032400D01*
X36924821Y-32031256D01*
X36901766Y-32027837D01*
X36879157Y-32022173D01*
X36857213Y-32014321D01*
X36836143Y-32004356D01*
X36816152Y-31992374D01*
X36797432Y-31978490D01*
X36780162Y-31962838D01*
X36764510Y-31945568D01*
X36750626Y-31926848D01*
X36738644Y-31906857D01*
X36728679Y-31885787D01*
X36720827Y-31863843D01*
X36715163Y-31841234D01*
X36711744Y-31818179D01*
X36710600Y-31794900D01*
X36710600Y-31219900D01*
X36711744Y-31196621D01*
X36715163Y-31173566D01*
X36720827Y-31150957D01*
X36728679Y-31129013D01*
X36738644Y-31107943D01*
X36750626Y-31087952D01*
X36764510Y-31069232D01*
X36780162Y-31051962D01*
X36797432Y-31036310D01*
X36816152Y-31022426D01*
X36836143Y-31010444D01*
X36857213Y-31000479D01*
X36879157Y-30992627D01*
X36901766Y-30986963D01*
X36924821Y-30983544D01*
X36948100Y-30982400D01*
X37423100Y-30982400D01*
X37446379Y-30983544D01*
X37446379Y-30983544D01*
G37*
D12*
X37185600Y-31507400D03*
G04 #@! TD*
D10*
G04 #@! TO.C,R5*
G36*
X53391779Y-41009476D02*
X53414834Y-41012895D01*
X53437443Y-41018559D01*
X53459387Y-41026411D01*
X53480457Y-41036376D01*
X53500448Y-41048358D01*
X53519168Y-41062242D01*
X53536438Y-41077894D01*
X53552090Y-41095164D01*
X53565974Y-41113884D01*
X53577956Y-41133875D01*
X53587921Y-41154945D01*
X53595773Y-41176889D01*
X53601437Y-41199498D01*
X53604856Y-41222553D01*
X53606000Y-41245832D01*
X53606000Y-41820832D01*
X53604856Y-41844111D01*
X53601437Y-41867166D01*
X53595773Y-41889775D01*
X53587921Y-41911719D01*
X53577956Y-41932789D01*
X53565974Y-41952780D01*
X53552090Y-41971500D01*
X53536438Y-41988770D01*
X53519168Y-42004422D01*
X53500448Y-42018306D01*
X53480457Y-42030288D01*
X53459387Y-42040253D01*
X53437443Y-42048105D01*
X53414834Y-42053769D01*
X53391779Y-42057188D01*
X53368500Y-42058332D01*
X52893500Y-42058332D01*
X52870221Y-42057188D01*
X52847166Y-42053769D01*
X52824557Y-42048105D01*
X52802613Y-42040253D01*
X52781543Y-42030288D01*
X52761552Y-42018306D01*
X52742832Y-42004422D01*
X52725562Y-41988770D01*
X52709910Y-41971500D01*
X52696026Y-41952780D01*
X52684044Y-41932789D01*
X52674079Y-41911719D01*
X52666227Y-41889775D01*
X52660563Y-41867166D01*
X52657144Y-41844111D01*
X52656000Y-41820832D01*
X52656000Y-41245832D01*
X52657144Y-41222553D01*
X52660563Y-41199498D01*
X52666227Y-41176889D01*
X52674079Y-41154945D01*
X52684044Y-41133875D01*
X52696026Y-41113884D01*
X52709910Y-41095164D01*
X52725562Y-41077894D01*
X52742832Y-41062242D01*
X52761552Y-41048358D01*
X52781543Y-41036376D01*
X52802613Y-41026411D01*
X52824557Y-41018559D01*
X52847166Y-41012895D01*
X52870221Y-41009476D01*
X52893500Y-41008332D01*
X53368500Y-41008332D01*
X53391779Y-41009476D01*
X53391779Y-41009476D01*
G37*
D12*
X53131000Y-41533332D03*
D10*
G36*
X53391779Y-42759476D02*
X53414834Y-42762895D01*
X53437443Y-42768559D01*
X53459387Y-42776411D01*
X53480457Y-42786376D01*
X53500448Y-42798358D01*
X53519168Y-42812242D01*
X53536438Y-42827894D01*
X53552090Y-42845164D01*
X53565974Y-42863884D01*
X53577956Y-42883875D01*
X53587921Y-42904945D01*
X53595773Y-42926889D01*
X53601437Y-42949498D01*
X53604856Y-42972553D01*
X53606000Y-42995832D01*
X53606000Y-43570832D01*
X53604856Y-43594111D01*
X53601437Y-43617166D01*
X53595773Y-43639775D01*
X53587921Y-43661719D01*
X53577956Y-43682789D01*
X53565974Y-43702780D01*
X53552090Y-43721500D01*
X53536438Y-43738770D01*
X53519168Y-43754422D01*
X53500448Y-43768306D01*
X53480457Y-43780288D01*
X53459387Y-43790253D01*
X53437443Y-43798105D01*
X53414834Y-43803769D01*
X53391779Y-43807188D01*
X53368500Y-43808332D01*
X52893500Y-43808332D01*
X52870221Y-43807188D01*
X52847166Y-43803769D01*
X52824557Y-43798105D01*
X52802613Y-43790253D01*
X52781543Y-43780288D01*
X52761552Y-43768306D01*
X52742832Y-43754422D01*
X52725562Y-43738770D01*
X52709910Y-43721500D01*
X52696026Y-43702780D01*
X52684044Y-43682789D01*
X52674079Y-43661719D01*
X52666227Y-43639775D01*
X52660563Y-43617166D01*
X52657144Y-43594111D01*
X52656000Y-43570832D01*
X52656000Y-42995832D01*
X52657144Y-42972553D01*
X52660563Y-42949498D01*
X52666227Y-42926889D01*
X52674079Y-42904945D01*
X52684044Y-42883875D01*
X52696026Y-42863884D01*
X52709910Y-42845164D01*
X52725562Y-42827894D01*
X52742832Y-42812242D01*
X52761552Y-42798358D01*
X52781543Y-42786376D01*
X52802613Y-42776411D01*
X52824557Y-42768559D01*
X52847166Y-42762895D01*
X52870221Y-42759476D01*
X52893500Y-42758332D01*
X53368500Y-42758332D01*
X53391779Y-42759476D01*
X53391779Y-42759476D01*
G37*
D12*
X53131000Y-43283332D03*
G04 #@! TD*
D10*
G04 #@! TO.C,R6*
G36*
X22003179Y-29131944D02*
X22026234Y-29135363D01*
X22048843Y-29141027D01*
X22070787Y-29148879D01*
X22091857Y-29158844D01*
X22111848Y-29170826D01*
X22130568Y-29184710D01*
X22147838Y-29200362D01*
X22163490Y-29217632D01*
X22177374Y-29236352D01*
X22189356Y-29256343D01*
X22199321Y-29277413D01*
X22207173Y-29299357D01*
X22212837Y-29321966D01*
X22216256Y-29345021D01*
X22217400Y-29368300D01*
X22217400Y-29943300D01*
X22216256Y-29966579D01*
X22212837Y-29989634D01*
X22207173Y-30012243D01*
X22199321Y-30034187D01*
X22189356Y-30055257D01*
X22177374Y-30075248D01*
X22163490Y-30093968D01*
X22147838Y-30111238D01*
X22130568Y-30126890D01*
X22111848Y-30140774D01*
X22091857Y-30152756D01*
X22070787Y-30162721D01*
X22048843Y-30170573D01*
X22026234Y-30176237D01*
X22003179Y-30179656D01*
X21979900Y-30180800D01*
X21504900Y-30180800D01*
X21481621Y-30179656D01*
X21458566Y-30176237D01*
X21435957Y-30170573D01*
X21414013Y-30162721D01*
X21392943Y-30152756D01*
X21372952Y-30140774D01*
X21354232Y-30126890D01*
X21336962Y-30111238D01*
X21321310Y-30093968D01*
X21307426Y-30075248D01*
X21295444Y-30055257D01*
X21285479Y-30034187D01*
X21277627Y-30012243D01*
X21271963Y-29989634D01*
X21268544Y-29966579D01*
X21267400Y-29943300D01*
X21267400Y-29368300D01*
X21268544Y-29345021D01*
X21271963Y-29321966D01*
X21277627Y-29299357D01*
X21285479Y-29277413D01*
X21295444Y-29256343D01*
X21307426Y-29236352D01*
X21321310Y-29217632D01*
X21336962Y-29200362D01*
X21354232Y-29184710D01*
X21372952Y-29170826D01*
X21392943Y-29158844D01*
X21414013Y-29148879D01*
X21435957Y-29141027D01*
X21458566Y-29135363D01*
X21481621Y-29131944D01*
X21504900Y-29130800D01*
X21979900Y-29130800D01*
X22003179Y-29131944D01*
X22003179Y-29131944D01*
G37*
D12*
X21742400Y-29655800D03*
D10*
G36*
X22003179Y-30881944D02*
X22026234Y-30885363D01*
X22048843Y-30891027D01*
X22070787Y-30898879D01*
X22091857Y-30908844D01*
X22111848Y-30920826D01*
X22130568Y-30934710D01*
X22147838Y-30950362D01*
X22163490Y-30967632D01*
X22177374Y-30986352D01*
X22189356Y-31006343D01*
X22199321Y-31027413D01*
X22207173Y-31049357D01*
X22212837Y-31071966D01*
X22216256Y-31095021D01*
X22217400Y-31118300D01*
X22217400Y-31693300D01*
X22216256Y-31716579D01*
X22212837Y-31739634D01*
X22207173Y-31762243D01*
X22199321Y-31784187D01*
X22189356Y-31805257D01*
X22177374Y-31825248D01*
X22163490Y-31843968D01*
X22147838Y-31861238D01*
X22130568Y-31876890D01*
X22111848Y-31890774D01*
X22091857Y-31902756D01*
X22070787Y-31912721D01*
X22048843Y-31920573D01*
X22026234Y-31926237D01*
X22003179Y-31929656D01*
X21979900Y-31930800D01*
X21504900Y-31930800D01*
X21481621Y-31929656D01*
X21458566Y-31926237D01*
X21435957Y-31920573D01*
X21414013Y-31912721D01*
X21392943Y-31902756D01*
X21372952Y-31890774D01*
X21354232Y-31876890D01*
X21336962Y-31861238D01*
X21321310Y-31843968D01*
X21307426Y-31825248D01*
X21295444Y-31805257D01*
X21285479Y-31784187D01*
X21277627Y-31762243D01*
X21271963Y-31739634D01*
X21268544Y-31716579D01*
X21267400Y-31693300D01*
X21267400Y-31118300D01*
X21268544Y-31095021D01*
X21271963Y-31071966D01*
X21277627Y-31049357D01*
X21285479Y-31027413D01*
X21295444Y-31006343D01*
X21307426Y-30986352D01*
X21321310Y-30967632D01*
X21336962Y-30950362D01*
X21354232Y-30934710D01*
X21372952Y-30920826D01*
X21392943Y-30908844D01*
X21414013Y-30898879D01*
X21435957Y-30891027D01*
X21458566Y-30885363D01*
X21481621Y-30881944D01*
X21504900Y-30880800D01*
X21979900Y-30880800D01*
X22003179Y-30881944D01*
X22003179Y-30881944D01*
G37*
D12*
X21742400Y-31405800D03*
G04 #@! TD*
D10*
G04 #@! TO.C,R7*
G36*
X51314779Y-46099144D02*
X51337834Y-46102563D01*
X51360443Y-46108227D01*
X51382387Y-46116079D01*
X51403457Y-46126044D01*
X51423448Y-46138026D01*
X51442168Y-46151910D01*
X51459438Y-46167562D01*
X51475090Y-46184832D01*
X51488974Y-46203552D01*
X51500956Y-46223543D01*
X51510921Y-46244613D01*
X51518773Y-46266557D01*
X51524437Y-46289166D01*
X51527856Y-46312221D01*
X51529000Y-46335500D01*
X51529000Y-46910500D01*
X51527856Y-46933779D01*
X51524437Y-46956834D01*
X51518773Y-46979443D01*
X51510921Y-47001387D01*
X51500956Y-47022457D01*
X51488974Y-47042448D01*
X51475090Y-47061168D01*
X51459438Y-47078438D01*
X51442168Y-47094090D01*
X51423448Y-47107974D01*
X51403457Y-47119956D01*
X51382387Y-47129921D01*
X51360443Y-47137773D01*
X51337834Y-47143437D01*
X51314779Y-47146856D01*
X51291500Y-47148000D01*
X50816500Y-47148000D01*
X50793221Y-47146856D01*
X50770166Y-47143437D01*
X50747557Y-47137773D01*
X50725613Y-47129921D01*
X50704543Y-47119956D01*
X50684552Y-47107974D01*
X50665832Y-47094090D01*
X50648562Y-47078438D01*
X50632910Y-47061168D01*
X50619026Y-47042448D01*
X50607044Y-47022457D01*
X50597079Y-47001387D01*
X50589227Y-46979443D01*
X50583563Y-46956834D01*
X50580144Y-46933779D01*
X50579000Y-46910500D01*
X50579000Y-46335500D01*
X50580144Y-46312221D01*
X50583563Y-46289166D01*
X50589227Y-46266557D01*
X50597079Y-46244613D01*
X50607044Y-46223543D01*
X50619026Y-46203552D01*
X50632910Y-46184832D01*
X50648562Y-46167562D01*
X50665832Y-46151910D01*
X50684552Y-46138026D01*
X50704543Y-46126044D01*
X50725613Y-46116079D01*
X50747557Y-46108227D01*
X50770166Y-46102563D01*
X50793221Y-46099144D01*
X50816500Y-46098000D01*
X51291500Y-46098000D01*
X51314779Y-46099144D01*
X51314779Y-46099144D01*
G37*
D12*
X51054000Y-46623000D03*
D10*
G36*
X51314779Y-47849144D02*
X51337834Y-47852563D01*
X51360443Y-47858227D01*
X51382387Y-47866079D01*
X51403457Y-47876044D01*
X51423448Y-47888026D01*
X51442168Y-47901910D01*
X51459438Y-47917562D01*
X51475090Y-47934832D01*
X51488974Y-47953552D01*
X51500956Y-47973543D01*
X51510921Y-47994613D01*
X51518773Y-48016557D01*
X51524437Y-48039166D01*
X51527856Y-48062221D01*
X51529000Y-48085500D01*
X51529000Y-48660500D01*
X51527856Y-48683779D01*
X51524437Y-48706834D01*
X51518773Y-48729443D01*
X51510921Y-48751387D01*
X51500956Y-48772457D01*
X51488974Y-48792448D01*
X51475090Y-48811168D01*
X51459438Y-48828438D01*
X51442168Y-48844090D01*
X51423448Y-48857974D01*
X51403457Y-48869956D01*
X51382387Y-48879921D01*
X51360443Y-48887773D01*
X51337834Y-48893437D01*
X51314779Y-48896856D01*
X51291500Y-48898000D01*
X50816500Y-48898000D01*
X50793221Y-48896856D01*
X50770166Y-48893437D01*
X50747557Y-48887773D01*
X50725613Y-48879921D01*
X50704543Y-48869956D01*
X50684552Y-48857974D01*
X50665832Y-48844090D01*
X50648562Y-48828438D01*
X50632910Y-48811168D01*
X50619026Y-48792448D01*
X50607044Y-48772457D01*
X50597079Y-48751387D01*
X50589227Y-48729443D01*
X50583563Y-48706834D01*
X50580144Y-48683779D01*
X50579000Y-48660500D01*
X50579000Y-48085500D01*
X50580144Y-48062221D01*
X50583563Y-48039166D01*
X50589227Y-48016557D01*
X50597079Y-47994613D01*
X50607044Y-47973543D01*
X50619026Y-47953552D01*
X50632910Y-47934832D01*
X50648562Y-47917562D01*
X50665832Y-47901910D01*
X50684552Y-47888026D01*
X50704543Y-47876044D01*
X50725613Y-47866079D01*
X50747557Y-47858227D01*
X50770166Y-47852563D01*
X50793221Y-47849144D01*
X50816500Y-47848000D01*
X51291500Y-47848000D01*
X51314779Y-47849144D01*
X51314779Y-47849144D01*
G37*
D12*
X51054000Y-48373000D03*
G04 #@! TD*
D10*
G04 #@! TO.C,R8*
G36*
X67496379Y-39912144D02*
X67519434Y-39915563D01*
X67542043Y-39921227D01*
X67563987Y-39929079D01*
X67585057Y-39939044D01*
X67605048Y-39951026D01*
X67623768Y-39964910D01*
X67641038Y-39980562D01*
X67656690Y-39997832D01*
X67670574Y-40016552D01*
X67682556Y-40036543D01*
X67692521Y-40057613D01*
X67700373Y-40079557D01*
X67706037Y-40102166D01*
X67709456Y-40125221D01*
X67710600Y-40148500D01*
X67710600Y-40623500D01*
X67709456Y-40646779D01*
X67706037Y-40669834D01*
X67700373Y-40692443D01*
X67692521Y-40714387D01*
X67682556Y-40735457D01*
X67670574Y-40755448D01*
X67656690Y-40774168D01*
X67641038Y-40791438D01*
X67623768Y-40807090D01*
X67605048Y-40820974D01*
X67585057Y-40832956D01*
X67563987Y-40842921D01*
X67542043Y-40850773D01*
X67519434Y-40856437D01*
X67496379Y-40859856D01*
X67473100Y-40861000D01*
X66898100Y-40861000D01*
X66874821Y-40859856D01*
X66851766Y-40856437D01*
X66829157Y-40850773D01*
X66807213Y-40842921D01*
X66786143Y-40832956D01*
X66766152Y-40820974D01*
X66747432Y-40807090D01*
X66730162Y-40791438D01*
X66714510Y-40774168D01*
X66700626Y-40755448D01*
X66688644Y-40735457D01*
X66678679Y-40714387D01*
X66670827Y-40692443D01*
X66665163Y-40669834D01*
X66661744Y-40646779D01*
X66660600Y-40623500D01*
X66660600Y-40148500D01*
X66661744Y-40125221D01*
X66665163Y-40102166D01*
X66670827Y-40079557D01*
X66678679Y-40057613D01*
X66688644Y-40036543D01*
X66700626Y-40016552D01*
X66714510Y-39997832D01*
X66730162Y-39980562D01*
X66747432Y-39964910D01*
X66766152Y-39951026D01*
X66786143Y-39939044D01*
X66807213Y-39929079D01*
X66829157Y-39921227D01*
X66851766Y-39915563D01*
X66874821Y-39912144D01*
X66898100Y-39911000D01*
X67473100Y-39911000D01*
X67496379Y-39912144D01*
X67496379Y-39912144D01*
G37*
D12*
X67185600Y-40386000D03*
D10*
G36*
X69246379Y-39912144D02*
X69269434Y-39915563D01*
X69292043Y-39921227D01*
X69313987Y-39929079D01*
X69335057Y-39939044D01*
X69355048Y-39951026D01*
X69373768Y-39964910D01*
X69391038Y-39980562D01*
X69406690Y-39997832D01*
X69420574Y-40016552D01*
X69432556Y-40036543D01*
X69442521Y-40057613D01*
X69450373Y-40079557D01*
X69456037Y-40102166D01*
X69459456Y-40125221D01*
X69460600Y-40148500D01*
X69460600Y-40623500D01*
X69459456Y-40646779D01*
X69456037Y-40669834D01*
X69450373Y-40692443D01*
X69442521Y-40714387D01*
X69432556Y-40735457D01*
X69420574Y-40755448D01*
X69406690Y-40774168D01*
X69391038Y-40791438D01*
X69373768Y-40807090D01*
X69355048Y-40820974D01*
X69335057Y-40832956D01*
X69313987Y-40842921D01*
X69292043Y-40850773D01*
X69269434Y-40856437D01*
X69246379Y-40859856D01*
X69223100Y-40861000D01*
X68648100Y-40861000D01*
X68624821Y-40859856D01*
X68601766Y-40856437D01*
X68579157Y-40850773D01*
X68557213Y-40842921D01*
X68536143Y-40832956D01*
X68516152Y-40820974D01*
X68497432Y-40807090D01*
X68480162Y-40791438D01*
X68464510Y-40774168D01*
X68450626Y-40755448D01*
X68438644Y-40735457D01*
X68428679Y-40714387D01*
X68420827Y-40692443D01*
X68415163Y-40669834D01*
X68411744Y-40646779D01*
X68410600Y-40623500D01*
X68410600Y-40148500D01*
X68411744Y-40125221D01*
X68415163Y-40102166D01*
X68420827Y-40079557D01*
X68428679Y-40057613D01*
X68438644Y-40036543D01*
X68450626Y-40016552D01*
X68464510Y-39997832D01*
X68480162Y-39980562D01*
X68497432Y-39964910D01*
X68516152Y-39951026D01*
X68536143Y-39939044D01*
X68557213Y-39929079D01*
X68579157Y-39921227D01*
X68601766Y-39915563D01*
X68624821Y-39912144D01*
X68648100Y-39911000D01*
X69223100Y-39911000D01*
X69246379Y-39912144D01*
X69246379Y-39912144D01*
G37*
D12*
X68935600Y-40386000D03*
G04 #@! TD*
D10*
G04 #@! TO.C,R9*
G36*
X57918779Y-38817144D02*
X57941834Y-38820563D01*
X57964443Y-38826227D01*
X57986387Y-38834079D01*
X58007457Y-38844044D01*
X58027448Y-38856026D01*
X58046168Y-38869910D01*
X58063438Y-38885562D01*
X58079090Y-38902832D01*
X58092974Y-38921552D01*
X58104956Y-38941543D01*
X58114921Y-38962613D01*
X58122773Y-38984557D01*
X58128437Y-39007166D01*
X58131856Y-39030221D01*
X58133000Y-39053500D01*
X58133000Y-39628500D01*
X58131856Y-39651779D01*
X58128437Y-39674834D01*
X58122773Y-39697443D01*
X58114921Y-39719387D01*
X58104956Y-39740457D01*
X58092974Y-39760448D01*
X58079090Y-39779168D01*
X58063438Y-39796438D01*
X58046168Y-39812090D01*
X58027448Y-39825974D01*
X58007457Y-39837956D01*
X57986387Y-39847921D01*
X57964443Y-39855773D01*
X57941834Y-39861437D01*
X57918779Y-39864856D01*
X57895500Y-39866000D01*
X57420500Y-39866000D01*
X57397221Y-39864856D01*
X57374166Y-39861437D01*
X57351557Y-39855773D01*
X57329613Y-39847921D01*
X57308543Y-39837956D01*
X57288552Y-39825974D01*
X57269832Y-39812090D01*
X57252562Y-39796438D01*
X57236910Y-39779168D01*
X57223026Y-39760448D01*
X57211044Y-39740457D01*
X57201079Y-39719387D01*
X57193227Y-39697443D01*
X57187563Y-39674834D01*
X57184144Y-39651779D01*
X57183000Y-39628500D01*
X57183000Y-39053500D01*
X57184144Y-39030221D01*
X57187563Y-39007166D01*
X57193227Y-38984557D01*
X57201079Y-38962613D01*
X57211044Y-38941543D01*
X57223026Y-38921552D01*
X57236910Y-38902832D01*
X57252562Y-38885562D01*
X57269832Y-38869910D01*
X57288552Y-38856026D01*
X57308543Y-38844044D01*
X57329613Y-38834079D01*
X57351557Y-38826227D01*
X57374166Y-38820563D01*
X57397221Y-38817144D01*
X57420500Y-38816000D01*
X57895500Y-38816000D01*
X57918779Y-38817144D01*
X57918779Y-38817144D01*
G37*
D12*
X57658000Y-39341000D03*
D10*
G36*
X57918779Y-40567144D02*
X57941834Y-40570563D01*
X57964443Y-40576227D01*
X57986387Y-40584079D01*
X58007457Y-40594044D01*
X58027448Y-40606026D01*
X58046168Y-40619910D01*
X58063438Y-40635562D01*
X58079090Y-40652832D01*
X58092974Y-40671552D01*
X58104956Y-40691543D01*
X58114921Y-40712613D01*
X58122773Y-40734557D01*
X58128437Y-40757166D01*
X58131856Y-40780221D01*
X58133000Y-40803500D01*
X58133000Y-41378500D01*
X58131856Y-41401779D01*
X58128437Y-41424834D01*
X58122773Y-41447443D01*
X58114921Y-41469387D01*
X58104956Y-41490457D01*
X58092974Y-41510448D01*
X58079090Y-41529168D01*
X58063438Y-41546438D01*
X58046168Y-41562090D01*
X58027448Y-41575974D01*
X58007457Y-41587956D01*
X57986387Y-41597921D01*
X57964443Y-41605773D01*
X57941834Y-41611437D01*
X57918779Y-41614856D01*
X57895500Y-41616000D01*
X57420500Y-41616000D01*
X57397221Y-41614856D01*
X57374166Y-41611437D01*
X57351557Y-41605773D01*
X57329613Y-41597921D01*
X57308543Y-41587956D01*
X57288552Y-41575974D01*
X57269832Y-41562090D01*
X57252562Y-41546438D01*
X57236910Y-41529168D01*
X57223026Y-41510448D01*
X57211044Y-41490457D01*
X57201079Y-41469387D01*
X57193227Y-41447443D01*
X57187563Y-41424834D01*
X57184144Y-41401779D01*
X57183000Y-41378500D01*
X57183000Y-40803500D01*
X57184144Y-40780221D01*
X57187563Y-40757166D01*
X57193227Y-40734557D01*
X57201079Y-40712613D01*
X57211044Y-40691543D01*
X57223026Y-40671552D01*
X57236910Y-40652832D01*
X57252562Y-40635562D01*
X57269832Y-40619910D01*
X57288552Y-40606026D01*
X57308543Y-40594044D01*
X57329613Y-40584079D01*
X57351557Y-40576227D01*
X57374166Y-40570563D01*
X57397221Y-40567144D01*
X57420500Y-40566000D01*
X57895500Y-40566000D01*
X57918779Y-40567144D01*
X57918779Y-40567144D01*
G37*
D12*
X57658000Y-41091000D03*
G04 #@! TD*
D10*
G04 #@! TO.C,R10*
G36*
X55886779Y-38817144D02*
X55909834Y-38820563D01*
X55932443Y-38826227D01*
X55954387Y-38834079D01*
X55975457Y-38844044D01*
X55995448Y-38856026D01*
X56014168Y-38869910D01*
X56031438Y-38885562D01*
X56047090Y-38902832D01*
X56060974Y-38921552D01*
X56072956Y-38941543D01*
X56082921Y-38962613D01*
X56090773Y-38984557D01*
X56096437Y-39007166D01*
X56099856Y-39030221D01*
X56101000Y-39053500D01*
X56101000Y-39628500D01*
X56099856Y-39651779D01*
X56096437Y-39674834D01*
X56090773Y-39697443D01*
X56082921Y-39719387D01*
X56072956Y-39740457D01*
X56060974Y-39760448D01*
X56047090Y-39779168D01*
X56031438Y-39796438D01*
X56014168Y-39812090D01*
X55995448Y-39825974D01*
X55975457Y-39837956D01*
X55954387Y-39847921D01*
X55932443Y-39855773D01*
X55909834Y-39861437D01*
X55886779Y-39864856D01*
X55863500Y-39866000D01*
X55388500Y-39866000D01*
X55365221Y-39864856D01*
X55342166Y-39861437D01*
X55319557Y-39855773D01*
X55297613Y-39847921D01*
X55276543Y-39837956D01*
X55256552Y-39825974D01*
X55237832Y-39812090D01*
X55220562Y-39796438D01*
X55204910Y-39779168D01*
X55191026Y-39760448D01*
X55179044Y-39740457D01*
X55169079Y-39719387D01*
X55161227Y-39697443D01*
X55155563Y-39674834D01*
X55152144Y-39651779D01*
X55151000Y-39628500D01*
X55151000Y-39053500D01*
X55152144Y-39030221D01*
X55155563Y-39007166D01*
X55161227Y-38984557D01*
X55169079Y-38962613D01*
X55179044Y-38941543D01*
X55191026Y-38921552D01*
X55204910Y-38902832D01*
X55220562Y-38885562D01*
X55237832Y-38869910D01*
X55256552Y-38856026D01*
X55276543Y-38844044D01*
X55297613Y-38834079D01*
X55319557Y-38826227D01*
X55342166Y-38820563D01*
X55365221Y-38817144D01*
X55388500Y-38816000D01*
X55863500Y-38816000D01*
X55886779Y-38817144D01*
X55886779Y-38817144D01*
G37*
D12*
X55626000Y-39341000D03*
D10*
G36*
X55886779Y-40567144D02*
X55909834Y-40570563D01*
X55932443Y-40576227D01*
X55954387Y-40584079D01*
X55975457Y-40594044D01*
X55995448Y-40606026D01*
X56014168Y-40619910D01*
X56031438Y-40635562D01*
X56047090Y-40652832D01*
X56060974Y-40671552D01*
X56072956Y-40691543D01*
X56082921Y-40712613D01*
X56090773Y-40734557D01*
X56096437Y-40757166D01*
X56099856Y-40780221D01*
X56101000Y-40803500D01*
X56101000Y-41378500D01*
X56099856Y-41401779D01*
X56096437Y-41424834D01*
X56090773Y-41447443D01*
X56082921Y-41469387D01*
X56072956Y-41490457D01*
X56060974Y-41510448D01*
X56047090Y-41529168D01*
X56031438Y-41546438D01*
X56014168Y-41562090D01*
X55995448Y-41575974D01*
X55975457Y-41587956D01*
X55954387Y-41597921D01*
X55932443Y-41605773D01*
X55909834Y-41611437D01*
X55886779Y-41614856D01*
X55863500Y-41616000D01*
X55388500Y-41616000D01*
X55365221Y-41614856D01*
X55342166Y-41611437D01*
X55319557Y-41605773D01*
X55297613Y-41597921D01*
X55276543Y-41587956D01*
X55256552Y-41575974D01*
X55237832Y-41562090D01*
X55220562Y-41546438D01*
X55204910Y-41529168D01*
X55191026Y-41510448D01*
X55179044Y-41490457D01*
X55169079Y-41469387D01*
X55161227Y-41447443D01*
X55155563Y-41424834D01*
X55152144Y-41401779D01*
X55151000Y-41378500D01*
X55151000Y-40803500D01*
X55152144Y-40780221D01*
X55155563Y-40757166D01*
X55161227Y-40734557D01*
X55169079Y-40712613D01*
X55179044Y-40691543D01*
X55191026Y-40671552D01*
X55204910Y-40652832D01*
X55220562Y-40635562D01*
X55237832Y-40619910D01*
X55256552Y-40606026D01*
X55276543Y-40594044D01*
X55297613Y-40584079D01*
X55319557Y-40576227D01*
X55342166Y-40570563D01*
X55365221Y-40567144D01*
X55388500Y-40566000D01*
X55863500Y-40566000D01*
X55886779Y-40567144D01*
X55886779Y-40567144D01*
G37*
D12*
X55626000Y-41091000D03*
G04 #@! TD*
D10*
G04 #@! TO.C,R11*
G36*
X60204779Y-42656144D02*
X60227834Y-42659563D01*
X60250443Y-42665227D01*
X60272387Y-42673079D01*
X60293457Y-42683044D01*
X60313448Y-42695026D01*
X60332168Y-42708910D01*
X60349438Y-42724562D01*
X60365090Y-42741832D01*
X60378974Y-42760552D01*
X60390956Y-42780543D01*
X60400921Y-42801613D01*
X60408773Y-42823557D01*
X60414437Y-42846166D01*
X60417856Y-42869221D01*
X60419000Y-42892500D01*
X60419000Y-43467500D01*
X60417856Y-43490779D01*
X60414437Y-43513834D01*
X60408773Y-43536443D01*
X60400921Y-43558387D01*
X60390956Y-43579457D01*
X60378974Y-43599448D01*
X60365090Y-43618168D01*
X60349438Y-43635438D01*
X60332168Y-43651090D01*
X60313448Y-43664974D01*
X60293457Y-43676956D01*
X60272387Y-43686921D01*
X60250443Y-43694773D01*
X60227834Y-43700437D01*
X60204779Y-43703856D01*
X60181500Y-43705000D01*
X59706500Y-43705000D01*
X59683221Y-43703856D01*
X59660166Y-43700437D01*
X59637557Y-43694773D01*
X59615613Y-43686921D01*
X59594543Y-43676956D01*
X59574552Y-43664974D01*
X59555832Y-43651090D01*
X59538562Y-43635438D01*
X59522910Y-43618168D01*
X59509026Y-43599448D01*
X59497044Y-43579457D01*
X59487079Y-43558387D01*
X59479227Y-43536443D01*
X59473563Y-43513834D01*
X59470144Y-43490779D01*
X59469000Y-43467500D01*
X59469000Y-42892500D01*
X59470144Y-42869221D01*
X59473563Y-42846166D01*
X59479227Y-42823557D01*
X59487079Y-42801613D01*
X59497044Y-42780543D01*
X59509026Y-42760552D01*
X59522910Y-42741832D01*
X59538562Y-42724562D01*
X59555832Y-42708910D01*
X59574552Y-42695026D01*
X59594543Y-42683044D01*
X59615613Y-42673079D01*
X59637557Y-42665227D01*
X59660166Y-42659563D01*
X59683221Y-42656144D01*
X59706500Y-42655000D01*
X60181500Y-42655000D01*
X60204779Y-42656144D01*
X60204779Y-42656144D01*
G37*
D12*
X59944000Y-43180000D03*
D10*
G36*
X60204779Y-44406144D02*
X60227834Y-44409563D01*
X60250443Y-44415227D01*
X60272387Y-44423079D01*
X60293457Y-44433044D01*
X60313448Y-44445026D01*
X60332168Y-44458910D01*
X60349438Y-44474562D01*
X60365090Y-44491832D01*
X60378974Y-44510552D01*
X60390956Y-44530543D01*
X60400921Y-44551613D01*
X60408773Y-44573557D01*
X60414437Y-44596166D01*
X60417856Y-44619221D01*
X60419000Y-44642500D01*
X60419000Y-45217500D01*
X60417856Y-45240779D01*
X60414437Y-45263834D01*
X60408773Y-45286443D01*
X60400921Y-45308387D01*
X60390956Y-45329457D01*
X60378974Y-45349448D01*
X60365090Y-45368168D01*
X60349438Y-45385438D01*
X60332168Y-45401090D01*
X60313448Y-45414974D01*
X60293457Y-45426956D01*
X60272387Y-45436921D01*
X60250443Y-45444773D01*
X60227834Y-45450437D01*
X60204779Y-45453856D01*
X60181500Y-45455000D01*
X59706500Y-45455000D01*
X59683221Y-45453856D01*
X59660166Y-45450437D01*
X59637557Y-45444773D01*
X59615613Y-45436921D01*
X59594543Y-45426956D01*
X59574552Y-45414974D01*
X59555832Y-45401090D01*
X59538562Y-45385438D01*
X59522910Y-45368168D01*
X59509026Y-45349448D01*
X59497044Y-45329457D01*
X59487079Y-45308387D01*
X59479227Y-45286443D01*
X59473563Y-45263834D01*
X59470144Y-45240779D01*
X59469000Y-45217500D01*
X59469000Y-44642500D01*
X59470144Y-44619221D01*
X59473563Y-44596166D01*
X59479227Y-44573557D01*
X59487079Y-44551613D01*
X59497044Y-44530543D01*
X59509026Y-44510552D01*
X59522910Y-44491832D01*
X59538562Y-44474562D01*
X59555832Y-44458910D01*
X59574552Y-44445026D01*
X59594543Y-44433044D01*
X59615613Y-44423079D01*
X59637557Y-44415227D01*
X59660166Y-44409563D01*
X59683221Y-44406144D01*
X59706500Y-44405000D01*
X60181500Y-44405000D01*
X60204779Y-44406144D01*
X60204779Y-44406144D01*
G37*
D12*
X59944000Y-44930000D03*
G04 #@! TD*
D10*
G04 #@! TO.C,R12*
G36*
X58426779Y-44406144D02*
X58449834Y-44409563D01*
X58472443Y-44415227D01*
X58494387Y-44423079D01*
X58515457Y-44433044D01*
X58535448Y-44445026D01*
X58554168Y-44458910D01*
X58571438Y-44474562D01*
X58587090Y-44491832D01*
X58600974Y-44510552D01*
X58612956Y-44530543D01*
X58622921Y-44551613D01*
X58630773Y-44573557D01*
X58636437Y-44596166D01*
X58639856Y-44619221D01*
X58641000Y-44642500D01*
X58641000Y-45217500D01*
X58639856Y-45240779D01*
X58636437Y-45263834D01*
X58630773Y-45286443D01*
X58622921Y-45308387D01*
X58612956Y-45329457D01*
X58600974Y-45349448D01*
X58587090Y-45368168D01*
X58571438Y-45385438D01*
X58554168Y-45401090D01*
X58535448Y-45414974D01*
X58515457Y-45426956D01*
X58494387Y-45436921D01*
X58472443Y-45444773D01*
X58449834Y-45450437D01*
X58426779Y-45453856D01*
X58403500Y-45455000D01*
X57928500Y-45455000D01*
X57905221Y-45453856D01*
X57882166Y-45450437D01*
X57859557Y-45444773D01*
X57837613Y-45436921D01*
X57816543Y-45426956D01*
X57796552Y-45414974D01*
X57777832Y-45401090D01*
X57760562Y-45385438D01*
X57744910Y-45368168D01*
X57731026Y-45349448D01*
X57719044Y-45329457D01*
X57709079Y-45308387D01*
X57701227Y-45286443D01*
X57695563Y-45263834D01*
X57692144Y-45240779D01*
X57691000Y-45217500D01*
X57691000Y-44642500D01*
X57692144Y-44619221D01*
X57695563Y-44596166D01*
X57701227Y-44573557D01*
X57709079Y-44551613D01*
X57719044Y-44530543D01*
X57731026Y-44510552D01*
X57744910Y-44491832D01*
X57760562Y-44474562D01*
X57777832Y-44458910D01*
X57796552Y-44445026D01*
X57816543Y-44433044D01*
X57837613Y-44423079D01*
X57859557Y-44415227D01*
X57882166Y-44409563D01*
X57905221Y-44406144D01*
X57928500Y-44405000D01*
X58403500Y-44405000D01*
X58426779Y-44406144D01*
X58426779Y-44406144D01*
G37*
D12*
X58166000Y-44930000D03*
D10*
G36*
X58426779Y-42656144D02*
X58449834Y-42659563D01*
X58472443Y-42665227D01*
X58494387Y-42673079D01*
X58515457Y-42683044D01*
X58535448Y-42695026D01*
X58554168Y-42708910D01*
X58571438Y-42724562D01*
X58587090Y-42741832D01*
X58600974Y-42760552D01*
X58612956Y-42780543D01*
X58622921Y-42801613D01*
X58630773Y-42823557D01*
X58636437Y-42846166D01*
X58639856Y-42869221D01*
X58641000Y-42892500D01*
X58641000Y-43467500D01*
X58639856Y-43490779D01*
X58636437Y-43513834D01*
X58630773Y-43536443D01*
X58622921Y-43558387D01*
X58612956Y-43579457D01*
X58600974Y-43599448D01*
X58587090Y-43618168D01*
X58571438Y-43635438D01*
X58554168Y-43651090D01*
X58535448Y-43664974D01*
X58515457Y-43676956D01*
X58494387Y-43686921D01*
X58472443Y-43694773D01*
X58449834Y-43700437D01*
X58426779Y-43703856D01*
X58403500Y-43705000D01*
X57928500Y-43705000D01*
X57905221Y-43703856D01*
X57882166Y-43700437D01*
X57859557Y-43694773D01*
X57837613Y-43686921D01*
X57816543Y-43676956D01*
X57796552Y-43664974D01*
X57777832Y-43651090D01*
X57760562Y-43635438D01*
X57744910Y-43618168D01*
X57731026Y-43599448D01*
X57719044Y-43579457D01*
X57709079Y-43558387D01*
X57701227Y-43536443D01*
X57695563Y-43513834D01*
X57692144Y-43490779D01*
X57691000Y-43467500D01*
X57691000Y-42892500D01*
X57692144Y-42869221D01*
X57695563Y-42846166D01*
X57701227Y-42823557D01*
X57709079Y-42801613D01*
X57719044Y-42780543D01*
X57731026Y-42760552D01*
X57744910Y-42741832D01*
X57760562Y-42724562D01*
X57777832Y-42708910D01*
X57796552Y-42695026D01*
X57816543Y-42683044D01*
X57837613Y-42673079D01*
X57859557Y-42665227D01*
X57882166Y-42659563D01*
X57905221Y-42656144D01*
X57928500Y-42655000D01*
X58403500Y-42655000D01*
X58426779Y-42656144D01*
X58426779Y-42656144D01*
G37*
D12*
X58166000Y-43180000D03*
G04 #@! TD*
D10*
G04 #@! TO.C,R13*
G36*
X64065579Y-39709744D02*
X64088634Y-39713163D01*
X64111243Y-39718827D01*
X64133187Y-39726679D01*
X64154257Y-39736644D01*
X64174248Y-39748626D01*
X64192968Y-39762510D01*
X64210238Y-39778162D01*
X64225890Y-39795432D01*
X64239774Y-39814152D01*
X64251756Y-39834143D01*
X64261721Y-39855213D01*
X64269573Y-39877157D01*
X64275237Y-39899766D01*
X64278656Y-39922821D01*
X64279800Y-39946100D01*
X64279800Y-40521100D01*
X64278656Y-40544379D01*
X64275237Y-40567434D01*
X64269573Y-40590043D01*
X64261721Y-40611987D01*
X64251756Y-40633057D01*
X64239774Y-40653048D01*
X64225890Y-40671768D01*
X64210238Y-40689038D01*
X64192968Y-40704690D01*
X64174248Y-40718574D01*
X64154257Y-40730556D01*
X64133187Y-40740521D01*
X64111243Y-40748373D01*
X64088634Y-40754037D01*
X64065579Y-40757456D01*
X64042300Y-40758600D01*
X63567300Y-40758600D01*
X63544021Y-40757456D01*
X63520966Y-40754037D01*
X63498357Y-40748373D01*
X63476413Y-40740521D01*
X63455343Y-40730556D01*
X63435352Y-40718574D01*
X63416632Y-40704690D01*
X63399362Y-40689038D01*
X63383710Y-40671768D01*
X63369826Y-40653048D01*
X63357844Y-40633057D01*
X63347879Y-40611987D01*
X63340027Y-40590043D01*
X63334363Y-40567434D01*
X63330944Y-40544379D01*
X63329800Y-40521100D01*
X63329800Y-39946100D01*
X63330944Y-39922821D01*
X63334363Y-39899766D01*
X63340027Y-39877157D01*
X63347879Y-39855213D01*
X63357844Y-39834143D01*
X63369826Y-39814152D01*
X63383710Y-39795432D01*
X63399362Y-39778162D01*
X63416632Y-39762510D01*
X63435352Y-39748626D01*
X63455343Y-39736644D01*
X63476413Y-39726679D01*
X63498357Y-39718827D01*
X63520966Y-39713163D01*
X63544021Y-39709744D01*
X63567300Y-39708600D01*
X64042300Y-39708600D01*
X64065579Y-39709744D01*
X64065579Y-39709744D01*
G37*
D12*
X63804800Y-40233600D03*
D10*
G36*
X64065579Y-41459744D02*
X64088634Y-41463163D01*
X64111243Y-41468827D01*
X64133187Y-41476679D01*
X64154257Y-41486644D01*
X64174248Y-41498626D01*
X64192968Y-41512510D01*
X64210238Y-41528162D01*
X64225890Y-41545432D01*
X64239774Y-41564152D01*
X64251756Y-41584143D01*
X64261721Y-41605213D01*
X64269573Y-41627157D01*
X64275237Y-41649766D01*
X64278656Y-41672821D01*
X64279800Y-41696100D01*
X64279800Y-42271100D01*
X64278656Y-42294379D01*
X64275237Y-42317434D01*
X64269573Y-42340043D01*
X64261721Y-42361987D01*
X64251756Y-42383057D01*
X64239774Y-42403048D01*
X64225890Y-42421768D01*
X64210238Y-42439038D01*
X64192968Y-42454690D01*
X64174248Y-42468574D01*
X64154257Y-42480556D01*
X64133187Y-42490521D01*
X64111243Y-42498373D01*
X64088634Y-42504037D01*
X64065579Y-42507456D01*
X64042300Y-42508600D01*
X63567300Y-42508600D01*
X63544021Y-42507456D01*
X63520966Y-42504037D01*
X63498357Y-42498373D01*
X63476413Y-42490521D01*
X63455343Y-42480556D01*
X63435352Y-42468574D01*
X63416632Y-42454690D01*
X63399362Y-42439038D01*
X63383710Y-42421768D01*
X63369826Y-42403048D01*
X63357844Y-42383057D01*
X63347879Y-42361987D01*
X63340027Y-42340043D01*
X63334363Y-42317434D01*
X63330944Y-42294379D01*
X63329800Y-42271100D01*
X63329800Y-41696100D01*
X63330944Y-41672821D01*
X63334363Y-41649766D01*
X63340027Y-41627157D01*
X63347879Y-41605213D01*
X63357844Y-41584143D01*
X63369826Y-41564152D01*
X63383710Y-41545432D01*
X63399362Y-41528162D01*
X63416632Y-41512510D01*
X63435352Y-41498626D01*
X63455343Y-41486644D01*
X63476413Y-41476679D01*
X63498357Y-41468827D01*
X63520966Y-41463163D01*
X63544021Y-41459744D01*
X63567300Y-41458600D01*
X64042300Y-41458600D01*
X64065579Y-41459744D01*
X64065579Y-41459744D01*
G37*
D12*
X63804800Y-41983600D03*
G04 #@! TD*
D10*
G04 #@! TO.C,R14*
G36*
X73666779Y-34641144D02*
X73689834Y-34644563D01*
X73712443Y-34650227D01*
X73734387Y-34658079D01*
X73755457Y-34668044D01*
X73775448Y-34680026D01*
X73794168Y-34693910D01*
X73811438Y-34709562D01*
X73827090Y-34726832D01*
X73840974Y-34745552D01*
X73852956Y-34765543D01*
X73862921Y-34786613D01*
X73870773Y-34808557D01*
X73876437Y-34831166D01*
X73879856Y-34854221D01*
X73881000Y-34877500D01*
X73881000Y-35452500D01*
X73879856Y-35475779D01*
X73876437Y-35498834D01*
X73870773Y-35521443D01*
X73862921Y-35543387D01*
X73852956Y-35564457D01*
X73840974Y-35584448D01*
X73827090Y-35603168D01*
X73811438Y-35620438D01*
X73794168Y-35636090D01*
X73775448Y-35649974D01*
X73755457Y-35661956D01*
X73734387Y-35671921D01*
X73712443Y-35679773D01*
X73689834Y-35685437D01*
X73666779Y-35688856D01*
X73643500Y-35690000D01*
X73168500Y-35690000D01*
X73145221Y-35688856D01*
X73122166Y-35685437D01*
X73099557Y-35679773D01*
X73077613Y-35671921D01*
X73056543Y-35661956D01*
X73036552Y-35649974D01*
X73017832Y-35636090D01*
X73000562Y-35620438D01*
X72984910Y-35603168D01*
X72971026Y-35584448D01*
X72959044Y-35564457D01*
X72949079Y-35543387D01*
X72941227Y-35521443D01*
X72935563Y-35498834D01*
X72932144Y-35475779D01*
X72931000Y-35452500D01*
X72931000Y-34877500D01*
X72932144Y-34854221D01*
X72935563Y-34831166D01*
X72941227Y-34808557D01*
X72949079Y-34786613D01*
X72959044Y-34765543D01*
X72971026Y-34745552D01*
X72984910Y-34726832D01*
X73000562Y-34709562D01*
X73017832Y-34693910D01*
X73036552Y-34680026D01*
X73056543Y-34668044D01*
X73077613Y-34658079D01*
X73099557Y-34650227D01*
X73122166Y-34644563D01*
X73145221Y-34641144D01*
X73168500Y-34640000D01*
X73643500Y-34640000D01*
X73666779Y-34641144D01*
X73666779Y-34641144D01*
G37*
D12*
X73406000Y-35165000D03*
D10*
G36*
X73666779Y-32891144D02*
X73689834Y-32894563D01*
X73712443Y-32900227D01*
X73734387Y-32908079D01*
X73755457Y-32918044D01*
X73775448Y-32930026D01*
X73794168Y-32943910D01*
X73811438Y-32959562D01*
X73827090Y-32976832D01*
X73840974Y-32995552D01*
X73852956Y-33015543D01*
X73862921Y-33036613D01*
X73870773Y-33058557D01*
X73876437Y-33081166D01*
X73879856Y-33104221D01*
X73881000Y-33127500D01*
X73881000Y-33702500D01*
X73879856Y-33725779D01*
X73876437Y-33748834D01*
X73870773Y-33771443D01*
X73862921Y-33793387D01*
X73852956Y-33814457D01*
X73840974Y-33834448D01*
X73827090Y-33853168D01*
X73811438Y-33870438D01*
X73794168Y-33886090D01*
X73775448Y-33899974D01*
X73755457Y-33911956D01*
X73734387Y-33921921D01*
X73712443Y-33929773D01*
X73689834Y-33935437D01*
X73666779Y-33938856D01*
X73643500Y-33940000D01*
X73168500Y-33940000D01*
X73145221Y-33938856D01*
X73122166Y-33935437D01*
X73099557Y-33929773D01*
X73077613Y-33921921D01*
X73056543Y-33911956D01*
X73036552Y-33899974D01*
X73017832Y-33886090D01*
X73000562Y-33870438D01*
X72984910Y-33853168D01*
X72971026Y-33834448D01*
X72959044Y-33814457D01*
X72949079Y-33793387D01*
X72941227Y-33771443D01*
X72935563Y-33748834D01*
X72932144Y-33725779D01*
X72931000Y-33702500D01*
X72931000Y-33127500D01*
X72932144Y-33104221D01*
X72935563Y-33081166D01*
X72941227Y-33058557D01*
X72949079Y-33036613D01*
X72959044Y-33015543D01*
X72971026Y-32995552D01*
X72984910Y-32976832D01*
X73000562Y-32959562D01*
X73017832Y-32943910D01*
X73036552Y-32930026D01*
X73056543Y-32918044D01*
X73077613Y-32908079D01*
X73099557Y-32900227D01*
X73122166Y-32894563D01*
X73145221Y-32891144D01*
X73168500Y-32890000D01*
X73643500Y-32890000D01*
X73666779Y-32891144D01*
X73666779Y-32891144D01*
G37*
D12*
X73406000Y-33415000D03*
G04 #@! TD*
D10*
G04 #@! TO.C,R15*
G36*
X71015779Y-30768144D02*
X71038834Y-30771563D01*
X71061443Y-30777227D01*
X71083387Y-30785079D01*
X71104457Y-30795044D01*
X71124448Y-30807026D01*
X71143168Y-30820910D01*
X71160438Y-30836562D01*
X71176090Y-30853832D01*
X71189974Y-30872552D01*
X71201956Y-30892543D01*
X71211921Y-30913613D01*
X71219773Y-30935557D01*
X71225437Y-30958166D01*
X71228856Y-30981221D01*
X71230000Y-31004500D01*
X71230000Y-31479500D01*
X71228856Y-31502779D01*
X71225437Y-31525834D01*
X71219773Y-31548443D01*
X71211921Y-31570387D01*
X71201956Y-31591457D01*
X71189974Y-31611448D01*
X71176090Y-31630168D01*
X71160438Y-31647438D01*
X71143168Y-31663090D01*
X71124448Y-31676974D01*
X71104457Y-31688956D01*
X71083387Y-31698921D01*
X71061443Y-31706773D01*
X71038834Y-31712437D01*
X71015779Y-31715856D01*
X70992500Y-31717000D01*
X70417500Y-31717000D01*
X70394221Y-31715856D01*
X70371166Y-31712437D01*
X70348557Y-31706773D01*
X70326613Y-31698921D01*
X70305543Y-31688956D01*
X70285552Y-31676974D01*
X70266832Y-31663090D01*
X70249562Y-31647438D01*
X70233910Y-31630168D01*
X70220026Y-31611448D01*
X70208044Y-31591457D01*
X70198079Y-31570387D01*
X70190227Y-31548443D01*
X70184563Y-31525834D01*
X70181144Y-31502779D01*
X70180000Y-31479500D01*
X70180000Y-31004500D01*
X70181144Y-30981221D01*
X70184563Y-30958166D01*
X70190227Y-30935557D01*
X70198079Y-30913613D01*
X70208044Y-30892543D01*
X70220026Y-30872552D01*
X70233910Y-30853832D01*
X70249562Y-30836562D01*
X70266832Y-30820910D01*
X70285552Y-30807026D01*
X70305543Y-30795044D01*
X70326613Y-30785079D01*
X70348557Y-30777227D01*
X70371166Y-30771563D01*
X70394221Y-30768144D01*
X70417500Y-30767000D01*
X70992500Y-30767000D01*
X71015779Y-30768144D01*
X71015779Y-30768144D01*
G37*
D12*
X70705000Y-31242000D03*
D10*
G36*
X69265779Y-30768144D02*
X69288834Y-30771563D01*
X69311443Y-30777227D01*
X69333387Y-30785079D01*
X69354457Y-30795044D01*
X69374448Y-30807026D01*
X69393168Y-30820910D01*
X69410438Y-30836562D01*
X69426090Y-30853832D01*
X69439974Y-30872552D01*
X69451956Y-30892543D01*
X69461921Y-30913613D01*
X69469773Y-30935557D01*
X69475437Y-30958166D01*
X69478856Y-30981221D01*
X69480000Y-31004500D01*
X69480000Y-31479500D01*
X69478856Y-31502779D01*
X69475437Y-31525834D01*
X69469773Y-31548443D01*
X69461921Y-31570387D01*
X69451956Y-31591457D01*
X69439974Y-31611448D01*
X69426090Y-31630168D01*
X69410438Y-31647438D01*
X69393168Y-31663090D01*
X69374448Y-31676974D01*
X69354457Y-31688956D01*
X69333387Y-31698921D01*
X69311443Y-31706773D01*
X69288834Y-31712437D01*
X69265779Y-31715856D01*
X69242500Y-31717000D01*
X68667500Y-31717000D01*
X68644221Y-31715856D01*
X68621166Y-31712437D01*
X68598557Y-31706773D01*
X68576613Y-31698921D01*
X68555543Y-31688956D01*
X68535552Y-31676974D01*
X68516832Y-31663090D01*
X68499562Y-31647438D01*
X68483910Y-31630168D01*
X68470026Y-31611448D01*
X68458044Y-31591457D01*
X68448079Y-31570387D01*
X68440227Y-31548443D01*
X68434563Y-31525834D01*
X68431144Y-31502779D01*
X68430000Y-31479500D01*
X68430000Y-31004500D01*
X68431144Y-30981221D01*
X68434563Y-30958166D01*
X68440227Y-30935557D01*
X68448079Y-30913613D01*
X68458044Y-30892543D01*
X68470026Y-30872552D01*
X68483910Y-30853832D01*
X68499562Y-30836562D01*
X68516832Y-30820910D01*
X68535552Y-30807026D01*
X68555543Y-30795044D01*
X68576613Y-30785079D01*
X68598557Y-30777227D01*
X68621166Y-30771563D01*
X68644221Y-30768144D01*
X68667500Y-30767000D01*
X69242500Y-30767000D01*
X69265779Y-30768144D01*
X69265779Y-30768144D01*
G37*
D12*
X68955000Y-31242000D03*
G04 #@! TD*
D10*
G04 #@! TO.C,R16*
G36*
X62413779Y-48598944D02*
X62436834Y-48602363D01*
X62459443Y-48608027D01*
X62481387Y-48615879D01*
X62502457Y-48625844D01*
X62522448Y-48637826D01*
X62541168Y-48651710D01*
X62558438Y-48667362D01*
X62574090Y-48684632D01*
X62587974Y-48703352D01*
X62599956Y-48723343D01*
X62609921Y-48744413D01*
X62617773Y-48766357D01*
X62623437Y-48788966D01*
X62626856Y-48812021D01*
X62628000Y-48835300D01*
X62628000Y-49310300D01*
X62626856Y-49333579D01*
X62623437Y-49356634D01*
X62617773Y-49379243D01*
X62609921Y-49401187D01*
X62599956Y-49422257D01*
X62587974Y-49442248D01*
X62574090Y-49460968D01*
X62558438Y-49478238D01*
X62541168Y-49493890D01*
X62522448Y-49507774D01*
X62502457Y-49519756D01*
X62481387Y-49529721D01*
X62459443Y-49537573D01*
X62436834Y-49543237D01*
X62413779Y-49546656D01*
X62390500Y-49547800D01*
X61815500Y-49547800D01*
X61792221Y-49546656D01*
X61769166Y-49543237D01*
X61746557Y-49537573D01*
X61724613Y-49529721D01*
X61703543Y-49519756D01*
X61683552Y-49507774D01*
X61664832Y-49493890D01*
X61647562Y-49478238D01*
X61631910Y-49460968D01*
X61618026Y-49442248D01*
X61606044Y-49422257D01*
X61596079Y-49401187D01*
X61588227Y-49379243D01*
X61582563Y-49356634D01*
X61579144Y-49333579D01*
X61578000Y-49310300D01*
X61578000Y-48835300D01*
X61579144Y-48812021D01*
X61582563Y-48788966D01*
X61588227Y-48766357D01*
X61596079Y-48744413D01*
X61606044Y-48723343D01*
X61618026Y-48703352D01*
X61631910Y-48684632D01*
X61647562Y-48667362D01*
X61664832Y-48651710D01*
X61683552Y-48637826D01*
X61703543Y-48625844D01*
X61724613Y-48615879D01*
X61746557Y-48608027D01*
X61769166Y-48602363D01*
X61792221Y-48598944D01*
X61815500Y-48597800D01*
X62390500Y-48597800D01*
X62413779Y-48598944D01*
X62413779Y-48598944D01*
G37*
D12*
X62103000Y-49072800D03*
D10*
G36*
X64163779Y-48598944D02*
X64186834Y-48602363D01*
X64209443Y-48608027D01*
X64231387Y-48615879D01*
X64252457Y-48625844D01*
X64272448Y-48637826D01*
X64291168Y-48651710D01*
X64308438Y-48667362D01*
X64324090Y-48684632D01*
X64337974Y-48703352D01*
X64349956Y-48723343D01*
X64359921Y-48744413D01*
X64367773Y-48766357D01*
X64373437Y-48788966D01*
X64376856Y-48812021D01*
X64378000Y-48835300D01*
X64378000Y-49310300D01*
X64376856Y-49333579D01*
X64373437Y-49356634D01*
X64367773Y-49379243D01*
X64359921Y-49401187D01*
X64349956Y-49422257D01*
X64337974Y-49442248D01*
X64324090Y-49460968D01*
X64308438Y-49478238D01*
X64291168Y-49493890D01*
X64272448Y-49507774D01*
X64252457Y-49519756D01*
X64231387Y-49529721D01*
X64209443Y-49537573D01*
X64186834Y-49543237D01*
X64163779Y-49546656D01*
X64140500Y-49547800D01*
X63565500Y-49547800D01*
X63542221Y-49546656D01*
X63519166Y-49543237D01*
X63496557Y-49537573D01*
X63474613Y-49529721D01*
X63453543Y-49519756D01*
X63433552Y-49507774D01*
X63414832Y-49493890D01*
X63397562Y-49478238D01*
X63381910Y-49460968D01*
X63368026Y-49442248D01*
X63356044Y-49422257D01*
X63346079Y-49401187D01*
X63338227Y-49379243D01*
X63332563Y-49356634D01*
X63329144Y-49333579D01*
X63328000Y-49310300D01*
X63328000Y-48835300D01*
X63329144Y-48812021D01*
X63332563Y-48788966D01*
X63338227Y-48766357D01*
X63346079Y-48744413D01*
X63356044Y-48723343D01*
X63368026Y-48703352D01*
X63381910Y-48684632D01*
X63397562Y-48667362D01*
X63414832Y-48651710D01*
X63433552Y-48637826D01*
X63453543Y-48625844D01*
X63474613Y-48615879D01*
X63496557Y-48608027D01*
X63519166Y-48602363D01*
X63542221Y-48598944D01*
X63565500Y-48597800D01*
X64140500Y-48597800D01*
X64163779Y-48598944D01*
X64163779Y-48598944D01*
G37*
D12*
X63853000Y-49072800D03*
G04 #@! TD*
D10*
G04 #@! TO.C,R17*
G36*
X75546379Y-27901344D02*
X75569434Y-27904763D01*
X75592043Y-27910427D01*
X75613987Y-27918279D01*
X75635057Y-27928244D01*
X75655048Y-27940226D01*
X75673768Y-27954110D01*
X75691038Y-27969762D01*
X75706690Y-27987032D01*
X75720574Y-28005752D01*
X75732556Y-28025743D01*
X75742521Y-28046813D01*
X75750373Y-28068757D01*
X75756037Y-28091366D01*
X75759456Y-28114421D01*
X75760600Y-28137700D01*
X75760600Y-28712700D01*
X75759456Y-28735979D01*
X75756037Y-28759034D01*
X75750373Y-28781643D01*
X75742521Y-28803587D01*
X75732556Y-28824657D01*
X75720574Y-28844648D01*
X75706690Y-28863368D01*
X75691038Y-28880638D01*
X75673768Y-28896290D01*
X75655048Y-28910174D01*
X75635057Y-28922156D01*
X75613987Y-28932121D01*
X75592043Y-28939973D01*
X75569434Y-28945637D01*
X75546379Y-28949056D01*
X75523100Y-28950200D01*
X75048100Y-28950200D01*
X75024821Y-28949056D01*
X75001766Y-28945637D01*
X74979157Y-28939973D01*
X74957213Y-28932121D01*
X74936143Y-28922156D01*
X74916152Y-28910174D01*
X74897432Y-28896290D01*
X74880162Y-28880638D01*
X74864510Y-28863368D01*
X74850626Y-28844648D01*
X74838644Y-28824657D01*
X74828679Y-28803587D01*
X74820827Y-28781643D01*
X74815163Y-28759034D01*
X74811744Y-28735979D01*
X74810600Y-28712700D01*
X74810600Y-28137700D01*
X74811744Y-28114421D01*
X74815163Y-28091366D01*
X74820827Y-28068757D01*
X74828679Y-28046813D01*
X74838644Y-28025743D01*
X74850626Y-28005752D01*
X74864510Y-27987032D01*
X74880162Y-27969762D01*
X74897432Y-27954110D01*
X74916152Y-27940226D01*
X74936143Y-27928244D01*
X74957213Y-27918279D01*
X74979157Y-27910427D01*
X75001766Y-27904763D01*
X75024821Y-27901344D01*
X75048100Y-27900200D01*
X75523100Y-27900200D01*
X75546379Y-27901344D01*
X75546379Y-27901344D01*
G37*
D12*
X75285600Y-28425200D03*
D10*
G36*
X75546379Y-29651344D02*
X75569434Y-29654763D01*
X75592043Y-29660427D01*
X75613987Y-29668279D01*
X75635057Y-29678244D01*
X75655048Y-29690226D01*
X75673768Y-29704110D01*
X75691038Y-29719762D01*
X75706690Y-29737032D01*
X75720574Y-29755752D01*
X75732556Y-29775743D01*
X75742521Y-29796813D01*
X75750373Y-29818757D01*
X75756037Y-29841366D01*
X75759456Y-29864421D01*
X75760600Y-29887700D01*
X75760600Y-30462700D01*
X75759456Y-30485979D01*
X75756037Y-30509034D01*
X75750373Y-30531643D01*
X75742521Y-30553587D01*
X75732556Y-30574657D01*
X75720574Y-30594648D01*
X75706690Y-30613368D01*
X75691038Y-30630638D01*
X75673768Y-30646290D01*
X75655048Y-30660174D01*
X75635057Y-30672156D01*
X75613987Y-30682121D01*
X75592043Y-30689973D01*
X75569434Y-30695637D01*
X75546379Y-30699056D01*
X75523100Y-30700200D01*
X75048100Y-30700200D01*
X75024821Y-30699056D01*
X75001766Y-30695637D01*
X74979157Y-30689973D01*
X74957213Y-30682121D01*
X74936143Y-30672156D01*
X74916152Y-30660174D01*
X74897432Y-30646290D01*
X74880162Y-30630638D01*
X74864510Y-30613368D01*
X74850626Y-30594648D01*
X74838644Y-30574657D01*
X74828679Y-30553587D01*
X74820827Y-30531643D01*
X74815163Y-30509034D01*
X74811744Y-30485979D01*
X74810600Y-30462700D01*
X74810600Y-29887700D01*
X74811744Y-29864421D01*
X74815163Y-29841366D01*
X74820827Y-29818757D01*
X74828679Y-29796813D01*
X74838644Y-29775743D01*
X74850626Y-29755752D01*
X74864510Y-29737032D01*
X74880162Y-29719762D01*
X74897432Y-29704110D01*
X74916152Y-29690226D01*
X74936143Y-29678244D01*
X74957213Y-29668279D01*
X74979157Y-29660427D01*
X75001766Y-29654763D01*
X75024821Y-29651344D01*
X75048100Y-29650200D01*
X75523100Y-29650200D01*
X75546379Y-29651344D01*
X75546379Y-29651344D01*
G37*
D12*
X75285600Y-30175200D03*
G04 #@! TD*
D10*
G04 #@! TO.C,R18*
G36*
X73666779Y-24735144D02*
X73689834Y-24738563D01*
X73712443Y-24744227D01*
X73734387Y-24752079D01*
X73755457Y-24762044D01*
X73775448Y-24774026D01*
X73794168Y-24787910D01*
X73811438Y-24803562D01*
X73827090Y-24820832D01*
X73840974Y-24839552D01*
X73852956Y-24859543D01*
X73862921Y-24880613D01*
X73870773Y-24902557D01*
X73876437Y-24925166D01*
X73879856Y-24948221D01*
X73881000Y-24971500D01*
X73881000Y-25546500D01*
X73879856Y-25569779D01*
X73876437Y-25592834D01*
X73870773Y-25615443D01*
X73862921Y-25637387D01*
X73852956Y-25658457D01*
X73840974Y-25678448D01*
X73827090Y-25697168D01*
X73811438Y-25714438D01*
X73794168Y-25730090D01*
X73775448Y-25743974D01*
X73755457Y-25755956D01*
X73734387Y-25765921D01*
X73712443Y-25773773D01*
X73689834Y-25779437D01*
X73666779Y-25782856D01*
X73643500Y-25784000D01*
X73168500Y-25784000D01*
X73145221Y-25782856D01*
X73122166Y-25779437D01*
X73099557Y-25773773D01*
X73077613Y-25765921D01*
X73056543Y-25755956D01*
X73036552Y-25743974D01*
X73017832Y-25730090D01*
X73000562Y-25714438D01*
X72984910Y-25697168D01*
X72971026Y-25678448D01*
X72959044Y-25658457D01*
X72949079Y-25637387D01*
X72941227Y-25615443D01*
X72935563Y-25592834D01*
X72932144Y-25569779D01*
X72931000Y-25546500D01*
X72931000Y-24971500D01*
X72932144Y-24948221D01*
X72935563Y-24925166D01*
X72941227Y-24902557D01*
X72949079Y-24880613D01*
X72959044Y-24859543D01*
X72971026Y-24839552D01*
X72984910Y-24820832D01*
X73000562Y-24803562D01*
X73017832Y-24787910D01*
X73036552Y-24774026D01*
X73056543Y-24762044D01*
X73077613Y-24752079D01*
X73099557Y-24744227D01*
X73122166Y-24738563D01*
X73145221Y-24735144D01*
X73168500Y-24734000D01*
X73643500Y-24734000D01*
X73666779Y-24735144D01*
X73666779Y-24735144D01*
G37*
D12*
X73406000Y-25259000D03*
D10*
G36*
X73666779Y-22985144D02*
X73689834Y-22988563D01*
X73712443Y-22994227D01*
X73734387Y-23002079D01*
X73755457Y-23012044D01*
X73775448Y-23024026D01*
X73794168Y-23037910D01*
X73811438Y-23053562D01*
X73827090Y-23070832D01*
X73840974Y-23089552D01*
X73852956Y-23109543D01*
X73862921Y-23130613D01*
X73870773Y-23152557D01*
X73876437Y-23175166D01*
X73879856Y-23198221D01*
X73881000Y-23221500D01*
X73881000Y-23796500D01*
X73879856Y-23819779D01*
X73876437Y-23842834D01*
X73870773Y-23865443D01*
X73862921Y-23887387D01*
X73852956Y-23908457D01*
X73840974Y-23928448D01*
X73827090Y-23947168D01*
X73811438Y-23964438D01*
X73794168Y-23980090D01*
X73775448Y-23993974D01*
X73755457Y-24005956D01*
X73734387Y-24015921D01*
X73712443Y-24023773D01*
X73689834Y-24029437D01*
X73666779Y-24032856D01*
X73643500Y-24034000D01*
X73168500Y-24034000D01*
X73145221Y-24032856D01*
X73122166Y-24029437D01*
X73099557Y-24023773D01*
X73077613Y-24015921D01*
X73056543Y-24005956D01*
X73036552Y-23993974D01*
X73017832Y-23980090D01*
X73000562Y-23964438D01*
X72984910Y-23947168D01*
X72971026Y-23928448D01*
X72959044Y-23908457D01*
X72949079Y-23887387D01*
X72941227Y-23865443D01*
X72935563Y-23842834D01*
X72932144Y-23819779D01*
X72931000Y-23796500D01*
X72931000Y-23221500D01*
X72932144Y-23198221D01*
X72935563Y-23175166D01*
X72941227Y-23152557D01*
X72949079Y-23130613D01*
X72959044Y-23109543D01*
X72971026Y-23089552D01*
X72984910Y-23070832D01*
X73000562Y-23053562D01*
X73017832Y-23037910D01*
X73036552Y-23024026D01*
X73056543Y-23012044D01*
X73077613Y-23002079D01*
X73099557Y-22994227D01*
X73122166Y-22988563D01*
X73145221Y-22985144D01*
X73168500Y-22984000D01*
X73643500Y-22984000D01*
X73666779Y-22985144D01*
X73666779Y-22985144D01*
G37*
D12*
X73406000Y-23509000D03*
G04 #@! TD*
D10*
G04 #@! TO.C,R19*
G36*
X69348779Y-24819144D02*
X69371834Y-24822563D01*
X69394443Y-24828227D01*
X69416387Y-24836079D01*
X69437457Y-24846044D01*
X69457448Y-24858026D01*
X69476168Y-24871910D01*
X69493438Y-24887562D01*
X69509090Y-24904832D01*
X69522974Y-24923552D01*
X69534956Y-24943543D01*
X69544921Y-24964613D01*
X69552773Y-24986557D01*
X69558437Y-25009166D01*
X69561856Y-25032221D01*
X69563000Y-25055500D01*
X69563000Y-25630500D01*
X69561856Y-25653779D01*
X69558437Y-25676834D01*
X69552773Y-25699443D01*
X69544921Y-25721387D01*
X69534956Y-25742457D01*
X69522974Y-25762448D01*
X69509090Y-25781168D01*
X69493438Y-25798438D01*
X69476168Y-25814090D01*
X69457448Y-25827974D01*
X69437457Y-25839956D01*
X69416387Y-25849921D01*
X69394443Y-25857773D01*
X69371834Y-25863437D01*
X69348779Y-25866856D01*
X69325500Y-25868000D01*
X68850500Y-25868000D01*
X68827221Y-25866856D01*
X68804166Y-25863437D01*
X68781557Y-25857773D01*
X68759613Y-25849921D01*
X68738543Y-25839956D01*
X68718552Y-25827974D01*
X68699832Y-25814090D01*
X68682562Y-25798438D01*
X68666910Y-25781168D01*
X68653026Y-25762448D01*
X68641044Y-25742457D01*
X68631079Y-25721387D01*
X68623227Y-25699443D01*
X68617563Y-25676834D01*
X68614144Y-25653779D01*
X68613000Y-25630500D01*
X68613000Y-25055500D01*
X68614144Y-25032221D01*
X68617563Y-25009166D01*
X68623227Y-24986557D01*
X68631079Y-24964613D01*
X68641044Y-24943543D01*
X68653026Y-24923552D01*
X68666910Y-24904832D01*
X68682562Y-24887562D01*
X68699832Y-24871910D01*
X68718552Y-24858026D01*
X68738543Y-24846044D01*
X68759613Y-24836079D01*
X68781557Y-24828227D01*
X68804166Y-24822563D01*
X68827221Y-24819144D01*
X68850500Y-24818000D01*
X69325500Y-24818000D01*
X69348779Y-24819144D01*
X69348779Y-24819144D01*
G37*
D12*
X69088000Y-25343000D03*
D10*
G36*
X69348779Y-23069144D02*
X69371834Y-23072563D01*
X69394443Y-23078227D01*
X69416387Y-23086079D01*
X69437457Y-23096044D01*
X69457448Y-23108026D01*
X69476168Y-23121910D01*
X69493438Y-23137562D01*
X69509090Y-23154832D01*
X69522974Y-23173552D01*
X69534956Y-23193543D01*
X69544921Y-23214613D01*
X69552773Y-23236557D01*
X69558437Y-23259166D01*
X69561856Y-23282221D01*
X69563000Y-23305500D01*
X69563000Y-23880500D01*
X69561856Y-23903779D01*
X69558437Y-23926834D01*
X69552773Y-23949443D01*
X69544921Y-23971387D01*
X69534956Y-23992457D01*
X69522974Y-24012448D01*
X69509090Y-24031168D01*
X69493438Y-24048438D01*
X69476168Y-24064090D01*
X69457448Y-24077974D01*
X69437457Y-24089956D01*
X69416387Y-24099921D01*
X69394443Y-24107773D01*
X69371834Y-24113437D01*
X69348779Y-24116856D01*
X69325500Y-24118000D01*
X68850500Y-24118000D01*
X68827221Y-24116856D01*
X68804166Y-24113437D01*
X68781557Y-24107773D01*
X68759613Y-24099921D01*
X68738543Y-24089956D01*
X68718552Y-24077974D01*
X68699832Y-24064090D01*
X68682562Y-24048438D01*
X68666910Y-24031168D01*
X68653026Y-24012448D01*
X68641044Y-23992457D01*
X68631079Y-23971387D01*
X68623227Y-23949443D01*
X68617563Y-23926834D01*
X68614144Y-23903779D01*
X68613000Y-23880500D01*
X68613000Y-23305500D01*
X68614144Y-23282221D01*
X68617563Y-23259166D01*
X68623227Y-23236557D01*
X68631079Y-23214613D01*
X68641044Y-23193543D01*
X68653026Y-23173552D01*
X68666910Y-23154832D01*
X68682562Y-23137562D01*
X68699832Y-23121910D01*
X68718552Y-23108026D01*
X68738543Y-23096044D01*
X68759613Y-23086079D01*
X68781557Y-23078227D01*
X68804166Y-23072563D01*
X68827221Y-23069144D01*
X68850500Y-23068000D01*
X69325500Y-23068000D01*
X69348779Y-23069144D01*
X69348779Y-23069144D01*
G37*
D12*
X69088000Y-23593000D03*
G04 #@! TD*
D10*
G04 #@! TO.C,R20*
G36*
X71380779Y-24819144D02*
X71403834Y-24822563D01*
X71426443Y-24828227D01*
X71448387Y-24836079D01*
X71469457Y-24846044D01*
X71489448Y-24858026D01*
X71508168Y-24871910D01*
X71525438Y-24887562D01*
X71541090Y-24904832D01*
X71554974Y-24923552D01*
X71566956Y-24943543D01*
X71576921Y-24964613D01*
X71584773Y-24986557D01*
X71590437Y-25009166D01*
X71593856Y-25032221D01*
X71595000Y-25055500D01*
X71595000Y-25630500D01*
X71593856Y-25653779D01*
X71590437Y-25676834D01*
X71584773Y-25699443D01*
X71576921Y-25721387D01*
X71566956Y-25742457D01*
X71554974Y-25762448D01*
X71541090Y-25781168D01*
X71525438Y-25798438D01*
X71508168Y-25814090D01*
X71489448Y-25827974D01*
X71469457Y-25839956D01*
X71448387Y-25849921D01*
X71426443Y-25857773D01*
X71403834Y-25863437D01*
X71380779Y-25866856D01*
X71357500Y-25868000D01*
X70882500Y-25868000D01*
X70859221Y-25866856D01*
X70836166Y-25863437D01*
X70813557Y-25857773D01*
X70791613Y-25849921D01*
X70770543Y-25839956D01*
X70750552Y-25827974D01*
X70731832Y-25814090D01*
X70714562Y-25798438D01*
X70698910Y-25781168D01*
X70685026Y-25762448D01*
X70673044Y-25742457D01*
X70663079Y-25721387D01*
X70655227Y-25699443D01*
X70649563Y-25676834D01*
X70646144Y-25653779D01*
X70645000Y-25630500D01*
X70645000Y-25055500D01*
X70646144Y-25032221D01*
X70649563Y-25009166D01*
X70655227Y-24986557D01*
X70663079Y-24964613D01*
X70673044Y-24943543D01*
X70685026Y-24923552D01*
X70698910Y-24904832D01*
X70714562Y-24887562D01*
X70731832Y-24871910D01*
X70750552Y-24858026D01*
X70770543Y-24846044D01*
X70791613Y-24836079D01*
X70813557Y-24828227D01*
X70836166Y-24822563D01*
X70859221Y-24819144D01*
X70882500Y-24818000D01*
X71357500Y-24818000D01*
X71380779Y-24819144D01*
X71380779Y-24819144D01*
G37*
D12*
X71120000Y-25343000D03*
D10*
G36*
X71380779Y-23069144D02*
X71403834Y-23072563D01*
X71426443Y-23078227D01*
X71448387Y-23086079D01*
X71469457Y-23096044D01*
X71489448Y-23108026D01*
X71508168Y-23121910D01*
X71525438Y-23137562D01*
X71541090Y-23154832D01*
X71554974Y-23173552D01*
X71566956Y-23193543D01*
X71576921Y-23214613D01*
X71584773Y-23236557D01*
X71590437Y-23259166D01*
X71593856Y-23282221D01*
X71595000Y-23305500D01*
X71595000Y-23880500D01*
X71593856Y-23903779D01*
X71590437Y-23926834D01*
X71584773Y-23949443D01*
X71576921Y-23971387D01*
X71566956Y-23992457D01*
X71554974Y-24012448D01*
X71541090Y-24031168D01*
X71525438Y-24048438D01*
X71508168Y-24064090D01*
X71489448Y-24077974D01*
X71469457Y-24089956D01*
X71448387Y-24099921D01*
X71426443Y-24107773D01*
X71403834Y-24113437D01*
X71380779Y-24116856D01*
X71357500Y-24118000D01*
X70882500Y-24118000D01*
X70859221Y-24116856D01*
X70836166Y-24113437D01*
X70813557Y-24107773D01*
X70791613Y-24099921D01*
X70770543Y-24089956D01*
X70750552Y-24077974D01*
X70731832Y-24064090D01*
X70714562Y-24048438D01*
X70698910Y-24031168D01*
X70685026Y-24012448D01*
X70673044Y-23992457D01*
X70663079Y-23971387D01*
X70655227Y-23949443D01*
X70649563Y-23926834D01*
X70646144Y-23903779D01*
X70645000Y-23880500D01*
X70645000Y-23305500D01*
X70646144Y-23282221D01*
X70649563Y-23259166D01*
X70655227Y-23236557D01*
X70663079Y-23214613D01*
X70673044Y-23193543D01*
X70685026Y-23173552D01*
X70698910Y-23154832D01*
X70714562Y-23137562D01*
X70731832Y-23121910D01*
X70750552Y-23108026D01*
X70770543Y-23096044D01*
X70791613Y-23086079D01*
X70813557Y-23078227D01*
X70836166Y-23072563D01*
X70859221Y-23069144D01*
X70882500Y-23068000D01*
X71357500Y-23068000D01*
X71380779Y-23069144D01*
X71380779Y-23069144D01*
G37*
D12*
X71120000Y-23593000D03*
G04 #@! TD*
D10*
G04 #@! TO.C,R21*
G36*
X21596779Y-40262344D02*
X21619834Y-40265763D01*
X21642443Y-40271427D01*
X21664387Y-40279279D01*
X21685457Y-40289244D01*
X21705448Y-40301226D01*
X21724168Y-40315110D01*
X21741438Y-40330762D01*
X21757090Y-40348032D01*
X21770974Y-40366752D01*
X21782956Y-40386743D01*
X21792921Y-40407813D01*
X21800773Y-40429757D01*
X21806437Y-40452366D01*
X21809856Y-40475421D01*
X21811000Y-40498700D01*
X21811000Y-41073700D01*
X21809856Y-41096979D01*
X21806437Y-41120034D01*
X21800773Y-41142643D01*
X21792921Y-41164587D01*
X21782956Y-41185657D01*
X21770974Y-41205648D01*
X21757090Y-41224368D01*
X21741438Y-41241638D01*
X21724168Y-41257290D01*
X21705448Y-41271174D01*
X21685457Y-41283156D01*
X21664387Y-41293121D01*
X21642443Y-41300973D01*
X21619834Y-41306637D01*
X21596779Y-41310056D01*
X21573500Y-41311200D01*
X21098500Y-41311200D01*
X21075221Y-41310056D01*
X21052166Y-41306637D01*
X21029557Y-41300973D01*
X21007613Y-41293121D01*
X20986543Y-41283156D01*
X20966552Y-41271174D01*
X20947832Y-41257290D01*
X20930562Y-41241638D01*
X20914910Y-41224368D01*
X20901026Y-41205648D01*
X20889044Y-41185657D01*
X20879079Y-41164587D01*
X20871227Y-41142643D01*
X20865563Y-41120034D01*
X20862144Y-41096979D01*
X20861000Y-41073700D01*
X20861000Y-40498700D01*
X20862144Y-40475421D01*
X20865563Y-40452366D01*
X20871227Y-40429757D01*
X20879079Y-40407813D01*
X20889044Y-40386743D01*
X20901026Y-40366752D01*
X20914910Y-40348032D01*
X20930562Y-40330762D01*
X20947832Y-40315110D01*
X20966552Y-40301226D01*
X20986543Y-40289244D01*
X21007613Y-40279279D01*
X21029557Y-40271427D01*
X21052166Y-40265763D01*
X21075221Y-40262344D01*
X21098500Y-40261200D01*
X21573500Y-40261200D01*
X21596779Y-40262344D01*
X21596779Y-40262344D01*
G37*
D12*
X21336000Y-40786200D03*
D10*
G36*
X21596779Y-38512344D02*
X21619834Y-38515763D01*
X21642443Y-38521427D01*
X21664387Y-38529279D01*
X21685457Y-38539244D01*
X21705448Y-38551226D01*
X21724168Y-38565110D01*
X21741438Y-38580762D01*
X21757090Y-38598032D01*
X21770974Y-38616752D01*
X21782956Y-38636743D01*
X21792921Y-38657813D01*
X21800773Y-38679757D01*
X21806437Y-38702366D01*
X21809856Y-38725421D01*
X21811000Y-38748700D01*
X21811000Y-39323700D01*
X21809856Y-39346979D01*
X21806437Y-39370034D01*
X21800773Y-39392643D01*
X21792921Y-39414587D01*
X21782956Y-39435657D01*
X21770974Y-39455648D01*
X21757090Y-39474368D01*
X21741438Y-39491638D01*
X21724168Y-39507290D01*
X21705448Y-39521174D01*
X21685457Y-39533156D01*
X21664387Y-39543121D01*
X21642443Y-39550973D01*
X21619834Y-39556637D01*
X21596779Y-39560056D01*
X21573500Y-39561200D01*
X21098500Y-39561200D01*
X21075221Y-39560056D01*
X21052166Y-39556637D01*
X21029557Y-39550973D01*
X21007613Y-39543121D01*
X20986543Y-39533156D01*
X20966552Y-39521174D01*
X20947832Y-39507290D01*
X20930562Y-39491638D01*
X20914910Y-39474368D01*
X20901026Y-39455648D01*
X20889044Y-39435657D01*
X20879079Y-39414587D01*
X20871227Y-39392643D01*
X20865563Y-39370034D01*
X20862144Y-39346979D01*
X20861000Y-39323700D01*
X20861000Y-38748700D01*
X20862144Y-38725421D01*
X20865563Y-38702366D01*
X20871227Y-38679757D01*
X20879079Y-38657813D01*
X20889044Y-38636743D01*
X20901026Y-38616752D01*
X20914910Y-38598032D01*
X20930562Y-38580762D01*
X20947832Y-38565110D01*
X20966552Y-38551226D01*
X20986543Y-38539244D01*
X21007613Y-38529279D01*
X21029557Y-38521427D01*
X21052166Y-38515763D01*
X21075221Y-38512344D01*
X21098500Y-38511200D01*
X21573500Y-38511200D01*
X21596779Y-38512344D01*
X21596779Y-38512344D01*
G37*
D12*
X21336000Y-39036200D03*
G04 #@! TD*
D10*
G04 #@! TO.C,R22*
G36*
X38572179Y-44890544D02*
X38595234Y-44893963D01*
X38617843Y-44899627D01*
X38639787Y-44907479D01*
X38660857Y-44917444D01*
X38680848Y-44929426D01*
X38699568Y-44943310D01*
X38716838Y-44958962D01*
X38732490Y-44976232D01*
X38746374Y-44994952D01*
X38758356Y-45014943D01*
X38768321Y-45036013D01*
X38776173Y-45057957D01*
X38781837Y-45080566D01*
X38785256Y-45103621D01*
X38786400Y-45126900D01*
X38786400Y-45601900D01*
X38785256Y-45625179D01*
X38781837Y-45648234D01*
X38776173Y-45670843D01*
X38768321Y-45692787D01*
X38758356Y-45713857D01*
X38746374Y-45733848D01*
X38732490Y-45752568D01*
X38716838Y-45769838D01*
X38699568Y-45785490D01*
X38680848Y-45799374D01*
X38660857Y-45811356D01*
X38639787Y-45821321D01*
X38617843Y-45829173D01*
X38595234Y-45834837D01*
X38572179Y-45838256D01*
X38548900Y-45839400D01*
X37973900Y-45839400D01*
X37950621Y-45838256D01*
X37927566Y-45834837D01*
X37904957Y-45829173D01*
X37883013Y-45821321D01*
X37861943Y-45811356D01*
X37841952Y-45799374D01*
X37823232Y-45785490D01*
X37805962Y-45769838D01*
X37790310Y-45752568D01*
X37776426Y-45733848D01*
X37764444Y-45713857D01*
X37754479Y-45692787D01*
X37746627Y-45670843D01*
X37740963Y-45648234D01*
X37737544Y-45625179D01*
X37736400Y-45601900D01*
X37736400Y-45126900D01*
X37737544Y-45103621D01*
X37740963Y-45080566D01*
X37746627Y-45057957D01*
X37754479Y-45036013D01*
X37764444Y-45014943D01*
X37776426Y-44994952D01*
X37790310Y-44976232D01*
X37805962Y-44958962D01*
X37823232Y-44943310D01*
X37841952Y-44929426D01*
X37861943Y-44917444D01*
X37883013Y-44907479D01*
X37904957Y-44899627D01*
X37927566Y-44893963D01*
X37950621Y-44890544D01*
X37973900Y-44889400D01*
X38548900Y-44889400D01*
X38572179Y-44890544D01*
X38572179Y-44890544D01*
G37*
D12*
X38261400Y-45364400D03*
D10*
G36*
X40322179Y-44890544D02*
X40345234Y-44893963D01*
X40367843Y-44899627D01*
X40389787Y-44907479D01*
X40410857Y-44917444D01*
X40430848Y-44929426D01*
X40449568Y-44943310D01*
X40466838Y-44958962D01*
X40482490Y-44976232D01*
X40496374Y-44994952D01*
X40508356Y-45014943D01*
X40518321Y-45036013D01*
X40526173Y-45057957D01*
X40531837Y-45080566D01*
X40535256Y-45103621D01*
X40536400Y-45126900D01*
X40536400Y-45601900D01*
X40535256Y-45625179D01*
X40531837Y-45648234D01*
X40526173Y-45670843D01*
X40518321Y-45692787D01*
X40508356Y-45713857D01*
X40496374Y-45733848D01*
X40482490Y-45752568D01*
X40466838Y-45769838D01*
X40449568Y-45785490D01*
X40430848Y-45799374D01*
X40410857Y-45811356D01*
X40389787Y-45821321D01*
X40367843Y-45829173D01*
X40345234Y-45834837D01*
X40322179Y-45838256D01*
X40298900Y-45839400D01*
X39723900Y-45839400D01*
X39700621Y-45838256D01*
X39677566Y-45834837D01*
X39654957Y-45829173D01*
X39633013Y-45821321D01*
X39611943Y-45811356D01*
X39591952Y-45799374D01*
X39573232Y-45785490D01*
X39555962Y-45769838D01*
X39540310Y-45752568D01*
X39526426Y-45733848D01*
X39514444Y-45713857D01*
X39504479Y-45692787D01*
X39496627Y-45670843D01*
X39490963Y-45648234D01*
X39487544Y-45625179D01*
X39486400Y-45601900D01*
X39486400Y-45126900D01*
X39487544Y-45103621D01*
X39490963Y-45080566D01*
X39496627Y-45057957D01*
X39504479Y-45036013D01*
X39514444Y-45014943D01*
X39526426Y-44994952D01*
X39540310Y-44976232D01*
X39555962Y-44958962D01*
X39573232Y-44943310D01*
X39591952Y-44929426D01*
X39611943Y-44917444D01*
X39633013Y-44907479D01*
X39654957Y-44899627D01*
X39677566Y-44893963D01*
X39700621Y-44890544D01*
X39723900Y-44889400D01*
X40298900Y-44889400D01*
X40322179Y-44890544D01*
X40322179Y-44890544D01*
G37*
D12*
X40011400Y-45364400D03*
G04 #@! TD*
D10*
G04 #@! TO.C,R23*
G36*
X40322179Y-42960144D02*
X40345234Y-42963563D01*
X40367843Y-42969227D01*
X40389787Y-42977079D01*
X40410857Y-42987044D01*
X40430848Y-42999026D01*
X40449568Y-43012910D01*
X40466838Y-43028562D01*
X40482490Y-43045832D01*
X40496374Y-43064552D01*
X40508356Y-43084543D01*
X40518321Y-43105613D01*
X40526173Y-43127557D01*
X40531837Y-43150166D01*
X40535256Y-43173221D01*
X40536400Y-43196500D01*
X40536400Y-43671500D01*
X40535256Y-43694779D01*
X40531837Y-43717834D01*
X40526173Y-43740443D01*
X40518321Y-43762387D01*
X40508356Y-43783457D01*
X40496374Y-43803448D01*
X40482490Y-43822168D01*
X40466838Y-43839438D01*
X40449568Y-43855090D01*
X40430848Y-43868974D01*
X40410857Y-43880956D01*
X40389787Y-43890921D01*
X40367843Y-43898773D01*
X40345234Y-43904437D01*
X40322179Y-43907856D01*
X40298900Y-43909000D01*
X39723900Y-43909000D01*
X39700621Y-43907856D01*
X39677566Y-43904437D01*
X39654957Y-43898773D01*
X39633013Y-43890921D01*
X39611943Y-43880956D01*
X39591952Y-43868974D01*
X39573232Y-43855090D01*
X39555962Y-43839438D01*
X39540310Y-43822168D01*
X39526426Y-43803448D01*
X39514444Y-43783457D01*
X39504479Y-43762387D01*
X39496627Y-43740443D01*
X39490963Y-43717834D01*
X39487544Y-43694779D01*
X39486400Y-43671500D01*
X39486400Y-43196500D01*
X39487544Y-43173221D01*
X39490963Y-43150166D01*
X39496627Y-43127557D01*
X39504479Y-43105613D01*
X39514444Y-43084543D01*
X39526426Y-43064552D01*
X39540310Y-43045832D01*
X39555962Y-43028562D01*
X39573232Y-43012910D01*
X39591952Y-42999026D01*
X39611943Y-42987044D01*
X39633013Y-42977079D01*
X39654957Y-42969227D01*
X39677566Y-42963563D01*
X39700621Y-42960144D01*
X39723900Y-42959000D01*
X40298900Y-42959000D01*
X40322179Y-42960144D01*
X40322179Y-42960144D01*
G37*
D12*
X40011400Y-43434000D03*
D10*
G36*
X38572179Y-42960144D02*
X38595234Y-42963563D01*
X38617843Y-42969227D01*
X38639787Y-42977079D01*
X38660857Y-42987044D01*
X38680848Y-42999026D01*
X38699568Y-43012910D01*
X38716838Y-43028562D01*
X38732490Y-43045832D01*
X38746374Y-43064552D01*
X38758356Y-43084543D01*
X38768321Y-43105613D01*
X38776173Y-43127557D01*
X38781837Y-43150166D01*
X38785256Y-43173221D01*
X38786400Y-43196500D01*
X38786400Y-43671500D01*
X38785256Y-43694779D01*
X38781837Y-43717834D01*
X38776173Y-43740443D01*
X38768321Y-43762387D01*
X38758356Y-43783457D01*
X38746374Y-43803448D01*
X38732490Y-43822168D01*
X38716838Y-43839438D01*
X38699568Y-43855090D01*
X38680848Y-43868974D01*
X38660857Y-43880956D01*
X38639787Y-43890921D01*
X38617843Y-43898773D01*
X38595234Y-43904437D01*
X38572179Y-43907856D01*
X38548900Y-43909000D01*
X37973900Y-43909000D01*
X37950621Y-43907856D01*
X37927566Y-43904437D01*
X37904957Y-43898773D01*
X37883013Y-43890921D01*
X37861943Y-43880956D01*
X37841952Y-43868974D01*
X37823232Y-43855090D01*
X37805962Y-43839438D01*
X37790310Y-43822168D01*
X37776426Y-43803448D01*
X37764444Y-43783457D01*
X37754479Y-43762387D01*
X37746627Y-43740443D01*
X37740963Y-43717834D01*
X37737544Y-43694779D01*
X37736400Y-43671500D01*
X37736400Y-43196500D01*
X37737544Y-43173221D01*
X37740963Y-43150166D01*
X37746627Y-43127557D01*
X37754479Y-43105613D01*
X37764444Y-43084543D01*
X37776426Y-43064552D01*
X37790310Y-43045832D01*
X37805962Y-43028562D01*
X37823232Y-43012910D01*
X37841952Y-42999026D01*
X37861943Y-42987044D01*
X37883013Y-42977079D01*
X37904957Y-42969227D01*
X37927566Y-42963563D01*
X37950621Y-42960144D01*
X37973900Y-42959000D01*
X38548900Y-42959000D01*
X38572179Y-42960144D01*
X38572179Y-42960144D01*
G37*
D12*
X38261400Y-43434000D03*
G04 #@! TD*
D10*
G04 #@! TO.C,R24*
G36*
X36582779Y-46110544D02*
X36605834Y-46113963D01*
X36628443Y-46119627D01*
X36650387Y-46127479D01*
X36671457Y-46137444D01*
X36691448Y-46149426D01*
X36710168Y-46163310D01*
X36727438Y-46178962D01*
X36743090Y-46196232D01*
X36756974Y-46214952D01*
X36768956Y-46234943D01*
X36778921Y-46256013D01*
X36786773Y-46277957D01*
X36792437Y-46300566D01*
X36795856Y-46323621D01*
X36797000Y-46346900D01*
X36797000Y-46921900D01*
X36795856Y-46945179D01*
X36792437Y-46968234D01*
X36786773Y-46990843D01*
X36778921Y-47012787D01*
X36768956Y-47033857D01*
X36756974Y-47053848D01*
X36743090Y-47072568D01*
X36727438Y-47089838D01*
X36710168Y-47105490D01*
X36691448Y-47119374D01*
X36671457Y-47131356D01*
X36650387Y-47141321D01*
X36628443Y-47149173D01*
X36605834Y-47154837D01*
X36582779Y-47158256D01*
X36559500Y-47159400D01*
X36084500Y-47159400D01*
X36061221Y-47158256D01*
X36038166Y-47154837D01*
X36015557Y-47149173D01*
X35993613Y-47141321D01*
X35972543Y-47131356D01*
X35952552Y-47119374D01*
X35933832Y-47105490D01*
X35916562Y-47089838D01*
X35900910Y-47072568D01*
X35887026Y-47053848D01*
X35875044Y-47033857D01*
X35865079Y-47012787D01*
X35857227Y-46990843D01*
X35851563Y-46968234D01*
X35848144Y-46945179D01*
X35847000Y-46921900D01*
X35847000Y-46346900D01*
X35848144Y-46323621D01*
X35851563Y-46300566D01*
X35857227Y-46277957D01*
X35865079Y-46256013D01*
X35875044Y-46234943D01*
X35887026Y-46214952D01*
X35900910Y-46196232D01*
X35916562Y-46178962D01*
X35933832Y-46163310D01*
X35952552Y-46149426D01*
X35972543Y-46137444D01*
X35993613Y-46127479D01*
X36015557Y-46119627D01*
X36038166Y-46113963D01*
X36061221Y-46110544D01*
X36084500Y-46109400D01*
X36559500Y-46109400D01*
X36582779Y-46110544D01*
X36582779Y-46110544D01*
G37*
D12*
X36322000Y-46634400D03*
D10*
G36*
X36582779Y-47860544D02*
X36605834Y-47863963D01*
X36628443Y-47869627D01*
X36650387Y-47877479D01*
X36671457Y-47887444D01*
X36691448Y-47899426D01*
X36710168Y-47913310D01*
X36727438Y-47928962D01*
X36743090Y-47946232D01*
X36756974Y-47964952D01*
X36768956Y-47984943D01*
X36778921Y-48006013D01*
X36786773Y-48027957D01*
X36792437Y-48050566D01*
X36795856Y-48073621D01*
X36797000Y-48096900D01*
X36797000Y-48671900D01*
X36795856Y-48695179D01*
X36792437Y-48718234D01*
X36786773Y-48740843D01*
X36778921Y-48762787D01*
X36768956Y-48783857D01*
X36756974Y-48803848D01*
X36743090Y-48822568D01*
X36727438Y-48839838D01*
X36710168Y-48855490D01*
X36691448Y-48869374D01*
X36671457Y-48881356D01*
X36650387Y-48891321D01*
X36628443Y-48899173D01*
X36605834Y-48904837D01*
X36582779Y-48908256D01*
X36559500Y-48909400D01*
X36084500Y-48909400D01*
X36061221Y-48908256D01*
X36038166Y-48904837D01*
X36015557Y-48899173D01*
X35993613Y-48891321D01*
X35972543Y-48881356D01*
X35952552Y-48869374D01*
X35933832Y-48855490D01*
X35916562Y-48839838D01*
X35900910Y-48822568D01*
X35887026Y-48803848D01*
X35875044Y-48783857D01*
X35865079Y-48762787D01*
X35857227Y-48740843D01*
X35851563Y-48718234D01*
X35848144Y-48695179D01*
X35847000Y-48671900D01*
X35847000Y-48096900D01*
X35848144Y-48073621D01*
X35851563Y-48050566D01*
X35857227Y-48027957D01*
X35865079Y-48006013D01*
X35875044Y-47984943D01*
X35887026Y-47964952D01*
X35900910Y-47946232D01*
X35916562Y-47928962D01*
X35933832Y-47913310D01*
X35952552Y-47899426D01*
X35972543Y-47887444D01*
X35993613Y-47877479D01*
X36015557Y-47869627D01*
X36038166Y-47863963D01*
X36061221Y-47860544D01*
X36084500Y-47859400D01*
X36559500Y-47859400D01*
X36582779Y-47860544D01*
X36582779Y-47860544D01*
G37*
D12*
X36322000Y-48384400D03*
G04 #@! TD*
D10*
G04 #@! TO.C,R25*
G36*
X32010779Y-46110544D02*
X32033834Y-46113963D01*
X32056443Y-46119627D01*
X32078387Y-46127479D01*
X32099457Y-46137444D01*
X32119448Y-46149426D01*
X32138168Y-46163310D01*
X32155438Y-46178962D01*
X32171090Y-46196232D01*
X32184974Y-46214952D01*
X32196956Y-46234943D01*
X32206921Y-46256013D01*
X32214773Y-46277957D01*
X32220437Y-46300566D01*
X32223856Y-46323621D01*
X32225000Y-46346900D01*
X32225000Y-46921900D01*
X32223856Y-46945179D01*
X32220437Y-46968234D01*
X32214773Y-46990843D01*
X32206921Y-47012787D01*
X32196956Y-47033857D01*
X32184974Y-47053848D01*
X32171090Y-47072568D01*
X32155438Y-47089838D01*
X32138168Y-47105490D01*
X32119448Y-47119374D01*
X32099457Y-47131356D01*
X32078387Y-47141321D01*
X32056443Y-47149173D01*
X32033834Y-47154837D01*
X32010779Y-47158256D01*
X31987500Y-47159400D01*
X31512500Y-47159400D01*
X31489221Y-47158256D01*
X31466166Y-47154837D01*
X31443557Y-47149173D01*
X31421613Y-47141321D01*
X31400543Y-47131356D01*
X31380552Y-47119374D01*
X31361832Y-47105490D01*
X31344562Y-47089838D01*
X31328910Y-47072568D01*
X31315026Y-47053848D01*
X31303044Y-47033857D01*
X31293079Y-47012787D01*
X31285227Y-46990843D01*
X31279563Y-46968234D01*
X31276144Y-46945179D01*
X31275000Y-46921900D01*
X31275000Y-46346900D01*
X31276144Y-46323621D01*
X31279563Y-46300566D01*
X31285227Y-46277957D01*
X31293079Y-46256013D01*
X31303044Y-46234943D01*
X31315026Y-46214952D01*
X31328910Y-46196232D01*
X31344562Y-46178962D01*
X31361832Y-46163310D01*
X31380552Y-46149426D01*
X31400543Y-46137444D01*
X31421613Y-46127479D01*
X31443557Y-46119627D01*
X31466166Y-46113963D01*
X31489221Y-46110544D01*
X31512500Y-46109400D01*
X31987500Y-46109400D01*
X32010779Y-46110544D01*
X32010779Y-46110544D01*
G37*
D12*
X31750000Y-46634400D03*
D10*
G36*
X32010779Y-47860544D02*
X32033834Y-47863963D01*
X32056443Y-47869627D01*
X32078387Y-47877479D01*
X32099457Y-47887444D01*
X32119448Y-47899426D01*
X32138168Y-47913310D01*
X32155438Y-47928962D01*
X32171090Y-47946232D01*
X32184974Y-47964952D01*
X32196956Y-47984943D01*
X32206921Y-48006013D01*
X32214773Y-48027957D01*
X32220437Y-48050566D01*
X32223856Y-48073621D01*
X32225000Y-48096900D01*
X32225000Y-48671900D01*
X32223856Y-48695179D01*
X32220437Y-48718234D01*
X32214773Y-48740843D01*
X32206921Y-48762787D01*
X32196956Y-48783857D01*
X32184974Y-48803848D01*
X32171090Y-48822568D01*
X32155438Y-48839838D01*
X32138168Y-48855490D01*
X32119448Y-48869374D01*
X32099457Y-48881356D01*
X32078387Y-48891321D01*
X32056443Y-48899173D01*
X32033834Y-48904837D01*
X32010779Y-48908256D01*
X31987500Y-48909400D01*
X31512500Y-48909400D01*
X31489221Y-48908256D01*
X31466166Y-48904837D01*
X31443557Y-48899173D01*
X31421613Y-48891321D01*
X31400543Y-48881356D01*
X31380552Y-48869374D01*
X31361832Y-48855490D01*
X31344562Y-48839838D01*
X31328910Y-48822568D01*
X31315026Y-48803848D01*
X31303044Y-48783857D01*
X31293079Y-48762787D01*
X31285227Y-48740843D01*
X31279563Y-48718234D01*
X31276144Y-48695179D01*
X31275000Y-48671900D01*
X31275000Y-48096900D01*
X31276144Y-48073621D01*
X31279563Y-48050566D01*
X31285227Y-48027957D01*
X31293079Y-48006013D01*
X31303044Y-47984943D01*
X31315026Y-47964952D01*
X31328910Y-47946232D01*
X31344562Y-47928962D01*
X31361832Y-47913310D01*
X31380552Y-47899426D01*
X31400543Y-47887444D01*
X31421613Y-47877479D01*
X31443557Y-47869627D01*
X31466166Y-47863963D01*
X31489221Y-47860544D01*
X31512500Y-47859400D01*
X31987500Y-47859400D01*
X32010779Y-47860544D01*
X32010779Y-47860544D01*
G37*
D12*
X31750000Y-48384400D03*
G04 #@! TD*
D10*
G04 #@! TO.C,R26*
G36*
X30172179Y-48802144D02*
X30195234Y-48805563D01*
X30217843Y-48811227D01*
X30239787Y-48819079D01*
X30260857Y-48829044D01*
X30280848Y-48841026D01*
X30299568Y-48854910D01*
X30316838Y-48870562D01*
X30332490Y-48887832D01*
X30346374Y-48906552D01*
X30358356Y-48926543D01*
X30368321Y-48947613D01*
X30376173Y-48969557D01*
X30381837Y-48992166D01*
X30385256Y-49015221D01*
X30386400Y-49038500D01*
X30386400Y-49513500D01*
X30385256Y-49536779D01*
X30381837Y-49559834D01*
X30376173Y-49582443D01*
X30368321Y-49604387D01*
X30358356Y-49625457D01*
X30346374Y-49645448D01*
X30332490Y-49664168D01*
X30316838Y-49681438D01*
X30299568Y-49697090D01*
X30280848Y-49710974D01*
X30260857Y-49722956D01*
X30239787Y-49732921D01*
X30217843Y-49740773D01*
X30195234Y-49746437D01*
X30172179Y-49749856D01*
X30148900Y-49751000D01*
X29573900Y-49751000D01*
X29550621Y-49749856D01*
X29527566Y-49746437D01*
X29504957Y-49740773D01*
X29483013Y-49732921D01*
X29461943Y-49722956D01*
X29441952Y-49710974D01*
X29423232Y-49697090D01*
X29405962Y-49681438D01*
X29390310Y-49664168D01*
X29376426Y-49645448D01*
X29364444Y-49625457D01*
X29354479Y-49604387D01*
X29346627Y-49582443D01*
X29340963Y-49559834D01*
X29337544Y-49536779D01*
X29336400Y-49513500D01*
X29336400Y-49038500D01*
X29337544Y-49015221D01*
X29340963Y-48992166D01*
X29346627Y-48969557D01*
X29354479Y-48947613D01*
X29364444Y-48926543D01*
X29376426Y-48906552D01*
X29390310Y-48887832D01*
X29405962Y-48870562D01*
X29423232Y-48854910D01*
X29441952Y-48841026D01*
X29461943Y-48829044D01*
X29483013Y-48819079D01*
X29504957Y-48811227D01*
X29527566Y-48805563D01*
X29550621Y-48802144D01*
X29573900Y-48801000D01*
X30148900Y-48801000D01*
X30172179Y-48802144D01*
X30172179Y-48802144D01*
G37*
D12*
X29861400Y-49276000D03*
D10*
G36*
X28422179Y-48802144D02*
X28445234Y-48805563D01*
X28467843Y-48811227D01*
X28489787Y-48819079D01*
X28510857Y-48829044D01*
X28530848Y-48841026D01*
X28549568Y-48854910D01*
X28566838Y-48870562D01*
X28582490Y-48887832D01*
X28596374Y-48906552D01*
X28608356Y-48926543D01*
X28618321Y-48947613D01*
X28626173Y-48969557D01*
X28631837Y-48992166D01*
X28635256Y-49015221D01*
X28636400Y-49038500D01*
X28636400Y-49513500D01*
X28635256Y-49536779D01*
X28631837Y-49559834D01*
X28626173Y-49582443D01*
X28618321Y-49604387D01*
X28608356Y-49625457D01*
X28596374Y-49645448D01*
X28582490Y-49664168D01*
X28566838Y-49681438D01*
X28549568Y-49697090D01*
X28530848Y-49710974D01*
X28510857Y-49722956D01*
X28489787Y-49732921D01*
X28467843Y-49740773D01*
X28445234Y-49746437D01*
X28422179Y-49749856D01*
X28398900Y-49751000D01*
X27823900Y-49751000D01*
X27800621Y-49749856D01*
X27777566Y-49746437D01*
X27754957Y-49740773D01*
X27733013Y-49732921D01*
X27711943Y-49722956D01*
X27691952Y-49710974D01*
X27673232Y-49697090D01*
X27655962Y-49681438D01*
X27640310Y-49664168D01*
X27626426Y-49645448D01*
X27614444Y-49625457D01*
X27604479Y-49604387D01*
X27596627Y-49582443D01*
X27590963Y-49559834D01*
X27587544Y-49536779D01*
X27586400Y-49513500D01*
X27586400Y-49038500D01*
X27587544Y-49015221D01*
X27590963Y-48992166D01*
X27596627Y-48969557D01*
X27604479Y-48947613D01*
X27614444Y-48926543D01*
X27626426Y-48906552D01*
X27640310Y-48887832D01*
X27655962Y-48870562D01*
X27673232Y-48854910D01*
X27691952Y-48841026D01*
X27711943Y-48829044D01*
X27733013Y-48819079D01*
X27754957Y-48811227D01*
X27777566Y-48805563D01*
X27800621Y-48802144D01*
X27823900Y-48801000D01*
X28398900Y-48801000D01*
X28422179Y-48802144D01*
X28422179Y-48802144D01*
G37*
D12*
X28111400Y-49276000D03*
G04 #@! TD*
D15*
G04 #@! TO.C,U1*
X67458800Y-42347600D03*
X67458800Y-42997600D03*
X67458800Y-43647600D03*
X67458800Y-44297600D03*
X67458800Y-44947600D03*
X67458800Y-45597600D03*
X67458800Y-46247600D03*
X73358800Y-46247600D03*
X73358800Y-45597600D03*
X73358800Y-44947600D03*
X73358800Y-44297600D03*
X73358800Y-43647600D03*
X73358800Y-42997600D03*
X73358800Y-42347600D03*
G04 #@! TD*
D16*
G04 #@! TO.C,U2*
X29956400Y-40563800D03*
X29306400Y-40563800D03*
X28656400Y-40563800D03*
X28006400Y-40563800D03*
X28006400Y-46463800D03*
X28656400Y-46463800D03*
X29306400Y-46463800D03*
X29956400Y-46463800D03*
G04 #@! TD*
D10*
G04 #@! TO.C,R27*
G36*
X60458779Y-46748144D02*
X60481834Y-46751563D01*
X60504443Y-46757227D01*
X60526387Y-46765079D01*
X60547457Y-46775044D01*
X60567448Y-46787026D01*
X60586168Y-46800910D01*
X60603438Y-46816562D01*
X60619090Y-46833832D01*
X60632974Y-46852552D01*
X60644956Y-46872543D01*
X60654921Y-46893613D01*
X60662773Y-46915557D01*
X60668437Y-46938166D01*
X60671856Y-46961221D01*
X60673000Y-46984500D01*
X60673000Y-47559500D01*
X60671856Y-47582779D01*
X60668437Y-47605834D01*
X60662773Y-47628443D01*
X60654921Y-47650387D01*
X60644956Y-47671457D01*
X60632974Y-47691448D01*
X60619090Y-47710168D01*
X60603438Y-47727438D01*
X60586168Y-47743090D01*
X60567448Y-47756974D01*
X60547457Y-47768956D01*
X60526387Y-47778921D01*
X60504443Y-47786773D01*
X60481834Y-47792437D01*
X60458779Y-47795856D01*
X60435500Y-47797000D01*
X59960500Y-47797000D01*
X59937221Y-47795856D01*
X59914166Y-47792437D01*
X59891557Y-47786773D01*
X59869613Y-47778921D01*
X59848543Y-47768956D01*
X59828552Y-47756974D01*
X59809832Y-47743090D01*
X59792562Y-47727438D01*
X59776910Y-47710168D01*
X59763026Y-47691448D01*
X59751044Y-47671457D01*
X59741079Y-47650387D01*
X59733227Y-47628443D01*
X59727563Y-47605834D01*
X59724144Y-47582779D01*
X59723000Y-47559500D01*
X59723000Y-46984500D01*
X59724144Y-46961221D01*
X59727563Y-46938166D01*
X59733227Y-46915557D01*
X59741079Y-46893613D01*
X59751044Y-46872543D01*
X59763026Y-46852552D01*
X59776910Y-46833832D01*
X59792562Y-46816562D01*
X59809832Y-46800910D01*
X59828552Y-46787026D01*
X59848543Y-46775044D01*
X59869613Y-46765079D01*
X59891557Y-46757227D01*
X59914166Y-46751563D01*
X59937221Y-46748144D01*
X59960500Y-46747000D01*
X60435500Y-46747000D01*
X60458779Y-46748144D01*
X60458779Y-46748144D01*
G37*
D12*
X60198000Y-47272000D03*
D10*
G36*
X60458779Y-48498144D02*
X60481834Y-48501563D01*
X60504443Y-48507227D01*
X60526387Y-48515079D01*
X60547457Y-48525044D01*
X60567448Y-48537026D01*
X60586168Y-48550910D01*
X60603438Y-48566562D01*
X60619090Y-48583832D01*
X60632974Y-48602552D01*
X60644956Y-48622543D01*
X60654921Y-48643613D01*
X60662773Y-48665557D01*
X60668437Y-48688166D01*
X60671856Y-48711221D01*
X60673000Y-48734500D01*
X60673000Y-49309500D01*
X60671856Y-49332779D01*
X60668437Y-49355834D01*
X60662773Y-49378443D01*
X60654921Y-49400387D01*
X60644956Y-49421457D01*
X60632974Y-49441448D01*
X60619090Y-49460168D01*
X60603438Y-49477438D01*
X60586168Y-49493090D01*
X60567448Y-49506974D01*
X60547457Y-49518956D01*
X60526387Y-49528921D01*
X60504443Y-49536773D01*
X60481834Y-49542437D01*
X60458779Y-49545856D01*
X60435500Y-49547000D01*
X59960500Y-49547000D01*
X59937221Y-49545856D01*
X59914166Y-49542437D01*
X59891557Y-49536773D01*
X59869613Y-49528921D01*
X59848543Y-49518956D01*
X59828552Y-49506974D01*
X59809832Y-49493090D01*
X59792562Y-49477438D01*
X59776910Y-49460168D01*
X59763026Y-49441448D01*
X59751044Y-49421457D01*
X59741079Y-49400387D01*
X59733227Y-49378443D01*
X59727563Y-49355834D01*
X59724144Y-49332779D01*
X59723000Y-49309500D01*
X59723000Y-48734500D01*
X59724144Y-48711221D01*
X59727563Y-48688166D01*
X59733227Y-48665557D01*
X59741079Y-48643613D01*
X59751044Y-48622543D01*
X59763026Y-48602552D01*
X59776910Y-48583832D01*
X59792562Y-48566562D01*
X59809832Y-48550910D01*
X59828552Y-48537026D01*
X59848543Y-48525044D01*
X59869613Y-48515079D01*
X59891557Y-48507227D01*
X59914166Y-48501563D01*
X59937221Y-48498144D01*
X59960500Y-48497000D01*
X60435500Y-48497000D01*
X60458779Y-48498144D01*
X60458779Y-48498144D01*
G37*
D12*
X60198000Y-49022000D03*
G04 #@! TD*
D10*
G04 #@! TO.C,R28*
G36*
X74303579Y-48344944D02*
X74326634Y-48348363D01*
X74349243Y-48354027D01*
X74371187Y-48361879D01*
X74392257Y-48371844D01*
X74412248Y-48383826D01*
X74430968Y-48397710D01*
X74448238Y-48413362D01*
X74463890Y-48430632D01*
X74477774Y-48449352D01*
X74489756Y-48469343D01*
X74499721Y-48490413D01*
X74507573Y-48512357D01*
X74513237Y-48534966D01*
X74516656Y-48558021D01*
X74517800Y-48581300D01*
X74517800Y-49056300D01*
X74516656Y-49079579D01*
X74513237Y-49102634D01*
X74507573Y-49125243D01*
X74499721Y-49147187D01*
X74489756Y-49168257D01*
X74477774Y-49188248D01*
X74463890Y-49206968D01*
X74448238Y-49224238D01*
X74430968Y-49239890D01*
X74412248Y-49253774D01*
X74392257Y-49265756D01*
X74371187Y-49275721D01*
X74349243Y-49283573D01*
X74326634Y-49289237D01*
X74303579Y-49292656D01*
X74280300Y-49293800D01*
X73705300Y-49293800D01*
X73682021Y-49292656D01*
X73658966Y-49289237D01*
X73636357Y-49283573D01*
X73614413Y-49275721D01*
X73593343Y-49265756D01*
X73573352Y-49253774D01*
X73554632Y-49239890D01*
X73537362Y-49224238D01*
X73521710Y-49206968D01*
X73507826Y-49188248D01*
X73495844Y-49168257D01*
X73485879Y-49147187D01*
X73478027Y-49125243D01*
X73472363Y-49102634D01*
X73468944Y-49079579D01*
X73467800Y-49056300D01*
X73467800Y-48581300D01*
X73468944Y-48558021D01*
X73472363Y-48534966D01*
X73478027Y-48512357D01*
X73485879Y-48490413D01*
X73495844Y-48469343D01*
X73507826Y-48449352D01*
X73521710Y-48430632D01*
X73537362Y-48413362D01*
X73554632Y-48397710D01*
X73573352Y-48383826D01*
X73593343Y-48371844D01*
X73614413Y-48361879D01*
X73636357Y-48354027D01*
X73658966Y-48348363D01*
X73682021Y-48344944D01*
X73705300Y-48343800D01*
X74280300Y-48343800D01*
X74303579Y-48344944D01*
X74303579Y-48344944D01*
G37*
D12*
X73992800Y-48818800D03*
D10*
G36*
X76053579Y-48344944D02*
X76076634Y-48348363D01*
X76099243Y-48354027D01*
X76121187Y-48361879D01*
X76142257Y-48371844D01*
X76162248Y-48383826D01*
X76180968Y-48397710D01*
X76198238Y-48413362D01*
X76213890Y-48430632D01*
X76227774Y-48449352D01*
X76239756Y-48469343D01*
X76249721Y-48490413D01*
X76257573Y-48512357D01*
X76263237Y-48534966D01*
X76266656Y-48558021D01*
X76267800Y-48581300D01*
X76267800Y-49056300D01*
X76266656Y-49079579D01*
X76263237Y-49102634D01*
X76257573Y-49125243D01*
X76249721Y-49147187D01*
X76239756Y-49168257D01*
X76227774Y-49188248D01*
X76213890Y-49206968D01*
X76198238Y-49224238D01*
X76180968Y-49239890D01*
X76162248Y-49253774D01*
X76142257Y-49265756D01*
X76121187Y-49275721D01*
X76099243Y-49283573D01*
X76076634Y-49289237D01*
X76053579Y-49292656D01*
X76030300Y-49293800D01*
X75455300Y-49293800D01*
X75432021Y-49292656D01*
X75408966Y-49289237D01*
X75386357Y-49283573D01*
X75364413Y-49275721D01*
X75343343Y-49265756D01*
X75323352Y-49253774D01*
X75304632Y-49239890D01*
X75287362Y-49224238D01*
X75271710Y-49206968D01*
X75257826Y-49188248D01*
X75245844Y-49168257D01*
X75235879Y-49147187D01*
X75228027Y-49125243D01*
X75222363Y-49102634D01*
X75218944Y-49079579D01*
X75217800Y-49056300D01*
X75217800Y-48581300D01*
X75218944Y-48558021D01*
X75222363Y-48534966D01*
X75228027Y-48512357D01*
X75235879Y-48490413D01*
X75245844Y-48469343D01*
X75257826Y-48449352D01*
X75271710Y-48430632D01*
X75287362Y-48413362D01*
X75304632Y-48397710D01*
X75323352Y-48383826D01*
X75343343Y-48371844D01*
X75364413Y-48361879D01*
X75386357Y-48354027D01*
X75408966Y-48348363D01*
X75432021Y-48344944D01*
X75455300Y-48343800D01*
X76030300Y-48343800D01*
X76053579Y-48344944D01*
X76053579Y-48344944D01*
G37*
D12*
X75742800Y-48818800D03*
G04 #@! TD*
D10*
G04 #@! TO.C,R29*
G36*
X76105179Y-45754944D02*
X76128234Y-45758363D01*
X76150843Y-45764027D01*
X76172787Y-45771879D01*
X76193857Y-45781844D01*
X76213848Y-45793826D01*
X76232568Y-45807710D01*
X76249838Y-45823362D01*
X76265490Y-45840632D01*
X76279374Y-45859352D01*
X76291356Y-45879343D01*
X76301321Y-45900413D01*
X76309173Y-45922357D01*
X76314837Y-45944966D01*
X76318256Y-45968021D01*
X76319400Y-45991300D01*
X76319400Y-46566300D01*
X76318256Y-46589579D01*
X76314837Y-46612634D01*
X76309173Y-46635243D01*
X76301321Y-46657187D01*
X76291356Y-46678257D01*
X76279374Y-46698248D01*
X76265490Y-46716968D01*
X76249838Y-46734238D01*
X76232568Y-46749890D01*
X76213848Y-46763774D01*
X76193857Y-46775756D01*
X76172787Y-46785721D01*
X76150843Y-46793573D01*
X76128234Y-46799237D01*
X76105179Y-46802656D01*
X76081900Y-46803800D01*
X75606900Y-46803800D01*
X75583621Y-46802656D01*
X75560566Y-46799237D01*
X75537957Y-46793573D01*
X75516013Y-46785721D01*
X75494943Y-46775756D01*
X75474952Y-46763774D01*
X75456232Y-46749890D01*
X75438962Y-46734238D01*
X75423310Y-46716968D01*
X75409426Y-46698248D01*
X75397444Y-46678257D01*
X75387479Y-46657187D01*
X75379627Y-46635243D01*
X75373963Y-46612634D01*
X75370544Y-46589579D01*
X75369400Y-46566300D01*
X75369400Y-45991300D01*
X75370544Y-45968021D01*
X75373963Y-45944966D01*
X75379627Y-45922357D01*
X75387479Y-45900413D01*
X75397444Y-45879343D01*
X75409426Y-45859352D01*
X75423310Y-45840632D01*
X75438962Y-45823362D01*
X75456232Y-45807710D01*
X75474952Y-45793826D01*
X75494943Y-45781844D01*
X75516013Y-45771879D01*
X75537957Y-45764027D01*
X75560566Y-45758363D01*
X75583621Y-45754944D01*
X75606900Y-45753800D01*
X76081900Y-45753800D01*
X76105179Y-45754944D01*
X76105179Y-45754944D01*
G37*
D12*
X75844400Y-46278800D03*
D10*
G36*
X76105179Y-44004944D02*
X76128234Y-44008363D01*
X76150843Y-44014027D01*
X76172787Y-44021879D01*
X76193857Y-44031844D01*
X76213848Y-44043826D01*
X76232568Y-44057710D01*
X76249838Y-44073362D01*
X76265490Y-44090632D01*
X76279374Y-44109352D01*
X76291356Y-44129343D01*
X76301321Y-44150413D01*
X76309173Y-44172357D01*
X76314837Y-44194966D01*
X76318256Y-44218021D01*
X76319400Y-44241300D01*
X76319400Y-44816300D01*
X76318256Y-44839579D01*
X76314837Y-44862634D01*
X76309173Y-44885243D01*
X76301321Y-44907187D01*
X76291356Y-44928257D01*
X76279374Y-44948248D01*
X76265490Y-44966968D01*
X76249838Y-44984238D01*
X76232568Y-44999890D01*
X76213848Y-45013774D01*
X76193857Y-45025756D01*
X76172787Y-45035721D01*
X76150843Y-45043573D01*
X76128234Y-45049237D01*
X76105179Y-45052656D01*
X76081900Y-45053800D01*
X75606900Y-45053800D01*
X75583621Y-45052656D01*
X75560566Y-45049237D01*
X75537957Y-45043573D01*
X75516013Y-45035721D01*
X75494943Y-45025756D01*
X75474952Y-45013774D01*
X75456232Y-44999890D01*
X75438962Y-44984238D01*
X75423310Y-44966968D01*
X75409426Y-44948248D01*
X75397444Y-44928257D01*
X75387479Y-44907187D01*
X75379627Y-44885243D01*
X75373963Y-44862634D01*
X75370544Y-44839579D01*
X75369400Y-44816300D01*
X75369400Y-44241300D01*
X75370544Y-44218021D01*
X75373963Y-44194966D01*
X75379627Y-44172357D01*
X75387479Y-44150413D01*
X75397444Y-44129343D01*
X75409426Y-44109352D01*
X75423310Y-44090632D01*
X75438962Y-44073362D01*
X75456232Y-44057710D01*
X75474952Y-44043826D01*
X75494943Y-44031844D01*
X75516013Y-44021879D01*
X75537957Y-44014027D01*
X75560566Y-44008363D01*
X75583621Y-44004944D01*
X75606900Y-44003800D01*
X76081900Y-44003800D01*
X76105179Y-44004944D01*
X76105179Y-44004944D01*
G37*
D12*
X75844400Y-44528800D03*
G04 #@! TD*
D10*
G04 #@! TO.C,C20*
G36*
X23893379Y-22894144D02*
X23916434Y-22897563D01*
X23939043Y-22903227D01*
X23960987Y-22911079D01*
X23982057Y-22921044D01*
X24002048Y-22933026D01*
X24020768Y-22946910D01*
X24038038Y-22962562D01*
X24053690Y-22979832D01*
X24067574Y-22998552D01*
X24079556Y-23018543D01*
X24089521Y-23039613D01*
X24097373Y-23061557D01*
X24103037Y-23084166D01*
X24106456Y-23107221D01*
X24107600Y-23130500D01*
X24107600Y-23605500D01*
X24106456Y-23628779D01*
X24103037Y-23651834D01*
X24097373Y-23674443D01*
X24089521Y-23696387D01*
X24079556Y-23717457D01*
X24067574Y-23737448D01*
X24053690Y-23756168D01*
X24038038Y-23773438D01*
X24020768Y-23789090D01*
X24002048Y-23802974D01*
X23982057Y-23814956D01*
X23960987Y-23824921D01*
X23939043Y-23832773D01*
X23916434Y-23838437D01*
X23893379Y-23841856D01*
X23870100Y-23843000D01*
X23295100Y-23843000D01*
X23271821Y-23841856D01*
X23248766Y-23838437D01*
X23226157Y-23832773D01*
X23204213Y-23824921D01*
X23183143Y-23814956D01*
X23163152Y-23802974D01*
X23144432Y-23789090D01*
X23127162Y-23773438D01*
X23111510Y-23756168D01*
X23097626Y-23737448D01*
X23085644Y-23717457D01*
X23075679Y-23696387D01*
X23067827Y-23674443D01*
X23062163Y-23651834D01*
X23058744Y-23628779D01*
X23057600Y-23605500D01*
X23057600Y-23130500D01*
X23058744Y-23107221D01*
X23062163Y-23084166D01*
X23067827Y-23061557D01*
X23075679Y-23039613D01*
X23085644Y-23018543D01*
X23097626Y-22998552D01*
X23111510Y-22979832D01*
X23127162Y-22962562D01*
X23144432Y-22946910D01*
X23163152Y-22933026D01*
X23183143Y-22921044D01*
X23204213Y-22911079D01*
X23226157Y-22903227D01*
X23248766Y-22897563D01*
X23271821Y-22894144D01*
X23295100Y-22893000D01*
X23870100Y-22893000D01*
X23893379Y-22894144D01*
X23893379Y-22894144D01*
G37*
D12*
X23582600Y-23368000D03*
D10*
G36*
X22143379Y-22894144D02*
X22166434Y-22897563D01*
X22189043Y-22903227D01*
X22210987Y-22911079D01*
X22232057Y-22921044D01*
X22252048Y-22933026D01*
X22270768Y-22946910D01*
X22288038Y-22962562D01*
X22303690Y-22979832D01*
X22317574Y-22998552D01*
X22329556Y-23018543D01*
X22339521Y-23039613D01*
X22347373Y-23061557D01*
X22353037Y-23084166D01*
X22356456Y-23107221D01*
X22357600Y-23130500D01*
X22357600Y-23605500D01*
X22356456Y-23628779D01*
X22353037Y-23651834D01*
X22347373Y-23674443D01*
X22339521Y-23696387D01*
X22329556Y-23717457D01*
X22317574Y-23737448D01*
X22303690Y-23756168D01*
X22288038Y-23773438D01*
X22270768Y-23789090D01*
X22252048Y-23802974D01*
X22232057Y-23814956D01*
X22210987Y-23824921D01*
X22189043Y-23832773D01*
X22166434Y-23838437D01*
X22143379Y-23841856D01*
X22120100Y-23843000D01*
X21545100Y-23843000D01*
X21521821Y-23841856D01*
X21498766Y-23838437D01*
X21476157Y-23832773D01*
X21454213Y-23824921D01*
X21433143Y-23814956D01*
X21413152Y-23802974D01*
X21394432Y-23789090D01*
X21377162Y-23773438D01*
X21361510Y-23756168D01*
X21347626Y-23737448D01*
X21335644Y-23717457D01*
X21325679Y-23696387D01*
X21317827Y-23674443D01*
X21312163Y-23651834D01*
X21308744Y-23628779D01*
X21307600Y-23605500D01*
X21307600Y-23130500D01*
X21308744Y-23107221D01*
X21312163Y-23084166D01*
X21317827Y-23061557D01*
X21325679Y-23039613D01*
X21335644Y-23018543D01*
X21347626Y-22998552D01*
X21361510Y-22979832D01*
X21377162Y-22962562D01*
X21394432Y-22946910D01*
X21413152Y-22933026D01*
X21433143Y-22921044D01*
X21454213Y-22911079D01*
X21476157Y-22903227D01*
X21498766Y-22897563D01*
X21521821Y-22894144D01*
X21545100Y-22893000D01*
X22120100Y-22893000D01*
X22143379Y-22894144D01*
X22143379Y-22894144D01*
G37*
D12*
X21832600Y-23368000D03*
G04 #@! TD*
D10*
G04 #@! TO.C,C21*
G36*
X29610979Y-29294944D02*
X29634034Y-29298363D01*
X29656643Y-29304027D01*
X29678587Y-29311879D01*
X29699657Y-29321844D01*
X29719648Y-29333826D01*
X29738368Y-29347710D01*
X29755638Y-29363362D01*
X29771290Y-29380632D01*
X29785174Y-29399352D01*
X29797156Y-29419343D01*
X29807121Y-29440413D01*
X29814973Y-29462357D01*
X29820637Y-29484966D01*
X29824056Y-29508021D01*
X29825200Y-29531300D01*
X29825200Y-30006300D01*
X29824056Y-30029579D01*
X29820637Y-30052634D01*
X29814973Y-30075243D01*
X29807121Y-30097187D01*
X29797156Y-30118257D01*
X29785174Y-30138248D01*
X29771290Y-30156968D01*
X29755638Y-30174238D01*
X29738368Y-30189890D01*
X29719648Y-30203774D01*
X29699657Y-30215756D01*
X29678587Y-30225721D01*
X29656643Y-30233573D01*
X29634034Y-30239237D01*
X29610979Y-30242656D01*
X29587700Y-30243800D01*
X29012700Y-30243800D01*
X28989421Y-30242656D01*
X28966366Y-30239237D01*
X28943757Y-30233573D01*
X28921813Y-30225721D01*
X28900743Y-30215756D01*
X28880752Y-30203774D01*
X28862032Y-30189890D01*
X28844762Y-30174238D01*
X28829110Y-30156968D01*
X28815226Y-30138248D01*
X28803244Y-30118257D01*
X28793279Y-30097187D01*
X28785427Y-30075243D01*
X28779763Y-30052634D01*
X28776344Y-30029579D01*
X28775200Y-30006300D01*
X28775200Y-29531300D01*
X28776344Y-29508021D01*
X28779763Y-29484966D01*
X28785427Y-29462357D01*
X28793279Y-29440413D01*
X28803244Y-29419343D01*
X28815226Y-29399352D01*
X28829110Y-29380632D01*
X28844762Y-29363362D01*
X28862032Y-29347710D01*
X28880752Y-29333826D01*
X28900743Y-29321844D01*
X28921813Y-29311879D01*
X28943757Y-29304027D01*
X28966366Y-29298363D01*
X28989421Y-29294944D01*
X29012700Y-29293800D01*
X29587700Y-29293800D01*
X29610979Y-29294944D01*
X29610979Y-29294944D01*
G37*
D12*
X29300200Y-29768800D03*
D10*
G36*
X31360979Y-29294944D02*
X31384034Y-29298363D01*
X31406643Y-29304027D01*
X31428587Y-29311879D01*
X31449657Y-29321844D01*
X31469648Y-29333826D01*
X31488368Y-29347710D01*
X31505638Y-29363362D01*
X31521290Y-29380632D01*
X31535174Y-29399352D01*
X31547156Y-29419343D01*
X31557121Y-29440413D01*
X31564973Y-29462357D01*
X31570637Y-29484966D01*
X31574056Y-29508021D01*
X31575200Y-29531300D01*
X31575200Y-30006300D01*
X31574056Y-30029579D01*
X31570637Y-30052634D01*
X31564973Y-30075243D01*
X31557121Y-30097187D01*
X31547156Y-30118257D01*
X31535174Y-30138248D01*
X31521290Y-30156968D01*
X31505638Y-30174238D01*
X31488368Y-30189890D01*
X31469648Y-30203774D01*
X31449657Y-30215756D01*
X31428587Y-30225721D01*
X31406643Y-30233573D01*
X31384034Y-30239237D01*
X31360979Y-30242656D01*
X31337700Y-30243800D01*
X30762700Y-30243800D01*
X30739421Y-30242656D01*
X30716366Y-30239237D01*
X30693757Y-30233573D01*
X30671813Y-30225721D01*
X30650743Y-30215756D01*
X30630752Y-30203774D01*
X30612032Y-30189890D01*
X30594762Y-30174238D01*
X30579110Y-30156968D01*
X30565226Y-30138248D01*
X30553244Y-30118257D01*
X30543279Y-30097187D01*
X30535427Y-30075243D01*
X30529763Y-30052634D01*
X30526344Y-30029579D01*
X30525200Y-30006300D01*
X30525200Y-29531300D01*
X30526344Y-29508021D01*
X30529763Y-29484966D01*
X30535427Y-29462357D01*
X30543279Y-29440413D01*
X30553244Y-29419343D01*
X30565226Y-29399352D01*
X30579110Y-29380632D01*
X30594762Y-29363362D01*
X30612032Y-29347710D01*
X30630752Y-29333826D01*
X30650743Y-29321844D01*
X30671813Y-29311879D01*
X30693757Y-29304027D01*
X30716366Y-29298363D01*
X30739421Y-29294944D01*
X30762700Y-29293800D01*
X31337700Y-29293800D01*
X31360979Y-29294944D01*
X31360979Y-29294944D01*
G37*
D12*
X31050200Y-29768800D03*
G04 #@! TD*
D10*
G04 #@! TO.C,R30*
G36*
X31829579Y-22589344D02*
X31852634Y-22592763D01*
X31875243Y-22598427D01*
X31897187Y-22606279D01*
X31918257Y-22616244D01*
X31938248Y-22628226D01*
X31956968Y-22642110D01*
X31974238Y-22657762D01*
X31989890Y-22675032D01*
X32003774Y-22693752D01*
X32015756Y-22713743D01*
X32025721Y-22734813D01*
X32033573Y-22756757D01*
X32039237Y-22779366D01*
X32042656Y-22802421D01*
X32043800Y-22825700D01*
X32043800Y-23300700D01*
X32042656Y-23323979D01*
X32039237Y-23347034D01*
X32033573Y-23369643D01*
X32025721Y-23391587D01*
X32015756Y-23412657D01*
X32003774Y-23432648D01*
X31989890Y-23451368D01*
X31974238Y-23468638D01*
X31956968Y-23484290D01*
X31938248Y-23498174D01*
X31918257Y-23510156D01*
X31897187Y-23520121D01*
X31875243Y-23527973D01*
X31852634Y-23533637D01*
X31829579Y-23537056D01*
X31806300Y-23538200D01*
X31231300Y-23538200D01*
X31208021Y-23537056D01*
X31184966Y-23533637D01*
X31162357Y-23527973D01*
X31140413Y-23520121D01*
X31119343Y-23510156D01*
X31099352Y-23498174D01*
X31080632Y-23484290D01*
X31063362Y-23468638D01*
X31047710Y-23451368D01*
X31033826Y-23432648D01*
X31021844Y-23412657D01*
X31011879Y-23391587D01*
X31004027Y-23369643D01*
X30998363Y-23347034D01*
X30994944Y-23323979D01*
X30993800Y-23300700D01*
X30993800Y-22825700D01*
X30994944Y-22802421D01*
X30998363Y-22779366D01*
X31004027Y-22756757D01*
X31011879Y-22734813D01*
X31021844Y-22713743D01*
X31033826Y-22693752D01*
X31047710Y-22675032D01*
X31063362Y-22657762D01*
X31080632Y-22642110D01*
X31099352Y-22628226D01*
X31119343Y-22616244D01*
X31140413Y-22606279D01*
X31162357Y-22598427D01*
X31184966Y-22592763D01*
X31208021Y-22589344D01*
X31231300Y-22588200D01*
X31806300Y-22588200D01*
X31829579Y-22589344D01*
X31829579Y-22589344D01*
G37*
D12*
X31518800Y-23063200D03*
D10*
G36*
X30079579Y-22589344D02*
X30102634Y-22592763D01*
X30125243Y-22598427D01*
X30147187Y-22606279D01*
X30168257Y-22616244D01*
X30188248Y-22628226D01*
X30206968Y-22642110D01*
X30224238Y-22657762D01*
X30239890Y-22675032D01*
X30253774Y-22693752D01*
X30265756Y-22713743D01*
X30275721Y-22734813D01*
X30283573Y-22756757D01*
X30289237Y-22779366D01*
X30292656Y-22802421D01*
X30293800Y-22825700D01*
X30293800Y-23300700D01*
X30292656Y-23323979D01*
X30289237Y-23347034D01*
X30283573Y-23369643D01*
X30275721Y-23391587D01*
X30265756Y-23412657D01*
X30253774Y-23432648D01*
X30239890Y-23451368D01*
X30224238Y-23468638D01*
X30206968Y-23484290D01*
X30188248Y-23498174D01*
X30168257Y-23510156D01*
X30147187Y-23520121D01*
X30125243Y-23527973D01*
X30102634Y-23533637D01*
X30079579Y-23537056D01*
X30056300Y-23538200D01*
X29481300Y-23538200D01*
X29458021Y-23537056D01*
X29434966Y-23533637D01*
X29412357Y-23527973D01*
X29390413Y-23520121D01*
X29369343Y-23510156D01*
X29349352Y-23498174D01*
X29330632Y-23484290D01*
X29313362Y-23468638D01*
X29297710Y-23451368D01*
X29283826Y-23432648D01*
X29271844Y-23412657D01*
X29261879Y-23391587D01*
X29254027Y-23369643D01*
X29248363Y-23347034D01*
X29244944Y-23323979D01*
X29243800Y-23300700D01*
X29243800Y-22825700D01*
X29244944Y-22802421D01*
X29248363Y-22779366D01*
X29254027Y-22756757D01*
X29261879Y-22734813D01*
X29271844Y-22713743D01*
X29283826Y-22693752D01*
X29297710Y-22675032D01*
X29313362Y-22657762D01*
X29330632Y-22642110D01*
X29349352Y-22628226D01*
X29369343Y-22616244D01*
X29390413Y-22606279D01*
X29412357Y-22598427D01*
X29434966Y-22592763D01*
X29458021Y-22589344D01*
X29481300Y-22588200D01*
X30056300Y-22588200D01*
X30079579Y-22589344D01*
X30079579Y-22589344D01*
G37*
D12*
X29768800Y-23063200D03*
G04 #@! TD*
D10*
G04 #@! TO.C,R31*
G36*
X31388979Y-31377744D02*
X31412034Y-31381163D01*
X31434643Y-31386827D01*
X31456587Y-31394679D01*
X31477657Y-31404644D01*
X31497648Y-31416626D01*
X31516368Y-31430510D01*
X31533638Y-31446162D01*
X31549290Y-31463432D01*
X31563174Y-31482152D01*
X31575156Y-31502143D01*
X31585121Y-31523213D01*
X31592973Y-31545157D01*
X31598637Y-31567766D01*
X31602056Y-31590821D01*
X31603200Y-31614100D01*
X31603200Y-32089100D01*
X31602056Y-32112379D01*
X31598637Y-32135434D01*
X31592973Y-32158043D01*
X31585121Y-32179987D01*
X31575156Y-32201057D01*
X31563174Y-32221048D01*
X31549290Y-32239768D01*
X31533638Y-32257038D01*
X31516368Y-32272690D01*
X31497648Y-32286574D01*
X31477657Y-32298556D01*
X31456587Y-32308521D01*
X31434643Y-32316373D01*
X31412034Y-32322037D01*
X31388979Y-32325456D01*
X31365700Y-32326600D01*
X30790700Y-32326600D01*
X30767421Y-32325456D01*
X30744366Y-32322037D01*
X30721757Y-32316373D01*
X30699813Y-32308521D01*
X30678743Y-32298556D01*
X30658752Y-32286574D01*
X30640032Y-32272690D01*
X30622762Y-32257038D01*
X30607110Y-32239768D01*
X30593226Y-32221048D01*
X30581244Y-32201057D01*
X30571279Y-32179987D01*
X30563427Y-32158043D01*
X30557763Y-32135434D01*
X30554344Y-32112379D01*
X30553200Y-32089100D01*
X30553200Y-31614100D01*
X30554344Y-31590821D01*
X30557763Y-31567766D01*
X30563427Y-31545157D01*
X30571279Y-31523213D01*
X30581244Y-31502143D01*
X30593226Y-31482152D01*
X30607110Y-31463432D01*
X30622762Y-31446162D01*
X30640032Y-31430510D01*
X30658752Y-31416626D01*
X30678743Y-31404644D01*
X30699813Y-31394679D01*
X30721757Y-31386827D01*
X30744366Y-31381163D01*
X30767421Y-31377744D01*
X30790700Y-31376600D01*
X31365700Y-31376600D01*
X31388979Y-31377744D01*
X31388979Y-31377744D01*
G37*
D12*
X31078200Y-31851600D03*
D10*
G36*
X33138979Y-31377744D02*
X33162034Y-31381163D01*
X33184643Y-31386827D01*
X33206587Y-31394679D01*
X33227657Y-31404644D01*
X33247648Y-31416626D01*
X33266368Y-31430510D01*
X33283638Y-31446162D01*
X33299290Y-31463432D01*
X33313174Y-31482152D01*
X33325156Y-31502143D01*
X33335121Y-31523213D01*
X33342973Y-31545157D01*
X33348637Y-31567766D01*
X33352056Y-31590821D01*
X33353200Y-31614100D01*
X33353200Y-32089100D01*
X33352056Y-32112379D01*
X33348637Y-32135434D01*
X33342973Y-32158043D01*
X33335121Y-32179987D01*
X33325156Y-32201057D01*
X33313174Y-32221048D01*
X33299290Y-32239768D01*
X33283638Y-32257038D01*
X33266368Y-32272690D01*
X33247648Y-32286574D01*
X33227657Y-32298556D01*
X33206587Y-32308521D01*
X33184643Y-32316373D01*
X33162034Y-32322037D01*
X33138979Y-32325456D01*
X33115700Y-32326600D01*
X32540700Y-32326600D01*
X32517421Y-32325456D01*
X32494366Y-32322037D01*
X32471757Y-32316373D01*
X32449813Y-32308521D01*
X32428743Y-32298556D01*
X32408752Y-32286574D01*
X32390032Y-32272690D01*
X32372762Y-32257038D01*
X32357110Y-32239768D01*
X32343226Y-32221048D01*
X32331244Y-32201057D01*
X32321279Y-32179987D01*
X32313427Y-32158043D01*
X32307763Y-32135434D01*
X32304344Y-32112379D01*
X32303200Y-32089100D01*
X32303200Y-31614100D01*
X32304344Y-31590821D01*
X32307763Y-31567766D01*
X32313427Y-31545157D01*
X32321279Y-31523213D01*
X32331244Y-31502143D01*
X32343226Y-31482152D01*
X32357110Y-31463432D01*
X32372762Y-31446162D01*
X32390032Y-31430510D01*
X32408752Y-31416626D01*
X32428743Y-31404644D01*
X32449813Y-31394679D01*
X32471757Y-31386827D01*
X32494366Y-31381163D01*
X32517421Y-31377744D01*
X32540700Y-31376600D01*
X33115700Y-31376600D01*
X33138979Y-31377744D01*
X33138979Y-31377744D01*
G37*
D12*
X32828200Y-31851600D03*
G04 #@! TD*
D10*
G04 #@! TO.C,R32*
G36*
X24136779Y-29143344D02*
X24159834Y-29146763D01*
X24182443Y-29152427D01*
X24204387Y-29160279D01*
X24225457Y-29170244D01*
X24245448Y-29182226D01*
X24264168Y-29196110D01*
X24281438Y-29211762D01*
X24297090Y-29229032D01*
X24310974Y-29247752D01*
X24322956Y-29267743D01*
X24332921Y-29288813D01*
X24340773Y-29310757D01*
X24346437Y-29333366D01*
X24349856Y-29356421D01*
X24351000Y-29379700D01*
X24351000Y-29954700D01*
X24349856Y-29977979D01*
X24346437Y-30001034D01*
X24340773Y-30023643D01*
X24332921Y-30045587D01*
X24322956Y-30066657D01*
X24310974Y-30086648D01*
X24297090Y-30105368D01*
X24281438Y-30122638D01*
X24264168Y-30138290D01*
X24245448Y-30152174D01*
X24225457Y-30164156D01*
X24204387Y-30174121D01*
X24182443Y-30181973D01*
X24159834Y-30187637D01*
X24136779Y-30191056D01*
X24113500Y-30192200D01*
X23638500Y-30192200D01*
X23615221Y-30191056D01*
X23592166Y-30187637D01*
X23569557Y-30181973D01*
X23547613Y-30174121D01*
X23526543Y-30164156D01*
X23506552Y-30152174D01*
X23487832Y-30138290D01*
X23470562Y-30122638D01*
X23454910Y-30105368D01*
X23441026Y-30086648D01*
X23429044Y-30066657D01*
X23419079Y-30045587D01*
X23411227Y-30023643D01*
X23405563Y-30001034D01*
X23402144Y-29977979D01*
X23401000Y-29954700D01*
X23401000Y-29379700D01*
X23402144Y-29356421D01*
X23405563Y-29333366D01*
X23411227Y-29310757D01*
X23419079Y-29288813D01*
X23429044Y-29267743D01*
X23441026Y-29247752D01*
X23454910Y-29229032D01*
X23470562Y-29211762D01*
X23487832Y-29196110D01*
X23506552Y-29182226D01*
X23526543Y-29170244D01*
X23547613Y-29160279D01*
X23569557Y-29152427D01*
X23592166Y-29146763D01*
X23615221Y-29143344D01*
X23638500Y-29142200D01*
X24113500Y-29142200D01*
X24136779Y-29143344D01*
X24136779Y-29143344D01*
G37*
D12*
X23876000Y-29667200D03*
D10*
G36*
X24136779Y-30893344D02*
X24159834Y-30896763D01*
X24182443Y-30902427D01*
X24204387Y-30910279D01*
X24225457Y-30920244D01*
X24245448Y-30932226D01*
X24264168Y-30946110D01*
X24281438Y-30961762D01*
X24297090Y-30979032D01*
X24310974Y-30997752D01*
X24322956Y-31017743D01*
X24332921Y-31038813D01*
X24340773Y-31060757D01*
X24346437Y-31083366D01*
X24349856Y-31106421D01*
X24351000Y-31129700D01*
X24351000Y-31704700D01*
X24349856Y-31727979D01*
X24346437Y-31751034D01*
X24340773Y-31773643D01*
X24332921Y-31795587D01*
X24322956Y-31816657D01*
X24310974Y-31836648D01*
X24297090Y-31855368D01*
X24281438Y-31872638D01*
X24264168Y-31888290D01*
X24245448Y-31902174D01*
X24225457Y-31914156D01*
X24204387Y-31924121D01*
X24182443Y-31931973D01*
X24159834Y-31937637D01*
X24136779Y-31941056D01*
X24113500Y-31942200D01*
X23638500Y-31942200D01*
X23615221Y-31941056D01*
X23592166Y-31937637D01*
X23569557Y-31931973D01*
X23547613Y-31924121D01*
X23526543Y-31914156D01*
X23506552Y-31902174D01*
X23487832Y-31888290D01*
X23470562Y-31872638D01*
X23454910Y-31855368D01*
X23441026Y-31836648D01*
X23429044Y-31816657D01*
X23419079Y-31795587D01*
X23411227Y-31773643D01*
X23405563Y-31751034D01*
X23402144Y-31727979D01*
X23401000Y-31704700D01*
X23401000Y-31129700D01*
X23402144Y-31106421D01*
X23405563Y-31083366D01*
X23411227Y-31060757D01*
X23419079Y-31038813D01*
X23429044Y-31017743D01*
X23441026Y-30997752D01*
X23454910Y-30979032D01*
X23470562Y-30961762D01*
X23487832Y-30946110D01*
X23506552Y-30932226D01*
X23526543Y-30920244D01*
X23547613Y-30910279D01*
X23569557Y-30902427D01*
X23592166Y-30896763D01*
X23615221Y-30893344D01*
X23638500Y-30892200D01*
X24113500Y-30892200D01*
X24136779Y-30893344D01*
X24136779Y-30893344D01*
G37*
D12*
X23876000Y-31417200D03*
G04 #@! TD*
D16*
G04 #@! TO.C,U3*
X25644200Y-29721600D03*
X26294200Y-29721600D03*
X26944200Y-29721600D03*
X27594200Y-29721600D03*
X27594200Y-23821600D03*
X26944200Y-23821600D03*
X26294200Y-23821600D03*
X25644200Y-23821600D03*
G04 #@! TD*
M02*
