G04 #@! TF.GenerationSoftware,KiCad,Pcbnew,(5.0.1)-4*
G04 #@! TF.CreationDate,2019-02-17T20:46:42+01:00*
G04 #@! TF.ProjectId,1U Rim,31552052696D2E6B696361645F706362,rev?*
G04 #@! TF.SameCoordinates,Original*
G04 #@! TF.FileFunction,Legend,Top*
G04 #@! TF.FilePolarity,Positive*
%FSLAX46Y46*%
G04 Gerber Fmt 4.6, Leading zero omitted, Abs format (unit mm)*
G04 Created by KiCad (PCBNEW (5.0.1)-4) date 2/17/2019 8:46:42 PM*
%MOMM*%
%LPD*%
G01*
G04 APERTURE LIST*
%ADD10C,0.200000*%
%ADD11C,0.120000*%
%ADD12C,0.150000*%
G04 APERTURE END LIST*
D10*
X25852400Y-28092400D02*
G75*
G03X25852400Y-28092400I-300000J0D01*
G01*
X30322800Y-42011600D02*
G75*
G03X30322800Y-42011600I-300000J0D01*
G01*
X69235600Y-42367200D02*
G75*
G03X69235600Y-42367200I-300000J0D01*
G01*
D11*
X63686885Y-37397142D02*
X63329742Y-37647142D01*
X63686885Y-37825714D02*
X62936885Y-37825714D01*
X62936885Y-37540000D01*
X62972600Y-37468571D01*
X63008314Y-37432857D01*
X63079742Y-37397142D01*
X63186885Y-37397142D01*
X63258314Y-37432857D01*
X63294028Y-37468571D01*
X63329742Y-37540000D01*
X63329742Y-37825714D01*
X63686885Y-37075714D02*
X63186885Y-37075714D01*
X62936885Y-37075714D02*
X62972600Y-37111428D01*
X63008314Y-37075714D01*
X62972600Y-37040000D01*
X62936885Y-37075714D01*
X63008314Y-37075714D01*
X63686885Y-36718571D02*
X63186885Y-36718571D01*
X63258314Y-36718571D02*
X63222600Y-36682857D01*
X63186885Y-36611428D01*
X63186885Y-36504285D01*
X63222600Y-36432857D01*
X63294028Y-36397142D01*
X63686885Y-36397142D01*
X63294028Y-36397142D02*
X63222600Y-36361428D01*
X63186885Y-36290000D01*
X63186885Y-36182857D01*
X63222600Y-36111428D01*
X63294028Y-36075714D01*
X63686885Y-36075714D01*
X63651171Y-35754285D02*
X63686885Y-35682857D01*
X63686885Y-35540000D01*
X63651171Y-35468571D01*
X63579742Y-35432857D01*
X63544028Y-35432857D01*
X63472600Y-35468571D01*
X63436885Y-35540000D01*
X63436885Y-35647142D01*
X63401171Y-35718571D01*
X63329742Y-35754285D01*
X63294028Y-35754285D01*
X63222600Y-35718571D01*
X63186885Y-35647142D01*
X63186885Y-35540000D01*
X63222600Y-35468571D01*
X63686885Y-35111428D02*
X62936885Y-35111428D01*
X63686885Y-34790000D02*
X63294028Y-34790000D01*
X63222600Y-34825714D01*
X63186885Y-34897142D01*
X63186885Y-35004285D01*
X63222600Y-35075714D01*
X63258314Y-35111428D01*
X63686885Y-34325714D02*
X63651171Y-34397142D01*
X63615457Y-34432857D01*
X63544028Y-34468571D01*
X63329742Y-34468571D01*
X63258314Y-34432857D01*
X63222600Y-34397142D01*
X63186885Y-34325714D01*
X63186885Y-34218571D01*
X63222600Y-34147142D01*
X63258314Y-34111428D01*
X63329742Y-34075714D01*
X63544028Y-34075714D01*
X63615457Y-34111428D01*
X63651171Y-34147142D01*
X63686885Y-34218571D01*
X63686885Y-34325714D01*
X63186885Y-33861428D02*
X63186885Y-33575714D01*
X62936885Y-33754285D02*
X63579742Y-33754285D01*
X63651171Y-33718571D01*
X63686885Y-33647142D01*
X63686885Y-33575714D01*
X63186885Y-32825714D02*
X63686885Y-32647142D01*
X63186885Y-32468571D01*
X62936885Y-32040000D02*
X62936885Y-31968571D01*
X62972600Y-31897142D01*
X63008314Y-31861428D01*
X63079742Y-31825714D01*
X63222600Y-31790000D01*
X63401171Y-31790000D01*
X63544028Y-31825714D01*
X63615457Y-31861428D01*
X63651171Y-31897142D01*
X63686885Y-31968571D01*
X63686885Y-32040000D01*
X63651171Y-32111428D01*
X63615457Y-32147142D01*
X63544028Y-32182857D01*
X63401171Y-32218571D01*
X63222600Y-32218571D01*
X63079742Y-32182857D01*
X63008314Y-32147142D01*
X62972600Y-32111428D01*
X62936885Y-32040000D01*
X63615457Y-31468571D02*
X63651171Y-31432857D01*
X63686885Y-31468571D01*
X63651171Y-31504285D01*
X63615457Y-31468571D01*
X63686885Y-31468571D01*
X63008314Y-31147142D02*
X62972600Y-31111428D01*
X62936885Y-31040000D01*
X62936885Y-30861428D01*
X62972600Y-30790000D01*
X63008314Y-30754285D01*
X63079742Y-30718571D01*
X63151171Y-30718571D01*
X63258314Y-30754285D01*
X63686885Y-31182857D01*
X63686885Y-30718571D01*
X62366085Y-37700714D02*
X61616085Y-37700714D01*
X62366085Y-37272142D02*
X61937514Y-37593571D01*
X61616085Y-37272142D02*
X62044657Y-37700714D01*
X62366085Y-36950714D02*
X61866085Y-36950714D01*
X62008942Y-36950714D02*
X61937514Y-36915000D01*
X61901800Y-36879285D01*
X61866085Y-36807857D01*
X61866085Y-36736428D01*
X62366085Y-36165000D02*
X61973228Y-36165000D01*
X61901800Y-36200714D01*
X61866085Y-36272142D01*
X61866085Y-36415000D01*
X61901800Y-36486428D01*
X62330371Y-36165000D02*
X62366085Y-36236428D01*
X62366085Y-36415000D01*
X62330371Y-36486428D01*
X62258942Y-36522142D01*
X62187514Y-36522142D01*
X62116085Y-36486428D01*
X62080371Y-36415000D01*
X62080371Y-36236428D01*
X62044657Y-36165000D01*
X62366085Y-35486428D02*
X61973228Y-35486428D01*
X61901800Y-35522142D01*
X61866085Y-35593571D01*
X61866085Y-35736428D01*
X61901800Y-35807857D01*
X62330371Y-35486428D02*
X62366085Y-35557857D01*
X62366085Y-35736428D01*
X62330371Y-35807857D01*
X62258942Y-35843571D01*
X62187514Y-35843571D01*
X62116085Y-35807857D01*
X62080371Y-35736428D01*
X62080371Y-35557857D01*
X62044657Y-35486428D01*
X62366085Y-35129285D02*
X61616085Y-35129285D01*
X62080371Y-35057857D02*
X62366085Y-34843571D01*
X61866085Y-34843571D02*
X62151800Y-35129285D01*
X62330371Y-34236428D02*
X62366085Y-34307857D01*
X62366085Y-34450714D01*
X62330371Y-34522142D01*
X62258942Y-34557857D01*
X61973228Y-34557857D01*
X61901800Y-34522142D01*
X61866085Y-34450714D01*
X61866085Y-34307857D01*
X61901800Y-34236428D01*
X61973228Y-34200714D01*
X62044657Y-34200714D01*
X62116085Y-34557857D01*
X61866085Y-33879285D02*
X62366085Y-33879285D01*
X61937514Y-33879285D02*
X61901800Y-33843571D01*
X61866085Y-33772142D01*
X61866085Y-33665000D01*
X61901800Y-33593571D01*
X61973228Y-33557857D01*
X62366085Y-33557857D01*
X62330371Y-33236428D02*
X62366085Y-33129285D01*
X62366085Y-32950714D01*
X62330371Y-32879285D01*
X62294657Y-32843571D01*
X62223228Y-32807857D01*
X62151800Y-32807857D01*
X62080371Y-32843571D01*
X62044657Y-32879285D01*
X62008942Y-32950714D01*
X61973228Y-33093571D01*
X61937514Y-33165000D01*
X61901800Y-33200714D01*
X61830371Y-33236428D01*
X61758942Y-33236428D01*
X61687514Y-33200714D01*
X61651800Y-33165000D01*
X61616085Y-33093571D01*
X61616085Y-32915000D01*
X61651800Y-32807857D01*
X61866085Y-32593571D02*
X61866085Y-32307857D01*
X61616085Y-32486428D02*
X62258942Y-32486428D01*
X62330371Y-32450714D01*
X62366085Y-32379285D01*
X62366085Y-32307857D01*
X61866085Y-31736428D02*
X62366085Y-31736428D01*
X61866085Y-32057857D02*
X62258942Y-32057857D01*
X62330371Y-32022142D01*
X62366085Y-31950714D01*
X62366085Y-31843571D01*
X62330371Y-31772142D01*
X62294657Y-31736428D01*
X61866085Y-31486428D02*
X61866085Y-31200714D01*
X62366085Y-31379285D02*
X61723228Y-31379285D01*
X61651800Y-31343571D01*
X61616085Y-31272142D01*
X61616085Y-31200714D01*
X61866085Y-31057857D02*
X61866085Y-30772142D01*
X62366085Y-30950714D02*
X61723228Y-30950714D01*
X61651800Y-30915000D01*
X61616085Y-30843571D01*
X61616085Y-30772142D01*
G04 #@! TO.C,C1*
X53870600Y-32573252D02*
X53870600Y-32050748D01*
X52450600Y-32573252D02*
X52450600Y-32050748D01*
G04 #@! TO.C,C2*
X32085067Y-34139600D02*
X31742533Y-34139600D01*
X32085067Y-33119600D02*
X31742533Y-33119600D01*
G04 #@! TO.C,C3*
X58876000Y-47744748D02*
X58876000Y-48267252D01*
X57456000Y-47744748D02*
X57456000Y-48267252D01*
G04 #@! TO.C,C4*
X64314000Y-44696748D02*
X64314000Y-45219252D01*
X65734000Y-44696748D02*
X65734000Y-45219252D01*
G04 #@! TO.C,C5*
X67427852Y-48108800D02*
X66905348Y-48108800D01*
X67427852Y-49528800D02*
X66905348Y-49528800D01*
G04 #@! TO.C,C6*
X65838000Y-32250748D02*
X65838000Y-32773252D01*
X67258000Y-32250748D02*
X67258000Y-32773252D01*
G04 #@! TO.C,C7*
X61774000Y-45219252D02*
X61774000Y-44696748D01*
X63194000Y-45219252D02*
X63194000Y-44696748D01*
G04 #@! TO.C,C8*
X71441052Y-49528800D02*
X70918548Y-49528800D01*
X71441052Y-48108800D02*
X70918548Y-48108800D01*
G04 #@! TO.C,C9*
X73798500Y-29246248D02*
X73798500Y-29768752D01*
X72378500Y-29246248D02*
X72378500Y-29768752D01*
G04 #@! TO.C,C10*
X29353367Y-38161500D02*
X29010833Y-38161500D01*
X29353367Y-39181500D02*
X29010833Y-39181500D01*
G04 #@! TO.C,C11*
X39402652Y-39826000D02*
X38880148Y-39826000D01*
X39402652Y-38406000D02*
X38880148Y-38406000D01*
G04 #@! TO.C,C12*
X38880148Y-42112000D02*
X39402652Y-42112000D01*
X38880148Y-40692000D02*
X39402652Y-40692000D01*
G04 #@! TO.C,C13*
X71940267Y-40896000D02*
X71597733Y-40896000D01*
X71940267Y-39876000D02*
X71597733Y-39876000D01*
G04 #@! TO.C,C14*
X73912000Y-39311733D02*
X73912000Y-39654267D01*
X74932000Y-39311733D02*
X74932000Y-39654267D01*
G04 #@! TO.C,C15*
X32260000Y-41042733D02*
X32260000Y-41385267D01*
X31240000Y-41042733D02*
X31240000Y-41385267D01*
G04 #@! TO.C,C16*
X26418000Y-39861267D02*
X26418000Y-39518733D01*
X25398000Y-39861267D02*
X25398000Y-39518733D01*
G04 #@! TO.C,C17*
X23640148Y-45772000D02*
X24162652Y-45772000D01*
X23640148Y-47192000D02*
X24162652Y-47192000D01*
G04 #@! TO.C,C18*
X56994500Y-25092100D02*
X56619500Y-25092100D01*
X56807000Y-24904600D02*
X56807000Y-25279600D01*
X54312000Y-25709037D02*
X53612000Y-26409037D01*
X56432000Y-25709037D02*
X57132000Y-26409037D01*
X53612000Y-26409037D02*
X53612000Y-29039600D01*
X57132000Y-26409037D02*
X57132000Y-29039600D01*
X57132000Y-29039600D02*
X56432000Y-29039600D01*
X53612000Y-29039600D02*
X54312000Y-29039600D01*
G04 #@! TO.C,C19*
X57472800Y-29039600D02*
X58172800Y-29039600D01*
X60992800Y-29039600D02*
X60292800Y-29039600D01*
X60992800Y-26409037D02*
X60992800Y-29039600D01*
X57472800Y-26409037D02*
X57472800Y-29039600D01*
X60292800Y-25709037D02*
X60992800Y-26409037D01*
X58172800Y-25709037D02*
X57472800Y-26409037D01*
X60667800Y-24904600D02*
X60667800Y-25279600D01*
X60855300Y-25092100D02*
X60480300Y-25092100D01*
G04 #@! TO.C,D1*
X60272600Y-33312000D02*
X60272600Y-30852000D01*
X60272600Y-30852000D02*
X58802600Y-30852000D01*
X58802600Y-30852000D02*
X58802600Y-33312000D01*
G04 #@! TO.C,D2*
X52147800Y-35627200D02*
X52147800Y-38087200D01*
X53617800Y-35627200D02*
X52147800Y-35627200D01*
X53617800Y-38087200D02*
X53617800Y-35627200D01*
G04 #@! TO.C,D3*
X54891000Y-43308000D02*
X54891000Y-45768000D01*
X54891000Y-45768000D02*
X56361000Y-45768000D01*
X56361000Y-45768000D02*
X56361000Y-43308000D01*
G04 #@! TO.C,D4*
X68353000Y-27394000D02*
X68353000Y-29854000D01*
X68353000Y-29854000D02*
X69823000Y-29854000D01*
X69823000Y-29854000D02*
X69823000Y-27394000D01*
G04 #@! TO.C,D5*
X70385000Y-26534000D02*
X70385000Y-28994000D01*
X71855000Y-26534000D02*
X70385000Y-26534000D01*
X71855000Y-28994000D02*
X71855000Y-26534000D01*
G04 #@! TO.C,J3*
X65065600Y-30082800D02*
X67725600Y-30082800D01*
X65065600Y-24942800D02*
X65065600Y-30082800D01*
X67725600Y-24942800D02*
X67725600Y-30082800D01*
X65065600Y-24942800D02*
X67725600Y-24942800D01*
X65065600Y-23672800D02*
X65065600Y-22342800D01*
X65065600Y-22342800D02*
X66395600Y-22342800D01*
G04 #@! TO.C,J5*
X32731237Y-22342800D02*
X34061237Y-22342800D01*
X32731237Y-23672800D02*
X32731237Y-22342800D01*
X32731237Y-24942800D02*
X35391237Y-24942800D01*
X35391237Y-24942800D02*
X35391237Y-30082800D01*
X32731237Y-24942800D02*
X32731237Y-30082800D01*
X32731237Y-30082800D02*
X35391237Y-30082800D01*
G04 #@! TO.C,J7*
X32775200Y-37448800D02*
X32775200Y-34788800D01*
X27635200Y-37448800D02*
X32775200Y-37448800D01*
X27635200Y-34788800D02*
X32775200Y-34788800D01*
X27635200Y-37448800D02*
X27635200Y-34788800D01*
X26365200Y-37448800D02*
X25035200Y-37448800D01*
X25035200Y-37448800D02*
X25035200Y-36118800D01*
G04 #@! TO.C,J9*
X35296800Y-37448800D02*
X35296800Y-36118800D01*
X36626800Y-37448800D02*
X35296800Y-37448800D01*
X37896800Y-37448800D02*
X37896800Y-34788800D01*
X37896800Y-34788800D02*
X43036800Y-34788800D01*
X37896800Y-37448800D02*
X43036800Y-37448800D01*
X43036800Y-37448800D02*
X43036800Y-34788800D01*
G04 #@! TO.C,Q1*
X53030000Y-48757100D02*
X53030000Y-47297100D01*
X56190000Y-48757100D02*
X56190000Y-46597100D01*
X56190000Y-48757100D02*
X55260000Y-48757100D01*
X53030000Y-48757100D02*
X53960000Y-48757100D01*
G04 #@! TO.C,Q2*
X59464000Y-41080000D02*
X60394000Y-41080000D01*
X62624000Y-41080000D02*
X61694000Y-41080000D01*
X62624000Y-41080000D02*
X62624000Y-38920000D01*
X59464000Y-41080000D02*
X59464000Y-39620000D01*
G04 #@! TO.C,Q3*
X53243600Y-25351200D02*
X52313600Y-25351200D01*
X50083600Y-25351200D02*
X51013600Y-25351200D01*
X50083600Y-25351200D02*
X50083600Y-27511200D01*
X53243600Y-25351200D02*
X53243600Y-26811200D01*
G04 #@! TO.C,R1*
X51411600Y-32683267D02*
X51411600Y-32340733D01*
X50391600Y-32683267D02*
X50391600Y-32340733D01*
G04 #@! TO.C,R2*
X51564000Y-37469933D02*
X51564000Y-37127399D01*
X50544000Y-37469933D02*
X50544000Y-37127399D01*
G04 #@! TO.C,R3*
X50544000Y-42569599D02*
X50544000Y-42227065D01*
X51564000Y-42569599D02*
X51564000Y-42227065D01*
G04 #@! TO.C,R4*
X37695600Y-30461133D02*
X37695600Y-30803667D01*
X36675600Y-30461133D02*
X36675600Y-30803667D01*
G04 #@! TO.C,R5*
X53641000Y-42237065D02*
X53641000Y-42579599D01*
X52621000Y-42237065D02*
X52621000Y-42579599D01*
G04 #@! TO.C,R6*
X22252400Y-30702067D02*
X22252400Y-30359533D01*
X21232400Y-30702067D02*
X21232400Y-30359533D01*
G04 #@! TO.C,R7*
X51564000Y-47669267D02*
X51564000Y-47326733D01*
X50544000Y-47669267D02*
X50544000Y-47326733D01*
G04 #@! TO.C,R8*
X67889333Y-39876000D02*
X68231867Y-39876000D01*
X67889333Y-40896000D02*
X68231867Y-40896000D01*
G04 #@! TO.C,R9*
X58168000Y-40044733D02*
X58168000Y-40387267D01*
X57148000Y-40044733D02*
X57148000Y-40387267D01*
G04 #@! TO.C,R10*
X56136000Y-40387267D02*
X56136000Y-40044733D01*
X55116000Y-40387267D02*
X55116000Y-40044733D01*
G04 #@! TO.C,R11*
X60454000Y-44226267D02*
X60454000Y-43883733D01*
X59434000Y-44226267D02*
X59434000Y-43883733D01*
G04 #@! TO.C,R12*
X57656000Y-44226267D02*
X57656000Y-43883733D01*
X58676000Y-44226267D02*
X58676000Y-43883733D01*
G04 #@! TO.C,R13*
X64314800Y-41279867D02*
X64314800Y-40937333D01*
X63294800Y-41279867D02*
X63294800Y-40937333D01*
G04 #@! TO.C,R14*
X72896000Y-34461267D02*
X72896000Y-34118733D01*
X73916000Y-34461267D02*
X73916000Y-34118733D01*
G04 #@! TO.C,R15*
X70001267Y-31752000D02*
X69658733Y-31752000D01*
X70001267Y-30732000D02*
X69658733Y-30732000D01*
G04 #@! TO.C,R16*
X63149267Y-48562800D02*
X62806733Y-48562800D01*
X63149267Y-49582800D02*
X62806733Y-49582800D01*
G04 #@! TO.C,R17*
X75795600Y-29128933D02*
X75795600Y-29471467D01*
X74775600Y-29128933D02*
X74775600Y-29471467D01*
G04 #@! TO.C,R18*
X72896000Y-24212733D02*
X72896000Y-24555267D01*
X73916000Y-24212733D02*
X73916000Y-24555267D01*
G04 #@! TO.C,R19*
X68578000Y-24296733D02*
X68578000Y-24639267D01*
X69598000Y-24296733D02*
X69598000Y-24639267D01*
G04 #@! TO.C,R20*
X70610000Y-24639267D02*
X70610000Y-24296733D01*
X71630000Y-24639267D02*
X71630000Y-24296733D01*
G04 #@! TO.C,R21*
X20826000Y-40082467D02*
X20826000Y-39739933D01*
X21846000Y-40082467D02*
X21846000Y-39739933D01*
G04 #@! TO.C,R22*
X38965133Y-44854400D02*
X39307667Y-44854400D01*
X38965133Y-45874400D02*
X39307667Y-45874400D01*
G04 #@! TO.C,R23*
X39307667Y-43944000D02*
X38965133Y-43944000D01*
X39307667Y-42924000D02*
X38965133Y-42924000D01*
G04 #@! TO.C,R24*
X36832000Y-47680667D02*
X36832000Y-47338133D01*
X35812000Y-47680667D02*
X35812000Y-47338133D01*
G04 #@! TO.C,R25*
X32260000Y-47680667D02*
X32260000Y-47338133D01*
X31240000Y-47680667D02*
X31240000Y-47338133D01*
G04 #@! TO.C,R26*
X28815133Y-49786000D02*
X29157667Y-49786000D01*
X28815133Y-48766000D02*
X29157667Y-48766000D01*
D12*
G04 #@! TO.C,U1*
X68083800Y-41672600D02*
X68083800Y-41797600D01*
X72733800Y-41672600D02*
X72733800Y-41897600D01*
X72733800Y-46922600D02*
X72733800Y-46697600D01*
X68083800Y-46922600D02*
X68083800Y-46697600D01*
X68083800Y-41672600D02*
X72733800Y-41672600D01*
X68083800Y-46922600D02*
X72733800Y-46922600D01*
X68083800Y-41797600D02*
X66733800Y-41797600D01*
G04 #@! TO.C,U2*
X30606400Y-41188800D02*
X30506400Y-41188800D01*
X30606400Y-45838800D02*
X30406400Y-45838800D01*
X27356400Y-45838800D02*
X27556400Y-45838800D01*
X27356400Y-41188800D02*
X27556400Y-41188800D01*
X30606400Y-41188800D02*
X30606400Y-45838800D01*
X27356400Y-41188800D02*
X27356400Y-45838800D01*
X30506400Y-41188800D02*
X30506400Y-39838800D01*
D11*
G04 #@! TO.C,R27*
X60708000Y-47975733D02*
X60708000Y-48318267D01*
X59688000Y-47975733D02*
X59688000Y-48318267D01*
G04 #@! TO.C,R28*
X75039067Y-48308800D02*
X74696533Y-48308800D01*
X75039067Y-49328800D02*
X74696533Y-49328800D01*
G04 #@! TO.C,R29*
X75334400Y-45575067D02*
X75334400Y-45232533D01*
X76354400Y-45575067D02*
X76354400Y-45232533D01*
G04 #@! TO.C,C20*
X22536333Y-23878000D02*
X22878867Y-23878000D01*
X22536333Y-22858000D02*
X22878867Y-22858000D01*
G04 #@! TO.C,C21*
X30003933Y-29258800D02*
X30346467Y-29258800D01*
X30003933Y-30278800D02*
X30346467Y-30278800D01*
G04 #@! TO.C,R30*
X30815067Y-23573200D02*
X30472533Y-23573200D01*
X30815067Y-22553200D02*
X30472533Y-22553200D01*
G04 #@! TO.C,R31*
X31781933Y-31341600D02*
X32124467Y-31341600D01*
X31781933Y-32361600D02*
X32124467Y-32361600D01*
G04 #@! TO.C,R32*
X24386000Y-30713467D02*
X24386000Y-30370933D01*
X23366000Y-30713467D02*
X23366000Y-30370933D01*
D12*
G04 #@! TO.C,U3*
X24994200Y-29096600D02*
X25094200Y-29096600D01*
X24994200Y-24446600D02*
X25194200Y-24446600D01*
X28244200Y-24446600D02*
X28044200Y-24446600D01*
X28244200Y-29096600D02*
X28044200Y-29096600D01*
X24994200Y-29096600D02*
X24994200Y-24446600D01*
X28244200Y-29096600D02*
X28244200Y-24446600D01*
X25094200Y-29096600D02*
X25094200Y-30446600D01*
G04 #@! TO.C,C1*
D11*
X53070933Y-30222000D02*
X53037600Y-30255333D01*
X52937600Y-30288666D01*
X52870933Y-30288666D01*
X52770933Y-30255333D01*
X52704266Y-30188666D01*
X52670933Y-30122000D01*
X52637600Y-29988666D01*
X52637600Y-29888666D01*
X52670933Y-29755333D01*
X52704266Y-29688666D01*
X52770933Y-29622000D01*
X52870933Y-29588666D01*
X52937600Y-29588666D01*
X53037600Y-29622000D01*
X53070933Y-29655333D01*
X53737600Y-30288666D02*
X53337600Y-30288666D01*
X53537600Y-30288666D02*
X53537600Y-29588666D01*
X53470933Y-29688666D01*
X53404266Y-29755333D01*
X53337600Y-29788666D01*
G04 #@! TO.C,C2*
X33981533Y-33876400D02*
X33948200Y-33909733D01*
X33848200Y-33943066D01*
X33781533Y-33943066D01*
X33681533Y-33909733D01*
X33614866Y-33843066D01*
X33581533Y-33776400D01*
X33548200Y-33643066D01*
X33548200Y-33543066D01*
X33581533Y-33409733D01*
X33614866Y-33343066D01*
X33681533Y-33276400D01*
X33781533Y-33243066D01*
X33848200Y-33243066D01*
X33948200Y-33276400D01*
X33981533Y-33309733D01*
X34248200Y-33309733D02*
X34281533Y-33276400D01*
X34348200Y-33243066D01*
X34514866Y-33243066D01*
X34581533Y-33276400D01*
X34614866Y-33309733D01*
X34648200Y-33376400D01*
X34648200Y-33443066D01*
X34614866Y-33543066D01*
X34214866Y-33943066D01*
X34648200Y-33943066D01*
G04 #@! TO.C,C3*
X57036200Y-48122666D02*
X57069533Y-48156000D01*
X57102866Y-48256000D01*
X57102866Y-48322666D01*
X57069533Y-48422666D01*
X57002866Y-48489333D01*
X56936200Y-48522666D01*
X56802866Y-48556000D01*
X56702866Y-48556000D01*
X56569533Y-48522666D01*
X56502866Y-48489333D01*
X56436200Y-48422666D01*
X56402866Y-48322666D01*
X56402866Y-48256000D01*
X56436200Y-48156000D01*
X56469533Y-48122666D01*
X56402866Y-47889333D02*
X56402866Y-47456000D01*
X56669533Y-47689333D01*
X56669533Y-47589333D01*
X56702866Y-47522666D01*
X56736200Y-47489333D01*
X56802866Y-47456000D01*
X56969533Y-47456000D01*
X57036200Y-47489333D01*
X57069533Y-47522666D01*
X57102866Y-47589333D01*
X57102866Y-47789333D01*
X57069533Y-47856000D01*
X57036200Y-47889333D01*
G04 #@! TO.C,C4*
X65110533Y-42871200D02*
X65077200Y-42904533D01*
X64977200Y-42937866D01*
X64910533Y-42937866D01*
X64810533Y-42904533D01*
X64743866Y-42837866D01*
X64710533Y-42771200D01*
X64677200Y-42637866D01*
X64677200Y-42537866D01*
X64710533Y-42404533D01*
X64743866Y-42337866D01*
X64810533Y-42271200D01*
X64910533Y-42237866D01*
X64977200Y-42237866D01*
X65077200Y-42271200D01*
X65110533Y-42304533D01*
X65710533Y-42471200D02*
X65710533Y-42937866D01*
X65543866Y-42204533D02*
X65377200Y-42704533D01*
X65810533Y-42704533D01*
G04 #@! TO.C,C5*
X66990133Y-47798800D02*
X66956800Y-47832133D01*
X66856800Y-47865466D01*
X66790133Y-47865466D01*
X66690133Y-47832133D01*
X66623466Y-47765466D01*
X66590133Y-47698800D01*
X66556800Y-47565466D01*
X66556800Y-47465466D01*
X66590133Y-47332133D01*
X66623466Y-47265466D01*
X66690133Y-47198800D01*
X66790133Y-47165466D01*
X66856800Y-47165466D01*
X66956800Y-47198800D01*
X66990133Y-47232133D01*
X67623466Y-47165466D02*
X67290133Y-47165466D01*
X67256800Y-47498800D01*
X67290133Y-47465466D01*
X67356800Y-47432133D01*
X67523466Y-47432133D01*
X67590133Y-47465466D01*
X67623466Y-47498800D01*
X67656800Y-47565466D01*
X67656800Y-47732133D01*
X67623466Y-47798800D01*
X67590133Y-47832133D01*
X67523466Y-47865466D01*
X67356800Y-47865466D01*
X67290133Y-47832133D01*
X67256800Y-47798800D01*
G04 #@! TO.C,C6*
X65324800Y-33797066D02*
X65358133Y-33830400D01*
X65391466Y-33930400D01*
X65391466Y-33997066D01*
X65358133Y-34097066D01*
X65291466Y-34163733D01*
X65224800Y-34197066D01*
X65091466Y-34230400D01*
X64991466Y-34230400D01*
X64858133Y-34197066D01*
X64791466Y-34163733D01*
X64724800Y-34097066D01*
X64691466Y-33997066D01*
X64691466Y-33930400D01*
X64724800Y-33830400D01*
X64758133Y-33797066D01*
X64691466Y-33197066D02*
X64691466Y-33330400D01*
X64724800Y-33397066D01*
X64758133Y-33430400D01*
X64858133Y-33497066D01*
X64991466Y-33530400D01*
X65258133Y-33530400D01*
X65324800Y-33497066D01*
X65358133Y-33463733D01*
X65391466Y-33397066D01*
X65391466Y-33263733D01*
X65358133Y-33197066D01*
X65324800Y-33163733D01*
X65258133Y-33130400D01*
X65091466Y-33130400D01*
X65024800Y-33163733D01*
X64991466Y-33197066D01*
X64958133Y-33263733D01*
X64958133Y-33397066D01*
X64991466Y-33463733D01*
X65024800Y-33497066D01*
X65091466Y-33530400D01*
G04 #@! TO.C,C7*
X62214933Y-42922000D02*
X62181600Y-42955333D01*
X62081600Y-42988666D01*
X62014933Y-42988666D01*
X61914933Y-42955333D01*
X61848266Y-42888666D01*
X61814933Y-42822000D01*
X61781600Y-42688666D01*
X61781600Y-42588666D01*
X61814933Y-42455333D01*
X61848266Y-42388666D01*
X61914933Y-42322000D01*
X62014933Y-42288666D01*
X62081600Y-42288666D01*
X62181600Y-42322000D01*
X62214933Y-42355333D01*
X62448266Y-42288666D02*
X62914933Y-42288666D01*
X62614933Y-42988666D01*
G04 #@! TO.C,C8*
X71003333Y-47849600D02*
X70970000Y-47882933D01*
X70870000Y-47916266D01*
X70803333Y-47916266D01*
X70703333Y-47882933D01*
X70636666Y-47816266D01*
X70603333Y-47749600D01*
X70570000Y-47616266D01*
X70570000Y-47516266D01*
X70603333Y-47382933D01*
X70636666Y-47316266D01*
X70703333Y-47249600D01*
X70803333Y-47216266D01*
X70870000Y-47216266D01*
X70970000Y-47249600D01*
X71003333Y-47282933D01*
X71403333Y-47516266D02*
X71336666Y-47482933D01*
X71303333Y-47449600D01*
X71270000Y-47382933D01*
X71270000Y-47349600D01*
X71303333Y-47282933D01*
X71336666Y-47249600D01*
X71403333Y-47216266D01*
X71536666Y-47216266D01*
X71603333Y-47249600D01*
X71636666Y-47282933D01*
X71670000Y-47349600D01*
X71670000Y-47382933D01*
X71636666Y-47449600D01*
X71603333Y-47482933D01*
X71536666Y-47516266D01*
X71403333Y-47516266D01*
X71336666Y-47549600D01*
X71303333Y-47582933D01*
X71270000Y-47649600D01*
X71270000Y-47782933D01*
X71303333Y-47849600D01*
X71336666Y-47882933D01*
X71403333Y-47916266D01*
X71536666Y-47916266D01*
X71603333Y-47882933D01*
X71636666Y-47849600D01*
X71670000Y-47782933D01*
X71670000Y-47649600D01*
X71636666Y-47582933D01*
X71603333Y-47549600D01*
X71536666Y-47516266D01*
G04 #@! TO.C,C9*
X72984533Y-32152400D02*
X72951200Y-32185733D01*
X72851200Y-32219066D01*
X72784533Y-32219066D01*
X72684533Y-32185733D01*
X72617866Y-32119066D01*
X72584533Y-32052400D01*
X72551200Y-31919066D01*
X72551200Y-31819066D01*
X72584533Y-31685733D01*
X72617866Y-31619066D01*
X72684533Y-31552400D01*
X72784533Y-31519066D01*
X72851200Y-31519066D01*
X72951200Y-31552400D01*
X72984533Y-31585733D01*
X73317866Y-32219066D02*
X73451200Y-32219066D01*
X73517866Y-32185733D01*
X73551200Y-32152400D01*
X73617866Y-32052400D01*
X73651200Y-31919066D01*
X73651200Y-31652400D01*
X73617866Y-31585733D01*
X73584533Y-31552400D01*
X73517866Y-31519066D01*
X73384533Y-31519066D01*
X73317866Y-31552400D01*
X73284533Y-31585733D01*
X73251200Y-31652400D01*
X73251200Y-31819066D01*
X73284533Y-31885733D01*
X73317866Y-31919066D01*
X73384533Y-31952400D01*
X73517866Y-31952400D01*
X73584533Y-31919066D01*
X73617866Y-31885733D01*
X73651200Y-31819066D01*
G04 #@! TO.C,C10*
X31401600Y-38908800D02*
X31368266Y-38942133D01*
X31268266Y-38975466D01*
X31201600Y-38975466D01*
X31101600Y-38942133D01*
X31034933Y-38875466D01*
X31001600Y-38808800D01*
X30968266Y-38675466D01*
X30968266Y-38575466D01*
X31001600Y-38442133D01*
X31034933Y-38375466D01*
X31101600Y-38308800D01*
X31201600Y-38275466D01*
X31268266Y-38275466D01*
X31368266Y-38308800D01*
X31401600Y-38342133D01*
X32068266Y-38975466D02*
X31668266Y-38975466D01*
X31868266Y-38975466D02*
X31868266Y-38275466D01*
X31801600Y-38375466D01*
X31734933Y-38442133D01*
X31668266Y-38475466D01*
X32501600Y-38275466D02*
X32568266Y-38275466D01*
X32634933Y-38308800D01*
X32668266Y-38342133D01*
X32701600Y-38408800D01*
X32734933Y-38542133D01*
X32734933Y-38708800D01*
X32701600Y-38842133D01*
X32668266Y-38908800D01*
X32634933Y-38942133D01*
X32568266Y-38975466D01*
X32501600Y-38975466D01*
X32434933Y-38942133D01*
X32401600Y-38908800D01*
X32368266Y-38842133D01*
X32334933Y-38708800D01*
X32334933Y-38542133D01*
X32368266Y-38408800D01*
X32401600Y-38342133D01*
X32434933Y-38308800D01*
X32501600Y-38275466D01*
G04 #@! TO.C,C11*
X35821200Y-39366000D02*
X35787866Y-39399333D01*
X35687866Y-39432666D01*
X35621200Y-39432666D01*
X35521200Y-39399333D01*
X35454533Y-39332666D01*
X35421200Y-39266000D01*
X35387866Y-39132666D01*
X35387866Y-39032666D01*
X35421200Y-38899333D01*
X35454533Y-38832666D01*
X35521200Y-38766000D01*
X35621200Y-38732666D01*
X35687866Y-38732666D01*
X35787866Y-38766000D01*
X35821200Y-38799333D01*
X36487866Y-39432666D02*
X36087866Y-39432666D01*
X36287866Y-39432666D02*
X36287866Y-38732666D01*
X36221200Y-38832666D01*
X36154533Y-38899333D01*
X36087866Y-38932666D01*
X37154533Y-39432666D02*
X36754533Y-39432666D01*
X36954533Y-39432666D02*
X36954533Y-38732666D01*
X36887866Y-38832666D01*
X36821200Y-38899333D01*
X36754533Y-38932666D01*
G04 #@! TO.C,C12*
X35821200Y-41652000D02*
X35787866Y-41685333D01*
X35687866Y-41718666D01*
X35621200Y-41718666D01*
X35521200Y-41685333D01*
X35454533Y-41618666D01*
X35421200Y-41552000D01*
X35387866Y-41418666D01*
X35387866Y-41318666D01*
X35421200Y-41185333D01*
X35454533Y-41118666D01*
X35521200Y-41052000D01*
X35621200Y-41018666D01*
X35687866Y-41018666D01*
X35787866Y-41052000D01*
X35821200Y-41085333D01*
X36487866Y-41718666D02*
X36087866Y-41718666D01*
X36287866Y-41718666D02*
X36287866Y-41018666D01*
X36221200Y-41118666D01*
X36154533Y-41185333D01*
X36087866Y-41218666D01*
X36754533Y-41085333D02*
X36787866Y-41052000D01*
X36854533Y-41018666D01*
X37021200Y-41018666D01*
X37087866Y-41052000D01*
X37121200Y-41085333D01*
X37154533Y-41152000D01*
X37154533Y-41218666D01*
X37121200Y-41318666D01*
X36721200Y-41718666D01*
X37154533Y-41718666D01*
G04 #@! TO.C,C13*
X71319000Y-39416800D02*
X71285666Y-39450133D01*
X71185666Y-39483466D01*
X71119000Y-39483466D01*
X71019000Y-39450133D01*
X70952333Y-39383466D01*
X70919000Y-39316800D01*
X70885666Y-39183466D01*
X70885666Y-39083466D01*
X70919000Y-38950133D01*
X70952333Y-38883466D01*
X71019000Y-38816800D01*
X71119000Y-38783466D01*
X71185666Y-38783466D01*
X71285666Y-38816800D01*
X71319000Y-38850133D01*
X71985666Y-39483466D02*
X71585666Y-39483466D01*
X71785666Y-39483466D02*
X71785666Y-38783466D01*
X71719000Y-38883466D01*
X71652333Y-38950133D01*
X71585666Y-38983466D01*
X72219000Y-38783466D02*
X72652333Y-38783466D01*
X72419000Y-39050133D01*
X72519000Y-39050133D01*
X72585666Y-39083466D01*
X72619000Y-39116800D01*
X72652333Y-39183466D01*
X72652333Y-39350133D01*
X72619000Y-39416800D01*
X72585666Y-39450133D01*
X72519000Y-39483466D01*
X72319000Y-39483466D01*
X72252333Y-39450133D01*
X72219000Y-39416800D01*
G04 #@! TO.C,C14*
X75992800Y-39921600D02*
X76026133Y-39954933D01*
X76059466Y-40054933D01*
X76059466Y-40121600D01*
X76026133Y-40221600D01*
X75959466Y-40288266D01*
X75892800Y-40321600D01*
X75759466Y-40354933D01*
X75659466Y-40354933D01*
X75526133Y-40321600D01*
X75459466Y-40288266D01*
X75392800Y-40221600D01*
X75359466Y-40121600D01*
X75359466Y-40054933D01*
X75392800Y-39954933D01*
X75426133Y-39921600D01*
X76059466Y-39254933D02*
X76059466Y-39654933D01*
X76059466Y-39454933D02*
X75359466Y-39454933D01*
X75459466Y-39521600D01*
X75526133Y-39588266D01*
X75559466Y-39654933D01*
X75592800Y-38654933D02*
X76059466Y-38654933D01*
X75326133Y-38821600D02*
X75826133Y-38988266D01*
X75826133Y-38554933D01*
G04 #@! TO.C,C15*
X32000000Y-44392000D02*
X32033333Y-44425333D01*
X32066666Y-44525333D01*
X32066666Y-44592000D01*
X32033333Y-44692000D01*
X31966666Y-44758666D01*
X31900000Y-44792000D01*
X31766666Y-44825333D01*
X31666666Y-44825333D01*
X31533333Y-44792000D01*
X31466666Y-44758666D01*
X31400000Y-44692000D01*
X31366666Y-44592000D01*
X31366666Y-44525333D01*
X31400000Y-44425333D01*
X31433333Y-44392000D01*
X32066666Y-43725333D02*
X32066666Y-44125333D01*
X32066666Y-43925333D02*
X31366666Y-43925333D01*
X31466666Y-43992000D01*
X31533333Y-44058666D01*
X31566666Y-44125333D01*
X31366666Y-43092000D02*
X31366666Y-43425333D01*
X31700000Y-43458666D01*
X31666666Y-43425333D01*
X31633333Y-43358666D01*
X31633333Y-43192000D01*
X31666666Y-43125333D01*
X31700000Y-43092000D01*
X31766666Y-43058666D01*
X31933333Y-43058666D01*
X32000000Y-43092000D01*
X32033333Y-43125333D01*
X32066666Y-43192000D01*
X32066666Y-43358666D01*
X32033333Y-43425333D01*
X32000000Y-43458666D01*
G04 #@! TO.C,C16*
X26158000Y-42817200D02*
X26191333Y-42850533D01*
X26224666Y-42950533D01*
X26224666Y-43017200D01*
X26191333Y-43117200D01*
X26124666Y-43183866D01*
X26058000Y-43217200D01*
X25924666Y-43250533D01*
X25824666Y-43250533D01*
X25691333Y-43217200D01*
X25624666Y-43183866D01*
X25558000Y-43117200D01*
X25524666Y-43017200D01*
X25524666Y-42950533D01*
X25558000Y-42850533D01*
X25591333Y-42817200D01*
X26224666Y-42150533D02*
X26224666Y-42550533D01*
X26224666Y-42350533D02*
X25524666Y-42350533D01*
X25624666Y-42417200D01*
X25691333Y-42483866D01*
X25724666Y-42550533D01*
X25524666Y-41550533D02*
X25524666Y-41683866D01*
X25558000Y-41750533D01*
X25591333Y-41783866D01*
X25691333Y-41850533D01*
X25824666Y-41883866D01*
X26091333Y-41883866D01*
X26158000Y-41850533D01*
X26191333Y-41817200D01*
X26224666Y-41750533D01*
X26224666Y-41617200D01*
X26191333Y-41550533D01*
X26158000Y-41517200D01*
X26091333Y-41483866D01*
X25924666Y-41483866D01*
X25858000Y-41517200D01*
X25824666Y-41550533D01*
X25791333Y-41617200D01*
X25791333Y-41750533D01*
X25824666Y-41817200D01*
X25858000Y-41850533D01*
X25924666Y-41883866D01*
G04 #@! TO.C,C17*
X21546400Y-48306800D02*
X21513066Y-48340133D01*
X21413066Y-48373466D01*
X21346400Y-48373466D01*
X21246400Y-48340133D01*
X21179733Y-48273466D01*
X21146400Y-48206800D01*
X21113066Y-48073466D01*
X21113066Y-47973466D01*
X21146400Y-47840133D01*
X21179733Y-47773466D01*
X21246400Y-47706800D01*
X21346400Y-47673466D01*
X21413066Y-47673466D01*
X21513066Y-47706800D01*
X21546400Y-47740133D01*
X22213066Y-48373466D02*
X21813066Y-48373466D01*
X22013066Y-48373466D02*
X22013066Y-47673466D01*
X21946400Y-47773466D01*
X21879733Y-47840133D01*
X21813066Y-47873466D01*
X22446400Y-47673466D02*
X22913066Y-47673466D01*
X22613066Y-48373466D01*
G04 #@! TO.C,C18*
D12*
X54857714Y-24009314D02*
X54819619Y-24047409D01*
X54705333Y-24085504D01*
X54629142Y-24085504D01*
X54514857Y-24047409D01*
X54438666Y-23971219D01*
X54400571Y-23895028D01*
X54362476Y-23742647D01*
X54362476Y-23628361D01*
X54400571Y-23475980D01*
X54438666Y-23399790D01*
X54514857Y-23323600D01*
X54629142Y-23285504D01*
X54705333Y-23285504D01*
X54819619Y-23323600D01*
X54857714Y-23361695D01*
X55619619Y-24085504D02*
X55162476Y-24085504D01*
X55391047Y-24085504D02*
X55391047Y-23285504D01*
X55314857Y-23399790D01*
X55238666Y-23475980D01*
X55162476Y-23514076D01*
X56076761Y-23628361D02*
X56000571Y-23590266D01*
X55962476Y-23552171D01*
X55924380Y-23475980D01*
X55924380Y-23437885D01*
X55962476Y-23361695D01*
X56000571Y-23323600D01*
X56076761Y-23285504D01*
X56229142Y-23285504D01*
X56305333Y-23323600D01*
X56343428Y-23361695D01*
X56381523Y-23437885D01*
X56381523Y-23475980D01*
X56343428Y-23552171D01*
X56305333Y-23590266D01*
X56229142Y-23628361D01*
X56076761Y-23628361D01*
X56000571Y-23666457D01*
X55962476Y-23704552D01*
X55924380Y-23780742D01*
X55924380Y-23933123D01*
X55962476Y-24009314D01*
X56000571Y-24047409D01*
X56076761Y-24085504D01*
X56229142Y-24085504D01*
X56305333Y-24047409D01*
X56343428Y-24009314D01*
X56381523Y-23933123D01*
X56381523Y-23780742D01*
X56343428Y-23704552D01*
X56305333Y-23666457D01*
X56229142Y-23628361D01*
G04 #@! TO.C,C19*
X58718514Y-24009314D02*
X58680419Y-24047409D01*
X58566133Y-24085504D01*
X58489942Y-24085504D01*
X58375657Y-24047409D01*
X58299466Y-23971219D01*
X58261371Y-23895028D01*
X58223276Y-23742647D01*
X58223276Y-23628361D01*
X58261371Y-23475980D01*
X58299466Y-23399790D01*
X58375657Y-23323600D01*
X58489942Y-23285504D01*
X58566133Y-23285504D01*
X58680419Y-23323600D01*
X58718514Y-23361695D01*
X59480419Y-24085504D02*
X59023276Y-24085504D01*
X59251847Y-24085504D02*
X59251847Y-23285504D01*
X59175657Y-23399790D01*
X59099466Y-23475980D01*
X59023276Y-23514076D01*
X59861371Y-24085504D02*
X60013752Y-24085504D01*
X60089942Y-24047409D01*
X60128038Y-24009314D01*
X60204228Y-23895028D01*
X60242323Y-23742647D01*
X60242323Y-23437885D01*
X60204228Y-23361695D01*
X60166133Y-23323600D01*
X60089942Y-23285504D01*
X59937561Y-23285504D01*
X59861371Y-23323600D01*
X59823276Y-23361695D01*
X59785180Y-23437885D01*
X59785180Y-23628361D01*
X59823276Y-23704552D01*
X59861371Y-23742647D01*
X59937561Y-23780742D01*
X60089942Y-23780742D01*
X60166133Y-23742647D01*
X60204228Y-23704552D01*
X60242323Y-23628361D01*
G04 #@! TO.C,D1*
D11*
X59020933Y-34962266D02*
X59020933Y-34262266D01*
X59187600Y-34262266D01*
X59287600Y-34295600D01*
X59354266Y-34362266D01*
X59387600Y-34428933D01*
X59420933Y-34562266D01*
X59420933Y-34662266D01*
X59387600Y-34795600D01*
X59354266Y-34862266D01*
X59287600Y-34928933D01*
X59187600Y-34962266D01*
X59020933Y-34962266D01*
X60087600Y-34962266D02*
X59687600Y-34962266D01*
X59887600Y-34962266D02*
X59887600Y-34262266D01*
X59820933Y-34362266D01*
X59754266Y-34428933D01*
X59687600Y-34462266D01*
G04 #@! TO.C,D2*
X52366133Y-35419466D02*
X52366133Y-34719466D01*
X52532800Y-34719466D01*
X52632800Y-34752800D01*
X52699466Y-34819466D01*
X52732800Y-34886133D01*
X52766133Y-35019466D01*
X52766133Y-35119466D01*
X52732800Y-35252800D01*
X52699466Y-35319466D01*
X52632800Y-35386133D01*
X52532800Y-35419466D01*
X52366133Y-35419466D01*
X53032800Y-34786133D02*
X53066133Y-34752800D01*
X53132800Y-34719466D01*
X53299466Y-34719466D01*
X53366133Y-34752800D01*
X53399466Y-34786133D01*
X53432800Y-34852800D01*
X53432800Y-34919466D01*
X53399466Y-35019466D01*
X52999466Y-35419466D01*
X53432800Y-35419466D01*
G04 #@! TO.C,D3*
X54672666Y-45728666D02*
X53972666Y-45728666D01*
X53972666Y-45562000D01*
X54006000Y-45462000D01*
X54072666Y-45395333D01*
X54139333Y-45362000D01*
X54272666Y-45328666D01*
X54372666Y-45328666D01*
X54506000Y-45362000D01*
X54572666Y-45395333D01*
X54639333Y-45462000D01*
X54672666Y-45562000D01*
X54672666Y-45728666D01*
X53972666Y-45095333D02*
X53972666Y-44662000D01*
X54239333Y-44895333D01*
X54239333Y-44795333D01*
X54272666Y-44728666D01*
X54306000Y-44695333D01*
X54372666Y-44662000D01*
X54539333Y-44662000D01*
X54606000Y-44695333D01*
X54639333Y-44728666D01*
X54672666Y-44795333D01*
X54672666Y-44995333D01*
X54639333Y-45062000D01*
X54606000Y-45095333D01*
G04 #@! TO.C,D4*
X70319066Y-27593066D02*
X69619066Y-27593066D01*
X69619066Y-27426400D01*
X69652400Y-27326400D01*
X69719066Y-27259733D01*
X69785733Y-27226400D01*
X69919066Y-27193066D01*
X70019066Y-27193066D01*
X70152400Y-27226400D01*
X70219066Y-27259733D01*
X70285733Y-27326400D01*
X70319066Y-27426400D01*
X70319066Y-27593066D01*
X69852400Y-26593066D02*
X70319066Y-26593066D01*
X69585733Y-26759733D02*
X70085733Y-26926400D01*
X70085733Y-26493066D01*
G04 #@! TO.C,D5*
X72706666Y-27339066D02*
X72006666Y-27339066D01*
X72006666Y-27172400D01*
X72040000Y-27072400D01*
X72106666Y-27005733D01*
X72173333Y-26972400D01*
X72306666Y-26939066D01*
X72406666Y-26939066D01*
X72540000Y-26972400D01*
X72606666Y-27005733D01*
X72673333Y-27072400D01*
X72706666Y-27172400D01*
X72706666Y-27339066D01*
X72006666Y-26305733D02*
X72006666Y-26639066D01*
X72340000Y-26672400D01*
X72306666Y-26639066D01*
X72273333Y-26572400D01*
X72273333Y-26405733D01*
X72306666Y-26339066D01*
X72340000Y-26305733D01*
X72406666Y-26272400D01*
X72573333Y-26272400D01*
X72640000Y-26305733D01*
X72673333Y-26339066D01*
X72706666Y-26405733D01*
X72706666Y-26572400D01*
X72673333Y-26639066D01*
X72640000Y-26672400D01*
G04 #@! TO.C,J3*
X64536666Y-30655466D02*
X64536666Y-31155466D01*
X64503333Y-31255466D01*
X64436666Y-31322133D01*
X64336666Y-31355466D01*
X64270000Y-31355466D01*
X64803333Y-30655466D02*
X65236666Y-30655466D01*
X65003333Y-30922133D01*
X65103333Y-30922133D01*
X65170000Y-30955466D01*
X65203333Y-30988800D01*
X65236666Y-31055466D01*
X65236666Y-31222133D01*
X65203333Y-31288800D01*
X65170000Y-31322133D01*
X65103333Y-31355466D01*
X64903333Y-31355466D01*
X64836666Y-31322133D01*
X64803333Y-31288800D01*
G04 #@! TO.C,J5*
X33853466Y-30299866D02*
X33853466Y-30799866D01*
X33820133Y-30899866D01*
X33753466Y-30966533D01*
X33653466Y-30999866D01*
X33586800Y-30999866D01*
X34520133Y-30299866D02*
X34186800Y-30299866D01*
X34153466Y-30633200D01*
X34186800Y-30599866D01*
X34253466Y-30566533D01*
X34420133Y-30566533D01*
X34486800Y-30599866D01*
X34520133Y-30633200D01*
X34553466Y-30699866D01*
X34553466Y-30866533D01*
X34520133Y-30933200D01*
X34486800Y-30966533D01*
X34420133Y-30999866D01*
X34253466Y-30999866D01*
X34186800Y-30966533D01*
X34153466Y-30933200D01*
G04 #@! TO.C,J7*
X23645066Y-36148933D02*
X24145066Y-36148933D01*
X24245066Y-36182266D01*
X24311733Y-36248933D01*
X24345066Y-36348933D01*
X24345066Y-36415600D01*
X23645066Y-35882266D02*
X23645066Y-35415600D01*
X24345066Y-35715600D01*
G04 #@! TO.C,J9*
X33906666Y-36148933D02*
X34406666Y-36148933D01*
X34506666Y-36182266D01*
X34573333Y-36248933D01*
X34606666Y-36348933D01*
X34606666Y-36415600D01*
X34606666Y-35782266D02*
X34606666Y-35648933D01*
X34573333Y-35582266D01*
X34540000Y-35548933D01*
X34440000Y-35482266D01*
X34306666Y-35448933D01*
X34040000Y-35448933D01*
X33973333Y-35482266D01*
X33940000Y-35515600D01*
X33906666Y-35582266D01*
X33906666Y-35715600D01*
X33940000Y-35782266D01*
X33973333Y-35815600D01*
X34040000Y-35848933D01*
X34206666Y-35848933D01*
X34273333Y-35815600D01*
X34306666Y-35782266D01*
X34340000Y-35715600D01*
X34340000Y-35582266D01*
X34306666Y-35515600D01*
X34273333Y-35482266D01*
X34206666Y-35448933D01*
G04 #@! TO.C,Q1*
X55914933Y-49710133D02*
X55848266Y-49676800D01*
X55781600Y-49610133D01*
X55681600Y-49510133D01*
X55614933Y-49476800D01*
X55548266Y-49476800D01*
X55581600Y-49643466D02*
X55514933Y-49610133D01*
X55448266Y-49543466D01*
X55414933Y-49410133D01*
X55414933Y-49176800D01*
X55448266Y-49043466D01*
X55514933Y-48976800D01*
X55581600Y-48943466D01*
X55714933Y-48943466D01*
X55781600Y-48976800D01*
X55848266Y-49043466D01*
X55881600Y-49176800D01*
X55881600Y-49410133D01*
X55848266Y-49543466D01*
X55781600Y-49610133D01*
X55714933Y-49643466D01*
X55581600Y-49643466D01*
X56548266Y-49643466D02*
X56148266Y-49643466D01*
X56348266Y-49643466D02*
X56348266Y-48943466D01*
X56281600Y-49043466D01*
X56214933Y-49110133D01*
X56148266Y-49143466D01*
G04 #@! TO.C,Q2*
X62264933Y-42039333D02*
X62198266Y-42006000D01*
X62131600Y-41939333D01*
X62031600Y-41839333D01*
X61964933Y-41806000D01*
X61898266Y-41806000D01*
X61931600Y-41972666D02*
X61864933Y-41939333D01*
X61798266Y-41872666D01*
X61764933Y-41739333D01*
X61764933Y-41506000D01*
X61798266Y-41372666D01*
X61864933Y-41306000D01*
X61931600Y-41272666D01*
X62064933Y-41272666D01*
X62131600Y-41306000D01*
X62198266Y-41372666D01*
X62231600Y-41506000D01*
X62231600Y-41739333D01*
X62198266Y-41872666D01*
X62131600Y-41939333D01*
X62064933Y-41972666D01*
X61931600Y-41972666D01*
X62498266Y-41339333D02*
X62531600Y-41306000D01*
X62598266Y-41272666D01*
X62764933Y-41272666D01*
X62831600Y-41306000D01*
X62864933Y-41339333D01*
X62898266Y-41406000D01*
X62898266Y-41472666D01*
X62864933Y-41572666D01*
X62464933Y-41972666D01*
X62898266Y-41972666D01*
G04 #@! TO.C,Q3*
X50225333Y-25122933D02*
X50158666Y-25089600D01*
X50092000Y-25022933D01*
X49992000Y-24922933D01*
X49925333Y-24889600D01*
X49858666Y-24889600D01*
X49892000Y-25056266D02*
X49825333Y-25022933D01*
X49758666Y-24956266D01*
X49725333Y-24822933D01*
X49725333Y-24589600D01*
X49758666Y-24456266D01*
X49825333Y-24389600D01*
X49892000Y-24356266D01*
X50025333Y-24356266D01*
X50092000Y-24389600D01*
X50158666Y-24456266D01*
X50192000Y-24589600D01*
X50192000Y-24822933D01*
X50158666Y-24956266D01*
X50092000Y-25022933D01*
X50025333Y-25056266D01*
X49892000Y-25056266D01*
X50425333Y-24356266D02*
X50858666Y-24356266D01*
X50625333Y-24622933D01*
X50725333Y-24622933D01*
X50792000Y-24656266D01*
X50825333Y-24689600D01*
X50858666Y-24756266D01*
X50858666Y-24922933D01*
X50825333Y-24989600D01*
X50792000Y-25022933D01*
X50725333Y-25056266D01*
X50525333Y-25056266D01*
X50458666Y-25022933D01*
X50425333Y-24989600D01*
G04 #@! TO.C,R1*
X50049866Y-32628666D02*
X49716533Y-32862000D01*
X50049866Y-33028666D02*
X49349866Y-33028666D01*
X49349866Y-32762000D01*
X49383200Y-32695333D01*
X49416533Y-32662000D01*
X49483200Y-32628666D01*
X49583200Y-32628666D01*
X49649866Y-32662000D01*
X49683200Y-32695333D01*
X49716533Y-32762000D01*
X49716533Y-33028666D01*
X50049866Y-31962000D02*
X50049866Y-32362000D01*
X50049866Y-32162000D02*
X49349866Y-32162000D01*
X49449866Y-32228666D01*
X49516533Y-32295333D01*
X49549866Y-32362000D01*
G04 #@! TO.C,R2*
X50202266Y-37403866D02*
X49868933Y-37637200D01*
X50202266Y-37803866D02*
X49502266Y-37803866D01*
X49502266Y-37537200D01*
X49535600Y-37470533D01*
X49568933Y-37437200D01*
X49635600Y-37403866D01*
X49735600Y-37403866D01*
X49802266Y-37437200D01*
X49835600Y-37470533D01*
X49868933Y-37537200D01*
X49868933Y-37803866D01*
X49568933Y-37137200D02*
X49535600Y-37103866D01*
X49502266Y-37037200D01*
X49502266Y-36870533D01*
X49535600Y-36803866D01*
X49568933Y-36770533D01*
X49635600Y-36737200D01*
X49702266Y-36737200D01*
X49802266Y-36770533D01*
X50202266Y-37170533D01*
X50202266Y-36737200D01*
G04 #@! TO.C,R3*
X50202266Y-42534666D02*
X49868933Y-42768000D01*
X50202266Y-42934666D02*
X49502266Y-42934666D01*
X49502266Y-42668000D01*
X49535600Y-42601333D01*
X49568933Y-42568000D01*
X49635600Y-42534666D01*
X49735600Y-42534666D01*
X49802266Y-42568000D01*
X49835600Y-42601333D01*
X49868933Y-42668000D01*
X49868933Y-42934666D01*
X49502266Y-42301333D02*
X49502266Y-41868000D01*
X49768933Y-42101333D01*
X49768933Y-42001333D01*
X49802266Y-41934666D01*
X49835600Y-41901333D01*
X49902266Y-41868000D01*
X50068933Y-41868000D01*
X50135600Y-41901333D01*
X50168933Y-41934666D01*
X50202266Y-42001333D01*
X50202266Y-42201333D01*
X50168933Y-42268000D01*
X50135600Y-42301333D01*
G04 #@! TO.C,R4*
X37065133Y-28815466D02*
X36831800Y-28482133D01*
X36665133Y-28815466D02*
X36665133Y-28115466D01*
X36931800Y-28115466D01*
X36998466Y-28148800D01*
X37031800Y-28182133D01*
X37065133Y-28248800D01*
X37065133Y-28348800D01*
X37031800Y-28415466D01*
X36998466Y-28448800D01*
X36931800Y-28482133D01*
X36665133Y-28482133D01*
X37665133Y-28348800D02*
X37665133Y-28815466D01*
X37498466Y-28082133D02*
X37331800Y-28582133D01*
X37765133Y-28582133D01*
G04 #@! TO.C,R5*
X53988533Y-42301333D02*
X54321866Y-42068000D01*
X53988533Y-41901333D02*
X54688533Y-41901333D01*
X54688533Y-42168000D01*
X54655200Y-42234666D01*
X54621866Y-42268000D01*
X54555200Y-42301333D01*
X54455200Y-42301333D01*
X54388533Y-42268000D01*
X54355200Y-42234666D01*
X54321866Y-42168000D01*
X54321866Y-41901333D01*
X54688533Y-42934666D02*
X54688533Y-42601333D01*
X54355200Y-42568000D01*
X54388533Y-42601333D01*
X54421866Y-42668000D01*
X54421866Y-42834666D01*
X54388533Y-42901333D01*
X54355200Y-42934666D01*
X54288533Y-42968000D01*
X54121866Y-42968000D01*
X54055200Y-42934666D01*
X54021866Y-42901333D01*
X53988533Y-42834666D01*
X53988533Y-42668000D01*
X54021866Y-42601333D01*
X54055200Y-42568000D01*
G04 #@! TO.C,R6*
X21703466Y-32984266D02*
X21370133Y-33217600D01*
X21703466Y-33384266D02*
X21003466Y-33384266D01*
X21003466Y-33117600D01*
X21036800Y-33050933D01*
X21070133Y-33017600D01*
X21136800Y-32984266D01*
X21236800Y-32984266D01*
X21303466Y-33017600D01*
X21336800Y-33050933D01*
X21370133Y-33117600D01*
X21370133Y-33384266D01*
X21003466Y-32384266D02*
X21003466Y-32517600D01*
X21036800Y-32584266D01*
X21070133Y-32617600D01*
X21170133Y-32684266D01*
X21303466Y-32717600D01*
X21570133Y-32717600D01*
X21636800Y-32684266D01*
X21670133Y-32650933D01*
X21703466Y-32584266D01*
X21703466Y-32450933D01*
X21670133Y-32384266D01*
X21636800Y-32350933D01*
X21570133Y-32317600D01*
X21403466Y-32317600D01*
X21336800Y-32350933D01*
X21303466Y-32384266D01*
X21270133Y-32450933D01*
X21270133Y-32584266D01*
X21303466Y-32650933D01*
X21336800Y-32684266D01*
X21403466Y-32717600D01*
G04 #@! TO.C,R7*
X50202266Y-47614666D02*
X49868933Y-47848000D01*
X50202266Y-48014666D02*
X49502266Y-48014666D01*
X49502266Y-47748000D01*
X49535600Y-47681333D01*
X49568933Y-47648000D01*
X49635600Y-47614666D01*
X49735600Y-47614666D01*
X49802266Y-47648000D01*
X49835600Y-47681333D01*
X49868933Y-47748000D01*
X49868933Y-48014666D01*
X49502266Y-47381333D02*
X49502266Y-46914666D01*
X50202266Y-47214666D01*
G04 #@! TO.C,R8*
X67943933Y-39483466D02*
X67710600Y-39150133D01*
X67543933Y-39483466D02*
X67543933Y-38783466D01*
X67810600Y-38783466D01*
X67877266Y-38816800D01*
X67910600Y-38850133D01*
X67943933Y-38916800D01*
X67943933Y-39016800D01*
X67910600Y-39083466D01*
X67877266Y-39116800D01*
X67810600Y-39150133D01*
X67543933Y-39150133D01*
X68343933Y-39083466D02*
X68277266Y-39050133D01*
X68243933Y-39016800D01*
X68210600Y-38950133D01*
X68210600Y-38916800D01*
X68243933Y-38850133D01*
X68277266Y-38816800D01*
X68343933Y-38783466D01*
X68477266Y-38783466D01*
X68543933Y-38816800D01*
X68577266Y-38850133D01*
X68610600Y-38916800D01*
X68610600Y-38950133D01*
X68577266Y-39016800D01*
X68543933Y-39050133D01*
X68477266Y-39083466D01*
X68343933Y-39083466D01*
X68277266Y-39116800D01*
X68243933Y-39150133D01*
X68210600Y-39216800D01*
X68210600Y-39350133D01*
X68243933Y-39416800D01*
X68277266Y-39450133D01*
X68343933Y-39483466D01*
X68477266Y-39483466D01*
X68543933Y-39450133D01*
X68577266Y-39416800D01*
X68610600Y-39350133D01*
X68610600Y-39216800D01*
X68577266Y-39150133D01*
X68543933Y-39116800D01*
X68477266Y-39083466D01*
G04 #@! TO.C,R9*
X57541333Y-38467466D02*
X57308000Y-38134133D01*
X57141333Y-38467466D02*
X57141333Y-37767466D01*
X57408000Y-37767466D01*
X57474666Y-37800800D01*
X57508000Y-37834133D01*
X57541333Y-37900800D01*
X57541333Y-38000800D01*
X57508000Y-38067466D01*
X57474666Y-38100800D01*
X57408000Y-38134133D01*
X57141333Y-38134133D01*
X57874666Y-38467466D02*
X58008000Y-38467466D01*
X58074666Y-38434133D01*
X58108000Y-38400800D01*
X58174666Y-38300800D01*
X58208000Y-38167466D01*
X58208000Y-37900800D01*
X58174666Y-37834133D01*
X58141333Y-37800800D01*
X58074666Y-37767466D01*
X57941333Y-37767466D01*
X57874666Y-37800800D01*
X57841333Y-37834133D01*
X57808000Y-37900800D01*
X57808000Y-38067466D01*
X57841333Y-38134133D01*
X57874666Y-38167466D01*
X57941333Y-38200800D01*
X58074666Y-38200800D01*
X58141333Y-38167466D01*
X58174666Y-38134133D01*
X58208000Y-38067466D01*
G04 #@! TO.C,R10*
X54774266Y-40666000D02*
X54440933Y-40899333D01*
X54774266Y-41066000D02*
X54074266Y-41066000D01*
X54074266Y-40799333D01*
X54107600Y-40732666D01*
X54140933Y-40699333D01*
X54207600Y-40666000D01*
X54307600Y-40666000D01*
X54374266Y-40699333D01*
X54407600Y-40732666D01*
X54440933Y-40799333D01*
X54440933Y-41066000D01*
X54774266Y-39999333D02*
X54774266Y-40399333D01*
X54774266Y-40199333D02*
X54074266Y-40199333D01*
X54174266Y-40266000D01*
X54240933Y-40332666D01*
X54274266Y-40399333D01*
X54074266Y-39566000D02*
X54074266Y-39499333D01*
X54107600Y-39432666D01*
X54140933Y-39399333D01*
X54207600Y-39366000D01*
X54340933Y-39332666D01*
X54507600Y-39332666D01*
X54640933Y-39366000D01*
X54707600Y-39399333D01*
X54740933Y-39432666D01*
X54774266Y-39499333D01*
X54774266Y-39566000D01*
X54740933Y-39632666D01*
X54707600Y-39666000D01*
X54640933Y-39699333D01*
X54507600Y-39732666D01*
X54340933Y-39732666D01*
X54207600Y-39699333D01*
X54140933Y-39666000D01*
X54107600Y-39632666D01*
X54074266Y-39566000D01*
G04 #@! TO.C,R11*
X59595600Y-42284066D02*
X59362266Y-41950733D01*
X59195600Y-42284066D02*
X59195600Y-41584066D01*
X59462266Y-41584066D01*
X59528933Y-41617400D01*
X59562266Y-41650733D01*
X59595600Y-41717400D01*
X59595600Y-41817400D01*
X59562266Y-41884066D01*
X59528933Y-41917400D01*
X59462266Y-41950733D01*
X59195600Y-41950733D01*
X60262266Y-42284066D02*
X59862266Y-42284066D01*
X60062266Y-42284066D02*
X60062266Y-41584066D01*
X59995600Y-41684066D01*
X59928933Y-41750733D01*
X59862266Y-41784066D01*
X60928933Y-42284066D02*
X60528933Y-42284066D01*
X60728933Y-42284066D02*
X60728933Y-41584066D01*
X60662266Y-41684066D01*
X60595600Y-41750733D01*
X60528933Y-41784066D01*
G04 #@! TO.C,R12*
X57563600Y-42284066D02*
X57330266Y-41950733D01*
X57163600Y-42284066D02*
X57163600Y-41584066D01*
X57430266Y-41584066D01*
X57496933Y-41617400D01*
X57530266Y-41650733D01*
X57563600Y-41717400D01*
X57563600Y-41817400D01*
X57530266Y-41884066D01*
X57496933Y-41917400D01*
X57430266Y-41950733D01*
X57163600Y-41950733D01*
X58230266Y-42284066D02*
X57830266Y-42284066D01*
X58030266Y-42284066D02*
X58030266Y-41584066D01*
X57963600Y-41684066D01*
X57896933Y-41750733D01*
X57830266Y-41784066D01*
X58496933Y-41650733D02*
X58530266Y-41617400D01*
X58596933Y-41584066D01*
X58763600Y-41584066D01*
X58830266Y-41617400D01*
X58863600Y-41650733D01*
X58896933Y-41717400D01*
X58896933Y-41784066D01*
X58863600Y-41884066D01*
X58463600Y-42284066D01*
X58896933Y-42284066D01*
G04 #@! TO.C,R13*
X63354800Y-39280266D02*
X63121466Y-38946933D01*
X62954800Y-39280266D02*
X62954800Y-38580266D01*
X63221466Y-38580266D01*
X63288133Y-38613600D01*
X63321466Y-38646933D01*
X63354800Y-38713600D01*
X63354800Y-38813600D01*
X63321466Y-38880266D01*
X63288133Y-38913600D01*
X63221466Y-38946933D01*
X62954800Y-38946933D01*
X64021466Y-39280266D02*
X63621466Y-39280266D01*
X63821466Y-39280266D02*
X63821466Y-38580266D01*
X63754800Y-38680266D01*
X63688133Y-38746933D01*
X63621466Y-38780266D01*
X64254800Y-38580266D02*
X64688133Y-38580266D01*
X64454800Y-38846933D01*
X64554800Y-38846933D01*
X64621466Y-38880266D01*
X64654800Y-38913600D01*
X64688133Y-38980266D01*
X64688133Y-39146933D01*
X64654800Y-39213600D01*
X64621466Y-39246933D01*
X64554800Y-39280266D01*
X64354800Y-39280266D01*
X64288133Y-39246933D01*
X64254800Y-39213600D01*
G04 #@! TO.C,R14*
X74941866Y-34790800D02*
X74608533Y-35024133D01*
X74941866Y-35190800D02*
X74241866Y-35190800D01*
X74241866Y-34924133D01*
X74275200Y-34857466D01*
X74308533Y-34824133D01*
X74375200Y-34790800D01*
X74475200Y-34790800D01*
X74541866Y-34824133D01*
X74575200Y-34857466D01*
X74608533Y-34924133D01*
X74608533Y-35190800D01*
X74941866Y-34124133D02*
X74941866Y-34524133D01*
X74941866Y-34324133D02*
X74241866Y-34324133D01*
X74341866Y-34390800D01*
X74408533Y-34457466D01*
X74441866Y-34524133D01*
X74475200Y-33524133D02*
X74941866Y-33524133D01*
X74208533Y-33690800D02*
X74708533Y-33857466D01*
X74708533Y-33424133D01*
G04 #@! TO.C,R15*
X69501600Y-30593466D02*
X69268266Y-30260133D01*
X69101600Y-30593466D02*
X69101600Y-29893466D01*
X69368266Y-29893466D01*
X69434933Y-29926800D01*
X69468266Y-29960133D01*
X69501600Y-30026800D01*
X69501600Y-30126800D01*
X69468266Y-30193466D01*
X69434933Y-30226800D01*
X69368266Y-30260133D01*
X69101600Y-30260133D01*
X70168266Y-30593466D02*
X69768266Y-30593466D01*
X69968266Y-30593466D02*
X69968266Y-29893466D01*
X69901600Y-29993466D01*
X69834933Y-30060133D01*
X69768266Y-30093466D01*
X70801600Y-29893466D02*
X70468266Y-29893466D01*
X70434933Y-30226800D01*
X70468266Y-30193466D01*
X70534933Y-30160133D01*
X70701600Y-30160133D01*
X70768266Y-30193466D01*
X70801600Y-30226800D01*
X70834933Y-30293466D01*
X70834933Y-30460133D01*
X70801600Y-30526800D01*
X70768266Y-30560133D01*
X70701600Y-30593466D01*
X70534933Y-30593466D01*
X70468266Y-30560133D01*
X70434933Y-30526800D01*
G04 #@! TO.C,R16*
X62578800Y-48221066D02*
X62345466Y-47887733D01*
X62178800Y-48221066D02*
X62178800Y-47521066D01*
X62445466Y-47521066D01*
X62512133Y-47554400D01*
X62545466Y-47587733D01*
X62578800Y-47654400D01*
X62578800Y-47754400D01*
X62545466Y-47821066D01*
X62512133Y-47854400D01*
X62445466Y-47887733D01*
X62178800Y-47887733D01*
X63245466Y-48221066D02*
X62845466Y-48221066D01*
X63045466Y-48221066D02*
X63045466Y-47521066D01*
X62978800Y-47621066D01*
X62912133Y-47687733D01*
X62845466Y-47721066D01*
X63845466Y-47521066D02*
X63712133Y-47521066D01*
X63645466Y-47554400D01*
X63612133Y-47587733D01*
X63545466Y-47687733D01*
X63512133Y-47821066D01*
X63512133Y-48087733D01*
X63545466Y-48154400D01*
X63578800Y-48187733D01*
X63645466Y-48221066D01*
X63778800Y-48221066D01*
X63845466Y-48187733D01*
X63878800Y-48154400D01*
X63912133Y-48087733D01*
X63912133Y-47921066D01*
X63878800Y-47854400D01*
X63845466Y-47821066D01*
X63778800Y-47787733D01*
X63645466Y-47787733D01*
X63578800Y-47821066D01*
X63545466Y-47854400D01*
X63512133Y-47921066D01*
G04 #@! TO.C,R17*
X74886400Y-32219066D02*
X74653066Y-31885733D01*
X74486400Y-32219066D02*
X74486400Y-31519066D01*
X74753066Y-31519066D01*
X74819733Y-31552400D01*
X74853066Y-31585733D01*
X74886400Y-31652400D01*
X74886400Y-31752400D01*
X74853066Y-31819066D01*
X74819733Y-31852400D01*
X74753066Y-31885733D01*
X74486400Y-31885733D01*
X75553066Y-32219066D02*
X75153066Y-32219066D01*
X75353066Y-32219066D02*
X75353066Y-31519066D01*
X75286400Y-31619066D01*
X75219733Y-31685733D01*
X75153066Y-31719066D01*
X75786400Y-31519066D02*
X76253066Y-31519066D01*
X75953066Y-32219066D01*
G04 #@! TO.C,R18*
X72956000Y-22617866D02*
X72722666Y-22284533D01*
X72556000Y-22617866D02*
X72556000Y-21917866D01*
X72822666Y-21917866D01*
X72889333Y-21951200D01*
X72922666Y-21984533D01*
X72956000Y-22051200D01*
X72956000Y-22151200D01*
X72922666Y-22217866D01*
X72889333Y-22251200D01*
X72822666Y-22284533D01*
X72556000Y-22284533D01*
X73622666Y-22617866D02*
X73222666Y-22617866D01*
X73422666Y-22617866D02*
X73422666Y-21917866D01*
X73356000Y-22017866D01*
X73289333Y-22084533D01*
X73222666Y-22117866D01*
X74022666Y-22217866D02*
X73956000Y-22184533D01*
X73922666Y-22151200D01*
X73889333Y-22084533D01*
X73889333Y-22051200D01*
X73922666Y-21984533D01*
X73956000Y-21951200D01*
X74022666Y-21917866D01*
X74156000Y-21917866D01*
X74222666Y-21951200D01*
X74256000Y-21984533D01*
X74289333Y-22051200D01*
X74289333Y-22084533D01*
X74256000Y-22151200D01*
X74222666Y-22184533D01*
X74156000Y-22217866D01*
X74022666Y-22217866D01*
X73956000Y-22251200D01*
X73922666Y-22284533D01*
X73889333Y-22351200D01*
X73889333Y-22484533D01*
X73922666Y-22551200D01*
X73956000Y-22584533D01*
X74022666Y-22617866D01*
X74156000Y-22617866D01*
X74222666Y-22584533D01*
X74256000Y-22551200D01*
X74289333Y-22484533D01*
X74289333Y-22351200D01*
X74256000Y-22284533D01*
X74222666Y-22251200D01*
X74156000Y-22217866D01*
G04 #@! TO.C,R19*
X68638000Y-22668666D02*
X68404666Y-22335333D01*
X68238000Y-22668666D02*
X68238000Y-21968666D01*
X68504666Y-21968666D01*
X68571333Y-22002000D01*
X68604666Y-22035333D01*
X68638000Y-22102000D01*
X68638000Y-22202000D01*
X68604666Y-22268666D01*
X68571333Y-22302000D01*
X68504666Y-22335333D01*
X68238000Y-22335333D01*
X69304666Y-22668666D02*
X68904666Y-22668666D01*
X69104666Y-22668666D02*
X69104666Y-21968666D01*
X69038000Y-22068666D01*
X68971333Y-22135333D01*
X68904666Y-22168666D01*
X69638000Y-22668666D02*
X69771333Y-22668666D01*
X69838000Y-22635333D01*
X69871333Y-22602000D01*
X69938000Y-22502000D01*
X69971333Y-22368666D01*
X69971333Y-22102000D01*
X69938000Y-22035333D01*
X69904666Y-22002000D01*
X69838000Y-21968666D01*
X69704666Y-21968666D01*
X69638000Y-22002000D01*
X69604666Y-22035333D01*
X69571333Y-22102000D01*
X69571333Y-22268666D01*
X69604666Y-22335333D01*
X69638000Y-22368666D01*
X69704666Y-22402000D01*
X69838000Y-22402000D01*
X69904666Y-22368666D01*
X69938000Y-22335333D01*
X69971333Y-22268666D01*
G04 #@! TO.C,R20*
X70670000Y-22668666D02*
X70436666Y-22335333D01*
X70270000Y-22668666D02*
X70270000Y-21968666D01*
X70536666Y-21968666D01*
X70603333Y-22002000D01*
X70636666Y-22035333D01*
X70670000Y-22102000D01*
X70670000Y-22202000D01*
X70636666Y-22268666D01*
X70603333Y-22302000D01*
X70536666Y-22335333D01*
X70270000Y-22335333D01*
X70936666Y-22035333D02*
X70970000Y-22002000D01*
X71036666Y-21968666D01*
X71203333Y-21968666D01*
X71270000Y-22002000D01*
X71303333Y-22035333D01*
X71336666Y-22102000D01*
X71336666Y-22168666D01*
X71303333Y-22268666D01*
X70903333Y-22668666D01*
X71336666Y-22668666D01*
X71770000Y-21968666D02*
X71836666Y-21968666D01*
X71903333Y-22002000D01*
X71936666Y-22035333D01*
X71970000Y-22102000D01*
X72003333Y-22235333D01*
X72003333Y-22402000D01*
X71970000Y-22535333D01*
X71936666Y-22602000D01*
X71903333Y-22635333D01*
X71836666Y-22668666D01*
X71770000Y-22668666D01*
X71703333Y-22635333D01*
X71670000Y-22602000D01*
X71636666Y-22535333D01*
X71603333Y-22402000D01*
X71603333Y-22235333D01*
X71636666Y-22102000D01*
X71670000Y-22035333D01*
X71703333Y-22002000D01*
X71770000Y-21968666D01*
G04 #@! TO.C,R21*
X21652666Y-43020400D02*
X21319333Y-43253733D01*
X21652666Y-43420400D02*
X20952666Y-43420400D01*
X20952666Y-43153733D01*
X20986000Y-43087066D01*
X21019333Y-43053733D01*
X21086000Y-43020400D01*
X21186000Y-43020400D01*
X21252666Y-43053733D01*
X21286000Y-43087066D01*
X21319333Y-43153733D01*
X21319333Y-43420400D01*
X21019333Y-42753733D02*
X20986000Y-42720400D01*
X20952666Y-42653733D01*
X20952666Y-42487066D01*
X20986000Y-42420400D01*
X21019333Y-42387066D01*
X21086000Y-42353733D01*
X21152666Y-42353733D01*
X21252666Y-42387066D01*
X21652666Y-42787066D01*
X21652666Y-42353733D01*
X21652666Y-41687066D02*
X21652666Y-42087066D01*
X21652666Y-41887066D02*
X20952666Y-41887066D01*
X21052666Y-41953733D01*
X21119333Y-42020400D01*
X21152666Y-42087066D01*
G04 #@! TO.C,R22*
X36075200Y-45477866D02*
X35841866Y-45144533D01*
X35675200Y-45477866D02*
X35675200Y-44777866D01*
X35941866Y-44777866D01*
X36008533Y-44811200D01*
X36041866Y-44844533D01*
X36075200Y-44911200D01*
X36075200Y-45011200D01*
X36041866Y-45077866D01*
X36008533Y-45111200D01*
X35941866Y-45144533D01*
X35675200Y-45144533D01*
X36341866Y-44844533D02*
X36375200Y-44811200D01*
X36441866Y-44777866D01*
X36608533Y-44777866D01*
X36675200Y-44811200D01*
X36708533Y-44844533D01*
X36741866Y-44911200D01*
X36741866Y-44977866D01*
X36708533Y-45077866D01*
X36308533Y-45477866D01*
X36741866Y-45477866D01*
X37008533Y-44844533D02*
X37041866Y-44811200D01*
X37108533Y-44777866D01*
X37275200Y-44777866D01*
X37341866Y-44811200D01*
X37375200Y-44844533D01*
X37408533Y-44911200D01*
X37408533Y-44977866D01*
X37375200Y-45077866D01*
X36975200Y-45477866D01*
X37408533Y-45477866D01*
G04 #@! TO.C,R23*
X36075200Y-43750666D02*
X35841866Y-43417333D01*
X35675200Y-43750666D02*
X35675200Y-43050666D01*
X35941866Y-43050666D01*
X36008533Y-43084000D01*
X36041866Y-43117333D01*
X36075200Y-43184000D01*
X36075200Y-43284000D01*
X36041866Y-43350666D01*
X36008533Y-43384000D01*
X35941866Y-43417333D01*
X35675200Y-43417333D01*
X36341866Y-43117333D02*
X36375200Y-43084000D01*
X36441866Y-43050666D01*
X36608533Y-43050666D01*
X36675200Y-43084000D01*
X36708533Y-43117333D01*
X36741866Y-43184000D01*
X36741866Y-43250666D01*
X36708533Y-43350666D01*
X36308533Y-43750666D01*
X36741866Y-43750666D01*
X36975200Y-43050666D02*
X37408533Y-43050666D01*
X37175200Y-43317333D01*
X37275200Y-43317333D01*
X37341866Y-43350666D01*
X37375200Y-43384000D01*
X37408533Y-43450666D01*
X37408533Y-43617333D01*
X37375200Y-43684000D01*
X37341866Y-43717333D01*
X37275200Y-43750666D01*
X37075200Y-43750666D01*
X37008533Y-43717333D01*
X36975200Y-43684000D01*
G04 #@! TO.C,R24*
X37959466Y-47998800D02*
X37626133Y-48232133D01*
X37959466Y-48398800D02*
X37259466Y-48398800D01*
X37259466Y-48132133D01*
X37292800Y-48065466D01*
X37326133Y-48032133D01*
X37392800Y-47998800D01*
X37492800Y-47998800D01*
X37559466Y-48032133D01*
X37592800Y-48065466D01*
X37626133Y-48132133D01*
X37626133Y-48398800D01*
X37326133Y-47732133D02*
X37292800Y-47698800D01*
X37259466Y-47632133D01*
X37259466Y-47465466D01*
X37292800Y-47398800D01*
X37326133Y-47365466D01*
X37392800Y-47332133D01*
X37459466Y-47332133D01*
X37559466Y-47365466D01*
X37959466Y-47765466D01*
X37959466Y-47332133D01*
X37492800Y-46732133D02*
X37959466Y-46732133D01*
X37226133Y-46898800D02*
X37726133Y-47065466D01*
X37726133Y-46632133D01*
G04 #@! TO.C,R25*
X33285866Y-47338400D02*
X32952533Y-47571733D01*
X33285866Y-47738400D02*
X32585866Y-47738400D01*
X32585866Y-47471733D01*
X32619200Y-47405066D01*
X32652533Y-47371733D01*
X32719200Y-47338400D01*
X32819200Y-47338400D01*
X32885866Y-47371733D01*
X32919200Y-47405066D01*
X32952533Y-47471733D01*
X32952533Y-47738400D01*
X32652533Y-47071733D02*
X32619200Y-47038400D01*
X32585866Y-46971733D01*
X32585866Y-46805066D01*
X32619200Y-46738400D01*
X32652533Y-46705066D01*
X32719200Y-46671733D01*
X32785866Y-46671733D01*
X32885866Y-46705066D01*
X33285866Y-47105066D01*
X33285866Y-46671733D01*
X32585866Y-46038400D02*
X32585866Y-46371733D01*
X32919200Y-46405066D01*
X32885866Y-46371733D01*
X32852533Y-46305066D01*
X32852533Y-46138400D01*
X32885866Y-46071733D01*
X32919200Y-46038400D01*
X32985866Y-46005066D01*
X33152533Y-46005066D01*
X33219200Y-46038400D01*
X33252533Y-46071733D01*
X33285866Y-46138400D01*
X33285866Y-46305066D01*
X33252533Y-46371733D01*
X33219200Y-46405066D01*
G04 #@! TO.C,R26*
X25864400Y-49592666D02*
X25631066Y-49259333D01*
X25464400Y-49592666D02*
X25464400Y-48892666D01*
X25731066Y-48892666D01*
X25797733Y-48926000D01*
X25831066Y-48959333D01*
X25864400Y-49026000D01*
X25864400Y-49126000D01*
X25831066Y-49192666D01*
X25797733Y-49226000D01*
X25731066Y-49259333D01*
X25464400Y-49259333D01*
X26131066Y-48959333D02*
X26164400Y-48926000D01*
X26231066Y-48892666D01*
X26397733Y-48892666D01*
X26464400Y-48926000D01*
X26497733Y-48959333D01*
X26531066Y-49026000D01*
X26531066Y-49092666D01*
X26497733Y-49192666D01*
X26097733Y-49592666D01*
X26531066Y-49592666D01*
X27131066Y-48892666D02*
X26997733Y-48892666D01*
X26931066Y-48926000D01*
X26897733Y-48959333D01*
X26831066Y-49059333D01*
X26797733Y-49192666D01*
X26797733Y-49459333D01*
X26831066Y-49526000D01*
X26864400Y-49559333D01*
X26931066Y-49592666D01*
X27064400Y-49592666D01*
X27131066Y-49559333D01*
X27164400Y-49526000D01*
X27197733Y-49459333D01*
X27197733Y-49292666D01*
X27164400Y-49226000D01*
X27131066Y-49192666D01*
X27064400Y-49159333D01*
X26931066Y-49159333D01*
X26864400Y-49192666D01*
X26831066Y-49226000D01*
X26797733Y-49292666D01*
G04 #@! TO.C,U1*
X69926266Y-45539866D02*
X69926266Y-46106533D01*
X69959600Y-46173200D01*
X69992933Y-46206533D01*
X70059600Y-46239866D01*
X70192933Y-46239866D01*
X70259600Y-46206533D01*
X70292933Y-46173200D01*
X70326266Y-46106533D01*
X70326266Y-45539866D01*
X71026266Y-46239866D02*
X70626266Y-46239866D01*
X70826266Y-46239866D02*
X70826266Y-45539866D01*
X70759600Y-45639866D01*
X70692933Y-45706533D01*
X70626266Y-45739866D01*
G04 #@! TO.C,U2*
X27002533Y-44221466D02*
X26435866Y-44221466D01*
X26369200Y-44254800D01*
X26335866Y-44288133D01*
X26302533Y-44354800D01*
X26302533Y-44488133D01*
X26335866Y-44554800D01*
X26369200Y-44588133D01*
X26435866Y-44621466D01*
X27002533Y-44621466D01*
X26935866Y-44921466D02*
X26969200Y-44954800D01*
X27002533Y-45021466D01*
X27002533Y-45188133D01*
X26969200Y-45254800D01*
X26935866Y-45288133D01*
X26869200Y-45321466D01*
X26802533Y-45321466D01*
X26702533Y-45288133D01*
X26302533Y-44888133D01*
X26302533Y-45321466D01*
G04 #@! TO.C,R27*
X61683066Y-47897200D02*
X61349733Y-48130533D01*
X61683066Y-48297200D02*
X60983066Y-48297200D01*
X60983066Y-48030533D01*
X61016400Y-47963866D01*
X61049733Y-47930533D01*
X61116400Y-47897200D01*
X61216400Y-47897200D01*
X61283066Y-47930533D01*
X61316400Y-47963866D01*
X61349733Y-48030533D01*
X61349733Y-48297200D01*
X61049733Y-47630533D02*
X61016400Y-47597200D01*
X60983066Y-47530533D01*
X60983066Y-47363866D01*
X61016400Y-47297200D01*
X61049733Y-47263866D01*
X61116400Y-47230533D01*
X61183066Y-47230533D01*
X61283066Y-47263866D01*
X61683066Y-47663866D01*
X61683066Y-47230533D01*
X60983066Y-46997200D02*
X60983066Y-46530533D01*
X61683066Y-46830533D01*
G04 #@! TO.C,R28*
X73870400Y-47916266D02*
X73637066Y-47582933D01*
X73470400Y-47916266D02*
X73470400Y-47216266D01*
X73737066Y-47216266D01*
X73803733Y-47249600D01*
X73837066Y-47282933D01*
X73870400Y-47349600D01*
X73870400Y-47449600D01*
X73837066Y-47516266D01*
X73803733Y-47549600D01*
X73737066Y-47582933D01*
X73470400Y-47582933D01*
X74137066Y-47282933D02*
X74170400Y-47249600D01*
X74237066Y-47216266D01*
X74403733Y-47216266D01*
X74470400Y-47249600D01*
X74503733Y-47282933D01*
X74537066Y-47349600D01*
X74537066Y-47416266D01*
X74503733Y-47516266D01*
X74103733Y-47916266D01*
X74537066Y-47916266D01*
X74937066Y-47516266D02*
X74870400Y-47482933D01*
X74837066Y-47449600D01*
X74803733Y-47382933D01*
X74803733Y-47349600D01*
X74837066Y-47282933D01*
X74870400Y-47249600D01*
X74937066Y-47216266D01*
X75070400Y-47216266D01*
X75137066Y-47249600D01*
X75170400Y-47282933D01*
X75203733Y-47349600D01*
X75203733Y-47382933D01*
X75170400Y-47449600D01*
X75137066Y-47482933D01*
X75070400Y-47516266D01*
X74937066Y-47516266D01*
X74870400Y-47549600D01*
X74837066Y-47582933D01*
X74803733Y-47649600D01*
X74803733Y-47782933D01*
X74837066Y-47849600D01*
X74870400Y-47882933D01*
X74937066Y-47916266D01*
X75070400Y-47916266D01*
X75137066Y-47882933D01*
X75170400Y-47849600D01*
X75203733Y-47782933D01*
X75203733Y-47649600D01*
X75170400Y-47582933D01*
X75137066Y-47549600D01*
X75070400Y-47516266D01*
G04 #@! TO.C,R29*
X76262666Y-42868000D02*
X75929333Y-43101333D01*
X76262666Y-43268000D02*
X75562666Y-43268000D01*
X75562666Y-43001333D01*
X75596000Y-42934666D01*
X75629333Y-42901333D01*
X75696000Y-42868000D01*
X75796000Y-42868000D01*
X75862666Y-42901333D01*
X75896000Y-42934666D01*
X75929333Y-43001333D01*
X75929333Y-43268000D01*
X75629333Y-42601333D02*
X75596000Y-42568000D01*
X75562666Y-42501333D01*
X75562666Y-42334666D01*
X75596000Y-42268000D01*
X75629333Y-42234666D01*
X75696000Y-42201333D01*
X75762666Y-42201333D01*
X75862666Y-42234666D01*
X76262666Y-42634666D01*
X76262666Y-42201333D01*
X76262666Y-41868000D02*
X76262666Y-41734666D01*
X76229333Y-41668000D01*
X76196000Y-41634666D01*
X76096000Y-41568000D01*
X75962666Y-41534666D01*
X75696000Y-41534666D01*
X75629333Y-41568000D01*
X75596000Y-41601333D01*
X75562666Y-41668000D01*
X75562666Y-41801333D01*
X75596000Y-41868000D01*
X75629333Y-41901333D01*
X75696000Y-41934666D01*
X75862666Y-41934666D01*
X75929333Y-41901333D01*
X75962666Y-41868000D01*
X75996000Y-41801333D01*
X75996000Y-41668000D01*
X75962666Y-41601333D01*
X75929333Y-41568000D01*
X75862666Y-41534666D01*
G04 #@! TO.C,C20*
X22257600Y-24837200D02*
X22224266Y-24870533D01*
X22124266Y-24903866D01*
X22057600Y-24903866D01*
X21957600Y-24870533D01*
X21890933Y-24803866D01*
X21857600Y-24737200D01*
X21824266Y-24603866D01*
X21824266Y-24503866D01*
X21857600Y-24370533D01*
X21890933Y-24303866D01*
X21957600Y-24237200D01*
X22057600Y-24203866D01*
X22124266Y-24203866D01*
X22224266Y-24237200D01*
X22257600Y-24270533D01*
X22524266Y-24270533D02*
X22557600Y-24237200D01*
X22624266Y-24203866D01*
X22790933Y-24203866D01*
X22857600Y-24237200D01*
X22890933Y-24270533D01*
X22924266Y-24337200D01*
X22924266Y-24403866D01*
X22890933Y-24503866D01*
X22490933Y-24903866D01*
X22924266Y-24903866D01*
X23357600Y-24203866D02*
X23424266Y-24203866D01*
X23490933Y-24237200D01*
X23524266Y-24270533D01*
X23557600Y-24337200D01*
X23590933Y-24470533D01*
X23590933Y-24637200D01*
X23557600Y-24770533D01*
X23524266Y-24837200D01*
X23490933Y-24870533D01*
X23424266Y-24903866D01*
X23357600Y-24903866D01*
X23290933Y-24870533D01*
X23257600Y-24837200D01*
X23224266Y-24770533D01*
X23190933Y-24637200D01*
X23190933Y-24470533D01*
X23224266Y-24337200D01*
X23257600Y-24270533D01*
X23290933Y-24237200D01*
X23357600Y-24203866D01*
G04 #@! TO.C,C21*
X29725200Y-28901200D02*
X29691866Y-28934533D01*
X29591866Y-28967866D01*
X29525200Y-28967866D01*
X29425200Y-28934533D01*
X29358533Y-28867866D01*
X29325200Y-28801200D01*
X29291866Y-28667866D01*
X29291866Y-28567866D01*
X29325200Y-28434533D01*
X29358533Y-28367866D01*
X29425200Y-28301200D01*
X29525200Y-28267866D01*
X29591866Y-28267866D01*
X29691866Y-28301200D01*
X29725200Y-28334533D01*
X29991866Y-28334533D02*
X30025200Y-28301200D01*
X30091866Y-28267866D01*
X30258533Y-28267866D01*
X30325200Y-28301200D01*
X30358533Y-28334533D01*
X30391866Y-28401200D01*
X30391866Y-28467866D01*
X30358533Y-28567866D01*
X29958533Y-28967866D01*
X30391866Y-28967866D01*
X31058533Y-28967866D02*
X30658533Y-28967866D01*
X30858533Y-28967866D02*
X30858533Y-28267866D01*
X30791866Y-28367866D01*
X30725200Y-28434533D01*
X30658533Y-28467866D01*
G04 #@! TO.C,R30*
X30182400Y-24649866D02*
X29949066Y-24316533D01*
X29782400Y-24649866D02*
X29782400Y-23949866D01*
X30049066Y-23949866D01*
X30115733Y-23983200D01*
X30149066Y-24016533D01*
X30182400Y-24083200D01*
X30182400Y-24183200D01*
X30149066Y-24249866D01*
X30115733Y-24283200D01*
X30049066Y-24316533D01*
X29782400Y-24316533D01*
X30415733Y-23949866D02*
X30849066Y-23949866D01*
X30615733Y-24216533D01*
X30715733Y-24216533D01*
X30782400Y-24249866D01*
X30815733Y-24283200D01*
X30849066Y-24349866D01*
X30849066Y-24516533D01*
X30815733Y-24583200D01*
X30782400Y-24616533D01*
X30715733Y-24649866D01*
X30515733Y-24649866D01*
X30449066Y-24616533D01*
X30415733Y-24583200D01*
X31282400Y-23949866D02*
X31349066Y-23949866D01*
X31415733Y-23983200D01*
X31449066Y-24016533D01*
X31482400Y-24083200D01*
X31515733Y-24216533D01*
X31515733Y-24383200D01*
X31482400Y-24516533D01*
X31449066Y-24583200D01*
X31415733Y-24616533D01*
X31349066Y-24649866D01*
X31282400Y-24649866D01*
X31215733Y-24616533D01*
X31182400Y-24583200D01*
X31149066Y-24516533D01*
X31115733Y-24383200D01*
X31115733Y-24216533D01*
X31149066Y-24083200D01*
X31182400Y-24016533D01*
X31215733Y-23983200D01*
X31282400Y-23949866D01*
G04 #@! TO.C,R31*
X34195600Y-32168266D02*
X33962266Y-31834933D01*
X33795600Y-32168266D02*
X33795600Y-31468266D01*
X34062266Y-31468266D01*
X34128933Y-31501600D01*
X34162266Y-31534933D01*
X34195600Y-31601600D01*
X34195600Y-31701600D01*
X34162266Y-31768266D01*
X34128933Y-31801600D01*
X34062266Y-31834933D01*
X33795600Y-31834933D01*
X34428933Y-31468266D02*
X34862266Y-31468266D01*
X34628933Y-31734933D01*
X34728933Y-31734933D01*
X34795600Y-31768266D01*
X34828933Y-31801600D01*
X34862266Y-31868266D01*
X34862266Y-32034933D01*
X34828933Y-32101600D01*
X34795600Y-32134933D01*
X34728933Y-32168266D01*
X34528933Y-32168266D01*
X34462266Y-32134933D01*
X34428933Y-32101600D01*
X35528933Y-32168266D02*
X35128933Y-32168266D01*
X35328933Y-32168266D02*
X35328933Y-31468266D01*
X35262266Y-31568266D01*
X35195600Y-31634933D01*
X35128933Y-31668266D01*
G04 #@! TO.C,R32*
X25462666Y-32200000D02*
X25129333Y-32433333D01*
X25462666Y-32600000D02*
X24762666Y-32600000D01*
X24762666Y-32333333D01*
X24796000Y-32266666D01*
X24829333Y-32233333D01*
X24896000Y-32200000D01*
X24996000Y-32200000D01*
X25062666Y-32233333D01*
X25096000Y-32266666D01*
X25129333Y-32333333D01*
X25129333Y-32600000D01*
X24762666Y-31966666D02*
X24762666Y-31533333D01*
X25029333Y-31766666D01*
X25029333Y-31666666D01*
X25062666Y-31600000D01*
X25096000Y-31566666D01*
X25162666Y-31533333D01*
X25329333Y-31533333D01*
X25396000Y-31566666D01*
X25429333Y-31600000D01*
X25462666Y-31666666D01*
X25462666Y-31866666D01*
X25429333Y-31933333D01*
X25396000Y-31966666D01*
X24829333Y-31266666D02*
X24796000Y-31233333D01*
X24762666Y-31166666D01*
X24762666Y-31000000D01*
X24796000Y-30933333D01*
X24829333Y-30900000D01*
X24896000Y-30866666D01*
X24962666Y-30866666D01*
X25062666Y-30900000D01*
X25462666Y-31300000D01*
X25462666Y-30866666D01*
G04 #@! TO.C,U3*
X23949866Y-27304933D02*
X24516533Y-27304933D01*
X24583200Y-27271600D01*
X24616533Y-27238266D01*
X24649866Y-27171600D01*
X24649866Y-27038266D01*
X24616533Y-26971600D01*
X24583200Y-26938266D01*
X24516533Y-26904933D01*
X23949866Y-26904933D01*
X23949866Y-26638266D02*
X23949866Y-26204933D01*
X24216533Y-26438266D01*
X24216533Y-26338266D01*
X24249866Y-26271600D01*
X24283200Y-26238266D01*
X24349866Y-26204933D01*
X24516533Y-26204933D01*
X24583200Y-26238266D01*
X24616533Y-26271600D01*
X24649866Y-26338266D01*
X24649866Y-26538266D01*
X24616533Y-26604933D01*
X24583200Y-26638266D01*
G04 #@! TD*
M02*
