G04 #@! TF.GenerationSoftware,KiCad,Pcbnew,(5.0.1)-4*
G04 #@! TF.CreationDate,2019-02-17T20:46:42+01:00*
G04 #@! TF.ProjectId,1U Rim,31552052696D2E6B696361645F706362,rev?*
G04 #@! TF.SameCoordinates,Original*
G04 #@! TF.FileFunction,Legend,Bot*
G04 #@! TF.FilePolarity,Positive*
%FSLAX46Y46*%
G04 Gerber Fmt 4.6, Leading zero omitted, Abs format (unit mm)*
G04 Created by KiCad (PCBNEW (5.0.1)-4) date 2/17/2019 8:46:42 PM*
%MOMM*%
%LPD*%
G01*
G04 APERTURE LIST*
%ADD10C,0.254000*%
%ADD11C,0.127000*%
%ADD12C,0.120000*%
%ADD13C,0.150000*%
%ADD14C,0.152400*%
G04 APERTURE END LIST*
D10*
G04 #@! TO.C,J1*
X48666400Y-39090600D02*
X48666400Y-49758600D01*
X48666400Y-49758600D02*
X39776400Y-49758600D01*
X39776400Y-49758600D02*
X39776400Y-39090600D01*
X39776400Y-39090600D02*
X48666400Y-39090600D01*
D11*
X45796200Y-43599100D02*
G75*
G03X45796200Y-43599100I-1574800J0D01*
G01*
X46507400Y-43599100D02*
G75*
G03X46507400Y-43599100I-2286000J0D01*
G01*
G04 #@! TO.C,J2*
X36347400Y-43599100D02*
G75*
G03X36347400Y-43599100I-2286000J0D01*
G01*
X35636200Y-43599100D02*
G75*
G03X35636200Y-43599100I-1574800J0D01*
G01*
D10*
X29616400Y-39090600D02*
X38506400Y-39090600D01*
X29616400Y-49758600D02*
X29616400Y-39090600D01*
X38506400Y-49758600D02*
X29616400Y-49758600D01*
X38506400Y-39090600D02*
X38506400Y-49758600D01*
D11*
G04 #@! TO.C,J4*
X26187400Y-43599100D02*
G75*
G03X26187400Y-43599100I-2286000J0D01*
G01*
X25476200Y-43599100D02*
G75*
G03X25476200Y-43599100I-1574800J0D01*
G01*
D10*
X19456400Y-39090600D02*
X28346400Y-39090600D01*
X19456400Y-49758600D02*
X19456400Y-39090600D01*
X28346400Y-49758600D02*
X19456400Y-49758600D01*
X28346400Y-39090600D02*
X28346400Y-49758600D01*
D12*
G04 #@! TO.C,J6*
X62941200Y-22342800D02*
X61611200Y-22342800D01*
X61611200Y-22342800D02*
X61611200Y-23672800D01*
X61611200Y-24942800D02*
X61611200Y-30082800D01*
X64271200Y-30082800D02*
X61611200Y-30082800D01*
X64271200Y-24942800D02*
X64271200Y-30082800D01*
X64271200Y-24942800D02*
X61611200Y-24942800D01*
G04 #@! TO.C,J8*
X56591200Y-34788800D02*
X56591200Y-37448800D01*
X56591200Y-34788800D02*
X61731200Y-34788800D01*
X61731200Y-34788800D02*
X61731200Y-37448800D01*
X56591200Y-37448800D02*
X61731200Y-37448800D01*
X53991200Y-37448800D02*
X55321200Y-37448800D01*
X53991200Y-36118800D02*
X53991200Y-37448800D01*
G04 #@! TO.C,J10*
X66852800Y-34788800D02*
X66852800Y-37448800D01*
X66852800Y-34788800D02*
X71992800Y-34788800D01*
X71992800Y-34788800D02*
X71992800Y-37448800D01*
X66852800Y-37448800D02*
X71992800Y-37448800D01*
X64252800Y-37448800D02*
X65582800Y-37448800D01*
X64252800Y-36118800D02*
X64252800Y-37448800D01*
D11*
G04 #@! TO.C,RV1*
X29941237Y-26570243D02*
G75*
G03X29941237Y-26570243I-3500000J0D01*
G01*
X21587237Y-31560343D02*
G75*
G03X22351137Y-32070243I636900J127000D01*
G01*
X30531337Y-32070243D02*
X22351137Y-32070243D01*
X30531337Y-32070243D02*
G75*
G03X31295237Y-31560343I127000J636900D01*
G01*
X31295237Y-21580143D02*
X31295237Y-31560343D01*
X31295237Y-21580143D02*
G75*
G03X30531337Y-21070243I-636900J-127000D01*
G01*
X22351137Y-21070243D02*
X30531337Y-21070243D01*
X22351137Y-21070243D02*
G75*
G03X21587237Y-21580143I-127000J-636900D01*
G01*
X21587237Y-31560343D02*
X21587237Y-21580143D01*
D13*
X24790400Y-28727400D02*
G75*
G02X28092400Y-28727400I1651000J2159000D01*
G01*
X28092400Y-28727400D02*
X24790400Y-28727400D01*
G04 #@! TO.C,RV2*
X43332400Y-28727400D02*
X40030400Y-28727400D01*
X40030400Y-28727400D02*
G75*
G02X43332400Y-28727400I1651000J2159000D01*
G01*
D11*
X36827237Y-31560343D02*
X36827237Y-21580143D01*
X37591137Y-21070243D02*
G75*
G03X36827237Y-21580143I-127000J-636900D01*
G01*
X37591137Y-21070243D02*
X45771337Y-21070243D01*
X46535237Y-21580143D02*
G75*
G03X45771337Y-21070243I-636900J-127000D01*
G01*
X46535237Y-21580143D02*
X46535237Y-31560343D01*
X45771337Y-32070243D02*
G75*
G03X46535237Y-31560343I127000J636900D01*
G01*
X45771337Y-32070243D02*
X37591137Y-32070243D01*
X36827237Y-31560343D02*
G75*
G03X37591137Y-32070243I636900J127000D01*
G01*
X45181237Y-26570243D02*
G75*
G03X45181237Y-26570243I-3500000J0D01*
G01*
G04 #@! TO.C,J1*
D14*
X46869047Y-40482036D02*
X47730833Y-40482036D01*
X47903190Y-40424583D01*
X48018095Y-40309679D01*
X48075547Y-40137321D01*
X48075547Y-40022417D01*
X48075547Y-41688536D02*
X48075547Y-40999107D01*
X48075547Y-41343821D02*
X46869047Y-41343821D01*
X47041404Y-41228917D01*
X47156309Y-41114012D01*
X47213761Y-40999107D01*
X42963473Y-37874666D02*
X42563473Y-37874666D01*
X42763473Y-38574666D02*
X42763473Y-37874666D01*
X42330140Y-38574666D02*
X42330140Y-38108000D01*
X42330140Y-38241333D02*
X42296806Y-38174666D01*
X42263473Y-38141333D01*
X42196806Y-38108000D01*
X42130140Y-38108000D01*
X41896806Y-38574666D02*
X41896806Y-38108000D01*
X41896806Y-37874666D02*
X41930140Y-37908000D01*
X41896806Y-37941333D01*
X41863473Y-37908000D01*
X41896806Y-37874666D01*
X41896806Y-37941333D01*
X41263473Y-38108000D02*
X41263473Y-38674666D01*
X41296806Y-38741333D01*
X41330140Y-38774666D01*
X41396806Y-38808000D01*
X41496806Y-38808000D01*
X41563473Y-38774666D01*
X41263473Y-38541333D02*
X41330140Y-38574666D01*
X41463473Y-38574666D01*
X41530140Y-38541333D01*
X41563473Y-38508000D01*
X41596806Y-38441333D01*
X41596806Y-38241333D01*
X41563473Y-38174666D01*
X41530140Y-38141333D01*
X41463473Y-38108000D01*
X41330140Y-38108000D01*
X41263473Y-38141333D01*
X40630140Y-38108000D02*
X40630140Y-38674666D01*
X40663473Y-38741333D01*
X40696806Y-38774666D01*
X40763473Y-38808000D01*
X40863473Y-38808000D01*
X40930140Y-38774666D01*
X40630140Y-38541333D02*
X40696806Y-38574666D01*
X40830140Y-38574666D01*
X40896806Y-38541333D01*
X40930140Y-38508000D01*
X40963473Y-38441333D01*
X40963473Y-38241333D01*
X40930140Y-38174666D01*
X40896806Y-38141333D01*
X40830140Y-38108000D01*
X40696806Y-38108000D01*
X40630140Y-38141333D01*
X40030140Y-38541333D02*
X40096806Y-38574666D01*
X40230140Y-38574666D01*
X40296806Y-38541333D01*
X40330140Y-38474666D01*
X40330140Y-38208000D01*
X40296806Y-38141333D01*
X40230140Y-38108000D01*
X40096806Y-38108000D01*
X40030140Y-38141333D01*
X39996806Y-38208000D01*
X39996806Y-38274666D01*
X40330140Y-38341333D01*
X39696806Y-38574666D02*
X39696806Y-38108000D01*
X39696806Y-38241333D02*
X39663473Y-38174666D01*
X39630140Y-38141333D01*
X39563473Y-38108000D01*
X39496806Y-38108000D01*
G04 #@! TO.C,J2*
X36709047Y-40482036D02*
X37570833Y-40482036D01*
X37743190Y-40424583D01*
X37858095Y-40309679D01*
X37915547Y-40137321D01*
X37915547Y-40022417D01*
X36823952Y-40999107D02*
X36766500Y-41056560D01*
X36709047Y-41171464D01*
X36709047Y-41458726D01*
X36766500Y-41573631D01*
X36823952Y-41631083D01*
X36938857Y-41688536D01*
X37053761Y-41688536D01*
X37226119Y-41631083D01*
X37915547Y-40941655D01*
X37915547Y-41688536D01*
X32686006Y-38425466D02*
X32352673Y-38425466D01*
X32752673Y-38625466D02*
X32519340Y-37925466D01*
X32286006Y-38625466D01*
X31752673Y-38592133D02*
X31819340Y-38625466D01*
X31952673Y-38625466D01*
X32019340Y-38592133D01*
X32052673Y-38558800D01*
X32086006Y-38492133D01*
X32086006Y-38292133D01*
X32052673Y-38225466D01*
X32019340Y-38192133D01*
X31952673Y-38158800D01*
X31819340Y-38158800D01*
X31752673Y-38192133D01*
X31152673Y-38592133D02*
X31219340Y-38625466D01*
X31352673Y-38625466D01*
X31419340Y-38592133D01*
X31452673Y-38558800D01*
X31486006Y-38492133D01*
X31486006Y-38292133D01*
X31452673Y-38225466D01*
X31419340Y-38192133D01*
X31352673Y-38158800D01*
X31219340Y-38158800D01*
X31152673Y-38192133D01*
X30586006Y-38592133D02*
X30652673Y-38625466D01*
X30786006Y-38625466D01*
X30852673Y-38592133D01*
X30886006Y-38525466D01*
X30886006Y-38258800D01*
X30852673Y-38192133D01*
X30786006Y-38158800D01*
X30652673Y-38158800D01*
X30586006Y-38192133D01*
X30552673Y-38258800D01*
X30552673Y-38325466D01*
X30886006Y-38392133D01*
X30252673Y-38158800D02*
X30252673Y-38625466D01*
X30252673Y-38225466D02*
X30219340Y-38192133D01*
X30152673Y-38158800D01*
X30052673Y-38158800D01*
X29986006Y-38192133D01*
X29952673Y-38258800D01*
X29952673Y-38625466D01*
X29719340Y-38158800D02*
X29452673Y-38158800D01*
X29619340Y-37925466D02*
X29619340Y-38525466D01*
X29586006Y-38592133D01*
X29519340Y-38625466D01*
X29452673Y-38625466D01*
G04 #@! TO.C,J4*
X26549047Y-40482036D02*
X27410833Y-40482036D01*
X27583190Y-40424583D01*
X27698095Y-40309679D01*
X27755547Y-40137321D01*
X27755547Y-40022417D01*
X26951214Y-41573631D02*
X27755547Y-41573631D01*
X26491595Y-41286369D02*
X27353380Y-40999107D01*
X27353380Y-41745988D01*
X22308540Y-37925466D02*
X22175206Y-37925466D01*
X22108540Y-37958800D01*
X22041873Y-38025466D01*
X22008540Y-38158800D01*
X22008540Y-38392133D01*
X22041873Y-38525466D01*
X22108540Y-38592133D01*
X22175206Y-38625466D01*
X22308540Y-38625466D01*
X22375206Y-38592133D01*
X22441873Y-38525466D01*
X22475206Y-38392133D01*
X22475206Y-38158800D01*
X22441873Y-38025466D01*
X22375206Y-37958800D01*
X22308540Y-37925466D01*
X21408540Y-38158800D02*
X21408540Y-38625466D01*
X21708540Y-38158800D02*
X21708540Y-38525466D01*
X21675206Y-38592133D01*
X21608540Y-38625466D01*
X21508540Y-38625466D01*
X21441873Y-38592133D01*
X21408540Y-38558800D01*
X21175206Y-38158800D02*
X20908540Y-38158800D01*
X21075206Y-37925466D02*
X21075206Y-38525466D01*
X21041873Y-38592133D01*
X20975206Y-38625466D01*
X20908540Y-38625466D01*
G04 #@! TO.C,J6*
D12*
X63174533Y-30706266D02*
X63174533Y-31206266D01*
X63207866Y-31306266D01*
X63274533Y-31372933D01*
X63374533Y-31406266D01*
X63441200Y-31406266D01*
X62541200Y-30706266D02*
X62674533Y-30706266D01*
X62741200Y-30739600D01*
X62774533Y-30772933D01*
X62841200Y-30872933D01*
X62874533Y-31006266D01*
X62874533Y-31272933D01*
X62841200Y-31339600D01*
X62807866Y-31372933D01*
X62741200Y-31406266D01*
X62607866Y-31406266D01*
X62541200Y-31372933D01*
X62507866Y-31339600D01*
X62474533Y-31272933D01*
X62474533Y-31106266D01*
X62507866Y-31039600D01*
X62541200Y-31006266D01*
X62607866Y-30972933D01*
X62741200Y-30972933D01*
X62807866Y-31006266D01*
X62841200Y-31039600D01*
X62874533Y-31106266D01*
G04 #@! TO.C,J8*
X52167866Y-35885466D02*
X52667866Y-35885466D01*
X52767866Y-35852133D01*
X52834533Y-35785466D01*
X52867866Y-35685466D01*
X52867866Y-35618800D01*
X52467866Y-36318800D02*
X52434533Y-36252133D01*
X52401200Y-36218800D01*
X52334533Y-36185466D01*
X52301200Y-36185466D01*
X52234533Y-36218800D01*
X52201200Y-36252133D01*
X52167866Y-36318800D01*
X52167866Y-36452133D01*
X52201200Y-36518800D01*
X52234533Y-36552133D01*
X52301200Y-36585466D01*
X52334533Y-36585466D01*
X52401200Y-36552133D01*
X52434533Y-36518800D01*
X52467866Y-36452133D01*
X52467866Y-36318800D01*
X52501200Y-36252133D01*
X52534533Y-36218800D01*
X52601200Y-36185466D01*
X52734533Y-36185466D01*
X52801200Y-36218800D01*
X52834533Y-36252133D01*
X52867866Y-36318800D01*
X52867866Y-36452133D01*
X52834533Y-36518800D01*
X52801200Y-36552133D01*
X52734533Y-36585466D01*
X52601200Y-36585466D01*
X52534533Y-36552133D01*
X52501200Y-36518800D01*
X52467866Y-36452133D01*
G04 #@! TO.C,J10*
X62429466Y-35552133D02*
X62929466Y-35552133D01*
X63029466Y-35518800D01*
X63096133Y-35452133D01*
X63129466Y-35352133D01*
X63129466Y-35285466D01*
X63129466Y-36252133D02*
X63129466Y-35852133D01*
X63129466Y-36052133D02*
X62429466Y-36052133D01*
X62529466Y-35985466D01*
X62596133Y-35918800D01*
X62629466Y-35852133D01*
X62429466Y-36685466D02*
X62429466Y-36752133D01*
X62462800Y-36818800D01*
X62496133Y-36852133D01*
X62562800Y-36885466D01*
X62696133Y-36918800D01*
X62862800Y-36918800D01*
X62996133Y-36885466D01*
X63062800Y-36852133D01*
X63096133Y-36818800D01*
X63129466Y-36752133D01*
X63129466Y-36685466D01*
X63096133Y-36618800D01*
X63062800Y-36585466D01*
X62996133Y-36552133D01*
X62862800Y-36518800D01*
X62696133Y-36518800D01*
X62562800Y-36552133D01*
X62496133Y-36585466D01*
X62462800Y-36618800D01*
X62429466Y-36685466D01*
G04 #@! TO.C,RV1*
X21351085Y-29031542D02*
X20993942Y-28781542D01*
X21351085Y-28602971D02*
X20601085Y-28602971D01*
X20601085Y-28888685D01*
X20636800Y-28960114D01*
X20672514Y-28995828D01*
X20743942Y-29031542D01*
X20851085Y-29031542D01*
X20922514Y-28995828D01*
X20958228Y-28960114D01*
X20993942Y-28888685D01*
X20993942Y-28602971D01*
X20601085Y-29245828D02*
X21351085Y-29495828D01*
X20601085Y-29745828D01*
X21351085Y-30388685D02*
X21351085Y-29960114D01*
X21351085Y-30174400D02*
X20601085Y-30174400D01*
X20708228Y-30102971D01*
X20779657Y-30031542D01*
X20815371Y-29960114D01*
D14*
X30151130Y-30992233D02*
X29576606Y-30992233D01*
X30266035Y-31336947D02*
X29863868Y-30130447D01*
X29461701Y-31336947D01*
X28485011Y-30130447D02*
X29059535Y-30130447D01*
X29116987Y-30704971D01*
X29059535Y-30647519D01*
X28944630Y-30590066D01*
X28657368Y-30590066D01*
X28542463Y-30647519D01*
X28485011Y-30704971D01*
X28427559Y-30819876D01*
X28427559Y-31107138D01*
X28485011Y-31222042D01*
X28542463Y-31279495D01*
X28657368Y-31336947D01*
X28944630Y-31336947D01*
X29059535Y-31279495D01*
X29116987Y-31222042D01*
X27910487Y-31336947D02*
X27910487Y-30130447D01*
X27795582Y-30877328D02*
X27450868Y-31336947D01*
X27450868Y-30532614D02*
X27910487Y-30992233D01*
G04 #@! TO.C,RV2*
D12*
X36591085Y-28980742D02*
X36233942Y-28730742D01*
X36591085Y-28552171D02*
X35841085Y-28552171D01*
X35841085Y-28837885D01*
X35876800Y-28909314D01*
X35912514Y-28945028D01*
X35983942Y-28980742D01*
X36091085Y-28980742D01*
X36162514Y-28945028D01*
X36198228Y-28909314D01*
X36233942Y-28837885D01*
X36233942Y-28552171D01*
X35841085Y-29195028D02*
X36591085Y-29445028D01*
X35841085Y-29695028D01*
X35912514Y-29909314D02*
X35876800Y-29945028D01*
X35841085Y-30016457D01*
X35841085Y-30195028D01*
X35876800Y-30266457D01*
X35912514Y-30302171D01*
X35983942Y-30337885D01*
X36055371Y-30337885D01*
X36162514Y-30302171D01*
X36591085Y-29873600D01*
X36591085Y-30337885D01*
D14*
X45441930Y-30992233D02*
X44867406Y-30992233D01*
X45556835Y-31336947D02*
X45154668Y-30130447D01*
X44752501Y-31336947D01*
X43775811Y-30130447D02*
X44350335Y-30130447D01*
X44407787Y-30704971D01*
X44350335Y-30647519D01*
X44235430Y-30590066D01*
X43948168Y-30590066D01*
X43833263Y-30647519D01*
X43775811Y-30704971D01*
X43718359Y-30819876D01*
X43718359Y-31107138D01*
X43775811Y-31222042D01*
X43833263Y-31279495D01*
X43948168Y-31336947D01*
X44235430Y-31336947D01*
X44350335Y-31279495D01*
X44407787Y-31222042D01*
X43201287Y-31336947D02*
X43201287Y-30130447D01*
X43086382Y-30877328D02*
X42741668Y-31336947D01*
X42741668Y-30532614D02*
X43201287Y-30992233D01*
G04 #@! TD*
M02*
