G04 #@! TF.GenerationSoftware,KiCad,Pcbnew,(5.0.1)-4*
G04 #@! TF.CreationDate,2019-02-24T02:38:56+01:00*
G04 #@! TF.ProjectId,1U Rim Panel,31552052696D2050616E656C2E6B6963,rev?*
G04 #@! TF.SameCoordinates,Original*
G04 #@! TF.FileFunction,Soldermask,Bot*
G04 #@! TF.FilePolarity,Negative*
%FSLAX46Y46*%
G04 Gerber Fmt 4.6, Leading zero omitted, Abs format (unit mm)*
G04 Created by KiCad (PCBNEW (5.0.1)-4) date 2/24/2019 2:38:56 AM*
%MOMM*%
%LPD*%
G01*
G04 APERTURE LIST*
%ADD10C,0.100000*%
G04 APERTURE END LIST*
D10*
G36*
X33346199Y-60623871D02*
X33758904Y-60749064D01*
X34139255Y-60952366D01*
X34472635Y-61225964D01*
X34746233Y-61559344D01*
X34949535Y-61939695D01*
X35074728Y-62352400D01*
X35117000Y-62781599D01*
X35117000Y-62781601D01*
X35074728Y-63210800D01*
X34949535Y-63623505D01*
X34746233Y-64003856D01*
X34472635Y-64337236D01*
X34139255Y-64610834D01*
X33758904Y-64814136D01*
X33346199Y-64939329D01*
X32917000Y-64981601D01*
X30917000Y-64981601D01*
X30487801Y-64939329D01*
X30075096Y-64814136D01*
X29694745Y-64610834D01*
X29361365Y-64337236D01*
X29087767Y-64003856D01*
X28884465Y-63623505D01*
X28759272Y-63210800D01*
X28717000Y-62781601D01*
X28717000Y-62781599D01*
X28759272Y-62352400D01*
X28884465Y-61939695D01*
X29087767Y-61559344D01*
X29361365Y-61225964D01*
X29694745Y-60952366D01*
X30075096Y-60749064D01*
X30487801Y-60623871D01*
X30917000Y-60581599D01*
X32917000Y-60581599D01*
X33346199Y-60623871D01*
X33346199Y-60623871D01*
G37*
G36*
X53426199Y-60623871D02*
X53838904Y-60749064D01*
X54219255Y-60952366D01*
X54552635Y-61225964D01*
X54826233Y-61559344D01*
X55029535Y-61939695D01*
X55154728Y-62352400D01*
X55197000Y-62781599D01*
X55197000Y-62781601D01*
X55154728Y-63210800D01*
X55029535Y-63623505D01*
X54826233Y-64003856D01*
X54552635Y-64337236D01*
X54219255Y-64610834D01*
X53838904Y-64814136D01*
X53426199Y-64939329D01*
X52997000Y-64981601D01*
X50997000Y-64981601D01*
X50567801Y-64939329D01*
X50155096Y-64814136D01*
X49774745Y-64610834D01*
X49441365Y-64337236D01*
X49167767Y-64003856D01*
X48964465Y-63623505D01*
X48839272Y-63210800D01*
X48797000Y-62781601D01*
X48797000Y-62781599D01*
X48839272Y-62352400D01*
X48964465Y-61939695D01*
X49167767Y-61559344D01*
X49441365Y-61225964D01*
X49774745Y-60952366D01*
X50155096Y-60749064D01*
X50567801Y-60623871D01*
X50997000Y-60581599D01*
X52997000Y-60581599D01*
X53426199Y-60623871D01*
X53426199Y-60623871D01*
G37*
G36*
X52656745Y-47973188D02*
X53214604Y-48084153D01*
X53915259Y-48374374D01*
X54545832Y-48795709D01*
X55082091Y-49331968D01*
X55503426Y-49962541D01*
X55793647Y-50663196D01*
X55941600Y-51407008D01*
X55941600Y-52165392D01*
X55793647Y-52909204D01*
X55503426Y-53609859D01*
X55082091Y-54240432D01*
X54545832Y-54776691D01*
X53915259Y-55198026D01*
X53214604Y-55488247D01*
X52656745Y-55599212D01*
X52470793Y-55636200D01*
X51712407Y-55636200D01*
X51526455Y-55599212D01*
X50968596Y-55488247D01*
X50267941Y-55198026D01*
X49637368Y-54776691D01*
X49101109Y-54240432D01*
X48679774Y-53609859D01*
X48389553Y-52909204D01*
X48241600Y-52165392D01*
X48241600Y-51407008D01*
X48389553Y-50663196D01*
X48679774Y-49962541D01*
X49101109Y-49331968D01*
X49637368Y-48795709D01*
X50267941Y-48374374D01*
X50968596Y-48084153D01*
X51526455Y-47973188D01*
X51712407Y-47936200D01*
X52470793Y-47936200D01*
X52656745Y-47973188D01*
X52656745Y-47973188D01*
G37*
G36*
X32336745Y-47973188D02*
X32894604Y-48084153D01*
X33595259Y-48374374D01*
X34225832Y-48795709D01*
X34762091Y-49331968D01*
X35183426Y-49962541D01*
X35473647Y-50663196D01*
X35621600Y-51407008D01*
X35621600Y-52165392D01*
X35473647Y-52909204D01*
X35183426Y-53609859D01*
X34762091Y-54240432D01*
X34225832Y-54776691D01*
X33595259Y-55198026D01*
X32894604Y-55488247D01*
X32336745Y-55599212D01*
X32150793Y-55636200D01*
X31392407Y-55636200D01*
X31206455Y-55599212D01*
X30648596Y-55488247D01*
X29947941Y-55198026D01*
X29317368Y-54776691D01*
X28781109Y-54240432D01*
X28359774Y-53609859D01*
X28069553Y-52909204D01*
X27921600Y-52165392D01*
X27921600Y-51407008D01*
X28069553Y-50663196D01*
X28359774Y-49962541D01*
X28781109Y-49331968D01*
X29317368Y-48795709D01*
X29947941Y-48374374D01*
X30648596Y-48084153D01*
X31206455Y-47973188D01*
X31392407Y-47936200D01*
X32150793Y-47936200D01*
X32336745Y-47973188D01*
X32336745Y-47973188D01*
G37*
G36*
X42496745Y-47973188D02*
X43054604Y-48084153D01*
X43755259Y-48374374D01*
X44385832Y-48795709D01*
X44922091Y-49331968D01*
X45343426Y-49962541D01*
X45633647Y-50663196D01*
X45781600Y-51407008D01*
X45781600Y-52165392D01*
X45633647Y-52909204D01*
X45343426Y-53609859D01*
X44922091Y-54240432D01*
X44385832Y-54776691D01*
X43755259Y-55198026D01*
X43054604Y-55488247D01*
X42496745Y-55599212D01*
X42310793Y-55636200D01*
X41552407Y-55636200D01*
X41366455Y-55599212D01*
X40808596Y-55488247D01*
X40107941Y-55198026D01*
X39477368Y-54776691D01*
X38941109Y-54240432D01*
X38519774Y-53609859D01*
X38229553Y-52909204D01*
X38081600Y-52165392D01*
X38081600Y-51407008D01*
X38229553Y-50663196D01*
X38519774Y-49962541D01*
X38941109Y-49331968D01*
X39477368Y-48795709D01*
X40107941Y-48374374D01*
X40808596Y-48084153D01*
X41366455Y-47973188D01*
X41552407Y-47936200D01*
X42310793Y-47936200D01*
X42496745Y-47973188D01*
X42496745Y-47973188D01*
G37*
G36*
X34876745Y-30955188D02*
X35434604Y-31066153D01*
X36135259Y-31356374D01*
X36765832Y-31777709D01*
X37302091Y-32313968D01*
X37723426Y-32944541D01*
X38013647Y-33645196D01*
X38161600Y-34389008D01*
X38161600Y-35147392D01*
X38013647Y-35891204D01*
X37723426Y-36591859D01*
X37302091Y-37222432D01*
X36765832Y-37758691D01*
X36135259Y-38180026D01*
X35434604Y-38470247D01*
X34876745Y-38581212D01*
X34690793Y-38618200D01*
X33932407Y-38618200D01*
X33746455Y-38581212D01*
X33188596Y-38470247D01*
X32487941Y-38180026D01*
X31857368Y-37758691D01*
X31321109Y-37222432D01*
X30899774Y-36591859D01*
X30609553Y-35891204D01*
X30461600Y-35147392D01*
X30461600Y-34389008D01*
X30609553Y-33645196D01*
X30899774Y-32944541D01*
X31321109Y-32313968D01*
X31857368Y-31777709D01*
X32487941Y-31356374D01*
X33188596Y-31066153D01*
X33746455Y-30955188D01*
X33932407Y-30918200D01*
X34690793Y-30918200D01*
X34876745Y-30955188D01*
X34876745Y-30955188D01*
G37*
G36*
X50116745Y-30955188D02*
X50674604Y-31066153D01*
X51375259Y-31356374D01*
X52005832Y-31777709D01*
X52542091Y-32313968D01*
X52963426Y-32944541D01*
X53253647Y-33645196D01*
X53401600Y-34389008D01*
X53401600Y-35147392D01*
X53253647Y-35891204D01*
X52963426Y-36591859D01*
X52542091Y-37222432D01*
X52005832Y-37758691D01*
X51375259Y-38180026D01*
X50674604Y-38470247D01*
X50116745Y-38581212D01*
X49930793Y-38618200D01*
X49172407Y-38618200D01*
X48986455Y-38581212D01*
X48428596Y-38470247D01*
X47727941Y-38180026D01*
X47097368Y-37758691D01*
X46561109Y-37222432D01*
X46139774Y-36591859D01*
X45849553Y-35891204D01*
X45701600Y-35147392D01*
X45701600Y-34389008D01*
X45849553Y-33645196D01*
X46139774Y-32944541D01*
X46561109Y-32313968D01*
X47097368Y-31777709D01*
X47727941Y-31356374D01*
X48428596Y-31066153D01*
X48986455Y-30955188D01*
X49172407Y-30918200D01*
X49930793Y-30918200D01*
X50116745Y-30955188D01*
X50116745Y-30955188D01*
G37*
G36*
X53382199Y-23443871D02*
X53794904Y-23569064D01*
X54175255Y-23772366D01*
X54508635Y-24045964D01*
X54782233Y-24379344D01*
X54985535Y-24759695D01*
X55110728Y-25172400D01*
X55153000Y-25601599D01*
X55153000Y-25601601D01*
X55110728Y-26030800D01*
X54985535Y-26443505D01*
X54782233Y-26823856D01*
X54508635Y-27157236D01*
X54175255Y-27430834D01*
X53794904Y-27634136D01*
X53382199Y-27759329D01*
X52953000Y-27801601D01*
X50953000Y-27801601D01*
X50523801Y-27759329D01*
X50111096Y-27634136D01*
X49730745Y-27430834D01*
X49397365Y-27157236D01*
X49123767Y-26823856D01*
X48920465Y-26443505D01*
X48795272Y-26030800D01*
X48753000Y-25601601D01*
X48753000Y-25601599D01*
X48795272Y-25172400D01*
X48920465Y-24759695D01*
X49123767Y-24379344D01*
X49397365Y-24045964D01*
X49730745Y-23772366D01*
X50111096Y-23569064D01*
X50523801Y-23443871D01*
X50953000Y-23401599D01*
X52953000Y-23401599D01*
X53382199Y-23443871D01*
X53382199Y-23443871D01*
G37*
G36*
X33346199Y-23443871D02*
X33758904Y-23569064D01*
X34139255Y-23772366D01*
X34472635Y-24045964D01*
X34746233Y-24379344D01*
X34949535Y-24759695D01*
X35074728Y-25172400D01*
X35117000Y-25601599D01*
X35117000Y-25601601D01*
X35074728Y-26030800D01*
X34949535Y-26443505D01*
X34746233Y-26823856D01*
X34472635Y-27157236D01*
X34139255Y-27430834D01*
X33758904Y-27634136D01*
X33346199Y-27759329D01*
X32917000Y-27801601D01*
X30917000Y-27801601D01*
X30487801Y-27759329D01*
X30075096Y-27634136D01*
X29694745Y-27430834D01*
X29361365Y-27157236D01*
X29087767Y-26823856D01*
X28884465Y-26443505D01*
X28759272Y-26030800D01*
X28717000Y-25601601D01*
X28717000Y-25601599D01*
X28759272Y-25172400D01*
X28884465Y-24759695D01*
X29087767Y-24379344D01*
X29361365Y-24045964D01*
X29694745Y-23772366D01*
X30075096Y-23569064D01*
X30487801Y-23443871D01*
X30917000Y-23401599D01*
X32917000Y-23401599D01*
X33346199Y-23443871D01*
X33346199Y-23443871D01*
G37*
M02*
