G04 #@! TF.GenerationSoftware,KiCad,Pcbnew,(5.0.1)-4*
G04 #@! TF.CreationDate,2019-02-24T02:38:56+01:00*
G04 #@! TF.ProjectId,1U Rim Panel,31552052696D2050616E656C2E6B6963,rev?*
G04 #@! TF.SameCoordinates,Original*
G04 #@! TF.FileFunction,Legend,Top*
G04 #@! TF.FilePolarity,Positive*
%FSLAX46Y46*%
G04 Gerber Fmt 4.6, Leading zero omitted, Abs format (unit mm)*
G04 Created by KiCad (PCBNEW (5.0.1)-4) date 2/24/2019 2:38:56 AM*
%MOMM*%
%LPD*%
G01*
G04 APERTURE LIST*
%ADD10C,0.300000*%
%ADD11C,0.150000*%
G04 APERTURE END LIST*
D10*
X50591600Y-57822171D02*
X50877314Y-57822171D01*
X51020171Y-57893600D01*
X51163028Y-58036457D01*
X51234457Y-58322171D01*
X51234457Y-58822171D01*
X51163028Y-59107885D01*
X51020171Y-59250742D01*
X50877314Y-59322171D01*
X50591600Y-59322171D01*
X50448742Y-59250742D01*
X50305885Y-59107885D01*
X50234457Y-58822171D01*
X50234457Y-58322171D01*
X50305885Y-58036457D01*
X50448742Y-57893600D01*
X50591600Y-57822171D01*
X51877314Y-57822171D02*
X51877314Y-59036457D01*
X51948742Y-59179314D01*
X52020171Y-59250742D01*
X52163028Y-59322171D01*
X52448742Y-59322171D01*
X52591600Y-59250742D01*
X52663028Y-59179314D01*
X52734457Y-59036457D01*
X52734457Y-57822171D01*
X53234457Y-57822171D02*
X54091600Y-57822171D01*
X53663028Y-59322171D02*
X53663028Y-57822171D01*
X40074457Y-58893600D02*
X40788742Y-58893600D01*
X39931600Y-59322171D02*
X40431600Y-57822171D01*
X40931600Y-59322171D01*
X42288742Y-59179314D02*
X42217314Y-59250742D01*
X42003028Y-59322171D01*
X41860171Y-59322171D01*
X41645885Y-59250742D01*
X41503028Y-59107885D01*
X41431600Y-58965028D01*
X41360171Y-58679314D01*
X41360171Y-58465028D01*
X41431600Y-58179314D01*
X41503028Y-58036457D01*
X41645885Y-57893600D01*
X41860171Y-57822171D01*
X42003028Y-57822171D01*
X42217314Y-57893600D01*
X42288742Y-57965028D01*
X43788742Y-59179314D02*
X43717314Y-59250742D01*
X43503028Y-59322171D01*
X43360171Y-59322171D01*
X43145885Y-59250742D01*
X43003028Y-59107885D01*
X42931600Y-58965028D01*
X42860171Y-58679314D01*
X42860171Y-58465028D01*
X42931600Y-58179314D01*
X43003028Y-58036457D01*
X43145885Y-57893600D01*
X43360171Y-57822171D01*
X43503028Y-57822171D01*
X43717314Y-57893600D01*
X43788742Y-57965028D01*
X28735885Y-57822171D02*
X29593028Y-57822171D01*
X29164457Y-59322171D02*
X29164457Y-57822171D01*
X30950171Y-59322171D02*
X30450171Y-58607885D01*
X30093028Y-59322171D02*
X30093028Y-57822171D01*
X30664457Y-57822171D01*
X30807314Y-57893600D01*
X30878742Y-57965028D01*
X30950171Y-58107885D01*
X30950171Y-58322171D01*
X30878742Y-58465028D01*
X30807314Y-58536457D01*
X30664457Y-58607885D01*
X30093028Y-58607885D01*
X31593028Y-59322171D02*
X31593028Y-57822171D01*
X33093028Y-57893600D02*
X32950171Y-57822171D01*
X32735885Y-57822171D01*
X32521600Y-57893600D01*
X32378742Y-58036457D01*
X32307314Y-58179314D01*
X32235885Y-58465028D01*
X32235885Y-58679314D01*
X32307314Y-58965028D01*
X32378742Y-59107885D01*
X32521600Y-59250742D01*
X32735885Y-59322171D01*
X32878742Y-59322171D01*
X33093028Y-59250742D01*
X33164457Y-59179314D01*
X33164457Y-58679314D01*
X32878742Y-58679314D01*
X34593028Y-57893600D02*
X34450171Y-57822171D01*
X34235885Y-57822171D01*
X34021600Y-57893600D01*
X33878742Y-58036457D01*
X33807314Y-58179314D01*
X33735885Y-58465028D01*
X33735885Y-58679314D01*
X33807314Y-58965028D01*
X33878742Y-59107885D01*
X34021600Y-59250742D01*
X34235885Y-59322171D01*
X34378742Y-59322171D01*
X34593028Y-59250742D01*
X34664457Y-59179314D01*
X34664457Y-58679314D01*
X34378742Y-58679314D01*
X44265885Y-40302361D02*
X45408742Y-40302361D01*
X44837314Y-42302361D02*
X44837314Y-40302361D01*
X46075409Y-40302361D02*
X46075409Y-41921409D01*
X46170647Y-42111885D01*
X46265885Y-42207123D01*
X46456361Y-42302361D01*
X46837314Y-42302361D01*
X47027790Y-42207123D01*
X47123028Y-42111885D01*
X47218266Y-41921409D01*
X47218266Y-40302361D01*
X48170647Y-42302361D02*
X48170647Y-40302361D01*
X49313504Y-42302361D01*
X49313504Y-40302361D01*
X50265885Y-41254742D02*
X50932552Y-41254742D01*
X51218266Y-42302361D02*
X50265885Y-42302361D01*
X50265885Y-40302361D01*
X51218266Y-40302361D01*
X53503980Y-40492838D02*
X53599219Y-40397600D01*
X53789695Y-40302361D01*
X54265885Y-40302361D01*
X54456361Y-40397600D01*
X54551600Y-40492838D01*
X54646838Y-40683314D01*
X54646838Y-40873790D01*
X54551600Y-41159504D01*
X53408742Y-42302361D01*
X54646838Y-42302361D01*
X29025885Y-40302361D02*
X30168742Y-40302361D01*
X29597314Y-42302361D02*
X29597314Y-40302361D01*
X30835409Y-40302361D02*
X30835409Y-41921409D01*
X30930647Y-42111885D01*
X31025885Y-42207123D01*
X31216361Y-42302361D01*
X31597314Y-42302361D01*
X31787790Y-42207123D01*
X31883028Y-42111885D01*
X31978266Y-41921409D01*
X31978266Y-40302361D01*
X32930647Y-42302361D02*
X32930647Y-40302361D01*
X34073504Y-42302361D01*
X34073504Y-40302361D01*
X35025885Y-41254742D02*
X35692552Y-41254742D01*
X35978266Y-42302361D02*
X35025885Y-42302361D01*
X35025885Y-40302361D01*
X35978266Y-40302361D01*
X39406838Y-42302361D02*
X38263980Y-42302361D01*
X38835409Y-42302361D02*
X38835409Y-40302361D01*
X38644933Y-40588076D01*
X38454457Y-40778552D01*
X38263980Y-40873790D01*
G04 #@! TO.C,*
D11*
G04 #@! TD*
M02*
